<svg width="26" height="26" viewBox="0 0 26 26" fill="none" xmlns="http://www.w3.org/2000/svg">
<path d="M6.499 7.80118C6.499 8.27977 6.11102 8.66779 5.63239 8.66779H4.76578C4.28715 8.66779 3.89917 8.27977 3.89917 7.80118C3.89917 7.32255 4.28715 6.93457 4.76578 6.93457H5.63239C6.11102 6.93457 6.499 7.32255 6.499 7.80118Z" fill="#083983"/>
<path d="M9.96491 8.66779C10.4435 8.66779 10.8315 8.27977 10.8315 7.80118C10.8315 7.32255 10.4435 6.93457 9.96491 6.93457H9.0983C8.61967 6.93457 8.23169 7.32255 8.23169 7.80118C8.23169 8.27977 8.61967 8.66779 9.0983 8.66779H9.96491Z" fill="#083983"/>
<path d="M6.499 11.2677C6.499 11.7463 6.11102 12.1343 5.63239 12.1343H4.76578C4.28715 12.1343 3.89917 11.7463 3.89917 11.2677C3.89917 10.7891 4.28715 10.4011 4.76578 10.4011H5.63239C6.11102 10.4011 6.499 10.7891 6.499 11.2677Z" fill="#083983"/>
<path d="M9.96491 12.1343C10.4435 12.1343 10.8315 11.7463 10.8315 11.2677C10.8315 10.7891 10.4435 10.4011 9.96491 10.4011H9.0983C8.61967 10.4011 8.23169 10.7891 8.23169 11.2677C8.23169 11.7463 8.61967 12.1343 9.0983 12.1343H9.96491Z" fill="#083983"/>
<path d="M6.499 14.734C6.499 15.2126 6.11102 15.6007 5.63239 15.6007H4.76578C4.28715 15.6007 3.89917 15.2126 3.89917 14.734C3.89917 14.2554 4.28715 13.8674 4.76578 13.8674H5.63239C6.11102 13.8674 6.499 14.2554 6.499 14.734Z" fill="#083983"/>
<path d="M9.96491 15.6007C10.4435 15.6007 10.8315 15.2126 10.8315 14.734C10.8315 14.2554 10.4435 13.8674 9.96491 13.8674H9.0983C8.61967 13.8674 8.23169 14.2554 8.23169 14.734C8.23169 15.2126 8.61967 15.6007 9.0983 15.6007H9.96491Z" fill="#083983"/>
<path d="M6.499 18.2006C6.499 18.6792 6.11102 19.0672 5.63239 19.0672H4.76578C4.28715 19.0672 3.89917 18.6792 3.89917 18.2006C3.89917 17.722 4.28715 17.334 4.76578 17.334H5.63239C6.11102 17.334 6.499 17.722 6.499 18.2006Z" fill="#083983"/>
<path d="M9.96491 19.0672C10.4435 19.0672 10.8315 18.6792 10.8315 18.2006C10.8315 17.722 10.4435 17.334 9.96491 17.334H9.0983C8.61967 17.334 8.23169 17.722 8.23169 18.2006C8.23169 18.6792 8.61967 19.0672 9.0983 19.0672H9.96491Z" fill="#083983"/>
<path d="M6.499 21.6669C6.499 22.1455 6.11102 22.5335 5.63239 22.5335H4.76578C4.28715 22.5335 3.89917 22.1455 3.89917 21.6669C3.89917 21.1883 4.28715 20.8003 4.76578 20.8003H5.63239C6.11102 20.8003 6.499 21.1883 6.499 21.6669Z" fill="#083983"/>
<path d="M9.96491 22.5335C10.4435 22.5335 10.8315 22.1455 10.8315 21.6669C10.8315 21.1883 10.4435 20.8003 9.96491 20.8003H9.0983C8.61967 20.8003 8.23169 21.1883 8.23169 21.6669C8.23169 22.1455 8.61967 22.5335 9.0983 22.5335H9.96491Z" fill="#083983"/>
<path d="M22.5311 14.734C22.5311 15.2126 22.1431 15.6007 21.6645 15.6007H17.3315C16.8528 15.6007 16.4648 15.2126 16.4648 14.734C16.4648 14.2554 16.8528 13.8674 17.3315 13.8674H21.6645C22.1431 13.8674 22.5311 14.2554 22.5311 14.734Z" fill="#083983"/>
<path d="M21.6645 18.2005C22.1431 18.2005 22.5311 17.8125 22.5311 17.3339C22.5311 16.8553 22.1431 16.4673 21.6645 16.4673H17.3315C16.8528 16.4673 16.4648 16.8553 16.4648 17.3339C16.4648 17.8125 16.8528 18.2005 17.3315 18.2005H21.6645Z" fill="#083983"/>
<path fill-rule="evenodd" clip-rule="evenodd" d="M2.59934 26H23.398C24.8338 26 25.9978 24.836 25.9978 23.4002V13.0008C25.9978 11.565 24.8338 10.401 23.398 10.401H15.5985C15.2946 10.401 15.003 10.4531 14.7319 10.5489V5.57798C14.7319 4.42496 13.9931 3.38863 12.8848 3.04779L3.35212 0.116068C1.65438 -0.40606 -0.000488281 0.903128 -0.000488281 2.64626V23.3566C-0.000488281 24.7961 1.14333 26 2.59934 26ZM2.84263 1.77272C2.31627 1.61083 1.73273 2.00896 1.73273 2.64626V23.3566C1.73273 23.8797 2.14089 24.2668 2.59934 24.2668H12.9987V5.57798C12.9987 5.16171 12.7333 4.81454 12.3754 4.70444L2.84263 1.77272ZM22.0981 24.2668H23.398C23.8766 24.2668 24.2646 23.8788 24.2646 23.4002V13.0008C24.2646 12.5222 23.8766 12.1342 23.398 12.1342H15.5985C15.1199 12.1342 14.7319 12.5222 14.7319 13.0008V24.2668H16.8984V22.5336C16.8984 21.0977 18.0624 19.9337 19.4982 19.9337C20.9341 19.9337 22.0981 21.0977 22.0981 22.5336V24.2668ZM20.3649 24.2668V22.5336C20.3649 22.0549 19.9769 21.6669 19.4982 21.6669C19.0196 21.6669 18.6316 22.0549 18.6316 22.5336V24.2668H20.3649Z" fill="#083983"/>
</svg>
