<svg width="42" height="42" viewBox="0 0 42 42" fill="none" xmlns="http://www.w3.org/2000/svg">
<path d="M14.4995 15.8022C14.4995 16.2807 14.1115 16.6688 13.6329 16.6688H12.7663C12.2876 16.6688 11.8997 16.2807 11.8997 15.8022C11.8997 15.3235 12.2876 14.9355 12.7663 14.9355H13.6329C14.1115 14.9355 14.4995 15.3235 14.4995 15.8022Z" fill="#1F3870"/>
<path d="M17.9654 16.6668C18.444 16.6668 18.832 16.2788 18.832 15.8002C18.832 15.3216 18.444 14.9336 17.9654 14.9336H17.0988C16.6202 14.9336 16.2322 15.3216 16.2322 15.8002C16.2322 16.2788 16.6202 16.6668 17.0988 16.6668H17.9654Z" fill="#1F3870"/>
<path d="M14.4995 19.267C14.4995 19.7456 14.1115 20.1336 13.6329 20.1336H12.7663C12.2876 20.1336 11.8997 19.7456 11.8997 19.267C11.8997 18.7884 12.2876 18.4004 12.7663 18.4004H13.6329C14.1115 18.4004 14.4995 18.7884 14.4995 19.267Z" fill="#1F3870"/>
<path d="M17.9654 20.1336C18.444 20.1336 18.832 19.7456 18.832 19.267C18.832 18.7884 18.444 18.4004 17.9654 18.4004H17.0988C16.6202 18.4004 16.2322 18.7884 16.2322 19.267C16.2322 19.7456 16.6202 20.1336 17.0988 20.1336H17.9654Z" fill="#1F3870"/>
<path d="M14.4995 22.7338C14.4995 23.2124 14.1115 23.6004 13.6329 23.6004H12.7663C12.2876 23.6004 11.8997 23.2124 11.8997 22.7338C11.8997 22.2552 12.2876 21.8672 12.7663 21.8672H13.6329C14.1115 21.8672 14.4995 22.2552 14.4995 22.7338Z" fill="#1F3870"/>
<path d="M17.9654 23.6004C18.444 23.6004 18.832 23.2124 18.832 22.7338C18.832 22.2552 18.444 21.8672 17.9654 21.8672H17.0988C16.6202 21.8672 16.2322 22.2552 16.2322 22.7338C16.2322 23.2124 16.6202 23.6004 17.0988 23.6004H17.9654Z" fill="#1F3870"/>
<path d="M14.4995 26.2006C14.4995 26.6792 14.1115 27.0672 13.6329 27.0672H12.7663C12.2876 27.0672 11.8997 26.6792 11.8997 26.2006C11.8997 25.722 12.2876 25.334 12.7663 25.334H13.6329C14.1115 25.334 14.4995 25.722 14.4995 26.2006Z" fill="#1F3870"/>
<path d="M17.9654 27.0672C18.444 27.0672 18.832 26.6792 18.832 26.2006C18.832 25.722 18.444 25.334 17.9654 25.334H17.0988C16.6202 25.334 16.2322 25.722 16.2322 26.2006C16.2322 26.6792 16.6202 27.0672 17.0988 27.0672H17.9654Z" fill="#1F3870"/>
<path d="M14.4995 29.6674C14.4995 30.146 14.1115 30.534 13.6329 30.534H12.7663C12.2876 30.534 11.8997 30.146 11.8997 29.6674C11.8997 29.1888 12.2876 28.8008 12.7663 28.8008H13.6329C14.1115 28.8008 14.4995 29.1888 14.4995 29.6674Z" fill="#1F3870"/>
<path d="M17.9654 30.534C18.444 30.534 18.832 30.146 18.832 29.6674C18.832 29.1888 18.444 28.8008 17.9654 28.8008H17.0988C16.6202 28.8008 16.2322 29.1888 16.2322 29.6674C16.2322 30.146 16.6202 30.534 17.0988 30.534H17.9654Z" fill="#1F3870"/>
<path d="M30.5315 22.7338C30.5315 23.2124 30.1435 23.6004 29.6649 23.6004H25.3318C24.8532 23.6004 24.4652 23.2124 24.4652 22.7338C24.4652 22.2552 24.8532 21.8672 25.3318 21.8672H29.6649C30.1435 21.8672 30.5315 22.2552 30.5315 22.7338Z" fill="#1F3870"/>
<path d="M29.6649 26.2C30.1435 26.2 30.5315 25.812 30.5315 25.3334C30.5315 24.8548 30.1435 24.4668 29.6649 24.4668H25.3318C24.8532 24.4668 24.4652 24.8548 24.4652 25.3334C24.4652 25.812 24.8532 26.2 25.3318 26.2H29.6649Z" fill="#1F3870"/>
<path fill-rule="evenodd" clip-rule="evenodd" d="M10.5998 34H31.3985C32.8343 34 33.9983 32.836 33.9983 31.4002V21.0008C33.9983 19.565 32.8343 18.401 31.3985 18.401H23.599C23.2951 18.401 23.0035 18.4531 22.7324 18.5489V13.578C22.7324 12.425 21.9936 11.3886 20.8853 11.0478L11.3526 8.11607C9.65487 7.59394 8 8.90313 8 10.6463V31.3566C8 32.7961 9.14382 34 10.5998 34ZM10.8431 9.77272C10.3168 9.61083 9.73322 10.009 9.73322 10.6463V31.3566C9.73322 31.8797 10.1414 32.2668 10.5998 32.2668H20.9992V13.578C20.9992 13.1617 20.7338 12.8145 20.3758 12.7044L10.8431 9.77272ZM30.0986 32.2668H31.3985C31.8771 32.2668 32.2651 31.8788 32.2651 31.4002V21.0008C32.2651 20.5222 31.8771 20.1342 31.3985 20.1342H23.599C23.1204 20.1342 22.7324 20.5222 22.7324 21.0008V32.2668H24.8989V30.5336C24.8989 29.0977 26.0629 27.9337 27.4987 27.9337C28.9346 27.9337 30.0986 29.0977 30.0986 30.5336V32.2668ZM28.3653 32.2668V30.5336C28.3653 30.0549 27.9774 29.6669 27.4987 29.6669C27.0201 29.6669 26.6321 30.0549 26.6321 30.5336V32.2668H28.3653Z" fill="#1F3870"/>
</svg>
