<svg width="25" height="34" viewBox="0 0 25 34" fill="none" xmlns="http://www.w3.org/2000/svg">
<path d="M12.5198 32.7365L12.6138 32.8439L12.7079 32.7365L20.62 23.702C20.7697 23.5389 21.0913 23.1585 21.1047 23.1425L21.1054 23.1417L21.1118 23.1338L21.1122 23.1334C23.1199 20.6745 24.2238 17.471 24.2238 14.1142C24.2238 6.83003 19.0309 0.875 12.614 0.875C6.19712 0.875 1.00415 6.83003 1.00415 14.1142C1.00415 17.4711 2.10804 20.6745 4.11568 23.1334L4.11563 23.1335L4.11845 23.1367L12.5198 32.7365ZM19.6691 22.6253L19.6691 22.6252L19.6669 22.6276L12.6141 30.6805L5.10955 22.1059C3.3365 19.9298 2.35861 17.0926 2.35861 14.1142C2.35861 7.63134 6.97424 2.38619 12.614 2.38619C18.2536 2.38619 22.8694 7.63134 22.8694 14.1142C22.8694 17.0946 21.8899 19.934 20.1146 22.1107C20.0201 22.2223 19.7706 22.5152 19.6691 22.6253Z" fill="#083983" stroke="#083983" stroke-width="0.25"/>
<path d="M6.95654 13.7963C6.95654 17.3522 9.49338 20.2742 12.6453 20.2742C15.7972 20.2742 18.3341 17.3522 18.3341 13.7963C18.3341 10.2403 15.7972 7.31836 12.6453 7.31836C9.49338 7.31836 6.95654 10.2403 6.95654 13.7963ZM8.31102 13.7963C8.31102 11.0416 10.2706 8.82952 12.6453 8.82952C15.0201 8.82952 16.9796 11.0416 16.9796 13.7963C16.9796 16.5509 15.02 18.763 12.6453 18.763C10.2706 18.763 8.31102 16.5509 8.31102 13.7963Z" fill="#083983" stroke="#083983" stroke-width="0.25"/>
</svg>
