<svg width="42" height="42" viewBox="0 0 42 42" fill="none" xmlns="http://www.w3.org/2000/svg">
<g clip-path="url(#clip0_19_7294)">
<path d="M31.6562 15.25H30.875V14.4688C30.875 13.1743 29.8257 12.125 28.5312 12.125H27.75V11.3438C27.75 10.0493 26.7007 9 25.4062 9H11.3438C10.0493 9 9 10.0493 9 11.3438V25.4062C9 26.7007 10.0493 27.75 11.3438 27.75H12.125V28.5312C12.125 29.8257 13.1743 30.875 14.4688 30.875H15.25V31.6562C15.25 32.9507 16.2993 34 17.5938 34H31.6562C32.9507 34 34 32.9507 34 31.6562V17.5938C34 16.2993 32.9507 15.25 31.6562 15.25ZM11.3438 26.1875C10.9123 26.1875 10.5625 25.8377 10.5625 25.4062V11.3438C10.5625 10.9123 10.9123 10.5625 11.3438 10.5625H25.4062C25.8377 10.5625 26.1875 10.9123 26.1875 11.3438V25.4062C26.1875 25.8377 25.8377 26.1875 25.4062 26.1875H11.3438ZM14.4688 29.3125C14.0373 29.3125 13.6875 28.9627 13.6875 28.5312V27.75H25.4062C26.7007 27.75 27.75 26.7007 27.75 25.4062V13.6875H28.5312C28.9627 13.6875 29.3125 14.0373 29.3125 14.4688V28.5312C29.3125 28.9627 28.9627 29.3125 28.5312 29.3125H14.4688ZM32.4375 31.6562C32.4375 32.0877 32.0877 32.4375 31.6562 32.4375H17.5938C17.1623 32.4375 16.8125 32.0877 16.8125 31.6562V30.875H28.5312C29.8257 30.875 30.875 29.8257 30.875 28.5312V16.8125H31.6562C32.0877 16.8125 32.4375 17.1623 32.4375 17.5938V31.6562Z" fill="#1F3870"/>
</g>
<defs>
<clipPath id="clip0_19_7294">
<rect width="25" height="25" fill="white" transform="translate(9 9)"/>
</clipPath>
</defs>
</svg>
