<svg width="25" height="25" viewBox="0 0 25 25" fill="none" xmlns="http://www.w3.org/2000/svg">
<g clip-path="url(#clip0_1_7050)">
<path d="M22.6562 6.25H21.875V5.46875C21.875 4.17432 20.8257 3.125 19.5312 3.125H18.75V2.34375C18.75 1.04932 17.7007 0 16.4062 0H2.34375C1.04932 0 0 1.04932 0 2.34375V16.4062C0 17.7007 1.04932 18.75 2.34375 18.75H3.125V19.5312C3.125 20.8257 4.17432 21.875 5.46875 21.875H6.25V22.6562C6.25 23.9507 7.29932 25 8.59375 25H22.6562C23.9507 25 25 23.9507 25 22.6562V8.59375C25 7.29932 23.9507 6.25 22.6562 6.25ZM2.34375 17.1875C1.91226 17.1875 1.5625 16.8377 1.5625 16.4062V2.34375C1.5625 1.91226 1.91226 1.5625 2.34375 1.5625H16.4062C16.8377 1.5625 17.1875 1.91226 17.1875 2.34375V16.4062C17.1875 16.8377 16.8377 17.1875 16.4062 17.1875H2.34375ZM5.46875 20.3125C5.03726 20.3125 4.6875 19.9627 4.6875 19.5312V18.75H16.4062C17.7007 18.75 18.75 17.7007 18.75 16.4062V4.6875H19.5312C19.9627 4.6875 20.3125 5.03726 20.3125 5.46875V19.5312C20.3125 19.9627 19.9627 20.3125 19.5312 20.3125H5.46875ZM23.4375 22.6562C23.4375 23.0877 23.0877 23.4375 22.6562 23.4375H8.59375C8.16226 23.4375 7.8125 23.0877 7.8125 22.6562V21.875H19.5312C20.8257 21.875 21.875 20.8257 21.875 19.5312V7.8125H22.6562C23.0877 7.8125 23.4375 8.16226 23.4375 8.59375V22.6562Z" fill="#083983"/>
</g>
<defs>
<clipPath id="clip0_1_7050">
<rect width="25" height="25" fill="white"/>
</clipPath>
</defs>
</svg>
