<svg width="26" height="36" viewBox="0 0 26 36" fill="none" xmlns="http://www.w3.org/2000/svg">
<path d="M5.125 4.5H7.375V2.25C6.75372 2.25 6.25 1.74628 6.25 1.125C6.25 0.503719 6.75372 0 7.375 0C8.98023 0 17.016 0 18.625 0C19.2463 0 19.75 0.503719 19.75 1.125C19.75 1.74628 19.2463 2.25 18.625 2.25V4.5H20.875C23.3563 4.5 25.375 6.51867 25.375 9V29.25C25.375 31.7313 23.3563 33.75 20.875 33.75H20.3125V34.875C20.3125 35.4963 19.8088 36 19.1875 36C18.5662 36 18.0625 35.4963 18.0625 34.875V33.75H7.9375V34.875C7.9375 35.4963 7.43378 36 6.8125 36C6.19122 36 5.6875 35.4963 5.6875 34.875V33.75H5.125C2.64367 33.75 0.625 31.7313 0.625 29.25V9C0.625 6.51867 2.64367 4.5 5.125 4.5ZM16.375 2.25H9.625V4.5H16.375V2.25ZM17.5 27.5625C17.5 28.1841 18.0034 28.6875 18.625 28.6875C19.2466 28.6875 19.75 28.1841 19.75 27.5625V10.6875C19.75 10.0659 19.2466 9.5625 18.625 9.5625C18.0034 9.5625 17.5 10.0659 17.5 10.6875V27.5625ZM11.875 27.5625C11.875 28.1841 12.3784 28.6875 13 28.6875C13.6216 28.6875 14.125 28.1841 14.125 27.5625V10.6875C14.125 10.0659 13.6216 9.5625 13 9.5625C12.3784 9.5625 11.875 10.0659 11.875 10.6875V27.5625ZM8.5 27.5625V10.6875C8.5 10.0659 7.99656 9.5625 7.375 9.5625C6.75344 9.5625 6.25 10.0659 6.25 10.6875V27.5625C6.25 28.1841 6.75344 28.6875 7.375 28.6875C7.99656 28.6875 8.5 28.1841 8.5 27.5625Z" fill="#083983"/>
</svg>
