<svg width="42" height="42" viewBox="0 0 42 42" fill="none" xmlns="http://www.w3.org/2000/svg">
<path d="M16.875 7.25C16.0121 7.25 15.3125 7.94958 15.3125 8.8125C15.3125 9.40347 15.641 9.91711 16.125 10.1826V10.5H15.25C13.0437 10.5 11.25 12.2937 11.25 14.5V29.125C11.25 31.2155 12.8604 32.9346 14.9062 33.1094V33.1875C14.9062 34.0504 15.6058 34.75 16.4688 34.75C17.3317 34.75 18.0312 34.0504 18.0312 33.1875V33.125H23.8438V33.1875C23.8438 34.0504 24.5433 34.75 25.4062 34.75C26.2692 34.75 26.9688 34.0504 26.9688 33.1875V33.1094C29.0146 32.9346 30.625 31.2155 30.625 29.125V14.5C30.625 12.2937 28.8313 10.5 26.625 10.5H25.75V10.1826C26.234 9.91711 26.5625 9.40347 26.5625 8.8125C26.5625 7.94958 25.8629 7.25 25 7.25H16.875ZM25 15.6562C25.0347 15.6562 25.0625 15.6841 25.0625 15.7188V27.9062C25.0625 27.9409 25.0347 27.9688 25 27.9688C24.9653 27.9688 24.9375 27.9409 24.9375 27.9062V15.7188C24.9375 15.6841 24.9653 15.6562 25 15.6562ZM20.9375 15.6562C20.9722 15.6562 21 15.6841 21 15.7188V27.9062C21 27.9409 20.9722 27.9688 20.9375 27.9688C20.9028 27.9688 20.875 27.9409 20.875 27.9062V15.7188C20.875 15.6841 20.9028 15.6562 20.9375 15.6562ZM16.875 15.6562C16.9097 15.6562 16.9375 15.6841 16.9375 15.7188V27.9062C16.9375 27.9409 16.9097 27.9688 16.875 27.9688C16.8403 27.9688 16.8125 27.9409 16.8125 27.9062V15.7188C16.8125 15.6841 16.8403 15.6562 16.875 15.6562ZM22.625 10.5H19.25V10.375H22.625V10.5Z" fill="white" stroke="#083983" stroke-width="1.5"/>
</svg>
