<svg width="20" height="29" viewBox="0 0 20 29" fill="none" xmlns="http://www.w3.org/2000/svg">
<path d="M2.95654 4.9873V23.3518C2.95654 24.6348 3.99663 25.6749 5.27963 25.6749H14.4509" stroke="#083983" stroke-width="1.5" stroke-miterlimit="10" stroke-linecap="round" stroke-linejoin="round"/>
<path d="M2.95654 15.9021C2.95654 17.1851 3.99663 18.2252 5.27963 18.2252H14.4509" stroke="#083983" stroke-width="1.5" stroke-miterlimit="10" stroke-linecap="round" stroke-linejoin="round"/>
<path d="M16.4076 20.1816C17.488 20.1816 18.3639 19.3057 18.3639 18.2252C18.3639 17.1447 17.488 16.2688 16.4076 16.2688C15.3271 16.2688 14.4512 17.1447 14.4512 18.2252C14.4512 19.3057 15.3271 20.1816 16.4076 20.1816Z" stroke="#083983" stroke-width="1.5" stroke-miterlimit="10" stroke-linecap="round" stroke-linejoin="round"/>
<path d="M2.95654 8.26904C2.95654 9.55204 3.99663 10.5921 5.27963 10.5921H14.4509" stroke="#083983" stroke-width="1.5" stroke-miterlimit="10" stroke-linecap="round" stroke-linejoin="round"/>
<path d="M16.4076 12.5485C17.488 12.5485 18.3639 11.6726 18.3639 10.5921C18.3639 9.51165 17.488 8.63574 16.4076 8.63574C15.3271 8.63574 14.4512 9.51165 14.4512 10.5921C14.4512 11.6726 15.3271 12.5485 16.4076 12.5485Z" stroke="#083983" stroke-width="1.5" stroke-miterlimit="10" stroke-linecap="round" stroke-linejoin="round"/>
<path d="M16.4071 27.6313C17.4876 27.6313 18.3635 26.7554 18.3635 25.6749C18.3635 24.5944 17.4876 23.7185 16.4071 23.7185C15.3266 23.7185 14.4507 24.5944 14.4507 25.6749C14.4507 26.7554 15.3266 27.6313 16.4071 27.6313Z" stroke="#083983" stroke-width="1.5" stroke-miterlimit="10" stroke-linecap="round" stroke-linejoin="round"/>
<path d="M2.95639 4.91278C4.03687 4.91278 4.91278 4.03687 4.91278 2.95639C4.91278 1.87591 4.03687 1 2.95639 1C1.87591 1 1 1.87591 1 2.95639C1 4.03687 1.87591 4.91278 2.95639 4.91278Z" stroke="#083983" stroke-width="1.5" stroke-miterlimit="10" stroke-linecap="round" stroke-linejoin="round"/>
</svg>
