<svg width="42" height="42" viewBox="0 0 42 42" fill="none" xmlns="http://www.w3.org/2000/svg">
<path d="M13.9564 11.9863V30.3508C13.9564 31.6338 14.9965 32.6739 16.2795 32.6739H25.4508" stroke="#1F3870" stroke-width="1.5" stroke-miterlimit="10" stroke-linecap="round" stroke-linejoin="round"/>
<path d="M13.9564 22.9023C13.9564 24.1853 14.9965 25.2254 16.2795 25.2254H25.4508" stroke="#1F3870" stroke-width="1.5" stroke-miterlimit="10" stroke-linecap="round" stroke-linejoin="round"/>
<path d="M27.4076 27.1823C28.488 27.1823 29.3639 26.3064 29.3639 25.2259C29.3639 24.1454 28.488 23.2695 27.4076 23.2695C26.3271 23.2695 25.4512 24.1454 25.4512 25.2259C25.4512 26.3064 26.3271 27.1823 27.4076 27.1823Z" stroke="#1F3870" stroke-width="1.5" stroke-miterlimit="10" stroke-linecap="round" stroke-linejoin="round"/>
<path d="M13.9564 15.2695C13.9564 16.5525 14.9965 17.5926 16.2795 17.5926H25.4508" stroke="#1F3870" stroke-width="1.5" stroke-miterlimit="10" stroke-linecap="round" stroke-linejoin="round"/>
<path d="M27.4076 19.5495C28.488 19.5495 29.3639 18.6736 29.3639 17.5931C29.3639 16.5126 28.488 15.6367 27.4076 15.6367C26.3271 15.6367 25.4512 16.5126 25.4512 17.5931C25.4512 18.6736 26.3271 19.5495 27.4076 19.5495Z" stroke="#1F3870" stroke-width="1.5" stroke-miterlimit="10" stroke-linecap="round" stroke-linejoin="round"/>
<path d="M27.4071 34.6315C28.4876 34.6315 29.3635 33.7556 29.3635 32.6751C29.3635 31.5947 28.4876 30.7188 27.4071 30.7188C26.3266 30.7188 25.4507 31.5947 25.4507 32.6751C25.4507 33.7556 26.3266 34.6315 27.4071 34.6315Z" stroke="#1F3870" stroke-width="1.5" stroke-miterlimit="10" stroke-linecap="round" stroke-linejoin="round"/>
<path d="M13.9564 11.9128C15.0369 11.9128 15.9128 11.0369 15.9128 9.95639C15.9128 8.87591 15.0369 8 13.9564 8C12.8759 8 12 8.87591 12 9.95639C12 11.0369 12.8759 11.9128 13.9564 11.9128Z" stroke="#1F3870" stroke-width="1.5" stroke-miterlimit="10" stroke-linecap="round" stroke-linejoin="round"/>
</svg>
