<svg width="41" height="41" viewBox="0 0 41 41" fill="none" xmlns="http://www.w3.org/2000/svg">
<path d="M20.5 38.4375C23.5897 38.4375 26.627 37.6394 29.3176 36.1206C32.0083 34.6018 34.261 32.4137 35.8574 29.7684C37.4539 27.1231 38.34 24.1103 38.4299 21.0219C38.5198 17.9335 37.8104 14.8743 36.3705 12.1406C36.2901 11.9918 36.1542 11.8809 35.9924 11.8319C35.8305 11.7829 35.6559 11.7999 35.5065 11.8792C35.3572 11.9585 35.2452 12.0935 35.195 12.255C35.1449 12.4165 35.1606 12.5912 35.2387 12.7412C36.4999 15.1328 37.1581 17.7962 37.1562 20.5C36.2433 42.5933 4.75646 42.5935 3.84374 20.4999C3.68946 8.14759 17.4251 -0.131747 28.2589 5.76147C28.409 5.8411 28.5846 5.85783 28.7471 5.80799C28.9095 5.75815 29.0455 5.64582 29.1251 5.49571C29.2048 5.3456 29.2215 5.17001 29.1717 5.00756C29.1218 4.84511 29.0095 4.70911 28.8594 4.62949C26.2827 3.27026 23.4132 2.56071 20.5 2.5625C-3.2931 3.54558 -3.29283 37.4549 20.5 38.4375Z" fill="#083983"/>
<path d="M20.4999 15.3751C21.0546 15.3747 21.6055 15.4668 22.13 15.6475C22.2906 15.7028 22.4666 15.6921 22.6193 15.6177C22.772 15.5432 22.8888 15.4112 22.9442 15.2506C23.2256 14.1173 21.2304 14.1625 20.5 14.0938C12.0023 14.445 12.0026 26.5555 20.5 26.9064C22.1985 26.9044 23.8268 26.2289 25.0278 25.0279C26.2288 23.8269 26.9043 22.1985 26.9062 20.5001C26.8408 19.7565 26.8841 17.782 25.7558 18.0624C25.6762 18.0897 25.6028 18.1325 25.5398 18.1882C25.4768 18.244 25.4253 18.3116 25.3885 18.3872C25.3516 18.4628 25.33 18.545 25.3249 18.629C25.3198 18.7129 25.3313 18.7971 25.3587 18.8766C25.537 19.3992 25.627 19.9479 25.6249 20.5001C25.3681 27.2886 15.6318 27.2888 15.3749 20.5C15.3765 19.1413 15.917 17.8386 16.8778 16.8779C17.8385 15.9171 19.1412 15.3766 20.4999 15.3751Z" fill="#083983"/>
<path d="M26.6338 10.7208C26.6746 10.6472 26.7005 10.5663 26.7101 10.4827C26.7196 10.3991 26.7126 10.3145 26.6894 10.2336C26.6662 10.1528 26.6273 10.0773 26.575 10.0114C26.5226 9.94557 26.4578 9.8907 26.3842 9.84992C24.5831 8.853 22.5585 8.3294 20.5 8.32812C4.3547 8.99542 4.35491 32.0049 20.5001 32.6719C22.6174 32.6731 24.6985 32.1217 26.5373 31.0721C28.3762 30.0225 29.9093 28.5111 30.985 26.6873C32.0607 24.8636 32.6418 22.7906 32.6707 20.6735C32.6997 18.5563 32.1755 16.4683 31.1501 14.6158C31.1095 14.5419 31.0547 14.4767 30.9888 14.424C30.923 14.3713 30.8474 14.3322 30.7663 14.3088C30.6853 14.2854 30.6005 14.2782 30.5167 14.2877C30.4329 14.2971 30.3518 14.3231 30.278 14.364C30.2042 14.4049 30.1393 14.4599 30.0869 14.526C30.0344 14.592 29.9956 14.6678 29.9725 14.7489C29.9494 14.83 29.9426 14.9149 29.9524 14.9987C29.9622 15.0824 29.9884 15.1634 30.0296 15.237C34.0902 22.2793 28.6354 31.5317 20.4998 31.3905C17.6125 31.3873 14.8443 30.2389 12.8026 28.1972C10.761 26.1555 9.61257 23.3874 9.60937 20.5C9.46983 12.3647 18.7197 6.90919 25.763 10.9706C25.8366 11.0115 25.9175 11.0375 26.0011 11.0471C26.0847 11.0567 26.1694 11.0497 26.2503 11.0265C26.3312 11.0033 26.4067 10.9643 26.4725 10.9119C26.5383 10.8594 26.5931 10.7945 26.6338 10.7208Z" fill="#083983"/>
<path d="M27.8825 8.90415L28.1178 11.9768L20.0471 20.0475C19.931 20.1685 19.867 20.3301 19.8687 20.4978C19.8704 20.6654 19.9378 20.8256 20.0563 20.9442C20.1749 21.0627 20.3351 21.1301 20.5028 21.1318C20.6704 21.1335 20.832 21.0695 20.953 20.9534L29.0236 12.8827L32.0963 13.1179C32.1884 13.125 32.2809 13.112 32.3675 13.08C32.4541 13.0479 32.5327 12.9975 32.598 12.9322L37.2607 8.2698C37.3456 8.18244 37.4039 8.07285 37.4291 7.9537C37.4543 7.83455 37.4452 7.71071 37.4029 7.59651C37.3606 7.4823 37.2868 7.3824 37.1902 7.30836C37.0935 7.23433 36.9778 7.18917 36.8565 7.17813L34.0382 6.96228L33.8223 4.14388C33.8112 4.02263 33.7661 3.907 33.692 3.81036C33.6179 3.71371 33.5181 3.64 33.4039 3.59773C33.2897 3.55547 33.1659 3.54638 33.0467 3.57152C32.9276 3.59666 32.818 3.65499 32.7306 3.73979L28.0683 8.4024C28.003 8.46766 27.9525 8.5463 27.9204 8.63291C27.8883 8.71952 27.8754 8.81206 27.8825 8.90415ZM32.6512 5.63095C32.9076 8.61434 32.403 8.08917 35.3695 8.34921L31.9005 11.8179L29.3758 11.6246L29.1825 9.09995L32.6512 5.63095Z" fill="#083983"/>
</svg>
