<svg width="29" height="30" viewBox="0 0 29 30" fill="none" xmlns="http://www.w3.org/2000/svg">
<path fill-rule="evenodd" clip-rule="evenodd" d="M13.9291 0.190865C14.2878 -0.0636216 14.755 -0.0636216 15.1138 0.190865L27.8346 9.21703C28.7137 9.84073 28.2988 11.2991 27.2423 11.2991H1.80046C0.743988 11.2991 0.329127 9.84075 1.20817 9.21703L13.9291 0.190865ZM14.5215 1.72183L3.31187 9.67556H25.731L14.5215 1.72183ZM26.9885 10.5679C26.9883 10.5677 26.9886 10.568 26.9885 10.5679V10.5679Z" fill="#083983"/>
<path fill-rule="evenodd" clip-rule="evenodd" d="M23.6738 23.4747C23.2527 23.4747 22.9111 23.1112 22.9111 22.663V13.7336C22.9111 13.2854 23.2527 12.9219 23.6738 12.9219C24.095 12.9219 24.4365 13.2854 24.4365 13.7336V22.663C24.4365 23.1112 24.095 23.4747 23.6738 23.4747Z" fill="#083983"/>
<path fill-rule="evenodd" clip-rule="evenodd" d="M17.5723 23.4747C17.1511 23.4747 16.8096 23.1112 16.8096 22.663V13.7336C16.8096 13.2854 17.1511 12.9219 17.5723 12.9219C17.9934 12.9219 18.335 13.2854 18.335 13.7336V22.663C18.335 23.1112 17.9934 23.4747 17.5723 23.4747Z" fill="#083983"/>
<path fill-rule="evenodd" clip-rule="evenodd" d="M11.4705 23.4747C11.0492 23.4747 10.7078 23.1112 10.7078 22.663V13.7336C10.7078 13.2854 11.0492 12.9219 11.4705 12.9219C11.8916 12.9219 12.2332 13.2854 12.2332 13.7336V22.663C12.2332 23.1112 11.8916 23.4747 11.4705 23.4747Z" fill="#083983"/>
<path fill-rule="evenodd" clip-rule="evenodd" d="M5.3689 23.4747C4.94768 23.4747 4.6062 23.1112 4.6062 22.663V13.7336C4.6062 13.2854 4.94768 12.9219 5.3689 12.9219C5.79012 12.9219 6.1316 13.2854 6.1316 13.7336V22.663C6.1316 23.1112 5.79012 23.4747 5.3689 23.4747Z" fill="#083983"/>
<path fill-rule="evenodd" clip-rule="evenodd" d="M1.55542 27.5349C1.55542 26.19 2.57983 25.0996 3.84351 25.0996H25.199C26.4627 25.0996 27.4871 26.19 27.4871 27.5349C27.4871 28.8798 26.4627 29.9702 25.199 29.9702H3.84351C2.57983 29.9702 1.55542 28.8798 1.55542 27.5349ZM3.84351 26.7231C3.42229 26.7231 3.08081 27.0866 3.08081 27.5349C3.08081 27.9831 3.42229 28.3466 3.84351 28.3466H25.199C25.6202 28.3466 25.9617 27.9831 25.9617 27.5349C25.9617 27.0866 25.6202 26.7231 25.199 26.7231H3.84351Z" fill="#083983"/>
</svg>
