<svg width="17" height="15" viewBox="0 0 17 15" fill="none" xmlns="http://www.w3.org/2000/svg">
<g clip-path="url(#clip0_1_4808)">
<path d="M14.2496 0.882324H12.841V2.20585C12.841 2.47056 12.6062 2.64703 12.3714 2.64703C12.1366 2.64703 11.9018 2.47056 11.9018 2.20585V0.882324H4.38894V2.20585C4.38894 2.47056 4.15416 2.64703 3.91938 2.64703C3.68461 2.64703 3.44983 2.47056 3.44983 2.20585V0.882324H2.04116C1.33682 0.882324 0.820312 1.45585 0.820312 2.20585V3.79409H15.8461V2.20585C15.8461 1.45585 15.0009 0.882324 14.2496 0.882324ZM0.820312 4.72056V12.7941C0.820312 13.5882 1.33682 14.1176 2.08811 14.1176H14.2966C15.0479 14.1176 15.8931 13.5441 15.8931 12.7941V4.72056H0.820312ZM4.99936 12.1323H3.87243C3.68461 12.1323 3.49678 12 3.49678 11.7794V10.6764C3.49678 10.5 3.63765 10.3235 3.87243 10.3235H5.04632C5.23414 10.3235 5.42196 10.4559 5.42196 10.6764V11.7794C5.37501 12 5.23414 12.1323 4.99936 12.1323ZM4.99936 8.16174H3.87243C3.68461 8.16174 3.49678 8.02938 3.49678 7.80879V6.70585C3.49678 6.52938 3.63765 6.35291 3.87243 6.35291H5.04632C5.23414 6.35291 5.42196 6.48527 5.42196 6.70585V7.80879C5.37501 8.02938 5.23414 8.16174 4.99936 8.16174ZM8.75581 12.1323H7.58192C7.3941 12.1323 7.20628 12 7.20628 11.7794V10.6764C7.20628 10.5 7.34714 10.3235 7.58192 10.3235H8.75581C8.94363 10.3235 9.13146 10.4559 9.13146 10.6764V11.7794C9.13146 12 8.99059 12.1323 8.75581 12.1323ZM8.75581 8.16174H7.58192C7.3941 8.16174 7.20628 8.02938 7.20628 7.80879V6.70585C7.20628 6.52938 7.34714 6.35291 7.58192 6.35291H8.75581C8.94363 6.35291 9.13146 6.48527 9.13146 6.70585V7.80879C9.13146 8.02938 8.99059 8.16174 8.75581 8.16174ZM12.5123 12.1323H11.3384C11.1505 12.1323 10.9627 12 10.9627 11.7794V10.6764C10.9627 10.5 11.1036 10.3235 11.3384 10.3235H12.5123C12.7001 10.3235 12.8879 10.4559 12.8879 10.6764V11.7794C12.8879 12 12.747 12.1323 12.5123 12.1323ZM12.5123 8.16174H11.3384C11.1505 8.16174 10.9627 8.02938 10.9627 7.80879V6.70585C10.9627 6.52938 11.1036 6.35291 11.3384 6.35291H12.5123C12.7001 6.35291 12.8879 6.48527 12.8879 6.70585V7.80879C12.8879 8.02938 12.747 8.16174 12.5123 8.16174Z" fill="black"/>
</g>
<defs>
<clipPath id="clip0_1_4808">
<rect width="15.9649" height="15" fill="white" transform="translate(0.35083)"/>
</clipPath>
</defs>
</svg>
