<svg width="30" height="30" viewBox="0 0 30 30" fill="none" xmlns="http://www.w3.org/2000/svg">
<path d="M28.867 7.55043C28.6886 4.58322 26.2109 2.25858 23.2267 2.25858H21.7739V1.12929C21.7739 0.505922 21.268 0 20.6446 0C20.0213 0 19.5153 0.505922 19.5153 1.12929V2.25858H10.481V1.12929C10.481 0.505922 9.97509 0 9.35172 0C8.72836 0 8.22243 0.505922 8.22243 1.12929V2.25858H6.7696C3.78489 2.25858 1.30723 4.58322 1.12936 7.55043C0.79453 13.1314 0.800741 18.7925 1.148 24.3763C1.32417 27.2119 3.59573 29.4835 6.43138 29.6597C9.27324 29.8364 12.1354 29.9245 14.9976 29.9245C17.8592 29.9245 20.722 29.8364 23.5638 29.6597C26.3995 29.4835 28.6711 27.2119 28.8472 24.3763C29.195 18.7953 29.2013 13.1348 28.867 7.55043ZM26.5937 24.2363C26.4876 25.9375 25.1251 27.3 23.4244 27.4056C17.8333 27.7529 12.1631 27.7529 6.57198 27.4056C4.8707 27.2995 3.50821 25.937 3.40263 24.2363C3.13555 19.9433 3.08078 15.6051 3.22363 11.2929H26.7733C26.9156 15.6068 26.8608 19.945 26.5937 24.2363ZM9.35172 6.77574C9.97509 6.77574 10.481 6.26982 10.481 5.64645V4.51716H19.5153V5.64645C19.5153 6.26982 20.0213 6.77574 20.6446 6.77574C21.268 6.77574 21.7739 6.26982 21.7739 5.64645V4.51716H23.2267C25.0184 4.51716 26.5056 5.90901 26.6124 7.68538C26.6389 8.13371 26.6502 8.58486 26.6722 9.03432H3.32414C3.34673 8.58486 3.35745 8.13371 3.38399 7.68538C3.49071 5.90901 4.97742 4.51716 6.7696 4.51716H8.22243V5.64645C8.22243 6.26982 8.72836 6.77574 9.35172 6.77574Z" fill="white"/>
<path d="M9.35189 18.0695C10.2874 18.0695 11.0458 17.3111 11.0458 16.3756C11.0458 15.44 10.2874 14.6816 9.35189 14.6816C8.41636 14.6816 7.65796 15.44 7.65796 16.3756C7.65796 17.3111 8.41636 18.0695 9.35189 18.0695Z" fill="white"/>
<path d="M14.9984 18.0695C15.9339 18.0695 16.6923 17.3111 16.6923 16.3756C16.6923 15.44 15.9339 14.6816 14.9984 14.6816C14.0628 14.6816 13.3044 15.44 13.3044 16.3756C13.3044 17.3111 14.0628 18.0695 14.9984 18.0695Z" fill="white"/>
<path d="M9.35189 23.716C10.2874 23.716 11.0458 22.9576 11.0458 22.0221C11.0458 21.0865 10.2874 20.3281 9.35189 20.3281C8.41636 20.3281 7.65796 21.0865 7.65796 22.0221C7.65796 22.9576 8.41636 23.716 9.35189 23.716Z" fill="white"/>
<path d="M20.6446 18.0695C21.5802 18.0695 22.3386 17.3111 22.3386 16.3756C22.3386 15.44 21.5802 14.6816 20.6446 14.6816C19.7091 14.6816 18.9507 15.44 18.9507 16.3756C18.9507 17.3111 19.7091 18.0695 20.6446 18.0695Z" fill="white"/>
<path d="M20.6446 23.716C21.5802 23.716 22.3386 22.9576 22.3386 22.0221C22.3386 21.0865 21.5802 20.3281 20.6446 20.3281C19.7091 20.3281 18.9507 21.0865 18.9507 22.0221C18.9507 22.9576 19.7091 23.716 20.6446 23.716Z" fill="white"/>
<path d="M14.9984 23.716C15.9339 23.716 16.6923 22.9576 16.6923 22.0221C16.6923 21.0865 15.9339 20.3281 14.9984 20.3281C14.0628 20.3281 13.3044 21.0865 13.3044 22.0221C13.3044 22.9576 14.0628 23.716 14.9984 23.716Z" fill="white"/>
</svg>
