<svg width="25" height="25" viewBox="0 0 25 25" fill="none" xmlns="http://www.w3.org/2000/svg">
<g clip-path="url(#clip0_1_1571)">
<mask id="mask0_1_1571" style="mask-type:luminance" maskUnits="userSpaceOnUse" x="0" y="0" width="25" height="25">
<path d="M25 0H0V25H25V0Z" fill="white"/>
<path d="M6.10352 9.27734C5.56416 9.27734 5.12695 9.71455 5.12695 10.2539C5.12695 10.7933 5.56416 11.2305 6.10352 11.2305C6.64287 11.2305 7.08008 10.7933 7.08008 10.2539C7.08008 9.71455 6.64287 9.27734 6.10352 9.27734Z" fill="white"/>
<path d="M10.3516 9.27734C9.81221 9.27734 9.375 9.71455 9.375 10.2539C9.375 10.7933 9.81221 11.2305 10.3516 11.2305C10.8909 11.2305 11.3281 10.7933 11.3281 10.2539C11.3281 9.71455 10.8909 9.27734 10.3516 9.27734Z" fill="white"/>
<path d="M14.5996 9.27734C14.0603 9.27734 13.623 9.71455 13.623 10.2539C13.623 10.7933 14.0603 11.2305 14.5996 11.2305C15.139 11.2305 15.5762 10.7933 15.5762 10.2539C15.5762 9.71455 15.139 9.27734 14.5996 9.27734Z" fill="white"/>
<path d="M18.8477 9.27734C18.3083 9.27734 17.8711 9.71455 17.8711 10.2539C17.8711 10.7933 18.3083 11.2305 18.8477 11.2305C19.387 11.2305 19.8242 10.7933 19.8242 10.2539C19.8242 9.71455 19.387 9.27734 18.8477 9.27734Z" fill="white"/>
<path d="M7.08008 14.502C7.08008 13.9626 6.64287 13.5254 6.10352 13.5254C5.56416 13.5254 5.12695 13.9626 5.12695 14.502C5.12695 15.0413 5.56416 15.4785 6.10352 15.4785C6.64287 15.4785 7.08008 15.0413 7.08008 14.502Z" fill="white"/>
<path d="M7.08008 18.75C7.08008 18.2106 6.64287 17.7734 6.10352 17.7734C5.56416 17.7734 5.12695 18.2106 5.12695 18.75C5.12695 19.2894 5.56416 19.7266 6.10352 19.7266C6.64287 19.7266 7.08008 19.2894 7.08008 18.75Z" fill="white"/>
<path d="M11.3281 14.502C11.3281 13.9626 10.8909 13.5254 10.3516 13.5254C9.81221 13.5254 9.375 13.9626 9.375 14.502C9.375 15.0413 9.81221 15.4785 10.3516 15.4785C10.8909 15.4785 11.3281 15.0413 11.3281 14.502Z" fill="white"/>
<path d="M11.3281 18.75C11.3281 18.2106 10.8909 17.7734 10.3516 17.7734C9.81221 17.7734 9.375 18.2106 9.375 18.75C9.375 19.2894 9.81221 19.7266 10.3516 19.7266C10.8909 19.7266 11.3281 19.2894 11.3281 18.75Z" fill="white"/>
<path d="M10.3516 9.27734C9.81221 9.27734 9.375 9.71455 9.375 10.2539C9.375 10.7933 9.81221 11.2305 10.3516 11.2305C10.8909 11.2305 11.3281 10.7933 11.3281 10.2539C11.3281 9.71455 10.8909 9.27734 10.3516 9.27734Z" fill="white"/>
<path d="M11.3281 14.502C11.3281 13.9626 10.8909 13.5254 10.3516 13.5254C9.81221 13.5254 9.375 13.9626 9.375 14.502C9.375 15.0413 9.81221 15.4785 10.3516 15.4785C10.8909 15.4785 11.3281 15.0413 11.3281 14.502Z" fill="white"/>
<path d="M11.3281 18.75C11.3281 18.2106 10.8909 17.7734 10.3516 17.7734C9.81221 17.7734 9.375 18.2106 9.375 18.75C9.375 19.2894 9.81221 19.7266 10.3516 19.7266C10.8909 19.7266 11.3281 19.2894 11.3281 18.75Z" fill="white"/>
<path d="M15.5762 14.502C15.5762 13.9626 15.139 13.5254 14.5996 13.5254C14.0603 13.5254 13.623 13.9626 13.623 14.502C13.623 15.0413 14.0603 15.4785 14.5996 15.4785C15.139 15.4785 15.5762 15.0413 15.5762 14.502Z" fill="white"/>
<path d="M19.8242 14.502C19.8242 13.9626 19.387 13.5254 18.8477 13.5254C18.3083 13.5254 17.8711 13.9626 17.8711 14.502C17.8711 15.0413 18.3083 15.4785 18.8477 15.4785C19.387 15.4785 19.8242 15.0413 19.8242 14.502Z" fill="white"/>
</mask>
<g mask="url(#mask0_1_1571)">
<mask id="mask1_1_1571" style="mask-type:luminance" maskUnits="userSpaceOnUse" x="0" y="0" width="25" height="25">
<path d="M0 1.90735e-06H25V25H0V1.90735e-06Z" fill="white"/>
</mask>
<g mask="url(#mask1_1_1571)">
<path d="M12.1094 24.0234H3.90625C2.28823 24.0234 0.976562 22.7118 0.976562 21.0938V5.85938C0.976562 4.24136 2.28823 2.92969 3.90625 2.92969H21.0937C22.7118 2.92969 24.0234 4.24136 24.0234 5.85938V12.793" stroke="#073881" stroke-width="2" stroke-miterlimit="10" stroke-linecap="round" stroke-linejoin="round"/>
<path d="M6.10352 9.27734C5.56416 9.27734 5.12695 9.71455 5.12695 10.2539C5.12695 10.7933 5.56416 11.2305 6.10352 11.2305C6.64287 11.2305 7.08008 10.7933 7.08008 10.2539C7.08008 9.71455 6.64287 9.27734 6.10352 9.27734Z" fill="#073881"/>
<path d="M10.3516 9.27734C9.81221 9.27734 9.375 9.71455 9.375 10.2539C9.375 10.7933 9.81221 11.2305 10.3516 11.2305C10.8909 11.2305 11.3281 10.7933 11.3281 10.2539C11.3281 9.71455 10.8909 9.27734 10.3516 9.27734Z" fill="#073881"/>
<path d="M14.5996 9.27734C14.0603 9.27734 13.623 9.71455 13.623 10.2539C13.623 10.7933 14.0603 11.2305 14.5996 11.2305C15.139 11.2305 15.5762 10.7933 15.5762 10.2539C15.5762 9.71455 15.139 9.27734 14.5996 9.27734Z" fill="#073881"/>
<path d="M18.8477 9.27734C18.3083 9.27734 17.8711 9.71455 17.8711 10.2539C17.8711 10.7933 18.3083 11.2305 18.8477 11.2305C19.387 11.2305 19.8242 10.7933 19.8242 10.2539C19.8242 9.71455 19.387 9.27734 18.8477 9.27734Z" fill="#073881"/>
<path d="M7.08008 14.502C7.08008 13.9626 6.64287 13.5254 6.10352 13.5254C5.56416 13.5254 5.12695 13.9626 5.12695 14.502C5.12695 15.0413 5.56416 15.4785 6.10352 15.4785C6.64287 15.4785 7.08008 15.0413 7.08008 14.502Z" fill="#073881"/>
<path d="M7.08008 18.75C7.08008 18.2106 6.64287 17.7734 6.10352 17.7734C5.56416 17.7734 5.12695 18.2106 5.12695 18.75C5.12695 19.2894 5.56416 19.7266 6.10352 19.7266C6.64287 19.7266 7.08008 19.2894 7.08008 18.75Z" fill="#073881"/>
<path d="M11.3281 14.502C11.3281 13.9626 10.8909 13.5254 10.3516 13.5254C9.81221 13.5254 9.375 13.9626 9.375 14.502C9.375 15.0413 9.81221 15.4785 10.3516 15.4785C10.8909 15.4785 11.3281 15.0413 11.3281 14.502Z" fill="#073881"/>
<path d="M11.3281 18.75C11.3281 18.2106 10.8909 17.7734 10.3516 17.7734C9.81221 17.7734 9.375 18.2106 9.375 18.75C9.375 19.2894 9.81221 19.7266 10.3516 19.7266C10.8909 19.7266 11.3281 19.2894 11.3281 18.75Z" fill="#073881"/>
<path d="M10.3516 9.27734C9.81221 9.27734 9.375 9.71455 9.375 10.2539C9.375 10.7933 9.81221 11.2305 10.3516 11.2305C10.8909 11.2305 11.3281 10.7933 11.3281 10.2539C11.3281 9.71455 10.8909 9.27734 10.3516 9.27734Z" fill="#073881"/>
<path d="M11.3281 14.502C11.3281 13.9626 10.8909 13.5254 10.3516 13.5254C9.81221 13.5254 9.375 13.9626 9.375 14.502C9.375 15.0413 9.81221 15.4785 10.3516 15.4785C10.8909 15.4785 11.3281 15.0413 11.3281 14.502Z" fill="#073881"/>
<path d="M11.3281 18.75C11.3281 18.2106 10.8909 17.7734 10.3516 17.7734C9.81221 17.7734 9.375 18.2106 9.375 18.75C9.375 19.2894 9.81221 19.7266 10.3516 19.7266C10.8909 19.7266 11.3281 19.2894 11.3281 18.75Z" fill="#073881"/>
<path d="M6.10352 0.976563V4.88281" stroke="#073881" stroke-width="2" stroke-miterlimit="10" stroke-linecap="round" stroke-linejoin="round"/>
<path d="M18.8477 4.88281V0.976563" stroke="#073881" stroke-width="2" stroke-miterlimit="10" stroke-linecap="round" stroke-linejoin="round"/>
<path d="M15.5762 14.502C15.5762 13.9626 15.139 13.5254 14.5996 13.5254C14.0603 13.5254 13.623 13.9626 13.623 14.502C13.623 15.0413 14.0603 15.4785 14.5996 15.4785C15.139 15.4785 15.5762 15.0413 15.5762 14.502Z" fill="#073881"/>
<path d="M19.8242 14.502C19.8242 13.9626 19.387 13.5254 18.8477 13.5254C18.3083 13.5254 17.8711 13.9626 17.8711 14.502C17.8711 15.0413 18.3083 15.4785 18.8477 15.4785C19.387 15.4785 19.8242 15.0413 19.8242 14.502Z" fill="#073881"/>
<path d="M12.4512 0.976563V4.88281" stroke="#073881" stroke-width="2" stroke-miterlimit="10" stroke-linecap="round" stroke-linejoin="round"/>
<path d="M13.8203 20.5594L16.9366 23.6004C17.5871 24.2196 18.6279 24.1502 19.1904 23.4502L24.0235 16.6992" stroke="#073881" stroke-width="2" stroke-miterlimit="10" stroke-linecap="round" stroke-linejoin="round"/>
</g>
</g>
</g>
<defs>
<clipPath id="clip0_1_1571">
<rect width="25" height="25" fill="white"/>
</clipPath>
</defs>
</svg>
