<svg width="29" height="29" viewBox="0 0 29 29" fill="none" xmlns="http://www.w3.org/2000/svg">
<g clip-path="url(#clip0_1_2837)">
<path d="M12.1777 27.8672C12.1777 28.4929 11.6706 29 11.0449 29H6.06055C3.56194 29 1.5293 26.9674 1.5293 24.4688V4.53125C1.5293 2.03265 3.56194 0 6.06055 0H19.9879C22.4863 0 24.5192 2.03265 24.5192 4.53125V15.3496C24.5192 15.9753 24.0119 16.4824 23.3864 16.4824C22.7607 16.4824 22.2536 15.9753 22.2536 15.3496V4.53125C22.2536 3.28206 21.2371 2.26562 19.9879 2.26562H6.06055C4.81136 2.26562 3.79492 3.28206 3.79492 4.53125V24.4688C3.79492 25.7179 4.81136 26.7344 6.06055 26.7344H11.0449C11.6706 26.7344 12.1777 27.2415 12.1777 27.8672ZM18.8551 6.79688H7.18716C6.56146 6.79688 6.05435 7.30399 6.05435 7.92969C6.05435 8.55539 6.56146 9.0625 7.18716 9.0625H18.8551C19.4806 9.0625 19.9879 8.55539 19.9879 7.92969C19.9879 7.30399 19.4806 6.79688 18.8551 6.79688ZM19.9879 12.4609C19.9879 11.8352 19.4806 11.3281 18.8551 11.3281H7.18716C6.56146 11.3281 6.05435 11.8352 6.05435 12.4609C6.05435 13.0866 6.56146 13.5938 7.18716 13.5938H18.8551C19.4806 13.5938 19.9879 13.0866 19.9879 12.4609ZM7.18716 15.8594C6.56146 15.8594 6.05435 16.3665 6.05435 16.9922C6.05435 17.6179 6.56146 18.125 7.18716 18.125H13.1406C13.7663 18.125 14.2734 17.6179 14.2734 16.9922C14.2734 16.3665 13.7663 15.8594 13.1406 15.8594H7.18716ZM27.3214 24.157C27.2815 24.2139 27.145 24.407 27.0603 24.5139C26.6808 24.9911 25.7927 26.1082 24.557 27.0944C22.9726 28.3588 21.3422 29 19.7109 29C18.0796 29 16.4492 28.3588 14.8648 27.0944C13.6292 26.1082 12.741 24.9909 12.3618 24.5139C12.2769 24.407 12.1403 24.2136 12.1005 24.157C11.8259 23.7663 11.8259 23.2452 12.1005 22.8545C12.1403 22.7979 12.2769 22.6045 12.3618 22.4976C12.741 22.0206 13.6292 20.9035 14.8648 19.9174C16.4492 18.6529 18.0796 18.0117 19.7109 18.0117C21.3422 18.0117 22.9726 18.6529 24.557 19.9174C25.7927 20.9035 26.6808 22.0208 27.0601 22.4978C27.145 22.6047 27.2815 22.7981 27.3214 22.8547C27.5959 23.2454 27.5959 23.7663 27.3214 24.157ZM24.9584 23.5059C23.1572 21.363 21.3936 20.2773 19.7109 20.2773C18.0285 20.2773 16.2647 21.3628 14.4635 23.5059C16.2647 25.6487 18.0283 26.7344 19.7109 26.7344C21.3936 26.7344 23.1572 25.6489 24.9584 23.5059ZM19.7676 21.3535C18.5788 21.3535 17.6152 22.3171 17.6152 23.5059C17.6152 24.6946 18.5788 25.6582 19.7676 25.6582C20.9564 25.6582 21.9199 24.6946 21.9199 23.5059C21.9199 22.3171 20.9564 21.3535 19.7676 21.3535Z" fill="white"/>
</g>
<defs>
<clipPath id="clip0_1_2837">
<rect width="29" height="29" fill="white"/>
</clipPath>
</defs>
</svg>
