<svg width="42" height="42" viewBox="0 0 42 42" fill="none" xmlns="http://www.w3.org/2000/svg">
<mask id="mask0_19_7435" style="mask-type:luminance" maskUnits="userSpaceOnUse" x="6" y="6" width="31" height="31">
<path d="M36.4004 36.4004V6.59961H6.59961V36.4004H36.4004Z" fill="white" stroke="white" stroke-width="1.2"/>
</mask>
<g mask="url(#mask0_19_7435)">
<path d="M21.1937 26.4481C21.1937 28.9329 19.1794 30.9473 16.6946 30.9473C14.2098 30.9473 12.1954 28.9329 12.1954 26.4481C12.1954 23.9632 14.2098 21.9489 16.6946 21.9489C19.1794 21.9489 21.1937 23.9632 21.1937 26.4481Z" stroke="#1F3870" stroke-width="1.2" stroke-miterlimit="10" stroke-linecap="round" stroke-linejoin="round"/>
<path d="M16.6945 28.9453C15.3168 28.9453 14.196 27.8245 14.196 26.4469C14.196 25.0693 15.3168 23.9485 16.6945 23.9485C18.0721 23.9485 19.1929 25.0693 19.1929 26.4469C19.1929 27.8245 18.0721 28.9453 16.6945 28.9453Z" stroke="#1F3870" stroke-width="1.2" stroke-miterlimit="10" stroke-linecap="round" stroke-linejoin="round"/>
<path d="M18.0186 9.98633H24.9814" stroke="#1F3870" stroke-width="1.2" stroke-miterlimit="10" stroke-linecap="round" stroke-linejoin="round"/>
<path d="M14.5371 13.9355H28.4629" stroke="#1F3870" stroke-width="1.2" stroke-miterlimit="10" stroke-linecap="round" stroke-linejoin="round"/>
<path d="M14.5371 16.3379H28.4629" stroke="#1F3870" stroke-width="1.2" stroke-miterlimit="10" stroke-linecap="round" stroke-linejoin="round"/>
<path d="M14.5371 18.7402H28.4629" stroke="#1F3870" stroke-width="1.2" stroke-miterlimit="10" stroke-linecap="round" stroke-linejoin="round"/>
<path d="M24.6333 23.8887H28.4629" stroke="#1F3870" stroke-width="1.2" stroke-miterlimit="10" stroke-linecap="round" stroke-linejoin="round"/>
<path d="M24.6333 27.1504H28.4629" stroke="#1F3870" stroke-width="1.2" stroke-miterlimit="10" stroke-linecap="round" stroke-linejoin="round"/>
<path d="M16.6944 30.9463C15.6216 30.9463 14.6369 30.5702 13.8638 29.9435V36.3038C13.8638 36.5255 14.1366 36.631 14.2857 36.467L16.5149 34.0148C16.6111 33.909 16.7776 33.909 16.8739 34.0148L19.1031 36.467C19.2522 36.631 19.5251 36.5255 19.5251 36.3038V29.9435C18.7519 30.5702 17.7672 30.9463 16.6944 30.9463Z" stroke="#1F3870" stroke-width="1.2" stroke-miterlimit="10" stroke-linecap="round" stroke-linejoin="round"/>
<path d="M31.3895 6.45599H11.6104C10.8747 6.45599 10.2783 7.05237 10.2783 7.78802V32.1426C10.2783 32.8783 10.8747 33.4746 11.6104 33.4746H13.8637V29.9444C14.6368 30.5711 15.6215 30.9472 16.6943 30.9472C17.7672 30.9472 18.7518 30.5711 19.525 29.9444V33.4746H31.3895C32.1252 33.4746 32.7215 32.8783 32.7215 32.1426V7.78802C32.7215 7.05237 32.1252 6.45599 31.3895 6.45599Z" stroke="#1F3870" stroke-width="1.2" stroke-miterlimit="10" stroke-linecap="round" stroke-linejoin="round"/>
</g>
</svg>
