<svg width="25" height="26" viewBox="0 0 25 26" fill="none" xmlns="http://www.w3.org/2000/svg">
<path fill-rule="evenodd" clip-rule="evenodd" d="M12.4999 0C13.1903 0 13.7499 0.554319 13.7499 1.23809V6.19046H14.9999C15.0843 6.19046 15.1674 6.19044 15.2494 6.19041C17.3356 6.18987 18.6849 6.18952 19.8175 6.55404C22.1009 7.28886 23.891 9.06194 24.6328 11.3235C25.0008 12.4453 25.0005 13.7817 25 15.8481C25 15.9293 24.9998 16.0116 24.9998 16.0952C24.9998 16.1788 25 16.2611 25 16.3423C25.0005 18.4087 25.0008 19.7451 24.6328 20.8669C23.891 23.1284 22.1009 24.9015 19.8175 25.6363C18.6849 26.0009 17.3356 26.0006 15.2494 26C15.1674 26 15.0843 26 14.9999 26H10C9.91569 26 9.83254 26 9.75053 26C7.66431 26.0006 6.31509 26.0009 5.18242 25.6363C2.89916 24.9015 1.10903 23.1284 0.367164 20.8669C-0.000870668 19.7451 -0.000508313 18.4087 4.16832e-05 16.3423C6.6683e-05 16.2611 9.17507e-05 16.1788 9.17507e-05 16.0952C9.17507e-05 16.0116 6.6683e-05 15.9293 4.16832e-05 15.8481C-0.000508313 13.7817 -0.000870668 12.4453 0.367164 11.3235C1.10903 9.06194 2.89916 7.28886 5.18242 6.55404C6.31509 6.18952 7.66432 6.18987 9.75056 6.19041C9.83255 6.19044 9.9157 6.19046 10 6.19046H11.2499V1.23809C11.2499 0.554319 11.8097 0 12.4999 0ZM10 8.66665C7.57613 8.66665 6.66065 8.68193 5.95496 8.90903C4.43278 9.39892 3.23937 10.581 2.74478 12.0886C2.51549 12.7876 2.50007 13.6944 2.50007 16.0952C2.50007 18.496 2.51549 19.4028 2.74478 20.1018C3.23937 21.6094 4.43278 22.7916 5.95496 23.2813C6.66065 23.5085 7.57613 23.5238 10 23.5238H14.9999C17.4239 23.5238 18.3394 23.5085 19.045 23.2813C20.5672 22.7916 21.7606 21.6094 22.2552 20.1018C22.4845 19.4028 22.4999 18.496 22.4999 16.0952C22.4999 13.6944 22.4845 12.7876 22.2552 12.0886C21.7606 10.581 20.5672 9.39892 19.045 8.90903C18.3394 8.68193 17.4239 8.66665 14.9999 8.66665H10ZM6.25004 14.8571C6.25004 13.4895 7.36932 12.3809 8.75003 12.3809C10.1307 12.3809 11.2499 13.4895 11.2499 14.8571C11.2499 16.2247 10.1307 17.3333 8.75003 17.3333C7.36932 17.3333 6.25004 16.2247 6.25004 14.8571ZM13.7499 14.8571C13.7499 13.4895 14.8693 12.3809 16.2499 12.3809C17.6306 12.3809 18.7499 13.4895 18.7499 14.8571C18.7499 16.2247 17.6306 17.3333 16.2499 17.3333C14.8693 17.3333 13.7499 16.2247 13.7499 14.8571Z" fill="#012A6A"/>
</svg>
