<svg width="128" height="128" viewBox="0 0 128 128" fill="none" xmlns="http://www.w3.org/2000/svg">
<path d="M118.869 49.6641C116.964 47.7588 115.477 45.5296 114.464 43.0976C113.451 40.6655 112.924 38.0309 112.924 35.3422C112.924 29.7352 110.654 24.6818 106.992 21.0068C103.317 17.3453 98.2642 15.0755 92.6571 15.0755C87.2797 15.0755 82.132 12.9407 78.3353 9.13078C74.3765 5.17179 69.1883 3.19922 64 3.19922C58.8118 3.19922 53.6235 5.17179 49.6647 9.13078C47.7597 11.0357 45.5303 12.5218 43.0984 13.5351C40.6664 14.5484 38.0317 15.0755 35.343 15.0755C29.7358 15.0755 24.6827 17.3453 21.0076 21.0068C17.3462 24.6818 15.0763 29.7352 15.0763 35.3422C15.0763 38.0309 14.5494 40.6655 13.536 43.0976C12.5227 45.5296 11.0364 47.7588 9.1314 49.6641C5.17265 53.6228 3.2 58.8108 3.2 63.9992C3.2 69.1873 5.17265 74.3757 9.1314 78.3343C11.0364 80.2396 12.5227 82.4688 13.536 84.9009C14.5494 87.3329 15.0763 89.9675 15.0763 92.6562C15.0763 98.2632 17.3462 103.317 21.0076 106.992C24.6827 110.653 29.7358 112.923 35.343 112.923C38.0317 112.923 40.6664 113.45 43.0984 114.463C45.5303 115.477 47.7597 116.963 49.6647 118.868C53.6235 122.827 58.8118 124.799 64 124.799C69.1883 124.799 74.3765 122.827 78.3353 118.868C80.2404 116.963 82.4698 115.477 84.9017 114.463C87.3337 113.45 89.9684 112.923 92.6571 112.923C98.2642 112.923 103.317 110.653 106.992 106.992C110.654 103.317 112.924 98.2632 112.924 92.6562C112.924 89.9675 113.451 87.3329 114.464 84.9009C115.477 82.4688 116.964 80.2396 118.869 78.3343C122.827 74.3757 124.8 69.1873 124.8 63.9992C124.8 58.8108 122.827 53.6228 118.869 49.6641ZM93.4408 49.8531L57.5147 85.7793C56.5014 86.7926 55.1232 87.36 53.691 87.36C52.2588 87.36 50.8808 86.7926 49.8674 85.7793L34.5593 70.4711C32.4516 68.3633 32.4516 64.9449 34.5593 62.8236C36.6671 60.7161 40.0988 60.7161 42.2066 62.8236L53.691 74.3219L85.7934 42.2192C87.9012 40.1117 91.333 40.1117 93.4408 42.2192C95.5485 44.327 95.5485 47.7453 93.4408 49.8531Z" fill="#4DCF07"/>
</svg>
