<svg width="34" height="34" viewBox="0 0 34 34" fill="none" xmlns="http://www.w3.org/2000/svg">
<g clip-path="url(#clip0_1_1714)">
<path d="M23.0573 20.0023L18.3168 16.4469V9.20453C18.3168 8.47632 17.7282 7.8877 16.9999 7.8877C16.2717 7.8877 15.6831 8.47632 15.6831 9.20453V17.1054C15.6831 17.5202 15.878 17.9113 16.2098 18.1589L21.4771 22.1093C21.7141 22.2871 21.9906 22.3727 22.2658 22.3727C22.6674 22.3727 23.0625 22.1923 23.3206 21.8446C23.7579 21.2638 23.6394 20.4382 23.0573 20.0023Z" fill="#9C9C9C"/>
<path d="M17 0C7.62563 0 0 7.62563 0 17C0 26.3744 7.62563 34 17 34C26.3744 34 34 26.3744 34 17C34 7.62563 26.3744 0 17 0ZM17 31.3664C9.07939 31.3664 2.63361 24.9206 2.63361 17C2.63361 9.07939 9.07939 2.63361 17 2.63361C24.9219 2.63361 31.3664 9.07939 31.3664 17C31.3664 24.9206 24.9206 31.3664 17 31.3664Z" fill="#9C9C9C"/>
</g>
<defs>
<clipPath id="clip0_1_1714">
<rect width="34" height="34" fill="white"/>
</clipPath>
</defs>
</svg>
