<svg width="27" height="25" viewBox="0 0 27 25" fill="none" xmlns="http://www.w3.org/2000/svg">
<path d="M25.3183 3.86776H8.77161L7.13932 1.03638C6.84385 0.523838 6.38301 0.183984 5.80653 0.0536758C5.22999 -0.0768473 4.66807 0.0317878 4.18147 0.367403L0.527469 2.88693C0.404212 2.97191 0.314434 3.09728 0.273616 3.24138C-0.171952 4.81372 -0.0729607 6.81362 0.567858 9.18552C1.14065 11.3056 2.1252 13.6088 3.41504 15.8462C5.62086 19.6724 9.24615 24.0813 12.8059 24.9805C12.8577 24.9935 12.9104 25 12.9632 25C13.058 25 13.1525 24.9789 13.2394 24.9375L17.2451 23.0281C17.7787 22.7738 18.1535 22.3406 18.3289 21.7754C18.5044 21.2102 18.4409 20.6406 18.1455 20.1282L17.5695 19.1291H25.3183C26.2456 19.1291 27 18.3736 27 17.4448V5.55195C27 4.62332 26.2456 3.86776 25.3183 3.86776ZM9.38029 5.15529H24.2827L16.1805 10.7179L9.35586 6.03236C9.42512 5.74739 9.43509 5.44804 9.38029 5.15529ZM17.1013 21.3932C17.0323 21.6155 16.9024 21.7655 16.6925 21.8656L12.9036 23.6717C10.3232 22.8874 7.06352 19.5999 4.52837 15.2025C1.99043 10.8001 0.827068 6.47034 1.45375 3.81138L4.91052 1.42779C5.10186 1.29582 5.29673 1.25821 5.52332 1.3095C5.74996 1.36078 5.9097 1.47849 6.02588 1.68009L8.02949 5.15561C8.23915 5.51928 8.11836 5.99277 7.76021 6.21117L5.54094 7.56452C5.30905 7.70599 5.19088 7.97809 5.24568 8.24439C5.88259 11.3381 8.60893 16.0674 10.9657 18.1666C11.1685 18.3473 11.463 18.3808 11.7012 18.2504L13.9811 17.0021C14.349 16.8008 14.8189 16.9327 15.0285 17.2963L17.0321 20.7719C17.1483 20.9735 17.1703 21.1709 17.1013 21.3932ZM25.3183 17.8416H16.8273L16.1419 16.6526C15.5859 15.6883 14.34 15.3383 13.3644 15.8725L11.493 16.897C9.5247 14.9514 7.30538 11.1018 6.60714 8.4218L8.42878 7.31099C8.5184 7.25632 8.60234 7.19564 8.68054 7.12977L15.817 12.0295C15.9266 12.1047 16.0535 12.1423 16.1805 12.1423C16.3074 12.1423 16.4344 12.1047 16.5439 12.0295L25.7144 5.73333V17.4449C25.7144 17.6599 25.533 17.8416 25.3183 17.8416Z" fill="#083983"/>
</svg>
