<svg width="42" height="42" viewBox="0 0 42 42" fill="none" xmlns="http://www.w3.org/2000/svg">
<path d="M32.3183 13.8678H15.7716L14.1393 11.0364C13.8438 10.5238 13.383 10.184 12.8065 10.0537C12.23 9.92315 11.6681 10.0318 11.1815 10.3674L7.52747 12.8869C7.40421 12.9719 7.31443 13.0973 7.27362 13.2414C6.82805 14.8137 6.92704 16.8136 7.56786 19.1855C8.14065 21.3056 9.1252 23.6088 10.415 25.8462C12.6209 29.6724 16.2462 34.0813 19.8059 34.9805C19.8577 34.9935 19.9104 35 19.9632 35C20.058 35 20.1525 34.9789 20.2394 34.9375L24.2451 33.0281C24.7787 32.7738 25.1535 32.3406 25.3289 31.7754C25.5044 31.2102 25.4409 30.6406 25.1455 30.1282L24.5695 29.1291H32.3183C33.2456 29.1291 34 28.3736 34 27.4448V15.552C34 14.6233 33.2456 13.8678 32.3183 13.8678ZM16.3803 15.1553H31.2827L23.1805 20.7179L16.3559 16.0324C16.4251 15.7474 16.4351 15.448 16.3803 15.1553ZM24.1013 31.3932C24.0323 31.6155 23.9024 31.7655 23.6925 31.8656L19.9036 33.6717C17.3232 32.8874 14.0635 29.5999 11.5284 25.2025C8.99043 20.8001 7.82707 16.4703 8.45375 13.8114L11.9105 11.4278C12.1019 11.2958 12.2967 11.2582 12.5233 11.3095C12.75 11.3608 12.9097 11.4785 13.0259 11.6801L15.0295 15.1556C15.2392 15.5193 15.1184 15.9928 14.7602 16.2112L12.5409 17.5645C12.3091 17.706 12.1909 17.9781 12.2457 18.2444C12.8826 21.3381 15.6089 26.0674 17.9657 28.1666C18.1685 28.3473 18.463 28.3808 18.7012 28.2504L20.9811 27.0021C21.349 26.8008 21.8189 26.9327 22.0285 27.2963L24.0321 30.7719C24.1483 30.9735 24.1703 31.1709 24.1013 31.3932ZM32.3183 27.8416H23.8273L23.1419 26.6526C22.5859 25.6883 21.34 25.3383 20.3644 25.8725L18.493 26.897C16.5247 24.9514 14.3054 21.1018 13.6071 18.4218L15.4288 17.311C15.5184 17.2563 15.6023 17.1956 15.6805 17.1298L22.817 22.0295C22.9266 22.1047 23.0535 22.1423 23.1805 22.1423C23.3074 22.1423 23.4344 22.1047 23.5439 22.0295L32.7144 15.7333V27.4449C32.7144 27.6599 32.533 27.8416 32.3183 27.8416Z" fill="#1F3870"/>
</svg>
