<svg width="27" height="25" viewBox="0 0 27 25" fill="none" xmlns="http://www.w3.org/2000/svg">
<path d="M14.1459 10.875H13.7478L13.5247 11.2048L12.0152 13.436L12.0152 13.436L12.0117 13.4412C12.0004 13.4583 11.9844 13.4731 11.9649 13.4836C11.9456 13.494 11.9237 13.4997 11.901 13.5H11.8764C11.8592 13.4978 11.8431 13.4918 11.8293 13.4827C11.813 13.472 11.8009 13.4578 11.7933 13.4421L11.7934 13.442L11.7875 13.4303L9.92492 9.74659L9.25633 8.42423L8.58659 9.74601L7.60677 11.6798L7.60676 11.6798L7.60469 11.6839C7.59535 11.7026 7.58041 11.7193 7.56075 11.7314C7.54103 11.7434 7.5177 11.7501 7.49347 11.75V11.75H7.49017H5.72473C5.68741 11.75 5.65294 11.7352 5.62855 11.7111C5.60438 11.6871 5.59201 11.656 5.59201 11.625C5.59201 11.594 5.60438 11.5629 5.62855 11.5389C5.65294 11.5148 5.68742 11.5 5.72473 11.5H6.94288H7.40398L7.61212 11.0886L9.12064 8.10656C9.13387 8.08931 9.15086 8.07444 9.17093 8.06319C9.19636 8.04895 9.22556 8.04123 9.25561 8.04123C9.28567 8.04123 9.31486 8.04895 9.34029 8.06319C9.36028 8.07439 9.37722 8.08919 9.39043 8.10635L11.3401 11.9715L11.9141 13.1096L12.6302 12.0551L13.557 10.6901L13.5571 10.6901L13.5613 10.6838C13.5726 10.6667 13.5885 10.6519 13.6081 10.6414C13.6274 10.631 13.6493 10.6253 13.672 10.625H16.3174C16.3547 10.625 16.3892 10.6398 16.4136 10.6639L16.9416 10.1313L16.4136 10.6639C16.4377 10.6879 16.4501 10.719 16.4501 10.75C16.4501 10.781 16.4377 10.8121 16.4136 10.8361L16.9416 11.3687L16.4136 10.8361C16.3892 10.8602 16.3547 10.875 16.3174 10.875H14.1459ZM21.6137 1.25H5.72473C4.59149 1.25 3.50334 1.69618 2.70002 2.49247C1.89648 3.28898 1.44385 4.37069 1.44385 5.5V16C1.44385 17.1293 1.89648 18.211 2.70002 19.0075C3.50334 19.8038 4.59148 20.25 5.72473 20.25H10.2711V20.5H9.25561C8.82471 20.5 8.41013 20.6696 8.10344 20.9736C7.79653 21.2779 7.62289 21.6919 7.62289 22.125C7.62289 22.5581 7.79653 22.9721 8.10344 23.2764C8.41013 23.5804 8.82471 23.75 9.25561 23.75H18.0828C18.5137 23.75 18.9283 23.5804 19.235 23.2764C19.5419 22.9721 19.7155 22.5581 19.7155 22.125C19.7155 21.6919 19.5419 21.2779 19.235 20.9736C18.9283 20.6696 18.5137 20.5 18.0828 20.5H17.0674V20.25H21.6137C22.7469 20.25 23.8351 19.8038 24.6384 19.0075C25.4419 18.211 25.8946 17.1293 25.8946 16V5.5C25.8946 4.37069 25.4419 3.28898 24.6384 2.49247C23.8351 1.69618 22.7469 1.25 21.6137 1.25ZM13.5365 20.5V20.25H13.8019V20.5H13.5365ZM21.6137 13.5H18.9655C18.9282 13.5 18.8937 13.4852 18.8694 13.4611L18.3414 13.9937L18.8694 13.4611C18.8452 13.4371 18.8328 13.406 18.8328 13.375C18.8328 13.344 18.8452 13.3129 18.8694 13.2889L18.3414 12.7563L18.8694 13.2889C18.8937 13.2648 18.9282 13.25 18.9655 13.25H21.6137C21.651 13.25 21.6855 13.2648 21.7099 13.2889L22.2379 12.7563L21.7099 13.2889C21.7341 13.3129 21.7464 13.344 21.7464 13.375C21.7464 13.406 21.7341 13.4371 21.7099 13.4611L22.2379 13.9937L21.7099 13.4611C21.6855 13.4852 21.651 13.5 21.6137 13.5ZM18.8694 10.8361L18.3414 11.3687L18.8694 10.8361C18.8452 10.8121 18.8328 10.781 18.8328 10.75C18.8328 10.719 18.8452 10.6879 18.8694 10.6639L18.3414 10.1313L18.8694 10.6639C18.8937 10.6398 18.9282 10.625 18.9655 10.625H20.731C20.7683 10.625 20.8028 10.6398 20.8272 10.6639C20.8513 10.6879 20.8637 10.719 20.8637 10.75C20.8637 10.781 20.8513 10.8121 20.8272 10.8361C20.8028 10.8602 20.7683 10.875 20.731 10.875H18.9655C18.9282 10.875 18.8937 10.8602 18.8694 10.8361ZM18.8694 8.21107L18.3414 8.74372L18.8694 8.21106C18.8452 8.1871 18.8328 8.15602 18.8328 8.125C18.8328 8.09398 18.8452 8.0629 18.8694 8.03894L18.3414 7.50628L18.8694 8.03893C18.8937 8.01476 18.9282 8 18.9655 8H21.6137C21.651 8 21.6855 8.01476 21.7099 8.03893L22.2379 7.50628L21.7099 8.03894C21.7341 8.0629 21.7464 8.09398 21.7464 8.125C21.7464 8.15602 21.7341 8.1871 21.7099 8.21106L22.2379 8.74372L21.7099 8.21107C21.6855 8.23524 21.651 8.25 21.6137 8.25H18.9655C18.9282 8.25 18.8937 8.23524 18.8694 8.21107Z" fill="white" stroke="#083983" stroke-width="1.5"/>
</svg>
