<svg width="42" height="42" viewBox="0 0 42 42" fill="none" xmlns="http://www.w3.org/2000/svg">
<path d="M24.1533 10.2793C24.7537 10.2793 25.3166 10.4384 25.8027 10.7198L26.0068 10.8477L26.0117 10.8506C26.8646 11.4217 27.4361 12.386 27.4775 13.4805H23.0449C23.5548 13.1869 23.8936 12.6366 23.8936 12.0117V10.2793H24.1533ZM20.5059 10.2793V12.0117C20.5059 12.6391 20.8496 13.1877 21.3584 13.4805H12.873C13.3819 13.1878 13.7266 12.6392 13.7266 12.0117V10.2793H20.5059ZM10.0781 10.2793H10.3379V12.0117C10.3379 12.6368 10.6773 13.187 11.1875 13.4805H6.75293C6.78317 12.6704 7.1013 11.936 7.61523 11.377L7.72559 11.2617L7.73242 11.2549C8.29413 10.686 9.05797 10.326 9.90723 10.2832L10.0781 10.2793Z" fill="white" stroke="#083983" stroke-width="1.5"/>
<path d="M24.8721 16.8687C20.2721 17.3683 16.6816 21.2734 16.6816 26.0122C16.6817 27.2397 16.9258 28.4125 17.3633 29.4819H10.0781C8.24332 29.4819 6.75 27.9929 6.75 26.1626V16.8687H24.8721ZM27.4814 16.8687V16.9507C27.2875 16.9168 27.0914 16.8901 26.8936 16.8687H27.4814Z" fill="white" stroke="#083983" stroke-width="1.5"/>
<path d="M12.0322 8.75002C12.0669 8.75007 12.0984 8.76243 12.127 8.77931H11.9326C11.9617 8.76215 11.995 8.75002 12.0322 8.75002Z" fill="white" stroke="#083983" stroke-width="1.5"/>
<path d="M22.1992 8.75002C22.2362 8.75007 22.2689 8.7623 22.2979 8.77931H22.1035C22.1322 8.76229 22.1643 8.75002 22.1992 8.75002Z" fill="white" stroke="#083983" stroke-width="1.5"/>
<mask id="path-5-inside-1_1050_8850" fill="white">
<path d="M17.4282 24.4286H19.5711V25.8571H17.4282V24.4286Z"/>
</mask>
<path d="M17.4282 24.4286H19.5711V25.8571H17.4282V24.4286Z" fill="white"/>
<path d="M17.4282 24.4286V22.9286H15.9282V24.4286H17.4282ZM19.5711 24.4286H21.0711V22.9286H19.5711V24.4286ZM19.5711 25.8571V27.3571H21.0711V25.8571H19.5711ZM17.4282 25.8571H15.9282V27.3571H17.4282V25.8571ZM17.4282 24.4286V25.9286H19.5711V24.4286V22.9286H17.4282V24.4286ZM19.5711 24.4286H18.0711V25.8571H19.5711H21.0711V24.4286H19.5711ZM19.5711 25.8571V24.3571H17.4282V25.8571V27.3571H19.5711V25.8571ZM17.4282 25.8571H18.9282V24.4286H17.4282H15.9282V25.8571H17.4282Z" fill="#083983" mask="url(#path-5-inside-1_1050_8850)"/>
<mask id="path-7-inside-2_1050_8850" fill="white">
<path d="M33.1426 24.4286H35.9997V25.8571H33.1426V24.4286Z"/>
</mask>
<path d="M33.1426 24.4286H35.9997V25.8571H33.1426V24.4286Z" fill="white"/>
<path d="M33.1426 24.4286V22.9286H31.6426V24.4286H33.1426ZM35.9997 24.4286H37.4997V22.9286H35.9997V24.4286ZM35.9997 25.8571V27.3571H37.4997V25.8571H35.9997ZM33.1426 25.8571H31.6426V27.3571H33.1426V25.8571ZM33.1426 24.4286V25.9286H35.9997V24.4286V22.9286H33.1426V24.4286ZM35.9997 24.4286H34.4997V25.8571H35.9997H37.4997V24.4286H35.9997ZM35.9997 25.8571V24.3571H33.1426V25.8571V27.3571H35.9997V25.8571ZM33.1426 25.8571H34.6426V24.4286H33.1426H31.6426V25.8571H33.1426Z" fill="#083983" mask="url(#path-7-inside-2_1050_8850)"/>
<mask id="path-9-inside-3_1050_8850" fill="white">
<path d="M31.7144 20.1429L33.1429 18.7143L33.8572 19.4286L32.4286 20.8572L31.7144 20.1429Z"/>
</mask>
<path d="M31.7144 20.1429L33.1429 18.7143L33.8572 19.4286L32.4286 20.8572L31.7144 20.1429Z" fill="white"/>
<path d="M31.7144 20.1429L30.6537 19.0822L29.593 20.1429L30.6537 21.2035L31.7144 20.1429ZM33.1429 18.7143L34.2036 17.6536L33.1429 16.593L32.0823 17.6536L33.1429 18.7143ZM33.8572 19.4286L34.9179 20.4892L35.9785 19.4286L34.9179 18.3679L33.8572 19.4286ZM32.4286 20.8572L31.368 21.9178L32.4286 22.9785L33.4893 21.9178L32.4286 20.8572ZM31.7144 20.1429L32.775 21.2035L34.2036 19.775L33.1429 18.7143L32.0823 17.6536L30.6537 19.0822L31.7144 20.1429ZM33.1429 18.7143L32.0823 19.775L32.7966 20.4892L33.8572 19.4286L34.9179 18.3679L34.2036 17.6536L33.1429 18.7143ZM33.8572 19.4286L32.7966 18.3679L31.368 19.7965L32.4286 20.8572L33.4893 21.9178L34.9179 20.4892L33.8572 19.4286ZM32.4286 20.8572L33.4893 19.7965L32.775 19.0822L31.7144 20.1429L30.6537 21.2035L31.368 21.9178L32.4286 20.8572Z" fill="#083983" mask="url(#path-9-inside-3_1050_8850)"/>
<mask id="path-11-inside-4_1050_8850" fill="white">
<path d="M21.7142 20.8572L20.2856 19.4286L20.9999 18.7143L22.4285 20.1429L21.7142 20.8572Z"/>
</mask>
<path d="M21.7142 20.8572L20.2856 19.4286L20.9999 18.7143L22.4285 20.1429L21.7142 20.8572Z" fill="white"/>
<path d="M21.7142 20.8572L20.6536 21.9178L21.7142 22.9785L22.7749 21.9178L21.7142 20.8572ZM20.2856 19.4286L19.225 18.3679L18.1643 19.4286L19.225 20.4892L20.2856 19.4286ZM20.9999 18.7143L22.0606 17.6536L20.9999 16.593L19.9393 17.6536L20.9999 18.7143ZM22.4285 20.1429L23.4892 21.2035L24.5498 20.1429L23.4892 19.0822L22.4285 20.1429ZM21.7142 20.8572L22.7749 19.7965L21.3463 18.3679L20.2856 19.4286L19.225 20.4892L20.6536 21.9178L21.7142 20.8572ZM20.2856 19.4286L21.3463 20.4892L22.0606 19.775L20.9999 18.7143L19.9393 17.6536L19.225 18.3679L20.2856 19.4286ZM20.9999 18.7143L19.9393 19.775L21.3678 21.2035L22.4285 20.1429L23.4892 19.0822L22.0606 17.6536L20.9999 18.7143ZM22.4285 20.1429L21.3678 19.0822L20.6536 19.7965L21.7142 20.8572L22.7749 21.9178L23.4892 21.2035L22.4285 20.1429Z" fill="#083983" mask="url(#path-11-inside-4_1050_8850)"/>
<mask id="path-13-inside-5_1050_8850" fill="white">
<path d="M25.9995 15.8571H27.4281V18.7143H25.9995V15.8571Z"/>
</mask>
<path d="M25.9995 15.8571H27.4281V18.7143H25.9995V15.8571Z" fill="white"/>
<path d="M25.9995 15.8571V14.3571H24.4995V15.8571H25.9995ZM27.4281 15.8571H28.9281V14.3571H27.4281V15.8571ZM27.4281 18.7143V20.2143H28.9281V18.7143H27.4281ZM25.9995 18.7143H24.4995V20.2143H25.9995V18.7143ZM25.9995 15.8571V17.3571H27.4281V15.8571V14.3571H25.9995V15.8571ZM27.4281 15.8571H25.9281V18.7143H27.4281H28.9281V15.8571H27.4281ZM27.4281 18.7143V17.2143H25.9995V18.7143V20.2143H27.4281V18.7143ZM25.9995 18.7143H27.4995V15.8571H25.9995H24.4995V18.7143H25.9995Z" fill="#083983" mask="url(#path-13-inside-5_1050_8850)"/>
<path d="M22.688 31.6071H31.4546C31.492 31.6071 31.54 31.6223 31.5884 31.6755C31.6378 31.7298 31.6782 31.8172 31.6782 31.9284V32.2497H22.4644V31.9284C22.4644 31.8173 22.5049 31.7299 22.5542 31.6755C22.6024 31.6225 22.6506 31.6073 22.688 31.6071Z" fill="white" stroke="#083983" stroke-width="1.5"/>
<path d="M29.5908 21.7845C30.4335 22.4742 30.9648 23.4994 30.9648 24.6282V29.3929H29.7246L29.4629 28.971L28.8857 28.0413L28.9521 27.4573L29.5713 21.9671L29.5908 21.7845ZM24.5723 21.9671L25.1914 27.4573L25.2568 28.0413L24.6807 28.971L24.4189 29.3929H23.1787V24.6282C23.1787 23.4995 23.7093 22.4742 24.5518 21.7845L24.5723 21.9671ZM27.0713 20.8929C27.5567 20.8929 28.0199 20.9783 28.4463 21.1331H25.6973C26.1234 20.9784 26.5861 20.8929 27.0713 20.8929Z" fill="white" stroke="#083983" stroke-width="1.5"/>
</svg>
