<svg width="29" height="25" viewBox="0 0 29 25" fill="none" xmlns="http://www.w3.org/2000/svg">
<path fill-rule="evenodd" clip-rule="evenodd" d="M16.1763 15.4474C16.6725 15.6368 16.9209 16.1926 16.7315 16.6886C15.9125 18.8331 14.6664 20.0153 13.1534 20.6065C11.753 21.1537 10.2018 21.1535 8.86541 21.1532C8.83752 21.1532 8.80974 21.1532 8.78205 21.1532C7.34588 21.1532 6.14157 21.1651 5.11062 21.5681C4.16291 21.9383 3.27903 22.6792 2.62908 24.3809C2.43959 24.877 1.88384 25.1255 1.38776 24.936C0.891671 24.7465 0.64311 24.1907 0.832595 23.6947C1.65164 21.5504 2.89781 20.3681 4.41069 19.7768C5.8111 19.2296 7.36233 19.2299 8.6987 19.2301H8.78205C10.2182 19.2301 11.4225 19.2182 12.4534 18.8153C13.4012 18.445 14.2851 17.7043 14.9351 16.0025C15.1246 15.5063 15.6803 15.2579 16.1763 15.4474Z" fill="#083983"/>
<path fill-rule="evenodd" clip-rule="evenodd" d="M15.7661 7.31465e-07H21.0319C22.4842 -2.49093e-05 23.6711 -5.04056e-05 24.6081 0.125923C25.5875 0.257601 26.4366 0.542573 27.1144 1.22037C27.7923 1.89819 28.0773 2.74732 28.2089 3.72675C28.3348 4.66374 28.3348 5.85056 28.3348 7.30289V10.0047C28.3348 11.4569 28.3348 12.6439 28.2089 13.5808C28.0773 14.5603 27.7923 15.4093 27.1144 16.0872C26.4366 16.765 25.5875 17.05 24.6081 17.1816C23.6711 17.3075 22.4842 17.3075 21.0319 17.3075H19.0384C18.5073 17.3075 18.0768 16.877 18.0768 16.346C18.0768 15.815 18.5073 15.3845 19.0384 15.3845H20.9631C22.5011 15.3845 23.5581 15.3824 24.3518 15.2758C25.118 15.1727 25.4937 14.9883 25.7546 14.7273C26.0156 14.4664 26.2 14.0908 26.303 13.3245C26.4097 12.5308 26.4118 11.4739 26.4118 9.93581V7.37173C26.4118 5.83365 26.4097 4.77682 26.303 3.98299C26.2 3.21682 26.0156 2.84113 25.7546 2.58018C25.4937 2.31924 25.118 2.13484 24.3518 2.03183C23.5581 1.9251 22.5011 1.92306 20.9631 1.92306H15.8349C14.2969 1.92306 13.2401 1.9251 12.4462 2.03183C11.68 2.13484 11.3043 2.31924 11.0434 2.58018C10.82 2.80362 10.6557 3.10791 10.5481 3.65763C10.4351 4.23422 10.3989 5.00058 10.3896 6.09784C10.3851 6.62886 9.95095 7.05569 9.41993 7.05118C8.8889 7.04668 8.46208 6.61255 8.46659 6.08153C8.47583 4.99092 8.50959 4.06028 8.66087 3.28797C8.81741 2.48882 9.11162 1.79234 9.68358 1.22037C10.3614 0.542573 11.2105 0.257601 12.19 0.125923C13.1269 -5.04056e-05 14.3138 -2.49093e-05 15.7661 7.31465e-07Z" fill="#083983"/>
<path fill-rule="evenodd" clip-rule="evenodd" d="M8.78186 10.8977C7.54277 10.8977 6.53829 11.9021 6.53829 13.1412C6.53829 14.3803 7.54277 15.3848 8.78186 15.3848C10.021 15.3848 11.0254 14.3803 11.0254 13.1412C11.0254 11.9021 10.021 10.8977 8.78186 10.8977ZM4.61523 13.1412C4.61523 10.8401 6.4807 8.97461 8.78186 8.97461C11.083 8.97461 12.9485 10.8401 12.9485 13.1412C12.9485 15.4424 11.083 17.3079 8.78186 17.3079C6.4807 17.3079 4.61523 15.4424 4.61523 13.1412Z" fill="#083983"/>
<path fill-rule="evenodd" clip-rule="evenodd" d="M13.5894 6.08946C13.5894 5.55843 14.0199 5.12793 14.5509 5.12793H22.2431C22.7741 5.12793 23.2047 5.55843 23.2047 6.08946C23.2047 6.62051 22.7741 7.05099 22.2431 7.05099H14.5509C14.0199 7.05099 13.5894 6.62051 13.5894 6.08946ZM17.4355 11.2176C17.4355 10.6866 17.866 10.2561 18.397 10.2561H22.2431C22.7741 10.2561 23.2047 10.6866 23.2047 11.2176C23.2047 11.7486 22.7741 12.1791 22.2431 12.1791H18.397C17.866 12.1791 17.4355 11.7486 17.4355 11.2176Z" fill="#083983"/>
</svg>
