<svg width="29" height="26" viewBox="0 0 29 26" fill="none" xmlns="http://www.w3.org/2000/svg">
<path d="M25.1535 0.9V0.900003C26.7863 0.911713 28.1029 2.24003 28.1 3.87281M25.1535 0.9L28 3.87264M25.1535 0.9H25.1528H7.69363C6.12433 0.9 4.84589 2.16479 4.84568 3.71704L4.84569 3.71669L4.94568 3.71742M25.1535 0.9L4.84568 3.71742M28.1 3.87281L28 3.87264M28.1 3.87281V3.87264H28M28.1 3.87281V7.7547C28.1 8.04097 27.8804 8.31457 27.5741 8.31457H23.2356M28 3.87264V7.7547C28 7.99595 27.8155 8.21457 27.5741 8.21457H23.2356V8.31457M23.2356 8.31457H23.1356V21.6614M23.2356 8.31457L23.2356 21.6609L23.1356 21.6614M23.1356 21.6614H23.2356V21.6613M23.1356 21.6614C23.1463 23.7016 21.5017 25.3646 19.4615 25.3765H19.451C19.4143 25.3765 19.3798 25.3708 19.3413 25.3643C19.3282 25.3622 19.3146 25.3599 19.3004 25.3578V25.3765V25.459M23.2356 21.6613L25.1528 1H7.69363C6.17843 1 4.94568 2.22122 4.94568 3.71742M23.2356 21.6613C23.2464 23.7565 21.5574 25.4642 19.4621 25.4765L19.4615 25.4765L19.451 25.4765C19.4059 25.4765 19.364 25.4695 19.3273 25.4634L19.3221 25.4625C19.3149 25.4613 19.3077 25.4601 19.3004 25.459M23.2356 21.6613L4.84568 3.71742M19.3004 25.459C19.2695 25.454 19.2377 25.4497 19.2004 25.448C19.199 25.4479 19.1977 25.4479 19.1963 25.4478L19.1992 25.3765H19.1004H4.59798H4.49798V25.3511M19.3004 25.459V25.4765H19.2004H4.49798H4.39798V25.4453M4.49798 25.3511C2.58502 25.2623 1 23.6425 1 21.6618V19.5461C1 19.3046 1.18446 19.0911 1.42593 19.0911H4.83317M4.49798 25.3511H4.39798V25.3765V25.4453M4.49798 25.3511L4.4968 25.3765L4.49334 25.451C4.46146 25.4495 4.42967 25.4476 4.39798 25.4453M4.83317 19.0911L4.94568 3.71742M4.83317 19.0911V18.9911H4.7339M4.83317 19.0911L4.73317 19.0904L4.7339 18.9911M4.94568 3.71742H4.84568M4.84568 3.71742L4.7339 18.9911M4.7339 18.9911H1.42593C1.12088 18.9911 0.9 19.2581 0.9 19.5461V21.6618C0.9 23.6632 2.47494 25.3057 4.39798 25.4453M16.6316 19.5461C16.6329 19.3012 16.4392 19.0996 16.1943 19.0911M16.6316 19.5461V21.6544L16.1943 19.0911M16.6316 19.5461L16.7316 19.5466C16.7316 19.5464 16.7316 19.5463 16.7316 19.5462M16.6316 19.5461H16.7316V19.5462M16.1943 19.0911H5.80767H16.1943ZM16.7316 19.5462V21.6544V21.6546C16.7281 23.1631 17.9437 24.3908 19.4521 24.402H19.4609C20.9597 24.402 22.1611 23.1632 22.1611 21.661V3.88438C22.1611 3.16056 22.4399 2.50756 22.8708 1.97449H7.69363C6.71438 1.97449 5.92018 2.7601 5.92018 3.72041V3.72114L5.8084 18.9911L16.7316 19.5462ZM4.68628 24.402H4.68927H16.8227C16.8041 24.3863 16.7848 24.3692 16.7666 24.3508C16.7665 24.3508 16.7665 24.3507 16.7665 24.3507L16.8374 24.2802C16.1424 23.5833 15.7537 22.6384 15.7571 21.6542L4.68628 24.402ZM4.68628 24.402C3.18749 24.402 1.97449 23.1626 1.97449 21.6614V20.0656H15.6571L4.68628 24.402ZM27.0255 3.87665V3.87712V3.88032V7.24008H23.2356V3.88352C23.2356 2.84406 24.1015 1.97449 25.14 1.97449H25.1516C26.1931 1.9851 27.0304 2.83487 27.0255 3.87665Z" fill="#083983" stroke="#083983" stroke-width="0.2"/>
<path d="M17.4277 5.57184L17.4277 5.57185C17.6084 5.66405 17.7206 5.85193 17.7154 6.0549V9.17192C17.7154 9.6632 17.5658 10.1935 17.3181 10.6679C17.0704 11.1422 16.7211 11.5675 16.3144 11.845L16.3145 11.845L16.2579 11.7625L16.3143 11.8451L17.4277 5.57184ZM17.4277 5.57184L17.4264 5.57119L13.9943 3.883C13.9942 3.88297 13.9941 3.88295 13.9941 3.88292C13.8458 3.80934 13.6717 3.80934 13.5233 3.8829C13.5233 3.88294 13.5232 3.88297 13.5232 3.883L10.0975 5.56648L10.0975 5.56647L10.0962 5.56715C9.91537 5.65938 9.80344 5.8473 9.80888 6.05026L17.4277 5.57184ZM14.0672 13.3857L14.0104 13.3033L14.067 13.3858L14.067 13.3858C13.8858 13.5106 13.6463 13.5106 13.4651 13.3858L13.4653 13.3859L13.5217 13.3033L13.465 13.3857H14.0672ZM11.211 11.8447L11.2674 11.7621L11.2109 11.8446L11.211 11.8447ZM15.7082 10.957L15.7081 10.9571L13.7571 12.2914L11.814 10.9574L11.8137 10.9572C11.5586 10.7831 11.325 10.4953 11.1549 10.1674C10.9849 9.83965 10.8834 9.4814 10.8834 9.17192V6.38387L13.7621 4.96351L16.6409 6.38785V9.17192C16.6409 9.4813 16.5388 9.83955 16.3682 10.1674C16.1976 10.4953 15.9633 10.7831 15.7082 10.957Z" fill="#083983" stroke="#083983" stroke-width="0.2"/>
<path d="M15.453 7.40532C15.2433 7.19512 14.9028 7.19518 14.693 7.40501C14.693 7.40502 14.693 7.40502 14.693 7.40502L13.3353 8.7625L12.8349 8.25722L12.8349 8.25719C12.6258 8.04634 12.2856 8.04474 12.0747 8.2538C11.8638 8.46287 11.8625 8.80306 12.0713 9.01389L12.9514 9.90295C12.9514 9.90302 12.9515 9.90308 12.9516 9.90315C13.0518 10.0054 13.1887 10.0633 13.3318 10.0641H13.3324L15.3822 7.47594M15.453 7.40532L15.3822 7.47594M15.453 7.40532C15.453 7.40529 15.4529 7.40526 15.4529 7.40523L15.3822 7.47594M15.453 7.40532C15.6627 7.61517 15.6627 7.95553 15.4527 8.16536L15.382 8.09466M15.3822 7.47594C15.553 7.64674 15.553 7.92386 15.382 8.09466M15.382 8.09466L15.4526 8.16542M15.382 8.09466L15.4526 8.16542M15.4526 8.16542L13.7136 9.90512L13.6426 9.83468L13.7133 9.90538L13.7135 9.90524L15.4526 8.16542ZM13.4057 8.83355L13.3349 8.90425L13.4057 8.83355Z" fill="#083983" stroke="#083983" stroke-width="0.2"/>
<path d="M19.2002 14.4547H8.70629C8.40959 14.4547 8.16904 14.6952 8.16904 14.9919C8.16904 15.2886 8.40959 15.5292 8.70629 15.5292H19.2002C19.4969 15.5292 19.7375 15.2886 19.7375 14.9919C19.7375 14.6952 19.4969 14.4547 19.2002 14.4547Z" fill="#083983" stroke="#083983" stroke-width="0.2"/>
<path d="M19.2002 16.4771H8.70629C8.40959 16.4771 8.16904 16.7177 8.16904 17.0144C8.16904 17.3111 8.40959 17.5516 8.70629 17.5516H19.2002C19.4969 17.5516 19.7375 17.3111 19.7375 17.0144C19.7375 16.7177 19.4969 16.4771 19.2002 16.4771Z" fill="#083983" stroke="#083983" stroke-width="0.2"/>
</svg>
