<svg width="30" height="25" viewBox="0 0 30 25" fill="none" xmlns="http://www.w3.org/2000/svg">
<path d="M20.0065 2.84774L20.0064 2.84776L20.0114 2.85106C20.8643 3.4222 21.438 4.38597 21.4793 5.48057H17.0473C17.5562 5.18673 17.8934 4.63623 17.8934 4.01208V2.2793H18.1535C18.8398 2.2793 19.4768 2.48696 20.0065 2.84774ZM0.752362 5.48057C0.784691 4.61365 1.14709 3.83333 1.72584 3.26195L1.72589 3.26199L1.73263 3.25516C2.33179 2.64831 3.16067 2.2793 4.07819 2.2793H4.3383V4.01208C4.3383 4.63623 4.67551 5.18673 5.18446 5.48057H0.752362ZM6.87565 5.48057C7.38348 5.18757 7.72634 4.63877 7.72634 4.01208V2.2793H14.5054V4.01208C14.5054 4.63877 14.8482 5.18757 15.3561 5.48057H6.87565Z" fill="white" stroke="#083983" stroke-width="1.5"/>
<path d="M10.6821 18.0115C10.6821 19.2389 10.925 20.4119 11.3624 21.4813H4.07819C2.24335 21.4813 0.75 19.9928 0.75 18.1625V8.86816H18.8564C14.2639 9.37488 10.6821 13.278 10.6821 18.0115ZM21.4817 8.9504C21.2901 8.91696 21.0964 8.88952 20.901 8.86816H21.4817V8.9504Z" fill="white" stroke="#083983" stroke-width="1.5"/>
<path d="M6.03216 0.75C6.06872 0.75 6.10335 0.7608 6.13296 0.779312H5.92744C5.95739 0.760647 5.99319 0.75 6.03216 0.75Z" fill="white" stroke="#083983" stroke-width="1.5"/>
<path d="M16.1991 0.75C16.2381 0.75 16.2739 0.760647 16.3039 0.779312H16.0983C16.128 0.7608 16.1626 0.75 16.1991 0.75Z" fill="white" stroke="#083983" stroke-width="1.5"/>
<mask id="path-5-inside-1_1_6798" fill="white">
<path d="M11.4282 16.4287H13.5711V17.8573H11.4282V16.4287Z"/>
</mask>
<path d="M11.4282 16.4287H13.5711V17.8573H11.4282V16.4287Z" fill="white"/>
<path d="M11.4282 16.4287V14.9287H9.92822V16.4287H11.4282ZM13.5711 16.4287H15.0711V14.9287H13.5711V16.4287ZM13.5711 17.8573V19.3573H15.0711V17.8573H13.5711ZM11.4282 17.8573H9.92822V19.3573H11.4282V17.8573ZM11.4282 17.9287H13.5711V14.9287H11.4282V17.9287ZM12.0711 16.4287V17.8573H15.0711V16.4287H12.0711ZM13.5711 16.3573H11.4282V19.3573H13.5711V16.3573ZM12.9282 17.8573V16.4287H9.92822V17.8573H12.9282Z" fill="#083983" mask="url(#path-5-inside-1_1_6798)"/>
<mask id="path-7-inside-2_1_6798" fill="white">
<path d="M27.1426 16.4287H29.9997V17.8573H27.1426V16.4287Z"/>
</mask>
<path d="M27.1426 16.4287H29.9997V17.8573H27.1426V16.4287Z" fill="white"/>
<path d="M27.1426 16.4287V14.9287H25.6426V16.4287H27.1426ZM29.9997 16.4287H31.4997V14.9287H29.9997V16.4287ZM29.9997 17.8573V19.3573H31.4997V17.8573H29.9997ZM27.1426 17.8573H25.6426V19.3573H27.1426V17.8573ZM27.1426 17.9287H29.9997V14.9287H27.1426V17.9287ZM28.4997 16.4287V17.8573H31.4997V16.4287H28.4997ZM29.9997 16.3573H27.1426V19.3573H29.9997V16.3573ZM28.6426 17.8573V16.4287H25.6426V17.8573H28.6426Z" fill="#083983" mask="url(#path-7-inside-2_1_6798)"/>
<mask id="path-9-inside-3_1_6798" fill="white">
<path d="M25.7146 12.1424L27.1432 10.7139L27.8575 11.4282L26.4289 12.8567L25.7146 12.1424Z"/>
</mask>
<path d="M25.7146 12.1424L27.1432 10.7139L27.8575 11.4282L26.4289 12.8567L25.7146 12.1424Z" fill="white"/>
<path d="M25.7146 12.1424L24.6539 11.0818L23.5933 12.1424L24.6539 13.2031L25.7146 12.1424ZM27.1432 10.7139L28.2038 9.65321L27.1432 8.59255L26.0825 9.65321L27.1432 10.7139ZM27.8575 11.4282L28.9181 12.4888L29.9788 11.4282L28.9181 10.3675L27.8575 11.4282ZM26.4289 12.8567L25.3682 13.9174L26.4289 14.978L27.4895 13.9174L26.4289 12.8567ZM26.7753 13.2031L28.2038 11.7745L26.0825 9.65321L24.6539 11.0818L26.7753 13.2031ZM26.0825 11.7745L26.7968 12.4888L28.9181 10.3675L28.2038 9.65321L26.0825 11.7745ZM26.7968 10.3675L25.3682 11.7961L27.4895 13.9174L28.9181 12.4888L26.7968 10.3675ZM27.4895 11.7961L26.7753 11.0818L24.6539 13.2031L25.3682 13.9174L27.4895 11.7961Z" fill="#083983" mask="url(#path-9-inside-3_1_6798)"/>
<mask id="path-11-inside-4_1_6798" fill="white">
<path d="M15.7142 12.8567L14.2856 11.4282L14.9999 10.7139L16.4285 12.1424L15.7142 12.8567Z"/>
</mask>
<path d="M15.7142 12.8567L14.2856 11.4282L14.9999 10.7139L16.4285 12.1424L15.7142 12.8567Z" fill="white"/>
<path d="M15.7142 12.8567L14.6536 13.9174L15.7142 14.978L16.7749 13.9174L15.7142 12.8567ZM14.2856 11.4282L13.225 10.3675L12.1643 11.4282L13.225 12.4888L14.2856 11.4282ZM14.9999 10.7139L16.0606 9.65321L14.9999 8.59255L13.9393 9.65321L14.9999 10.7139ZM16.4285 12.1424L17.4892 13.2031L18.5498 12.1424L17.4892 11.0818L16.4285 12.1424ZM16.7749 11.7961L15.3463 10.3675L13.225 12.4888L14.6536 13.9174L16.7749 11.7961ZM15.3463 12.4888L16.0606 11.7745L13.9393 9.65321L13.225 10.3675L15.3463 12.4888ZM13.9393 11.7745L15.3678 13.2031L17.4892 11.0818L16.0606 9.65321L13.9393 11.7745ZM15.3678 11.0818L14.6536 11.7961L16.7749 13.9174L17.4892 13.2031L15.3678 11.0818Z" fill="#083983" mask="url(#path-11-inside-4_1_6798)"/>
<mask id="path-13-inside-5_1_6798" fill="white">
<path d="M19.9998 7.85742H21.4283V10.7146H19.9998V7.85742Z"/>
</mask>
<path d="M19.9998 7.85742H21.4283V10.7146H19.9998V7.85742Z" fill="white"/>
<path d="M19.9998 7.85742V6.35742H18.4998V7.85742H19.9998ZM21.4283 7.85742H22.9283V6.35742H21.4283V7.85742ZM21.4283 10.7146V12.2146H22.9283V10.7146H21.4283ZM19.9998 10.7146H18.4998V12.2146H19.9998V10.7146ZM19.9998 9.35742H21.4283V6.35742H19.9998V9.35742ZM19.9283 7.85742V10.7146H22.9283V7.85742H19.9283ZM21.4283 9.21457H19.9998V12.2146H21.4283V9.21457ZM21.4998 10.7146V7.85742H18.4998V10.7146H21.4998Z" fill="#083983" mask="url(#path-13-inside-5_1_6798)"/>
<path d="M16.4644 23.9289C16.4644 23.8175 16.5052 23.7301 16.5546 23.6757C16.6029 23.6225 16.651 23.6074 16.6884 23.6074H25.4546C25.492 23.6074 25.5401 23.6225 25.5884 23.6757C25.6378 23.7301 25.6786 23.8175 25.6786 23.9289V24.2503H16.4644V23.9289Z" fill="white" stroke="#083983" stroke-width="1.5"/>
<path d="M17.1785 16.6276C17.1785 15.4987 17.7086 14.4728 18.5514 13.783L18.5721 13.9666L19.1911 19.4567L19.2571 20.0416L18.6802 20.9703L18.418 21.3926H17.1785V16.6276ZM23.4624 20.9703L22.8856 20.0416L22.9515 19.4567L23.5706 13.9666L23.5913 13.783C24.434 14.4728 24.9642 15.4987 24.9642 16.6276V21.3926H23.7247L23.4624 20.9703ZM22.4466 13.1326H19.696C20.1225 12.9777 20.5857 12.8926 21.0713 12.8926C21.557 12.8926 22.0201 12.9777 22.4466 13.1326Z" fill="white" stroke="#083983" stroke-width="1.5"/>
</svg>
