<svg width="22" height="30" viewBox="0 0 22 30" fill="none" xmlns="http://www.w3.org/2000/svg">
<path d="M5.25 4.5H6.125V4.18355C5.6408 3.91811 5.3125 3.40363 5.3125 2.8125C5.3125 1.94958 6.01208 1.25 6.875 1.25H6.88185H6.8888H6.89586H6.90302H6.91028H6.91766H6.92513H6.93271H6.94039H6.94818H6.95606H6.96405H6.97214H6.98033H6.98862H6.99701H7.0055H7.01409H7.02278H7.03157H7.04045H7.04943H7.05851H7.06769H7.07696H7.08633H7.09579H7.10535H7.11501H7.12476H7.1346H7.14453H7.15456H7.16468H7.1749H7.1852H7.1956H7.20608H7.21666H7.22733H7.23809H7.24893H7.25987H7.2709H7.28201H7.29321H7.30449H7.31587H7.32733H7.33887H7.35051H7.36222H7.37402H7.38591H7.39788H7.40993H7.42207H7.43429H7.44659H7.45897H7.47144H7.48398H7.49661H7.50931H7.5221H7.53496H7.54791H7.56093H7.57403H7.58721H7.60047H7.6138H7.62721H7.64069H7.65425H7.66789H7.6816H7.69538H7.70924H7.72317H7.73718H7.75125H7.7654H7.77963H7.79392H7.80828H7.82272H7.83722H7.8518H7.86644H7.88116H7.89594H7.91079H7.9257H7.94069H7.95574H7.97086H7.98604H8.00129H8.01661H8.03199H8.04743H8.06294H8.07851H8.09414H8.10984H8.1256H8.14142H8.15731H8.17325H8.18925H8.20532H8.22144H8.23763H8.25387H8.27017H8.28653H8.30295H8.31942H8.33596H8.35254H8.36919H8.38589H8.40264H8.41945H8.43632H8.45324H8.47021H8.48723H8.50431H8.52144H8.53862H8.55586H8.57314H8.59048H8.60786H8.6253H8.64278H8.66032H8.6779H8.69553H8.71321H8.73094H8.74871H8.76653H8.78439H8.80231H8.82026H8.83826H8.85631H8.8744H8.89253H8.91071H8.92893H8.94719H8.96549H8.98384H9.00222H9.02065H9.03912H9.05763H9.07617H9.09476H9.11338H9.13205H9.15075H9.16948H9.18826H9.20707H9.22592H9.2448H9.26372H9.28267H9.30166H9.32068H9.33974H9.35883H9.37795H9.3971H9.41629H9.43551H9.45476H9.47404H9.49335H9.51268H9.53205H9.55145H9.57088H9.59034H9.60982H9.62933H9.64887H9.66843H9.68802H9.70764H9.72728H9.74695H9.76664H9.78635H9.80609H9.82585H9.84564H9.86545H9.88528H9.90513H9.925H9.94489H9.96481H9.98474H10.0047H10.0247H10.0447H10.0647H10.0847H10.1047H10.1248H10.1449H10.165H10.1851H10.2052H10.2253H10.2455H10.2657H10.2859H10.306H10.3263H10.3465H10.3667H10.387H10.4072H10.4275H10.4478H10.468H10.4883H10.5087H10.529H10.5493H10.5696H10.59H10.6103H10.6307H10.651H10.6714H10.6918H10.7121H10.7325H10.7529H10.7733H10.7937H10.8141H10.8345H10.8549H10.8753H10.8957H10.9161H10.9365H10.9569H10.9773H10.9977H11.0181H11.0385H11.0589H11.0793H11.0997H11.1201H11.1404H11.1608H11.1812H11.2016H11.2219H11.2423H11.2626H11.283H11.3033H11.3237H11.344H11.3643H11.3846H11.4049H11.4252H11.4455H11.4657H11.486H11.5063H11.5265H11.5467H11.5669H11.5871H11.6073H11.6275H11.6476H11.6678H11.6879H11.708H11.7281H11.7482H11.7683H11.7883H11.8083H11.8283H11.8483H11.8683H11.8883H11.9082H11.9281H11.948H11.9679H11.9878H12.0076H12.0274H12.0472H12.067H12.0867H12.1064H12.1261H12.1458H12.1654H12.185H12.2046H12.2242H12.2437H12.2633H12.2827H12.3022H12.3216H12.341H12.3604H12.3798H12.3991H12.4184H12.4376H12.4568H12.476H12.4952H12.5143H12.5334H12.5525H12.5715H12.5905H12.6094H12.6284H12.6473H12.6661H12.6849H12.7037H12.7225H12.7412H12.7598H12.7785H12.797H12.8156H12.8341H12.8526H12.871H12.8894H12.9078H12.9261H12.9443H12.9626H12.9808H12.9989H13.017H13.035H13.053H13.071H13.0889H13.1068H13.1246H13.1424H13.1601H13.1778H13.1955H13.2131H13.2306H13.2481H13.2655H13.2829H13.3003H13.3176H13.3348H13.352H13.3691H13.3862H13.4032H13.4202H13.4372H13.454H13.4708H13.4876H13.5043H13.521H13.5376H13.5541H13.5706H13.587H13.6034H13.6197H13.6359H13.6521H13.6683H13.6843H13.7004H13.7163H13.7322H13.748H13.7638H13.7795H13.7952H13.8107H13.8263H13.8417H13.8571H13.8724H13.8877H13.9029H13.918H13.9331H13.9481H13.963H13.9779H13.9926H14.0074H14.022H14.0366H14.0511H14.0656H14.0799H14.0942H14.1085H14.1226H14.1367H14.1507H14.1647H14.1786H14.1924H14.2061H14.2197H14.2333H14.2468H14.2602H14.2736H14.2868H14.3H14.3131H14.3262H14.3391H14.352H14.3648H14.3775H14.3901H14.4027H14.4152H14.4276H14.4399H14.4521H14.4643H14.4763H14.4883H14.5002H14.512H14.5238H14.5354H14.547H14.5584H14.5698H14.5811H14.5923H14.6035H14.6145H14.6254H14.6363H14.6471H14.6578H14.6684H14.6789H14.6893H14.6996H14.7098H14.7199H14.73H14.7399H14.7498H14.7596H14.7692H14.7788H14.7883H14.7977H14.8069H14.8161H14.8252H14.8342H14.8431H14.8519H14.8606H14.8692H14.8777H14.8861H14.8945H14.9027H14.9108H14.9188H14.9267H14.9345H14.9422H14.9498H14.9572H14.9646H14.9719H14.9791H14.9862H14.9931H15C15.8629 1.25 16.5625 1.94958 16.5625 2.8125C16.5625 3.40363 16.2342 3.91811 15.75 4.18355V4.5H16.625C18.8313 4.5 20.625 6.29372 20.625 8.5V23.125C20.625 25.2155 19.0146 26.9356 16.9688 27.1104V27.1875C16.9688 28.0504 16.2692 28.75 15.4062 28.75C14.5433 28.75 13.8438 28.0504 13.8438 27.1875V27.125H8.03125V27.1875C8.03125 28.0504 7.33167 28.75 6.46875 28.75C5.60583 28.75 4.90625 28.0504 4.90625 27.1875V27.1104C2.86039 26.9356 1.25 25.2155 1.25 23.125V8.5C1.25 6.29372 3.04372 4.5 5.25 4.5ZM12.625 4.375H9.25V4.5H12.625V4.375ZM14.9375 21.9062C14.9375 21.9409 14.9653 21.9688 15 21.9688C15.0347 21.9688 15.0625 21.9409 15.0625 21.9062V9.71875C15.0625 9.68406 15.0347 9.65625 15 9.65625C14.9653 9.65625 14.9375 9.68406 14.9375 9.71875V21.9062ZM10.875 21.9062C10.875 21.9409 10.9028 21.9688 10.9375 21.9688C10.9722 21.9688 11 21.9409 11 21.9062V9.71875C11 9.68406 10.9722 9.65625 10.9375 9.65625C10.9028 9.65625 10.875 9.68406 10.875 9.71875V21.9062ZM6.9375 21.9062V9.71875C6.9375 9.68406 6.90969 9.65625 6.875 9.65625C6.84031 9.65625 6.8125 9.68406 6.8125 9.71875V21.9062C6.8125 21.9409 6.84031 21.9688 6.875 21.9688C6.90969 21.9688 6.9375 21.9409 6.9375 21.9062Z" fill="white" stroke="#083983" stroke-width="1.5"/>
</svg>
