<svg width="42" height="42" viewBox="0 0 42 42" fill="none" xmlns="http://www.w3.org/2000/svg">
<path d="M32.218 21.2418L34.7785 23.8024C34.9372 23.9642 35.0261 24.1817 35.0261 24.4084C35.0261 24.635 34.9372 24.8526 34.7785 25.0143C34.6174 25.1743 34.3996 25.264 34.1725 25.264C33.9455 25.264 33.7277 25.1743 33.5665 25.0143L32.4655 23.9048L32.4655 28.6759C32.4635 29.3544 32.193 30.0045 31.7133 30.4843C31.2335 30.964 30.5834 31.2345 29.9049 31.2365L19.5859 31.2365C19.6884 30.6721 19.6884 30.0938 19.5859 29.5294L29.9049 29.5294C30.1313 29.5294 30.3484 29.4395 30.5085 29.2795C30.6685 29.1194 30.7585 28.9023 30.7585 28.6759L30.7585 23.9048L29.6574 25.0143C29.5778 25.0939 29.4834 25.1571 29.3794 25.2001C29.2754 25.2432 29.164 25.2654 29.0514 25.2654C28.9389 25.2654 28.8274 25.2432 28.7235 25.2001C28.6195 25.1571 28.525 25.0939 28.4454 25.0143C28.2847 24.8536 28.1944 24.6356 28.1944 24.4084C28.1944 24.2958 28.2166 24.1844 28.2597 24.0804C28.3027 23.9764 28.3659 23.8819 28.4454 23.8024L31.006 21.2418C31.1671 21.0819 31.385 20.9922 31.612 20.9922C31.839 20.9922 32.0568 21.0819 32.218 21.2418Z" fill="#083983"/>
<path d="M13.1436 11L15.7517 11C15.6493 11.5644 15.6493 12.1426 15.7517 12.707L13.1436 12.707C12.9173 12.707 12.7002 12.797 12.5401 12.957C12.38 13.1171 12.2901 13.3342 12.2901 13.5605L12.2901 25.0788L13.3912 23.9692C13.5523 23.8093 13.7701 23.7196 13.9971 23.7196C14.2242 23.7196 14.442 23.8093 14.6031 23.9692C14.7618 24.131 14.8507 24.3486 14.8507 24.5752C14.8507 24.8018 14.7618 25.0194 14.6031 25.1812L12.0426 27.7417C11.8814 27.9016 11.6636 27.9914 11.4366 27.9914C11.2096 27.9914 10.9918 27.9016 10.8306 27.7417L8.27005 25.1812C8.10933 25.0205 8.01904 24.8025 8.01904 24.5752C8.01904 24.3479 8.10933 24.1299 8.27005 23.9692C8.43077 23.8085 8.64876 23.7182 8.87605 23.7182C9.10334 23.7182 9.32133 23.8085 9.48205 23.9692L10.5831 25.0788L10.5831 13.5605C10.5851 12.8821 10.8555 12.232 11.3353 11.7522C11.815 11.2724 12.4652 11.002 13.1436 11Z" fill="#083983"/>
<path d="M21.9951 17.458C21.9951 17.1918 21.7793 16.9761 21.5132 16.9761C21.247 16.9761 21.0313 17.1918 21.0313 17.458V19.5464H18.9429C18.6767 19.5464 18.4609 19.7621 18.4609 20.0283C18.4609 20.2945 18.6767 20.5102 18.9429 20.5102H21.0313V22.5986C21.0313 22.8648 21.247 23.0806 21.5132 23.0806C21.7793 23.0806 21.9951 22.8648 21.9951 22.5986V20.5102H24.0835C24.3497 20.5102 24.5654 20.2945 24.5654 20.0283C24.5654 19.7621 24.3497 19.5464 24.0835 19.5464H21.9951V17.458Z" fill="#083983"/>
<path fill-rule="evenodd" clip-rule="evenodd" d="M21.5132 26.936C17.6982 26.936 14.6055 23.8433 14.6055 20.0283C14.6055 16.2133 17.6982 13.1206 21.5132 13.1206C25.3282 13.1206 28.4209 16.2133 28.4209 20.0283C28.4209 23.8433 25.3282 26.936 21.5132 26.936ZM15.5693 20.0283C15.5693 23.311 18.2305 25.9722 21.5132 25.9722C24.7959 25.9722 27.457 23.311 27.457 20.0283C27.457 16.7456 24.7959 14.0845 21.5132 14.0845C18.2305 14.0845 15.5693 16.7456 15.5693 20.0283Z" fill="#083983"/>
<path d="M21.9951 17.458C21.9951 17.1918 21.7793 16.9761 21.5132 16.9761C21.247 16.9761 21.0313 17.1918 21.0313 17.458V19.5464H18.9429C18.6767 19.5464 18.4609 19.7621 18.4609 20.0283C18.4609 20.2945 18.6767 20.5102 18.9429 20.5102H21.0313V22.5986C21.0313 22.8648 21.247 23.0806 21.5132 23.0806C21.7793 23.0806 21.9951 22.8648 21.9951 22.5986V20.5102H24.0835C24.3497 20.5102 24.5654 20.2945 24.5654 20.0283C24.5654 19.7621 24.3497 19.5464 24.0835 19.5464H21.9951V17.458Z" stroke="#083983" stroke-width="0.5"/>
<path fill-rule="evenodd" clip-rule="evenodd" d="M21.5132 26.936C17.6982 26.936 14.6055 23.8433 14.6055 20.0283C14.6055 16.2133 17.6982 13.1206 21.5132 13.1206C25.3282 13.1206 28.4209 16.2133 28.4209 20.0283C28.4209 23.8433 25.3282 26.936 21.5132 26.936ZM15.5693 20.0283C15.5693 23.311 18.2305 25.9722 21.5132 25.9722C24.7959 25.9722 27.457 23.311 27.457 20.0283C27.457 16.7456 24.7959 14.0845 21.5132 14.0845C18.2305 14.0845 15.5693 16.7456 15.5693 20.0283Z" stroke="#083983" stroke-width="0.5"/>
</svg>
