<svg width="42" height="42" viewBox="0 0 42 42" fill="none" xmlns="http://www.w3.org/2000/svg">
<path d="M29.4199 9.25C30.553 9.25002 31.6411 9.69607 32.4443 10.4922C33.2479 11.2887 33.7012 12.3707 33.7012 13.5V24C33.7012 25.1293 33.2479 26.2113 32.4443 27.0078C31.6411 27.8039 30.553 28.25 29.4199 28.25H24.873V28.5H25.8887C26.3195 28.5 26.7343 28.6697 27.041 28.9736C27.3479 29.2779 27.5215 29.6919 27.5215 30.125C27.5215 30.5581 27.3479 30.9721 27.041 31.2764C26.7343 31.5803 26.3195 31.75 25.8887 31.75H17.0615C16.6307 31.7499 16.2158 31.5803 15.9092 31.2764C15.6024 30.9722 15.4287 30.558 15.4287 30.125C15.4287 29.692 15.6024 29.2778 15.9092 28.9736C16.2158 28.6697 16.6307 28.5001 17.0615 28.5H18.0771V28.25H13.5312C12.398 28.25 11.3092 27.8041 10.5059 27.0078C9.70233 26.2113 9.25 25.1293 9.25 24V13.5L9.25488 13.2891C9.3075 12.2367 9.7525 11.239 10.5059 10.4922C11.3092 9.6959 12.398 9.25 13.5312 9.25H29.4199ZM21.3428 28.5H21.6084V28.25H21.3428V28.5ZM26.7715 21.25C26.7343 21.2501 26.7001 21.265 26.6758 21.2891C26.6516 21.313 26.6387 21.344 26.6387 21.375C26.6387 21.406 26.6516 21.437 26.6758 21.4609C26.7001 21.485 26.7343 21.4999 26.7715 21.5H29.4199C29.4571 21.5 29.4913 21.485 29.5156 21.4609C29.5398 21.437 29.5527 21.406 29.5527 21.375C29.5527 21.344 29.5398 21.313 29.5156 21.2891C29.4913 21.265 29.4571 21.25 29.4199 21.25H26.7715ZM17.0615 16.041C17.0316 16.0411 17.0029 16.0494 16.9775 16.0635C16.9551 16.0761 16.9366 16.0934 16.9229 16.1133L15.418 19.0889L15.21 19.5H13.5312C13.4939 19.5 13.459 19.5149 13.4346 19.5391C13.4105 19.563 13.3984 19.594 13.3984 19.625C13.3984 19.656 13.4105 19.687 13.4346 19.7109C13.459 19.7351 13.4939 19.75 13.5312 19.75H15.2998L15.335 19.7451C15.3463 19.742 15.3573 19.7375 15.3672 19.7314C15.3868 19.7194 15.4018 19.7023 15.4111 19.6836L15.4131 19.6797L16.3926 17.7461L17.0625 16.4238L17.7314 17.7471L19.5938 21.4307L19.5996 21.4424L19.6357 21.4824C19.6506 21.4922 19.6679 21.4983 19.6865 21.5H19.7061C19.7291 21.4999 19.7519 21.4939 19.7715 21.4834C19.7908 21.4729 19.8071 21.4584 19.8184 21.4414L19.8213 21.4355L21.3311 19.2051L21.5537 18.875H24.123L24.1768 18.8643C24.1929 18.8576 24.2076 18.8479 24.2197 18.8359C24.2438 18.812 24.2559 18.781 24.2559 18.75C24.2559 18.719 24.2438 18.688 24.2197 18.6641C24.2076 18.6521 24.1929 18.6424 24.1768 18.6357L24.123 18.625H21.4795L21.4453 18.6289C21.4344 18.6317 21.4238 18.6363 21.4141 18.6416C21.3946 18.6521 21.3785 18.6666 21.3672 18.6836L21.3633 18.6904L20.4365 20.0547L19.7207 21.1094L19.1465 19.9717L17.1992 16.1133C17.1855 16.0937 17.1686 16.0759 17.1465 16.0635C17.1211 16.0492 17.0916 16.041 17.0615 16.041ZM26.7715 18.625C26.7343 18.6251 26.7001 18.64 26.6758 18.6641C26.6516 18.688 26.6387 18.719 26.6387 18.75C26.6387 18.781 26.6516 18.812 26.6758 18.8359C26.7001 18.86 26.7343 18.8749 26.7715 18.875H28.5371C28.5744 18.875 28.6094 18.8601 28.6338 18.8359C28.6578 18.812 28.6699 18.7809 28.6699 18.75C28.6699 18.7191 28.6578 18.688 28.6338 18.6641C28.6094 18.6399 28.5744 18.625 28.5371 18.625H26.7715ZM26.7715 16C26.7343 16.0001 26.7001 16.015 26.6758 16.0391C26.6516 16.063 26.6387 16.094 26.6387 16.125C26.6387 16.156 26.6516 16.187 26.6758 16.2109C26.7001 16.235 26.7343 16.2499 26.7715 16.25H29.4199C29.4571 16.25 29.4913 16.235 29.5156 16.2109C29.5398 16.187 29.5527 16.156 29.5527 16.125C29.5527 16.094 29.5398 16.063 29.5156 16.0391C29.4913 16.015 29.4571 16 29.4199 16H26.7715Z" fill="white" stroke="#083983" stroke-width="1.5"/>
</svg>
