<svg width="31" height="31" viewBox="0 0 31 31" fill="none" xmlns="http://www.w3.org/2000/svg">
<path d="M21.446 6.38769C22.064 6.38769 22.5764 5.90507 22.5764 5.32308V1.06462C22.5764 0.482626 22.064 0 21.446 0C20.828 0 20.3156 0.482626 20.3156 1.06462V5.32308C20.3156 5.90507 20.828 6.38769 21.446 6.38769Z" fill="#9C9C9C"/>
<path d="M9.38863 6.38769C10.0066 6.38769 10.519 5.90507 10.519 5.32308V1.06462C10.519 0.482626 10.0066 0 9.38863 0C8.77067 0 8.25822 0.482626 8.25822 1.06462V5.32308C8.25822 5.90507 8.77067 6.38769 9.38863 6.38769Z" fill="#9C9C9C"/>
<path d="M20.6925 18.8086C20.8884 18.8086 21.0844 18.766 21.2652 18.6951C21.4612 18.6241 21.6119 18.5247 21.7626 18.397C22.0339 18.1273 22.1997 17.7724 22.1997 17.3891C22.1997 17.2046 22.1545 17.0201 22.0791 16.8497C22.0038 16.6794 21.8983 16.5233 21.7626 16.3813C21.6119 16.2536 21.4612 16.1542 21.2652 16.0832C20.7226 15.8703 20.0444 15.9838 19.6224 16.3813C19.3511 16.651 19.1853 17.0201 19.1853 17.3891C19.1853 17.4743 19.2003 17.5737 19.2154 17.673C19.2305 17.7582 19.2606 17.8434 19.3059 17.9285C19.336 18.0137 19.3812 18.0989 19.4415 18.1841C19.4867 18.255 19.5621 18.326 19.6224 18.397C19.9087 18.6525 20.3006 18.8086 20.6925 18.8086Z" fill="#9C9C9C"/>
<path d="M15.4173 18.8081C15.6133 18.8081 15.8092 18.7655 15.9901 18.6945C16.186 18.6236 16.3367 18.5242 16.4875 18.3964C16.7588 18.1267 16.9246 17.7719 16.9246 17.3886C16.9246 17.2041 16.8793 17.0195 16.804 16.8492C16.7286 16.6789 16.6231 16.5227 16.4875 16.3808C16.3367 16.253 16.186 16.1537 15.9901 16.0827C15.4475 15.8556 14.7692 15.9833 14.3472 16.3808C14.0759 16.6505 13.9101 17.0195 13.9101 17.3886C13.9101 17.4738 13.9252 17.5731 13.9403 17.6725C13.9553 17.7577 13.9855 17.8428 14.0307 17.928C14.0609 18.0132 14.1061 18.0984 14.1664 18.1835C14.2116 18.2545 14.2869 18.3255 14.3472 18.3964C14.6336 18.652 15.0255 18.8081 15.4173 18.8081Z" fill="#9C9C9C"/>
<path d="M10.1422 18.8081C10.3381 18.8081 10.5341 18.7655 10.7149 18.6945C10.9109 18.6236 11.0616 18.5242 11.2123 18.3964C11.2726 18.3255 11.3329 18.2545 11.3932 18.1835C11.4535 18.0984 11.4987 18.0132 11.5288 17.928C11.5741 17.8428 11.6042 17.7577 11.6193 17.6725C11.6343 17.5731 11.6494 17.4738 11.6494 17.3886C11.6494 17.0195 11.4836 16.6505 11.2123 16.3808C11.0616 16.253 10.9109 16.1537 10.7149 16.0827C10.1573 15.8556 9.4941 15.9833 9.07208 16.3808C8.80078 16.6505 8.63498 17.0195 8.63498 17.3886C8.63498 17.4738 8.65006 17.5731 8.66513 17.6725C8.6802 17.7577 8.71034 17.8428 8.75556 17.928C8.7857 18.0132 8.83092 18.0984 8.89121 18.1835C8.93643 18.2545 9.01179 18.3255 9.07208 18.3964C9.35845 18.652 9.75032 18.8081 10.1422 18.8081Z" fill="#9C9C9C"/>
<path d="M20.6925 23.7762C20.8884 23.7762 21.0844 23.7337 21.2652 23.6627C21.4461 23.5918 21.6119 23.4923 21.7626 23.3645C22.0339 23.0948 22.1997 22.7257 22.1997 22.3567C22.1997 22.1721 22.1545 21.9876 22.0791 21.8173C22.0038 21.6327 21.8983 21.4767 21.7626 21.349C21.2049 20.8238 20.18 20.8238 19.6224 21.349C19.3511 21.6187 19.1853 21.9876 19.1853 22.3567C19.1853 22.7257 19.3511 23.0948 19.6224 23.3645C19.9087 23.62 20.3006 23.7762 20.6925 23.7762Z" fill="#9C9C9C"/>
<path d="M15.4173 23.7762C15.8092 23.7762 16.2011 23.62 16.4875 23.3645C16.7588 23.0948 16.9246 22.7257 16.9246 22.3567C16.9246 22.1721 16.8793 21.9876 16.804 21.8173C16.7286 21.6327 16.6231 21.4767 16.4875 21.349C15.9298 20.8238 14.9049 20.8238 14.3472 21.349C14.2116 21.4767 14.1061 21.6327 14.0307 21.8173C13.9553 21.9876 13.9101 22.1721 13.9101 22.3567C13.9101 22.7257 14.0759 23.0948 14.3472 23.3645C14.6336 23.62 15.0255 23.7762 15.4173 23.7762Z" fill="#9C9C9C"/>
<path d="M10.1422 23.7758C10.5341 23.7758 10.926 23.6196 11.2123 23.3641C11.348 23.2364 11.4535 23.0802 11.5288 22.8957C11.6042 22.7254 11.6494 22.5408 11.6494 22.3563C11.6494 22.1718 11.6042 21.9872 11.5288 21.8169C11.4535 21.6323 11.348 21.4762 11.2123 21.3484C10.8657 21.022 10.3381 20.8658 9.85583 20.9652C9.75032 20.9794 9.65989 21.0078 9.56946 21.0504C9.47902 21.0787 9.38859 21.1213 9.29816 21.1781C9.2228 21.2207 9.14744 21.2917 9.07208 21.3484C8.80078 21.6182 8.63498 21.9872 8.63498 22.3563C8.63498 22.7254 8.80078 23.0944 9.07208 23.3641C9.35845 23.6196 9.75032 23.7758 10.1422 23.7758Z" fill="#9C9C9C"/>
<path d="M2.6063 12.1927H28.229C28.8469 12.1927 29.3594 11.7101 29.3594 11.1281C29.3594 10.5461 28.8469 10.0635 28.229 10.0635H2.6063C1.98834 10.0635 1.47589 10.5461 1.47589 11.1281C1.47589 11.7101 1.98834 12.1927 2.6063 12.1927Z" fill="#9C9C9C"/>
<path d="M9.38858 30.5187H21.4463C26.9476 30.5187 30.1128 27.5377 30.1128 22.3566V10.291C30.1128 5.10983 26.9476 2.12891 21.4463 2.12891H9.38858C3.88725 2.12891 0.722094 5.10983 0.722094 10.291V22.3566C0.722094 27.5377 3.88725 30.5187 9.38858 30.5187ZM21.4463 4.25814C25.7569 4.25814 27.852 6.23122 27.852 10.291V22.3566C27.852 26.4163 25.7569 28.3894 21.4463 28.3894H9.38858C5.07795 28.3894 2.98292 26.4163 2.98292 22.3566V10.291C2.98292 6.23122 5.07795 4.25814 9.38858 4.25814H21.4463Z" fill="#9C9C9C"/>
</svg>
