<svg width="28" height="28" viewBox="0 0 28 28" fill="none" xmlns="http://www.w3.org/2000/svg">
<path d="M5.83337 8.1665C6.14279 8.1665 6.43954 8.28942 6.65833 8.50821C6.87713 8.72701 7.00004 9.02375 7.00004 9.33317V22.3893C7.03351 22.9793 7.29874 23.5321 7.73796 23.9274C8.17719 24.3228 8.75482 24.5285 9.34504 24.4998H18.655C19.2453 24.5285 19.8229 24.3228 20.2621 23.9274C20.7013 23.5321 20.9666 22.9793 21 22.3893V9.33317C21 9.02375 21.123 8.72701 21.3417 8.50821C21.5605 8.28942 21.8573 8.1665 22.1667 8.1665C22.4761 8.1665 22.7729 8.28942 22.9917 8.50821C23.2105 8.72701 23.3334 9.02375 23.3334 9.33317V22.3893C23.3001 23.5983 22.789 24.7447 21.9122 25.5777C21.0353 26.4106 19.8641 26.862 18.655 26.8332H9.34504C8.13599 26.862 6.96478 26.4106 6.08792 25.5777C5.21105 24.7447 4.70001 23.5983 4.66671 22.3893V9.33317C4.66671 9.02375 4.78962 8.72701 5.00842 8.50821C5.22721 8.28942 5.52396 8.1665 5.83337 8.1665Z" fill="#002A69"/>
<path d="M4.66667 4.6665H9.33333V2.33317C9.33333 2.02375 9.45625 1.72701 9.67504 1.50821C9.89384 1.28942 10.1906 1.1665 10.5 1.1665H17.5C17.8094 1.1665 18.1062 1.28942 18.325 1.50821C18.5438 1.72701 18.6667 2.02375 18.6667 2.33317V4.6665H23.3333C23.6428 4.6665 23.9395 4.78942 24.1583 5.00821C24.3771 5.22701 24.5 5.52375 24.5 5.83317C24.5 6.14259 24.3771 6.43934 24.1583 6.65813C23.9395 6.87692 23.6428 6.99984 23.3333 6.99984H4.66667C4.35725 6.99984 4.0605 6.87692 3.84171 6.65813C3.62292 6.43934 3.5 6.14259 3.5 5.83317C3.5 5.52375 3.62292 5.22701 3.84171 5.00821C4.0605 4.78942 4.35725 4.6665 4.66667 4.6665ZM16.3333 4.6665V3.49984H11.6667V4.6665H16.3333Z" fill="#002A69"/>
<path d="M15.1667 19.8333V11.6667C15.1667 11.3572 15.2896 11.0605 15.5084 10.8417C15.7272 10.6229 16.0239 10.5 16.3333 10.5C16.6428 10.5 16.9395 10.6229 17.1583 10.8417C17.3771 11.0605 17.5 11.3572 17.5 11.6667V19.8333C17.5 20.1428 17.3771 20.4395 17.1583 20.6583C16.9395 20.8771 16.6428 21 16.3333 21C16.0239 21 15.7272 20.8771 15.5084 20.6583C15.2896 20.4395 15.1667 20.1428 15.1667 19.8333Z" fill="#002A69"/>
<path d="M10.5 19.8333V11.6667C10.5 11.3572 10.623 11.0605 10.8417 10.8417C11.0605 10.6229 11.3573 10.5 11.6667 10.5C11.9761 10.5 12.2729 10.6229 12.4917 10.8417C12.7105 11.0605 12.8334 11.3572 12.8334 11.6667V19.8333C12.8334 20.1428 12.7105 20.4395 12.4917 20.6583C12.2729 20.8771 11.9761 21 11.6667 21C11.3573 21 11.0605 20.8771 10.8417 20.6583C10.623 20.4395 10.5 20.1428 10.5 19.8333Z" fill="#002A69"/>
</svg>
