<svg width="42" height="42" viewBox="0 0 42 42" fill="none" xmlns="http://www.w3.org/2000/svg">
<path d="M24.5741 17.4664C26.1175 16.391 27.0389 14.6272 27.0389 12.7482C27.0389 9.57864 24.4603 7 21.2907 7C18.8949 7 16.7277 8.50912 15.8979 10.7552C15.8065 11.0025 15.933 11.2769 16.1803 11.3683C16.4273 11.4598 16.702 11.3332 16.7933 11.086C17.4852 9.21299 19.2926 7.95453 21.2907 7.95453C23.9339 7.95453 26.0844 10.105 26.0844 12.7482C26.0844 14.0133 25.5832 15.2157 24.7125 16.1042C24.5804 15.4316 24.2526 14.8131 23.757 14.3175C23.4937 14.0545 23.1953 13.8396 22.8732 13.6752C23.4148 13.2219 23.76 12.5413 23.76 11.7815C23.76 10.4199 22.6523 9.31214 21.2907 9.31214C19.9291 9.31214 18.8214 10.4199 18.8214 11.7815C18.8214 12.5422 19.1674 13.2234 19.71 13.6768C18.7726 14.1555 18.079 15.0453 17.8694 16.1075C17.047 15.2747 16.5587 14.1729 16.5028 12.9779C16.4905 12.7147 16.2662 12.5103 16.0037 12.5235C15.7404 12.5358 15.537 12.7593 15.5493 13.0225C15.6332 14.8172 16.5291 16.437 18.0069 17.4662C18.8418 18.049 19.8037 18.3936 20.8134 18.4764V21.3938H9.68167C9.41803 21.3938 9.2044 21.6075 9.2044 21.8711V25.6593C6.84626 25.8991 5 27.8967 5 30.3174C5 32.8989 7.10023 34.999 9.68167 34.999C10.7453 34.999 11.7867 34.6326 12.6139 33.9673C13.4285 33.3122 14.0067 32.3935 14.2421 31.3806C14.3018 31.1238 14.142 30.8674 13.8852 30.8077C13.6285 30.748 13.3721 30.9078 13.3123 31.1645C13.1665 31.792 12.8698 32.3493 12.4659 32.8026C12.3383 32.3144 12.0834 31.8667 11.7171 31.5005C11.5336 31.3171 11.3293 31.1622 11.1102 31.0366C11.5027 30.6603 11.7479 30.1313 11.7479 29.5459C11.7479 28.4066 10.821 27.4797 9.68167 27.4797C8.54234 27.4797 7.61542 28.4066 7.61542 29.5459C7.61542 30.132 7.86118 30.6616 8.25452 31.038C7.59608 31.4155 7.10023 32.0453 6.90029 32.7949C6.31268 32.1359 5.95453 31.2678 5.95453 30.3174C5.95453 28.2619 7.6265 26.5896 9.68167 26.5896C11.3512 26.5896 12.8281 27.7122 13.2734 29.3197C13.3437 29.5736 13.6064 29.7226 13.8607 29.6522C14.1147 29.5819 14.2636 29.3189 14.1932 29.0649C13.6768 27.2002 12.0553 25.8558 10.1589 25.6605V22.3482H20.8134V25.6594C18.4552 25.8993 16.609 27.8966 16.609 30.317C16.609 32.8985 18.7092 34.9987 21.2907 34.9987C23.8722 34.9987 25.9724 32.8985 25.9724 30.317C25.9724 27.8966 24.1262 25.8993 21.768 25.6594V22.3482H26.3739C26.6376 22.3482 26.8512 22.1345 26.8512 21.8709C26.8512 21.6074 26.6376 21.3937 26.3739 21.3937H21.768V18.4764C22.7776 18.3936 23.7395 18.049 24.5741 17.4664ZM7.75848 33.5087C7.77311 32.4606 8.63003 31.6123 9.6818 31.6123C10.1956 31.6123 10.6789 31.8125 11.0425 32.1757C11.4008 32.534 11.5999 33.0091 11.6052 33.5152C11.041 33.8534 10.3817 34.0446 9.68173 34.0446C8.9785 34.0445 8.32031 33.8486 7.75848 33.5087ZM9.68173 28.4343C10.2947 28.4343 10.7934 28.9329 10.7934 29.5459C10.7934 30.1589 10.2947 30.6576 9.68173 30.6576C9.06873 30.6576 8.57002 30.1589 8.57002 29.5459C8.57002 28.9329 9.06873 28.4343 9.68173 28.4343ZM19.3675 33.5085C19.3822 32.4605 20.2391 31.6123 21.2907 31.6123C21.8045 31.6123 22.2878 31.8124 22.6514 32.1756C23.0081 32.5323 23.207 33.0048 23.214 33.5084C22.6521 33.8483 21.9939 34.0442 21.2907 34.0442C20.5875 34.0442 19.9294 33.8484 19.3675 33.5085ZM21.2907 30.6576C20.6777 30.6576 20.179 30.1589 20.179 29.5459C20.179 28.9329 20.6777 28.4343 21.2907 28.4343C21.9037 28.4343 22.4024 28.9329 22.4024 29.5459C22.4024 30.1589 21.9037 30.6576 21.2907 30.6576ZM25.0179 30.317C25.0179 31.2672 24.66 32.1351 24.0725 32.7941C23.9441 32.3093 23.6902 31.8646 23.3262 31.5005C23.1426 31.3171 22.9384 31.1623 22.7192 31.0366C23.1118 30.6603 23.357 30.1313 23.357 29.5459C23.357 28.4066 22.4301 27.4797 21.2907 27.4797C20.1513 27.4797 19.2245 28.4066 19.2245 29.5459C19.2245 30.132 19.4702 30.6616 19.8636 31.038C19.2052 31.4155 18.7095 32.0451 18.5095 32.7948C17.9217 32.1357 17.5634 31.2676 17.5634 30.317C17.5634 28.2619 19.2355 26.5898 21.2906 26.5898C23.3458 26.5898 25.0179 28.2619 25.0179 30.317ZM21.2907 10.2667C22.1259 10.2667 22.8055 10.9462 22.8055 11.7815C22.8055 12.6167 22.1259 13.2963 21.2907 13.2963C20.4555 13.2963 19.7759 12.6167 19.7759 11.7815C19.7759 10.9463 20.4555 10.2667 21.2907 10.2667ZM21.2907 14.251C21.9672 14.251 22.6035 14.5145 23.0821 14.9927C23.5605 15.471 23.8238 16.107 23.8238 16.7836C23.8238 16.7947 23.8247 16.8056 23.8254 16.8166C23.0665 17.2914 22.1955 17.5419 21.2906 17.5419C20.386 17.5419 19.5151 17.2915 18.7559 16.8165C18.7566 16.8055 18.7575 16.7947 18.7575 16.7836C18.7576 15.3871 19.894 14.251 21.2907 14.251Z" fill="#1F3870"/>
<path d="M33.3772 25.6593V21.8708C33.3772 21.6072 33.1635 21.3936 32.8999 21.3936H28.4543C28.1907 21.3936 27.9771 21.6072 27.9771 21.8708C27.9771 22.1344 28.1907 22.3481 28.4543 22.3481H32.4226V25.6593C30.0644 25.8991 28.2181 27.8965 28.2181 30.3169C28.2181 32.8984 30.3183 34.9986 32.8998 34.9986C35.4813 34.9986 37.5815 32.8984 37.5815 30.3169C37.5816 27.8965 35.7353 25.8992 33.3772 25.6593ZM30.9766 33.5083C30.9913 32.4603 31.8481 31.6122 32.8998 31.6122C33.4136 31.6122 33.8969 31.8123 34.2604 32.1755C34.6172 32.5323 34.8161 33.0047 34.8231 33.5083C34.2613 33.8482 33.603 34.0441 32.8998 34.0441C32.1967 34.0441 31.5384 33.8481 30.9766 33.5083ZM32.8998 30.6574C32.2869 30.6574 31.7882 30.1587 31.7882 29.5457C31.7882 28.9327 32.2869 28.4341 32.8998 28.4341C33.5128 28.4341 34.0115 28.9327 34.0115 29.5457C34.0115 30.1587 33.5128 30.6574 32.8998 30.6574ZM35.6817 32.7939C35.5532 32.3091 35.2994 31.8644 34.9353 31.5003C34.7518 31.317 34.5475 31.1621 34.3283 31.0364C34.7209 30.6601 34.9661 30.1312 34.9661 29.5457C34.9661 28.4064 34.0392 27.4795 32.8998 27.4795C31.7606 27.4795 30.8337 28.4064 30.8337 29.5457C30.8337 30.1319 31.0794 30.6614 31.4727 31.0378C30.8144 31.4153 30.3186 32.0449 30.1186 32.7946C29.5308 32.1355 29.1726 31.2674 29.1726 30.3169C29.1726 28.2617 30.8446 26.5897 32.8998 26.5897C34.9549 26.5897 36.627 28.2617 36.627 30.3169C36.627 31.2671 36.2691 32.1349 35.6817 32.7939Z" fill="#1F3870"/>
</svg>
