<svg width="42" height="42" viewBox="0 0 42 42" fill="none" xmlns="http://www.w3.org/2000/svg">
<path d="M35.7027 22.8397H33.1699V19.4682C33.1699 19.0865 32.9228 18.8321 32.5521 18.8321H21.6178V16.0967H24.1506C24.8919 16.0967 25.4479 15.5242 25.4479 14.7608V8.33588C25.4479 7.57252 24.8919 7 24.1506 7H17.8494C17.1081 7 16.5521 7.57252 16.5521 8.33588V14.8244C16.5521 15.5878 17.1081 16.1603 17.8494 16.1603H20.3822V18.8321H9.44788C9.07722 18.8321 8.83012 19.0865 8.83012 19.4682V22.8397H6.2973C5.55598 22.8397 5 23.4122 5 24.1756V30.6641C5 31.4275 5.55598 32 6.2973 32H12.5985C13.3398 32 13.8958 31.4275 13.8958 30.6641V24.1756C13.8958 23.4122 13.3398 22.8397 12.5985 22.8397H10.0656V20.1043H20.3822V22.8397H17.8494C17.1081 22.8397 16.5521 23.4122 16.5521 24.1756V30.6641C16.5521 31.4275 17.1081 32 17.8494 32H24.1506C24.8919 32 25.4479 31.4275 25.4479 30.6641V24.1756C25.4479 23.4122 24.8919 22.8397 24.1506 22.8397H21.6178V20.1043H31.9344V22.8397H29.4015C28.6602 22.8397 28.1042 23.4122 28.1042 24.1756V30.6641C28.1042 31.4275 28.6602 32 29.4015 32H35.7027C36.444 32 37 31.4275 37 30.6641V24.1756C37 23.4122 36.3822 22.8397 35.7027 22.8397ZM12.6602 24.1756C12.6602 24.112 12.5985 24.112 12.6602 24.1756V30.6641C12.6602 30.7277 12.6602 30.7277 12.5985 30.7277H6.2973C6.23552 30.7277 6.23552 30.7277 6.23552 30.6641V24.1756C6.23552 24.112 6.23552 24.112 6.2973 24.112L12.6602 24.1756ZM24.2124 24.1756C24.2124 24.112 24.1506 24.112 24.2124 24.1756V30.6641C24.2124 30.7277 24.2124 30.7277 24.1506 30.7277H17.8494C17.7876 30.7277 17.7876 30.7277 17.7876 30.6641V24.1756C17.7876 24.112 17.7876 24.112 17.8494 24.112L24.2124 24.1756ZM17.7876 14.7608C17.8494 14.8244 17.7876 14.8244 17.7876 14.7608V8.33588C17.7876 8.27226 17.7876 8.27226 17.8494 8.27226H24.1506C24.2124 8.27226 24.2124 8.27226 24.2124 8.33588V14.8244C24.2124 14.888 24.2124 14.888 24.1506 14.888L17.7876 14.7608ZM35.7645 30.6005C35.7645 30.6641 35.7027 30.6641 35.7645 30.6005L29.4015 30.6641C29.3398 30.6641 29.3398 30.6641 29.3398 30.6005V24.1756C29.3398 24.112 29.3398 24.112 29.4015 24.112H35.7027C35.7645 24.112 35.7645 24.112 35.7645 24.1756V30.6005Z" fill="#1F3870"/>
</svg>
