<svg width="28" height="29" viewBox="0 0 28 29" fill="none" xmlns="http://www.w3.org/2000/svg">
<path d="M25.2912 21.5137V18.6905C25.2912 17.1969 24.0761 15.9818 22.5825 15.9818H15.3594V13.5093C18.4181 13.0699 20.7767 10.4323 20.7767 7.25386C20.7767 3.76887 17.9415 0.933594 14.4565 0.933594C10.9715 0.933594 8.1362 3.76887 8.1362 7.25386C8.1362 10.4323 10.4948 13.0699 13.5536 13.5093V15.9818H6.33044C4.83687 15.9818 3.62176 17.1969 3.62176 18.6905V21.5137C2.0659 21.9157 0.913086 23.331 0.913086 25.0107C0.913086 27.0021 2.53325 28.6223 4.52467 28.6223C6.51609 28.6223 8.13626 27.0021 8.13626 25.0107C8.13626 23.3309 6.98345 21.9157 5.42758 21.5137V18.6905C5.42758 18.1926 5.83264 17.7876 6.33049 17.7876H13.5536V21.5134C11.9977 21.9153 10.8449 23.3309 10.8449 25.0107C10.8449 27.0021 12.465 28.6223 14.4565 28.6223C16.4479 28.6223 18.0681 27.0021 18.0681 25.0107C18.0681 23.3309 16.9153 21.9153 15.3594 21.5134V17.7876H22.5825C23.0803 17.7876 23.4854 18.1926 23.4854 18.6905V21.5137C21.9295 21.9157 20.7767 23.331 20.7767 25.0107C20.7767 27.0021 22.3969 28.6223 24.3883 28.6223C26.3797 28.6223 27.9999 27.0021 27.9999 25.0107C27.9998 23.331 26.847 21.9157 25.2912 21.5137ZM6.33044 25.0107C6.33044 26.0064 5.52038 26.8164 4.52467 26.8164C3.52896 26.8164 2.71891 26.0064 2.71891 25.0107C2.71891 24.015 3.52896 23.2049 4.52467 23.2049C5.52038 23.2049 6.33044 24.015 6.33044 25.0107ZM16.2622 25.0107C16.2622 26.0064 15.4522 26.8164 14.4565 26.8164C13.4608 26.8164 12.6507 26.0064 12.6507 25.0107C12.6507 24.015 13.4608 23.2049 14.4565 23.2049C15.4522 23.2049 16.2622 24.015 16.2622 25.0107ZM14.4565 11.7683C11.9672 11.7683 9.94202 9.74313 9.94202 7.25386C9.94202 4.76458 11.9672 2.73936 14.4565 2.73936C16.9457 2.73936 18.9709 4.76453 18.9709 7.2538C18.9709 9.74308 16.9457 11.7683 14.4565 11.7683ZM24.3883 26.8165C23.3926 26.8165 22.5825 26.0064 22.5825 25.0107C22.5825 24.015 23.3926 23.205 24.3883 23.205C25.384 23.205 26.194 24.015 26.194 25.0107C26.194 26.0064 25.384 26.8165 24.3883 26.8165Z" fill="#C6C6C6"/>
</svg>
