<svg width="37" height="30" viewBox="0 0 37 30" fill="none" xmlns="http://www.w3.org/2000/svg">
<mask id="path-1-outside-1_1_1401" maskUnits="userSpaceOnUse" x="0" y="0" width="37" height="30" fill="black">
<rect fill="white" width="37" height="30"/>
<path d="M31.1745 10.9695C32.1888 10.2686 32.8549 9.09846 32.8549 7.7752V6.32759V4.88088C32.8549 2.74094 31.1139 1 28.974 1C26.834 1 25.0931 2.74101 25.0931 4.88088V6.32801V7.7752C25.0931 9.09853 25.7593 10.2687 26.7735 10.9695C25.0735 11.5055 23.6107 12.6119 22.6456 14.0358V13.1666C22.6456 11.0266 20.9046 9.28568 18.7646 9.28568C16.6247 9.28568 14.8838 11.0267 14.8838 13.1666V14.0358C13.9186 12.612 12.4558 11.5055 10.7558 10.9695C11.77 10.2686 12.4362 9.09846 12.4362 7.7752V4.88095C12.4362 2.74101 10.6953 1.00007 8.55525 1.00007C6.61592 1.00007 5.00426 2.42992 4.71913 4.29076C4.68963 4.48326 4.67437 4.68034 4.67437 4.88095V7.7752C4.67437 9.09853 5.34061 10.2687 6.35479 10.9695C3.29324 11.9347 1 14.7503 1 17.9375V20.1969C1 20.4828 1.23177 20.7145 1.5176 20.7145H4.32928C4.61511 20.7145 4.84688 20.4828 4.84688 20.1969C4.84688 19.9111 4.61511 19.6793 4.32928 19.6793H2.03521V17.9375C2.03521 16.3036 2.73316 14.7408 4.00042 13.5367C4.7396 12.8344 5.63067 12.308 6.58206 11.9917L7.20049 13.1931L6.30622 17.0749C6.2643 17.2567 6.32357 17.447 6.46117 17.5729L8.20579 19.1696C8.30467 19.2601 8.42993 19.3054 8.55518 19.3054C8.68043 19.3054 8.80569 19.2602 8.90457 19.1696L10.6491 17.5729C10.7867 17.4469 10.8459 17.2567 10.8041 17.0749L9.90987 13.1932L10.5283 11.9917C11.4797 12.308 12.3708 12.8344 13.11 13.5367C14.0402 14.4204 14.663 15.4975 14.9289 16.6541C14.9455 16.7617 14.9675 16.8675 14.9927 16.972C15.0471 17.2896 15.0752 17.612 15.0752 17.9375V19.6793H6.05453C5.7687 19.6793 5.53692 19.9111 5.53692 20.1969C5.53692 20.4828 5.7687 20.7145 6.05453 20.7145H13.896C12.2634 22.073 11.2093 24.0625 11.2093 26.223V28.4824C11.2093 28.7683 11.4411 29 11.7269 29H14.5386C14.8244 29 15.0562 28.7683 15.0562 28.4824C15.0562 28.1965 14.8244 27.9648 14.5386 27.9648H12.2446V26.223C12.2446 24.5891 12.9426 23.0263 14.2098 21.8222C14.949 21.1199 15.8401 20.5935 16.7915 20.2771L17.4099 21.4787L16.5157 25.3603C16.4738 25.5421 16.533 25.7324 16.6706 25.8584L18.4153 27.4552C18.5141 27.5457 18.6394 27.591 18.7646 27.591C18.8899 27.591 19.0152 27.5457 19.1141 27.4552L20.8587 25.8584C20.9963 25.7324 21.0555 25.5421 21.0136 25.3603L20.1194 21.4787L20.7378 20.2771C21.6892 20.5935 22.5803 21.1199 23.3195 21.8222C24.5867 23.0262 25.2847 24.5891 25.2847 26.223V27.9648H16.2639C15.9781 27.9648 15.7463 28.1965 15.7463 28.4824C15.7463 28.7683 15.9781 29 16.2639 29H25.8023C26.0881 29 26.3199 28.7683 26.3199 28.4824V26.223C26.3199 24.0624 25.2658 22.0729 23.6333 20.7145H26.2804C26.5662 20.7145 26.798 20.4828 26.798 20.1969C26.798 19.9111 26.5662 19.6793 26.2804 19.6793H22.4541V17.9374C22.4541 17.6118 22.4822 17.2891 22.5367 16.9715C22.5618 16.8673 22.5836 16.7619 22.6001 16.6547C22.8659 15.4979 23.4889 14.4206 24.4192 13.5366C25.1585 12.8344 26.0495 12.308 27.0009 11.9916L27.6194 13.1931L26.7252 17.0749C26.6832 17.2567 26.7425 17.4469 26.8801 17.5729L28.6247 19.1696C28.7235 19.2603 28.8488 19.3054 28.974 19.3054C29.0993 19.3054 29.2246 19.2602 29.3234 19.1696L31.0681 17.5729C31.2057 17.447 31.2649 17.2567 31.223 17.0749L30.3288 13.1931L30.9472 11.9917C31.8986 12.308 32.7897 12.8344 33.5289 13.5367C34.7961 14.7407 35.4941 16.3036 35.4941 17.9375V19.6793H28.0058C27.72 19.6793 27.4882 19.9111 27.4882 20.1969C27.4882 20.4828 27.72 20.7145 28.0058 20.7145H36.0117C36.2975 20.7145 36.5293 20.4828 36.5293 20.1969V17.9375C36.5293 14.7503 34.2361 11.9347 31.1745 10.9695ZM5.70951 4.88088C5.70951 3.31176 6.98606 2.03521 8.55525 2.03521C10.1244 2.03521 11.401 3.31176 11.401 4.88088V5.74677C10.2023 5.45109 9.70898 4.21714 9.68657 4.15961C9.61481 3.9701 9.43904 3.83992 9.23683 3.82652C9.03462 3.81341 8.84323 3.91888 8.74705 4.09722C8.73852 4.11319 7.91912 5.58314 5.70951 5.78695V4.88088ZM8.55532 18.0861L7.38292 17.013L8.15943 13.6423H8.95121L9.72772 17.013L8.55532 18.0861ZM7.61414 11.7348C7.71511 11.7183 7.81642 11.7042 7.91794 11.6924C7.93231 11.6908 7.94667 11.6894 7.96104 11.6878C8.04153 11.6791 8.12203 11.672 8.20266 11.6664C8.22501 11.6648 8.24735 11.663 8.26977 11.6616C8.3359 11.6576 8.40203 11.6556 8.46809 11.6538C8.49717 11.6544 8.52597 11.656 8.55518 11.656C8.58439 11.656 8.61319 11.6544 8.64227 11.6538C8.7084 11.6557 8.77453 11.6577 8.84052 11.6616C8.86294 11.663 8.88528 11.6648 8.90777 11.6664C8.9884 11.6721 9.06883 11.6791 9.14925 11.6878C9.16369 11.6893 9.17812 11.6908 9.19256 11.6924C9.29401 11.7042 9.39525 11.7183 9.49622 11.7348L9.04739 12.607H8.06311L7.61414 11.7348ZM8.66857 10.618C8.63325 10.617 8.59793 10.6157 8.5624 10.6152C8.55768 10.615 8.55303 10.615 8.54831 10.6152C8.51285 10.6157 8.47753 10.617 8.44207 10.618C6.9252 10.5582 5.70951 9.30629 5.70951 7.77513V6.82576C7.47084 6.69156 8.55296 5.88882 9.12913 5.28218C9.53272 5.87279 10.2564 6.62175 11.401 6.80391V7.77513C11.4011 9.30629 10.1854 10.5582 8.66857 10.618ZM15.9188 13.1665C15.9189 11.5974 17.1955 10.3208 18.7646 10.3208C19.0589 10.3208 19.3428 10.3656 19.6099 10.449C20.7675 10.8098 21.6103 11.8916 21.6103 13.1666V14.0325C20.4117 13.7368 19.9183 12.5029 19.896 12.4453C19.8242 12.2558 19.6484 12.1257 19.4462 12.1123C19.2442 12.0996 19.0526 12.2046 18.9565 12.383C18.9478 12.3989 18.1285 13.8689 15.9189 14.0727L15.9188 13.1665ZM16.1105 19.414V18.8884C16.2523 19.0215 16.4037 19.1442 16.5641 19.255C16.411 19.3033 16.2598 19.3566 16.1105 19.414ZM18.7646 26.3717L17.5923 25.2986L18.3688 21.9279H19.1606L19.9371 25.2986L18.7646 26.3717ZM17.8237 20.0205C17.9246 20.0039 18.026 19.9898 18.1275 19.9781C18.1418 19.9764 18.1562 19.975 18.1706 19.9734C18.2511 19.9647 18.3316 19.9577 18.4122 19.952C18.4345 19.9504 18.4569 19.9486 18.4793 19.9472C18.5454 19.9432 18.6116 19.9413 18.6776 19.9394C18.7067 19.94 18.7355 19.9416 18.7647 19.9416C18.7939 19.9416 18.8227 19.94 18.8518 19.9394C18.9179 19.9413 18.9841 19.9433 19.0501 19.9472C19.0724 19.9486 19.0948 19.9504 19.1172 19.952C19.1979 19.9577 19.2784 19.9647 19.3587 19.9734C19.3732 19.9749 19.3876 19.9764 19.402 19.9781C19.5035 19.9899 19.6048 20.0039 19.7057 20.0205L19.2568 20.8927H18.2726L17.8237 20.0205ZM21.4188 19.414C21.2696 19.3565 21.1185 19.3033 20.9652 19.255C21.1256 19.1442 21.277 19.0214 21.4188 18.8883V19.414ZM21.6104 16.0607C21.6104 16.2068 21.5993 16.3503 21.578 16.4906C21.5598 16.5724 21.5436 16.6549 21.5284 16.7376C21.2324 17.9455 20.1637 18.8528 18.878 18.9035C18.8426 18.9025 18.8073 18.9012 18.7718 18.9007C18.7671 18.9006 18.7624 18.9006 18.7577 18.9007C18.7222 18.9012 18.6869 18.9025 18.6515 18.9035C17.3661 18.8529 16.2974 17.9459 16.0012 16.7382C15.986 16.6552 15.9697 16.5724 15.9515 16.4902C15.9301 16.35 15.919 16.2066 15.919 16.0607V15.1114C17.6804 14.9772 18.7625 14.1744 19.3387 13.5678C19.7423 14.1583 20.4659 14.9073 21.6105 15.0895V16.0607H21.6104ZM26.1283 4.88088C26.1283 3.31176 27.4049 2.03521 28.974 2.03521C30.5431 2.03521 31.8197 3.31176 31.8197 4.88088V5.74677C30.6211 5.45102 30.1276 4.21714 30.1054 4.15961C30.0336 3.97017 29.8578 3.83998 29.6556 3.82659C29.4531 3.81348 29.262 3.91895 29.1658 4.09729C29.1572 4.11325 28.338 5.58321 26.1284 5.78702V4.88088H26.1283ZM28.974 18.0861L27.8016 17.013L28.5781 13.6423H29.3699L30.1464 17.013L28.974 18.0861ZM28.033 11.7348C28.134 11.7183 28.2352 11.7042 28.3367 11.6924C28.3511 11.6908 28.3655 11.6893 28.38 11.6878C28.4604 11.6791 28.5409 11.672 28.6215 11.6664C28.6439 11.6648 28.6662 11.663 28.6887 11.6616C28.7548 11.6576 28.8209 11.6557 28.887 11.6538C28.916 11.6544 28.9448 11.656 28.974 11.656C29.0033 11.656 29.0321 11.6544 29.0611 11.6538C29.1273 11.6557 29.1934 11.6577 29.2595 11.6616C29.2818 11.663 29.3042 11.6648 29.3266 11.6664C29.4073 11.6721 29.4878 11.6791 29.5683 11.6878C29.5826 11.6893 29.597 11.6908 29.6114 11.6924C29.7129 11.7042 29.8141 11.7183 29.9152 11.7348L29.4663 12.607H28.482L28.033 11.7348ZM29.0872 10.618C29.0518 10.617 29.0165 10.6157 28.981 10.6152C28.9763 10.615 28.9716 10.615 28.9669 10.6152H28.9668C28.9314 10.6157 28.8961 10.617 28.8607 10.618C27.3439 10.5582 26.1282 9.30629 26.1282 7.77513V6.82576C27.8895 6.69156 28.9716 5.88882 29.5478 5.28218C29.9514 5.87279 30.675 6.62175 31.8197 6.80391V7.77513C31.8197 9.30629 30.604 10.5582 29.0872 10.618Z"/>
</mask>
<path d="M31.1745 10.9695C32.1888 10.2686 32.8549 9.09846 32.8549 7.7752V6.32759V4.88088C32.8549 2.74094 31.1139 1 28.974 1C26.834 1 25.0931 2.74101 25.0931 4.88088V6.32801V7.7752C25.0931 9.09853 25.7593 10.2687 26.7735 10.9695C25.0735 11.5055 23.6107 12.6119 22.6456 14.0358V13.1666C22.6456 11.0266 20.9046 9.28568 18.7646 9.28568C16.6247 9.28568 14.8838 11.0267 14.8838 13.1666V14.0358C13.9186 12.612 12.4558 11.5055 10.7558 10.9695C11.77 10.2686 12.4362 9.09846 12.4362 7.7752V4.88095C12.4362 2.74101 10.6953 1.00007 8.55525 1.00007C6.61592 1.00007 5.00426 2.42992 4.71913 4.29076C4.68963 4.48326 4.67437 4.68034 4.67437 4.88095V7.7752C4.67437 9.09853 5.34061 10.2687 6.35479 10.9695C3.29324 11.9347 1 14.7503 1 17.9375V20.1969C1 20.4828 1.23177 20.7145 1.5176 20.7145H4.32928C4.61511 20.7145 4.84688 20.4828 4.84688 20.1969C4.84688 19.9111 4.61511 19.6793 4.32928 19.6793H2.03521V17.9375C2.03521 16.3036 2.73316 14.7408 4.00042 13.5367C4.7396 12.8344 5.63067 12.308 6.58206 11.9917L7.20049 13.1931L6.30622 17.0749C6.2643 17.2567 6.32357 17.447 6.46117 17.5729L8.20579 19.1696C8.30467 19.2601 8.42993 19.3054 8.55518 19.3054C8.68043 19.3054 8.80569 19.2602 8.90457 19.1696L10.6491 17.5729C10.7867 17.4469 10.8459 17.2567 10.8041 17.0749L9.90987 13.1932L10.5283 11.9917C11.4797 12.308 12.3708 12.8344 13.11 13.5367C14.0402 14.4204 14.663 15.4975 14.9289 16.6541C14.9455 16.7617 14.9675 16.8675 14.9927 16.972C15.0471 17.2896 15.0752 17.612 15.0752 17.9375V19.6793H6.05453C5.7687 19.6793 5.53692 19.9111 5.53692 20.1969C5.53692 20.4828 5.7687 20.7145 6.05453 20.7145H13.896C12.2634 22.073 11.2093 24.0625 11.2093 26.223V28.4824C11.2093 28.7683 11.4411 29 11.7269 29H14.5386C14.8244 29 15.0562 28.7683 15.0562 28.4824C15.0562 28.1965 14.8244 27.9648 14.5386 27.9648H12.2446V26.223C12.2446 24.5891 12.9426 23.0263 14.2098 21.8222C14.949 21.1199 15.8401 20.5935 16.7915 20.2771L17.4099 21.4787L16.5157 25.3603C16.4738 25.5421 16.533 25.7324 16.6706 25.8584L18.4153 27.4552C18.5141 27.5457 18.6394 27.591 18.7646 27.591C18.8899 27.591 19.0152 27.5457 19.1141 27.4552L20.8587 25.8584C20.9963 25.7324 21.0555 25.5421 21.0136 25.3603L20.1194 21.4787L20.7378 20.2771C21.6892 20.5935 22.5803 21.1199 23.3195 21.8222C24.5867 23.0262 25.2847 24.5891 25.2847 26.223V27.9648H16.2639C15.9781 27.9648 15.7463 28.1965 15.7463 28.4824C15.7463 28.7683 15.9781 29 16.2639 29H25.8023C26.0881 29 26.3199 28.7683 26.3199 28.4824V26.223C26.3199 24.0624 25.2658 22.0729 23.6333 20.7145H26.2804C26.5662 20.7145 26.798 20.4828 26.798 20.1969C26.798 19.9111 26.5662 19.6793 26.2804 19.6793H22.4541V17.9374C22.4541 17.6118 22.4822 17.2891 22.5367 16.9715C22.5618 16.8673 22.5836 16.7619 22.6001 16.6547C22.8659 15.4979 23.4889 14.4206 24.4192 13.5366C25.1585 12.8344 26.0495 12.308 27.0009 11.9916L27.6194 13.1931L26.7252 17.0749C26.6832 17.2567 26.7425 17.4469 26.8801 17.5729L28.6247 19.1696C28.7235 19.2603 28.8488 19.3054 28.974 19.3054C29.0993 19.3054 29.2246 19.2602 29.3234 19.1696L31.0681 17.5729C31.2057 17.447 31.2649 17.2567 31.223 17.0749L30.3288 13.1931L30.9472 11.9917C31.8986 12.308 32.7897 12.8344 33.5289 13.5367C34.7961 14.7407 35.4941 16.3036 35.4941 17.9375V19.6793H28.0058C27.72 19.6793 27.4882 19.9111 27.4882 20.1969C27.4882 20.4828 27.72 20.7145 28.0058 20.7145H36.0117C36.2975 20.7145 36.5293 20.4828 36.5293 20.1969V17.9375C36.5293 14.7503 34.2361 11.9347 31.1745 10.9695ZM5.70951 4.88088C5.70951 3.31176 6.98606 2.03521 8.55525 2.03521C10.1244 2.03521 11.401 3.31176 11.401 4.88088V5.74677C10.2023 5.45109 9.70898 4.21714 9.68657 4.15961C9.61481 3.9701 9.43904 3.83992 9.23683 3.82652C9.03462 3.81341 8.84323 3.91888 8.74705 4.09722C8.73852 4.11319 7.91912 5.58314 5.70951 5.78695V4.88088ZM8.55532 18.0861L7.38292 17.013L8.15943 13.6423H8.95121L9.72772 17.013L8.55532 18.0861ZM7.61414 11.7348C7.71511 11.7183 7.81642 11.7042 7.91794 11.6924C7.93231 11.6908 7.94667 11.6894 7.96104 11.6878C8.04153 11.6791 8.12203 11.672 8.20266 11.6664C8.22501 11.6648 8.24735 11.663 8.26977 11.6616C8.3359 11.6576 8.40203 11.6556 8.46809 11.6538C8.49717 11.6544 8.52597 11.656 8.55518 11.656C8.58439 11.656 8.61319 11.6544 8.64227 11.6538C8.7084 11.6557 8.77453 11.6577 8.84052 11.6616C8.86294 11.663 8.88528 11.6648 8.90777 11.6664C8.9884 11.6721 9.06883 11.6791 9.14925 11.6878C9.16369 11.6893 9.17812 11.6908 9.19256 11.6924C9.29401 11.7042 9.39525 11.7183 9.49622 11.7348L9.04739 12.607H8.06311L7.61414 11.7348ZM8.66857 10.618C8.63325 10.617 8.59793 10.6157 8.5624 10.6152C8.55768 10.615 8.55303 10.615 8.54831 10.6152C8.51285 10.6157 8.47753 10.617 8.44207 10.618C6.9252 10.5582 5.70951 9.30629 5.70951 7.77513V6.82576C7.47084 6.69156 8.55296 5.88882 9.12913 5.28218C9.53272 5.87279 10.2564 6.62175 11.401 6.80391V7.77513C11.4011 9.30629 10.1854 10.5582 8.66857 10.618ZM15.9188 13.1665C15.9189 11.5974 17.1955 10.3208 18.7646 10.3208C19.0589 10.3208 19.3428 10.3656 19.6099 10.449C20.7675 10.8098 21.6103 11.8916 21.6103 13.1666V14.0325C20.4117 13.7368 19.9183 12.5029 19.896 12.4453C19.8242 12.2558 19.6484 12.1257 19.4462 12.1123C19.2442 12.0996 19.0526 12.2046 18.9565 12.383C18.9478 12.3989 18.1285 13.8689 15.9189 14.0727L15.9188 13.1665ZM16.1105 19.414V18.8884C16.2523 19.0215 16.4037 19.1442 16.5641 19.255C16.411 19.3033 16.2598 19.3566 16.1105 19.414ZM18.7646 26.3717L17.5923 25.2986L18.3688 21.9279H19.1606L19.9371 25.2986L18.7646 26.3717ZM17.8237 20.0205C17.9246 20.0039 18.026 19.9898 18.1275 19.9781C18.1418 19.9764 18.1562 19.975 18.1706 19.9734C18.2511 19.9647 18.3316 19.9577 18.4122 19.952C18.4345 19.9504 18.4569 19.9486 18.4793 19.9472C18.5454 19.9432 18.6116 19.9413 18.6776 19.9394C18.7067 19.94 18.7355 19.9416 18.7647 19.9416C18.7939 19.9416 18.8227 19.94 18.8518 19.9394C18.9179 19.9413 18.9841 19.9433 19.0501 19.9472C19.0724 19.9486 19.0948 19.9504 19.1172 19.952C19.1979 19.9577 19.2784 19.9647 19.3587 19.9734C19.3732 19.9749 19.3876 19.9764 19.402 19.9781C19.5035 19.9899 19.6048 20.0039 19.7057 20.0205L19.2568 20.8927H18.2726L17.8237 20.0205ZM21.4188 19.414C21.2696 19.3565 21.1185 19.3033 20.9652 19.255C21.1256 19.1442 21.277 19.0214 21.4188 18.8883V19.414ZM21.6104 16.0607C21.6104 16.2068 21.5993 16.3503 21.578 16.4906C21.5598 16.5724 21.5436 16.6549 21.5284 16.7376C21.2324 17.9455 20.1637 18.8528 18.878 18.9035C18.8426 18.9025 18.8073 18.9012 18.7718 18.9007C18.7671 18.9006 18.7624 18.9006 18.7577 18.9007C18.7222 18.9012 18.6869 18.9025 18.6515 18.9035C17.3661 18.8529 16.2974 17.9459 16.0012 16.7382C15.986 16.6552 15.9697 16.5724 15.9515 16.4902C15.9301 16.35 15.919 16.2066 15.919 16.0607V15.1114C17.6804 14.9772 18.7625 14.1744 19.3387 13.5678C19.7423 14.1583 20.4659 14.9073 21.6105 15.0895V16.0607H21.6104ZM26.1283 4.88088C26.1283 3.31176 27.4049 2.03521 28.974 2.03521C30.5431 2.03521 31.8197 3.31176 31.8197 4.88088V5.74677C30.6211 5.45102 30.1276 4.21714 30.1054 4.15961C30.0336 3.97017 29.8578 3.83998 29.6556 3.82659C29.4531 3.81348 29.262 3.91895 29.1658 4.09729C29.1572 4.11325 28.338 5.58321 26.1284 5.78702V4.88088H26.1283ZM28.974 18.0861L27.8016 17.013L28.5781 13.6423H29.3699L30.1464 17.013L28.974 18.0861ZM28.033 11.7348C28.134 11.7183 28.2352 11.7042 28.3367 11.6924C28.3511 11.6908 28.3655 11.6893 28.38 11.6878C28.4604 11.6791 28.5409 11.672 28.6215 11.6664C28.6439 11.6648 28.6662 11.663 28.6887 11.6616C28.7548 11.6576 28.8209 11.6557 28.887 11.6538C28.916 11.6544 28.9448 11.656 28.974 11.656C29.0033 11.656 29.0321 11.6544 29.0611 11.6538C29.1273 11.6557 29.1934 11.6577 29.2595 11.6616C29.2818 11.663 29.3042 11.6648 29.3266 11.6664C29.4073 11.6721 29.4878 11.6791 29.5683 11.6878C29.5826 11.6893 29.597 11.6908 29.6114 11.6924C29.7129 11.7042 29.8141 11.7183 29.9152 11.7348L29.4663 12.607H28.482L28.033 11.7348ZM29.0872 10.618C29.0518 10.617 29.0165 10.6157 28.981 10.6152C28.9763 10.615 28.9716 10.615 28.9669 10.6152H28.9668C28.9314 10.6157 28.8961 10.617 28.8607 10.618C27.3439 10.5582 26.1282 9.30629 26.1282 7.77513V6.82576C27.8895 6.69156 28.9716 5.88882 29.5478 5.28218C29.9514 5.87279 30.675 6.62175 31.8197 6.80391V7.77513C31.8197 9.30629 30.604 10.5582 29.0872 10.618Z" fill="#C6C6C6"/>
<path d="M31.1745 10.9695C32.1888 10.2686 32.8549 9.09846 32.8549 7.7752V6.32759V4.88088C32.8549 2.74094 31.1139 1 28.974 1C26.834 1 25.0931 2.74101 25.0931 4.88088V6.32801V7.7752C25.0931 9.09853 25.7593 10.2687 26.7735 10.9695C25.0735 11.5055 23.6107 12.6119 22.6456 14.0358V13.1666C22.6456 11.0266 20.9046 9.28568 18.7646 9.28568C16.6247 9.28568 14.8838 11.0267 14.8838 13.1666V14.0358C13.9186 12.612 12.4558 11.5055 10.7558 10.9695C11.77 10.2686 12.4362 9.09846 12.4362 7.7752V4.88095C12.4362 2.74101 10.6953 1.00007 8.55525 1.00007C6.61592 1.00007 5.00426 2.42992 4.71913 4.29076C4.68963 4.48326 4.67437 4.68034 4.67437 4.88095V7.7752C4.67437 9.09853 5.34061 10.2687 6.35479 10.9695C3.29324 11.9347 1 14.7503 1 17.9375V20.1969C1 20.4828 1.23177 20.7145 1.5176 20.7145H4.32928C4.61511 20.7145 4.84688 20.4828 4.84688 20.1969C4.84688 19.9111 4.61511 19.6793 4.32928 19.6793H2.03521V17.9375C2.03521 16.3036 2.73316 14.7408 4.00042 13.5367C4.7396 12.8344 5.63067 12.308 6.58206 11.9917L7.20049 13.1931L6.30622 17.0749C6.2643 17.2567 6.32357 17.447 6.46117 17.5729L8.20579 19.1696C8.30467 19.2601 8.42993 19.3054 8.55518 19.3054C8.68043 19.3054 8.80569 19.2602 8.90457 19.1696L10.6491 17.5729C10.7867 17.4469 10.8459 17.2567 10.8041 17.0749L9.90987 13.1932L10.5283 11.9917C11.4797 12.308 12.3708 12.8344 13.11 13.5367C14.0402 14.4204 14.663 15.4975 14.9289 16.6541C14.9455 16.7617 14.9675 16.8675 14.9927 16.972C15.0471 17.2896 15.0752 17.612 15.0752 17.9375V19.6793H6.05453C5.7687 19.6793 5.53692 19.9111 5.53692 20.1969C5.53692 20.4828 5.7687 20.7145 6.05453 20.7145H13.896C12.2634 22.073 11.2093 24.0625 11.2093 26.223V28.4824C11.2093 28.7683 11.4411 29 11.7269 29H14.5386C14.8244 29 15.0562 28.7683 15.0562 28.4824C15.0562 28.1965 14.8244 27.9648 14.5386 27.9648H12.2446V26.223C12.2446 24.5891 12.9426 23.0263 14.2098 21.8222C14.949 21.1199 15.8401 20.5935 16.7915 20.2771L17.4099 21.4787L16.5157 25.3603C16.4738 25.5421 16.533 25.7324 16.6706 25.8584L18.4153 27.4552C18.5141 27.5457 18.6394 27.591 18.7646 27.591C18.8899 27.591 19.0152 27.5457 19.1141 27.4552L20.8587 25.8584C20.9963 25.7324 21.0555 25.5421 21.0136 25.3603L20.1194 21.4787L20.7378 20.2771C21.6892 20.5935 22.5803 21.1199 23.3195 21.8222C24.5867 23.0262 25.2847 24.5891 25.2847 26.223V27.9648H16.2639C15.9781 27.9648 15.7463 28.1965 15.7463 28.4824C15.7463 28.7683 15.9781 29 16.2639 29H25.8023C26.0881 29 26.3199 28.7683 26.3199 28.4824V26.223C26.3199 24.0624 25.2658 22.0729 23.6333 20.7145H26.2804C26.5662 20.7145 26.798 20.4828 26.798 20.1969C26.798 19.9111 26.5662 19.6793 26.2804 19.6793H22.4541V17.9374C22.4541 17.6118 22.4822 17.2891 22.5367 16.9715C22.5618 16.8673 22.5836 16.7619 22.6001 16.6547C22.8659 15.4979 23.4889 14.4206 24.4192 13.5366C25.1585 12.8344 26.0495 12.308 27.0009 11.9916L27.6194 13.1931L26.7252 17.0749C26.6832 17.2567 26.7425 17.4469 26.8801 17.5729L28.6247 19.1696C28.7235 19.2603 28.8488 19.3054 28.974 19.3054C29.0993 19.3054 29.2246 19.2602 29.3234 19.1696L31.0681 17.5729C31.2057 17.447 31.2649 17.2567 31.223 17.0749L30.3288 13.1931L30.9472 11.9917C31.8986 12.308 32.7897 12.8344 33.5289 13.5367C34.7961 14.7407 35.4941 16.3036 35.4941 17.9375V19.6793H28.0058C27.72 19.6793 27.4882 19.9111 27.4882 20.1969C27.4882 20.4828 27.72 20.7145 28.0058 20.7145H36.0117C36.2975 20.7145 36.5293 20.4828 36.5293 20.1969V17.9375C36.5293 14.7503 34.2361 11.9347 31.1745 10.9695ZM5.70951 4.88088C5.70951 3.31176 6.98606 2.03521 8.55525 2.03521C10.1244 2.03521 11.401 3.31176 11.401 4.88088V5.74677C10.2023 5.45109 9.70898 4.21714 9.68657 4.15961C9.61481 3.9701 9.43904 3.83992 9.23683 3.82652C9.03462 3.81341 8.84323 3.91888 8.74705 4.09722C8.73852 4.11319 7.91912 5.58314 5.70951 5.78695V4.88088ZM8.55532 18.0861L7.38292 17.013L8.15943 13.6423H8.95121L9.72772 17.013L8.55532 18.0861ZM7.61414 11.7348C7.71511 11.7183 7.81642 11.7042 7.91794 11.6924C7.93231 11.6908 7.94667 11.6894 7.96104 11.6878C8.04153 11.6791 8.12203 11.672 8.20266 11.6664C8.22501 11.6648 8.24735 11.663 8.26977 11.6616C8.3359 11.6576 8.40203 11.6556 8.46809 11.6538C8.49717 11.6544 8.52597 11.656 8.55518 11.656C8.58439 11.656 8.61319 11.6544 8.64227 11.6538C8.7084 11.6557 8.77453 11.6577 8.84052 11.6616C8.86294 11.663 8.88528 11.6648 8.90777 11.6664C8.9884 11.6721 9.06883 11.6791 9.14925 11.6878C9.16369 11.6893 9.17812 11.6908 9.19256 11.6924C9.29401 11.7042 9.39525 11.7183 9.49622 11.7348L9.04739 12.607H8.06311L7.61414 11.7348ZM8.66857 10.618C8.63325 10.617 8.59793 10.6157 8.5624 10.6152C8.55768 10.615 8.55303 10.615 8.54831 10.6152C8.51285 10.6157 8.47753 10.617 8.44207 10.618C6.9252 10.5582 5.70951 9.30629 5.70951 7.77513V6.82576C7.47084 6.69156 8.55296 5.88882 9.12913 5.28218C9.53272 5.87279 10.2564 6.62175 11.401 6.80391V7.77513C11.4011 9.30629 10.1854 10.5582 8.66857 10.618ZM15.9188 13.1665C15.9189 11.5974 17.1955 10.3208 18.7646 10.3208C19.0589 10.3208 19.3428 10.3656 19.6099 10.449C20.7675 10.8098 21.6103 11.8916 21.6103 13.1666V14.0325C20.4117 13.7368 19.9183 12.5029 19.896 12.4453C19.8242 12.2558 19.6484 12.1257 19.4462 12.1123C19.2442 12.0996 19.0526 12.2046 18.9565 12.383C18.9478 12.3989 18.1285 13.8689 15.9189 14.0727L15.9188 13.1665ZM16.1105 19.414V18.8884C16.2523 19.0215 16.4037 19.1442 16.5641 19.255C16.411 19.3033 16.2598 19.3566 16.1105 19.414ZM18.7646 26.3717L17.5923 25.2986L18.3688 21.9279H19.1606L19.9371 25.2986L18.7646 26.3717ZM17.8237 20.0205C17.9246 20.0039 18.026 19.9898 18.1275 19.9781C18.1418 19.9764 18.1562 19.975 18.1706 19.9734C18.2511 19.9647 18.3316 19.9577 18.4122 19.952C18.4345 19.9504 18.4569 19.9486 18.4793 19.9472C18.5454 19.9432 18.6116 19.9413 18.6776 19.9394C18.7067 19.94 18.7355 19.9416 18.7647 19.9416C18.7939 19.9416 18.8227 19.94 18.8518 19.9394C18.9179 19.9413 18.9841 19.9433 19.0501 19.9472C19.0724 19.9486 19.0948 19.9504 19.1172 19.952C19.1979 19.9577 19.2784 19.9647 19.3587 19.9734C19.3732 19.9749 19.3876 19.9764 19.402 19.9781C19.5035 19.9899 19.6048 20.0039 19.7057 20.0205L19.2568 20.8927H18.2726L17.8237 20.0205ZM21.4188 19.414C21.2696 19.3565 21.1185 19.3033 20.9652 19.255C21.1256 19.1442 21.277 19.0214 21.4188 18.8883V19.414ZM21.6104 16.0607C21.6104 16.2068 21.5993 16.3503 21.578 16.4906C21.5598 16.5724 21.5436 16.6549 21.5284 16.7376C21.2324 17.9455 20.1637 18.8528 18.878 18.9035C18.8426 18.9025 18.8073 18.9012 18.7718 18.9007C18.7671 18.9006 18.7624 18.9006 18.7577 18.9007C18.7222 18.9012 18.6869 18.9025 18.6515 18.9035C17.3661 18.8529 16.2974 17.9459 16.0012 16.7382C15.986 16.6552 15.9697 16.5724 15.9515 16.4902C15.9301 16.35 15.919 16.2066 15.919 16.0607V15.1114C17.6804 14.9772 18.7625 14.1744 19.3387 13.5678C19.7423 14.1583 20.4659 14.9073 21.6105 15.0895V16.0607H21.6104ZM26.1283 4.88088C26.1283 3.31176 27.4049 2.03521 28.974 2.03521C30.5431 2.03521 31.8197 3.31176 31.8197 4.88088V5.74677C30.6211 5.45102 30.1276 4.21714 30.1054 4.15961C30.0336 3.97017 29.8578 3.83998 29.6556 3.82659C29.4531 3.81348 29.262 3.91895 29.1658 4.09729C29.1572 4.11325 28.338 5.58321 26.1284 5.78702V4.88088H26.1283ZM28.974 18.0861L27.8016 17.013L28.5781 13.6423H29.3699L30.1464 17.013L28.974 18.0861ZM28.033 11.7348C28.134 11.7183 28.2352 11.7042 28.3367 11.6924C28.3511 11.6908 28.3655 11.6893 28.38 11.6878C28.4604 11.6791 28.5409 11.672 28.6215 11.6664C28.6439 11.6648 28.6662 11.663 28.6887 11.6616C28.7548 11.6576 28.8209 11.6557 28.887 11.6538C28.916 11.6544 28.9448 11.656 28.974 11.656C29.0033 11.656 29.0321 11.6544 29.0611 11.6538C29.1273 11.6557 29.1934 11.6577 29.2595 11.6616C29.2818 11.663 29.3042 11.6648 29.3266 11.6664C29.4073 11.6721 29.4878 11.6791 29.5683 11.6878C29.5826 11.6893 29.597 11.6908 29.6114 11.6924C29.7129 11.7042 29.8141 11.7183 29.9152 11.7348L29.4663 12.607H28.482L28.033 11.7348ZM29.0872 10.618C29.0518 10.617 29.0165 10.6157 28.981 10.6152C28.9763 10.615 28.9716 10.615 28.9669 10.6152H28.9668C28.9314 10.6157 28.8961 10.617 28.8607 10.618C27.3439 10.5582 26.1282 9.30629 26.1282 7.77513V6.82576C27.8895 6.69156 28.9716 5.88882 29.5478 5.28218C29.9514 5.87279 30.675 6.62175 31.8197 6.80391V7.77513C31.8197 9.30629 30.604 10.5582 29.0872 10.618Z" stroke="#C6C6C6" stroke-width="0.4" mask="url(#path-1-outside-1_1_1401)"/>
</svg>
