<svg width="42" height="42" viewBox="0 0 42 42" fill="none" xmlns="http://www.w3.org/2000/svg">
<mask id="path-1-outside-1_1072_10483" maskUnits="userSpaceOnUse" x="2" y="6" width="37" height="30" fill="black">
<rect fill="white" x="2" y="6" width="37" height="30"/>
<path d="M33.1745 16.9695C34.1888 16.2686 34.8549 15.0985 34.8549 13.7752V12.3276V10.8809C34.8549 8.74094 33.1139 7 30.974 7C28.834 7 27.0931 8.74101 27.0931 10.8809V12.328V13.7752C27.0931 15.0985 27.7593 16.2687 28.7735 16.9695C27.0735 17.5055 25.6107 18.6119 24.6456 20.0358V19.1666C24.6456 17.0266 22.9046 15.2857 20.7646 15.2857C18.6247 15.2857 16.8838 17.0267 16.8838 19.1666V20.0358C15.9186 18.612 14.4558 17.5055 12.7558 16.9695C13.77 16.2686 14.4362 15.0985 14.4362 13.7752V10.881C14.4362 8.74101 12.6953 7.00007 10.5552 7.00007C8.61592 7.00007 7.00426 8.42992 6.71913 10.2908C6.68963 10.4833 6.67437 10.6803 6.67437 10.881V13.7752C6.67437 15.0985 7.34061 16.2687 8.35479 16.9695C5.29324 17.9347 3 20.7503 3 23.9375V26.1969C3 26.4828 3.23177 26.7145 3.5176 26.7145H6.32928C6.61511 26.7145 6.84688 26.4828 6.84688 26.1969C6.84688 25.9111 6.61511 25.6793 6.32928 25.6793H4.03521V23.9375C4.03521 22.3036 4.73316 20.7408 6.00042 19.5367C6.7396 18.8344 7.63067 18.308 8.58206 17.9917L9.20049 19.1931L8.30622 23.0749C8.2643 23.2567 8.32357 23.447 8.46117 23.5729L10.2058 25.1696C10.3047 25.2601 10.4299 25.3054 10.5552 25.3054C10.6804 25.3054 10.8057 25.2602 10.9046 25.1696L12.6491 23.5729C12.7867 23.4469 12.8459 23.2567 12.8041 23.0749L11.9099 19.1932L12.5283 17.9917C13.4797 18.308 14.3708 18.8344 15.11 19.5367C16.0402 20.4204 16.663 21.4975 16.9289 22.6541C16.9455 22.7617 16.9675 22.8675 16.9927 22.972C17.0471 23.2896 17.0752 23.612 17.0752 23.9375V25.6793H8.05453C7.7687 25.6793 7.53692 25.9111 7.53692 26.1969C7.53692 26.4828 7.7687 26.7145 8.05453 26.7145H15.896C14.2634 28.073 13.2093 30.0625 13.2093 32.223V34.4824C13.2093 34.7683 13.4411 35 13.7269 35H16.5386C16.8244 35 17.0562 34.7683 17.0562 34.4824C17.0562 34.1965 16.8244 33.9648 16.5386 33.9648H14.2446V32.223C14.2446 30.5891 14.9426 29.0263 16.2098 27.8222C16.949 27.1199 17.8401 26.5935 18.7915 26.2771L19.4099 27.4787L18.5157 31.3603C18.4738 31.5421 18.533 31.7324 18.6706 31.8584L20.4153 33.4552C20.5141 33.5457 20.6394 33.591 20.7646 33.591C20.8899 33.591 21.0152 33.5457 21.1141 33.4552L22.8587 31.8584C22.9963 31.7324 23.0555 31.5421 23.0136 31.3603L22.1194 27.4787L22.7378 26.2771C23.6892 26.5935 24.5803 27.1199 25.3195 27.8222C26.5867 29.0262 27.2847 30.5891 27.2847 32.223V33.9648H18.2639C17.9781 33.9648 17.7463 34.1965 17.7463 34.4824C17.7463 34.7683 17.9781 35 18.2639 35H27.8023C28.0881 35 28.3199 34.7683 28.3199 34.4824V32.223C28.3199 30.0624 27.2658 28.0729 25.6333 26.7145H28.2804C28.5662 26.7145 28.798 26.4828 28.798 26.1969C28.798 25.9111 28.5662 25.6793 28.2804 25.6793H24.4541V23.9374C24.4541 23.6118 24.4822 23.2891 24.5367 22.9715C24.5618 22.8673 24.5836 22.7619 24.6001 22.6547C24.8659 21.4979 25.4889 20.4206 26.4192 19.5366C27.1585 18.8344 28.0495 18.308 29.0009 17.9916L29.6194 19.1931L28.7252 23.0749C28.6832 23.2567 28.7425 23.4469 28.8801 23.5729L30.6247 25.1696C30.7235 25.2603 30.8488 25.3054 30.974 25.3054C31.0993 25.3054 31.2246 25.2602 31.3234 25.1696L33.0681 23.5729C33.2057 23.447 33.2649 23.2567 33.223 23.0749L32.3288 19.1931L32.9472 17.9917C33.8986 18.308 34.7897 18.8344 35.5289 19.5367C36.7961 20.7407 37.4941 22.3036 37.4941 23.9375V25.6793H30.0058C29.72 25.6793 29.4882 25.9111 29.4882 26.1969C29.4882 26.4828 29.72 26.7145 30.0058 26.7145H38.0117C38.2975 26.7145 38.5293 26.4828 38.5293 26.1969V23.9375C38.5293 20.7503 36.2361 17.9347 33.1745 16.9695ZM7.70951 10.8809C7.70951 9.31176 8.98606 8.03521 10.5552 8.03521C12.1244 8.03521 13.401 9.31176 13.401 10.8809V11.7468C12.2023 11.4511 11.709 10.2171 11.6866 10.1596C11.6148 9.9701 11.439 9.83992 11.2368 9.82652C11.0346 9.81341 10.8432 9.91888 10.7471 10.0972C10.7385 10.1132 9.91912 11.5831 7.70951 11.7869V10.8809ZM10.5553 24.0861L9.38292 23.013L10.1594 19.6423H10.9512L11.7277 23.013L10.5553 24.0861ZM9.61414 17.7348C9.71511 17.7183 9.81642 17.7042 9.91794 17.6924C9.93231 17.6908 9.94667 17.6894 9.96104 17.6878C10.0415 17.6791 10.122 17.672 10.2027 17.6664C10.225 17.6648 10.2474 17.663 10.2698 17.6616C10.3359 17.6576 10.402 17.6556 10.4681 17.6538C10.4972 17.6544 10.526 17.656 10.5552 17.656C10.5844 17.656 10.6132 17.6544 10.6423 17.6538C10.7084 17.6557 10.7745 17.6577 10.8405 17.6616C10.8629 17.663 10.8853 17.6648 10.9078 17.6664C10.9884 17.6721 11.0688 17.6791 11.1493 17.6878C11.1637 17.6893 11.1781 17.6908 11.1926 17.6924C11.294 17.7042 11.3953 17.7183 11.4962 17.7348L11.0474 18.607H10.0631L9.61414 17.7348ZM10.6686 16.618C10.6332 16.617 10.5979 16.6157 10.5624 16.6152C10.5577 16.615 10.553 16.615 10.5483 16.6152C10.5129 16.6157 10.4775 16.617 10.4421 16.618C8.9252 16.5582 7.70951 15.3063 7.70951 13.7751V12.8258C9.47084 12.6916 10.553 11.8888 11.1291 11.2822C11.5327 11.8728 12.2564 12.6217 13.401 12.8039V13.7751C13.4011 15.3063 12.1854 16.5582 10.6686 16.618ZM17.9188 19.1665C17.9189 17.5974 19.1955 16.3208 20.7646 16.3208C21.0589 16.3208 21.3428 16.3656 21.6099 16.449C22.7675 16.8098 23.6103 17.8916 23.6103 19.1666V20.0325C22.4117 19.7368 21.9183 18.5029 21.896 18.4453C21.8242 18.2558 21.6484 18.1257 21.4462 18.1123C21.2442 18.0996 21.0526 18.2046 20.9565 18.383C20.9478 18.3989 20.1285 19.8689 17.9189 20.0727L17.9188 19.1665ZM18.1105 25.414V24.8884C18.2523 25.0215 18.4037 25.1442 18.5641 25.255C18.411 25.3033 18.2598 25.3566 18.1105 25.414ZM20.7646 32.3717L19.5923 31.2986L20.3688 27.9279H21.1606L21.9371 31.2986L20.7646 32.3717ZM19.8237 26.0205C19.9246 26.0039 20.026 25.9898 20.1275 25.9781C20.1418 25.9764 20.1562 25.975 20.1706 25.9734C20.2511 25.9647 20.3316 25.9577 20.4122 25.952C20.4345 25.9504 20.4569 25.9486 20.4793 25.9472C20.5454 25.9432 20.6116 25.9413 20.6776 25.9394C20.7067 25.94 20.7355 25.9416 20.7647 25.9416C20.7939 25.9416 20.8227 25.94 20.8518 25.9394C20.9179 25.9413 20.9841 25.9433 21.0501 25.9472C21.0724 25.9486 21.0948 25.9504 21.1172 25.952C21.1979 25.9577 21.2784 25.9647 21.3587 25.9734C21.3732 25.9749 21.3876 25.9764 21.402 25.9781C21.5035 25.9899 21.6048 26.0039 21.7057 26.0205L21.2568 26.8927H20.2726L19.8237 26.0205ZM23.4188 25.414C23.2696 25.3565 23.1185 25.3033 22.9652 25.255C23.1256 25.1442 23.277 25.0214 23.4188 24.8883V25.414ZM23.6104 22.0607C23.6104 22.2068 23.5993 22.3503 23.578 22.4906C23.5598 22.5724 23.5436 22.6549 23.5284 22.7376C23.2324 23.9455 22.1637 24.8528 20.878 24.9035C20.8426 24.9025 20.8073 24.9012 20.7718 24.9007C20.7671 24.9006 20.7624 24.9006 20.7577 24.9007C20.7222 24.9012 20.6869 24.9025 20.6515 24.9035C19.3661 24.8529 18.2974 23.9459 18.0012 22.7382C17.986 22.6552 17.9697 22.5724 17.9515 22.4902C17.9301 22.35 17.919 22.2066 17.919 22.0607V21.1114C19.6804 20.9772 20.7625 20.1744 21.3387 19.5678C21.7423 20.1583 22.4659 20.9073 23.6105 21.0895V22.0607H23.6104ZM28.1283 10.8809C28.1283 9.31176 29.4049 8.03521 30.974 8.03521C32.5431 8.03521 33.8197 9.31176 33.8197 10.8809V11.7468C32.6211 11.451 32.1276 10.2171 32.1054 10.1596C32.0336 9.97017 31.8578 9.83998 31.6556 9.82659C31.4531 9.81348 31.262 9.91895 31.1659 10.0973C31.1572 10.1133 30.338 11.5832 28.1284 11.787V10.8809H28.1283ZM30.974 24.0861L29.8016 23.013L30.5781 19.6423H31.3699L32.1464 23.013L30.974 24.0861ZM30.033 17.7348C30.134 17.7183 30.2352 17.7042 30.3367 17.6924C30.3511 17.6908 30.3655 17.6893 30.38 17.6878C30.4604 17.6791 30.5409 17.672 30.6215 17.6664C30.6439 17.6648 30.6662 17.663 30.6887 17.6616C30.7548 17.6576 30.8209 17.6557 30.887 17.6538C30.916 17.6544 30.9448 17.656 30.974 17.656C31.0033 17.656 31.0321 17.6544 31.0611 17.6538C31.1273 17.6557 31.1934 17.6577 31.2595 17.6616C31.2818 17.663 31.3042 17.6648 31.3266 17.6664C31.4073 17.6721 31.4878 17.6791 31.5683 17.6878C31.5826 17.6893 31.597 17.6908 31.6114 17.6924C31.7129 17.7042 31.8141 17.7183 31.9152 17.7348L31.4663 18.607H30.482L30.033 17.7348ZM31.0872 16.618C31.0518 16.617 31.0165 16.6157 30.981 16.6152C30.9763 16.615 30.9716 16.615 30.9669 16.6152H30.9668C30.9314 16.6157 30.8961 16.617 30.8607 16.618C29.3439 16.5582 28.1282 15.3063 28.1282 13.7751V12.8258C29.8895 12.6916 30.9716 11.8888 31.5478 11.2822C31.9514 11.8728 32.675 12.6217 33.8197 12.8039V13.7751C33.8197 15.3063 32.604 16.5582 31.0872 16.618Z"/>
</mask>
<path d="M33.1745 16.9695C34.1888 16.2686 34.8549 15.0985 34.8549 13.7752V12.3276V10.8809C34.8549 8.74094 33.1139 7 30.974 7C28.834 7 27.0931 8.74101 27.0931 10.8809V12.328V13.7752C27.0931 15.0985 27.7593 16.2687 28.7735 16.9695C27.0735 17.5055 25.6107 18.6119 24.6456 20.0358V19.1666C24.6456 17.0266 22.9046 15.2857 20.7646 15.2857C18.6247 15.2857 16.8838 17.0267 16.8838 19.1666V20.0358C15.9186 18.612 14.4558 17.5055 12.7558 16.9695C13.77 16.2686 14.4362 15.0985 14.4362 13.7752V10.881C14.4362 8.74101 12.6953 7.00007 10.5552 7.00007C8.61592 7.00007 7.00426 8.42992 6.71913 10.2908C6.68963 10.4833 6.67437 10.6803 6.67437 10.881V13.7752C6.67437 15.0985 7.34061 16.2687 8.35479 16.9695C5.29324 17.9347 3 20.7503 3 23.9375V26.1969C3 26.4828 3.23177 26.7145 3.5176 26.7145H6.32928C6.61511 26.7145 6.84688 26.4828 6.84688 26.1969C6.84688 25.9111 6.61511 25.6793 6.32928 25.6793H4.03521V23.9375C4.03521 22.3036 4.73316 20.7408 6.00042 19.5367C6.7396 18.8344 7.63067 18.308 8.58206 17.9917L9.20049 19.1931L8.30622 23.0749C8.2643 23.2567 8.32357 23.447 8.46117 23.5729L10.2058 25.1696C10.3047 25.2601 10.4299 25.3054 10.5552 25.3054C10.6804 25.3054 10.8057 25.2602 10.9046 25.1696L12.6491 23.5729C12.7867 23.4469 12.8459 23.2567 12.8041 23.0749L11.9099 19.1932L12.5283 17.9917C13.4797 18.308 14.3708 18.8344 15.11 19.5367C16.0402 20.4204 16.663 21.4975 16.9289 22.6541C16.9455 22.7617 16.9675 22.8675 16.9927 22.972C17.0471 23.2896 17.0752 23.612 17.0752 23.9375V25.6793H8.05453C7.7687 25.6793 7.53692 25.9111 7.53692 26.1969C7.53692 26.4828 7.7687 26.7145 8.05453 26.7145H15.896C14.2634 28.073 13.2093 30.0625 13.2093 32.223V34.4824C13.2093 34.7683 13.4411 35 13.7269 35H16.5386C16.8244 35 17.0562 34.7683 17.0562 34.4824C17.0562 34.1965 16.8244 33.9648 16.5386 33.9648H14.2446V32.223C14.2446 30.5891 14.9426 29.0263 16.2098 27.8222C16.949 27.1199 17.8401 26.5935 18.7915 26.2771L19.4099 27.4787L18.5157 31.3603C18.4738 31.5421 18.533 31.7324 18.6706 31.8584L20.4153 33.4552C20.5141 33.5457 20.6394 33.591 20.7646 33.591C20.8899 33.591 21.0152 33.5457 21.1141 33.4552L22.8587 31.8584C22.9963 31.7324 23.0555 31.5421 23.0136 31.3603L22.1194 27.4787L22.7378 26.2771C23.6892 26.5935 24.5803 27.1199 25.3195 27.8222C26.5867 29.0262 27.2847 30.5891 27.2847 32.223V33.9648H18.2639C17.9781 33.9648 17.7463 34.1965 17.7463 34.4824C17.7463 34.7683 17.9781 35 18.2639 35H27.8023C28.0881 35 28.3199 34.7683 28.3199 34.4824V32.223C28.3199 30.0624 27.2658 28.0729 25.6333 26.7145H28.2804C28.5662 26.7145 28.798 26.4828 28.798 26.1969C28.798 25.9111 28.5662 25.6793 28.2804 25.6793H24.4541V23.9374C24.4541 23.6118 24.4822 23.2891 24.5367 22.9715C24.5618 22.8673 24.5836 22.7619 24.6001 22.6547C24.8659 21.4979 25.4889 20.4206 26.4192 19.5366C27.1585 18.8344 28.0495 18.308 29.0009 17.9916L29.6194 19.1931L28.7252 23.0749C28.6832 23.2567 28.7425 23.4469 28.8801 23.5729L30.6247 25.1696C30.7235 25.2603 30.8488 25.3054 30.974 25.3054C31.0993 25.3054 31.2246 25.2602 31.3234 25.1696L33.0681 23.5729C33.2057 23.447 33.2649 23.2567 33.223 23.0749L32.3288 19.1931L32.9472 17.9917C33.8986 18.308 34.7897 18.8344 35.5289 19.5367C36.7961 20.7407 37.4941 22.3036 37.4941 23.9375V25.6793H30.0058C29.72 25.6793 29.4882 25.9111 29.4882 26.1969C29.4882 26.4828 29.72 26.7145 30.0058 26.7145H38.0117C38.2975 26.7145 38.5293 26.4828 38.5293 26.1969V23.9375C38.5293 20.7503 36.2361 17.9347 33.1745 16.9695ZM7.70951 10.8809C7.70951 9.31176 8.98606 8.03521 10.5552 8.03521C12.1244 8.03521 13.401 9.31176 13.401 10.8809V11.7468C12.2023 11.4511 11.709 10.2171 11.6866 10.1596C11.6148 9.9701 11.439 9.83992 11.2368 9.82652C11.0346 9.81341 10.8432 9.91888 10.7471 10.0972C10.7385 10.1132 9.91912 11.5831 7.70951 11.7869V10.8809ZM10.5553 24.0861L9.38292 23.013L10.1594 19.6423H10.9512L11.7277 23.013L10.5553 24.0861ZM9.61414 17.7348C9.71511 17.7183 9.81642 17.7042 9.91794 17.6924C9.93231 17.6908 9.94667 17.6894 9.96104 17.6878C10.0415 17.6791 10.122 17.672 10.2027 17.6664C10.225 17.6648 10.2474 17.663 10.2698 17.6616C10.3359 17.6576 10.402 17.6556 10.4681 17.6538C10.4972 17.6544 10.526 17.656 10.5552 17.656C10.5844 17.656 10.6132 17.6544 10.6423 17.6538C10.7084 17.6557 10.7745 17.6577 10.8405 17.6616C10.8629 17.663 10.8853 17.6648 10.9078 17.6664C10.9884 17.6721 11.0688 17.6791 11.1493 17.6878C11.1637 17.6893 11.1781 17.6908 11.1926 17.6924C11.294 17.7042 11.3953 17.7183 11.4962 17.7348L11.0474 18.607H10.0631L9.61414 17.7348ZM10.6686 16.618C10.6332 16.617 10.5979 16.6157 10.5624 16.6152C10.5577 16.615 10.553 16.615 10.5483 16.6152C10.5129 16.6157 10.4775 16.617 10.4421 16.618C8.9252 16.5582 7.70951 15.3063 7.70951 13.7751V12.8258C9.47084 12.6916 10.553 11.8888 11.1291 11.2822C11.5327 11.8728 12.2564 12.6217 13.401 12.8039V13.7751C13.4011 15.3063 12.1854 16.5582 10.6686 16.618ZM17.9188 19.1665C17.9189 17.5974 19.1955 16.3208 20.7646 16.3208C21.0589 16.3208 21.3428 16.3656 21.6099 16.449C22.7675 16.8098 23.6103 17.8916 23.6103 19.1666V20.0325C22.4117 19.7368 21.9183 18.5029 21.896 18.4453C21.8242 18.2558 21.6484 18.1257 21.4462 18.1123C21.2442 18.0996 21.0526 18.2046 20.9565 18.383C20.9478 18.3989 20.1285 19.8689 17.9189 20.0727L17.9188 19.1665ZM18.1105 25.414V24.8884C18.2523 25.0215 18.4037 25.1442 18.5641 25.255C18.411 25.3033 18.2598 25.3566 18.1105 25.414ZM20.7646 32.3717L19.5923 31.2986L20.3688 27.9279H21.1606L21.9371 31.2986L20.7646 32.3717ZM19.8237 26.0205C19.9246 26.0039 20.026 25.9898 20.1275 25.9781C20.1418 25.9764 20.1562 25.975 20.1706 25.9734C20.2511 25.9647 20.3316 25.9577 20.4122 25.952C20.4345 25.9504 20.4569 25.9486 20.4793 25.9472C20.5454 25.9432 20.6116 25.9413 20.6776 25.9394C20.7067 25.94 20.7355 25.9416 20.7647 25.9416C20.7939 25.9416 20.8227 25.94 20.8518 25.9394C20.9179 25.9413 20.9841 25.9433 21.0501 25.9472C21.0724 25.9486 21.0948 25.9504 21.1172 25.952C21.1979 25.9577 21.2784 25.9647 21.3587 25.9734C21.3732 25.9749 21.3876 25.9764 21.402 25.9781C21.5035 25.9899 21.6048 26.0039 21.7057 26.0205L21.2568 26.8927H20.2726L19.8237 26.0205ZM23.4188 25.414C23.2696 25.3565 23.1185 25.3033 22.9652 25.255C23.1256 25.1442 23.277 25.0214 23.4188 24.8883V25.414ZM23.6104 22.0607C23.6104 22.2068 23.5993 22.3503 23.578 22.4906C23.5598 22.5724 23.5436 22.6549 23.5284 22.7376C23.2324 23.9455 22.1637 24.8528 20.878 24.9035C20.8426 24.9025 20.8073 24.9012 20.7718 24.9007C20.7671 24.9006 20.7624 24.9006 20.7577 24.9007C20.7222 24.9012 20.6869 24.9025 20.6515 24.9035C19.3661 24.8529 18.2974 23.9459 18.0012 22.7382C17.986 22.6552 17.9697 22.5724 17.9515 22.4902C17.9301 22.35 17.919 22.2066 17.919 22.0607V21.1114C19.6804 20.9772 20.7625 20.1744 21.3387 19.5678C21.7423 20.1583 22.4659 20.9073 23.6105 21.0895V22.0607H23.6104ZM28.1283 10.8809C28.1283 9.31176 29.4049 8.03521 30.974 8.03521C32.5431 8.03521 33.8197 9.31176 33.8197 10.8809V11.7468C32.6211 11.451 32.1276 10.2171 32.1054 10.1596C32.0336 9.97017 31.8578 9.83998 31.6556 9.82659C31.4531 9.81348 31.262 9.91895 31.1659 10.0973C31.1572 10.1133 30.338 11.5832 28.1284 11.787V10.8809H28.1283ZM30.974 24.0861L29.8016 23.013L30.5781 19.6423H31.3699L32.1464 23.013L30.974 24.0861ZM30.033 17.7348C30.134 17.7183 30.2352 17.7042 30.3367 17.6924C30.3511 17.6908 30.3655 17.6893 30.38 17.6878C30.4604 17.6791 30.5409 17.672 30.6215 17.6664C30.6439 17.6648 30.6662 17.663 30.6887 17.6616C30.7548 17.6576 30.8209 17.6557 30.887 17.6538C30.916 17.6544 30.9448 17.656 30.974 17.656C31.0033 17.656 31.0321 17.6544 31.0611 17.6538C31.1273 17.6557 31.1934 17.6577 31.2595 17.6616C31.2818 17.663 31.3042 17.6648 31.3266 17.6664C31.4073 17.6721 31.4878 17.6791 31.5683 17.6878C31.5826 17.6893 31.597 17.6908 31.6114 17.6924C31.7129 17.7042 31.8141 17.7183 31.9152 17.7348L31.4663 18.607H30.482L30.033 17.7348ZM31.0872 16.618C31.0518 16.617 31.0165 16.6157 30.981 16.6152C30.9763 16.615 30.9716 16.615 30.9669 16.6152H30.9668C30.9314 16.6157 30.8961 16.617 30.8607 16.618C29.3439 16.5582 28.1282 15.3063 28.1282 13.7751V12.8258C29.8895 12.6916 30.9716 11.8888 31.5478 11.2822C31.9514 11.8728 32.675 12.6217 33.8197 12.8039V13.7751C33.8197 15.3063 32.604 16.5582 31.0872 16.618Z" fill="#1F3870"/>
<path d="M33.1745 16.9695C34.1888 16.2686 34.8549 15.0985 34.8549 13.7752V12.3276V10.8809C34.8549 8.74094 33.1139 7 30.974 7C28.834 7 27.0931 8.74101 27.0931 10.8809V12.328V13.7752C27.0931 15.0985 27.7593 16.2687 28.7735 16.9695C27.0735 17.5055 25.6107 18.6119 24.6456 20.0358V19.1666C24.6456 17.0266 22.9046 15.2857 20.7646 15.2857C18.6247 15.2857 16.8838 17.0267 16.8838 19.1666V20.0358C15.9186 18.612 14.4558 17.5055 12.7558 16.9695C13.77 16.2686 14.4362 15.0985 14.4362 13.7752V10.881C14.4362 8.74101 12.6953 7.00007 10.5552 7.00007C8.61592 7.00007 7.00426 8.42992 6.71913 10.2908C6.68963 10.4833 6.67437 10.6803 6.67437 10.881V13.7752C6.67437 15.0985 7.34061 16.2687 8.35479 16.9695C5.29324 17.9347 3 20.7503 3 23.9375V26.1969C3 26.4828 3.23177 26.7145 3.5176 26.7145H6.32928C6.61511 26.7145 6.84688 26.4828 6.84688 26.1969C6.84688 25.9111 6.61511 25.6793 6.32928 25.6793H4.03521V23.9375C4.03521 22.3036 4.73316 20.7408 6.00042 19.5367C6.7396 18.8344 7.63067 18.308 8.58206 17.9917L9.20049 19.1931L8.30622 23.0749C8.2643 23.2567 8.32357 23.447 8.46117 23.5729L10.2058 25.1696C10.3047 25.2601 10.4299 25.3054 10.5552 25.3054C10.6804 25.3054 10.8057 25.2602 10.9046 25.1696L12.6491 23.5729C12.7867 23.4469 12.8459 23.2567 12.8041 23.0749L11.9099 19.1932L12.5283 17.9917C13.4797 18.308 14.3708 18.8344 15.11 19.5367C16.0402 20.4204 16.663 21.4975 16.9289 22.6541C16.9455 22.7617 16.9675 22.8675 16.9927 22.972C17.0471 23.2896 17.0752 23.612 17.0752 23.9375V25.6793H8.05453C7.7687 25.6793 7.53692 25.9111 7.53692 26.1969C7.53692 26.4828 7.7687 26.7145 8.05453 26.7145H15.896C14.2634 28.073 13.2093 30.0625 13.2093 32.223V34.4824C13.2093 34.7683 13.4411 35 13.7269 35H16.5386C16.8244 35 17.0562 34.7683 17.0562 34.4824C17.0562 34.1965 16.8244 33.9648 16.5386 33.9648H14.2446V32.223C14.2446 30.5891 14.9426 29.0263 16.2098 27.8222C16.949 27.1199 17.8401 26.5935 18.7915 26.2771L19.4099 27.4787L18.5157 31.3603C18.4738 31.5421 18.533 31.7324 18.6706 31.8584L20.4153 33.4552C20.5141 33.5457 20.6394 33.591 20.7646 33.591C20.8899 33.591 21.0152 33.5457 21.1141 33.4552L22.8587 31.8584C22.9963 31.7324 23.0555 31.5421 23.0136 31.3603L22.1194 27.4787L22.7378 26.2771C23.6892 26.5935 24.5803 27.1199 25.3195 27.8222C26.5867 29.0262 27.2847 30.5891 27.2847 32.223V33.9648H18.2639C17.9781 33.9648 17.7463 34.1965 17.7463 34.4824C17.7463 34.7683 17.9781 35 18.2639 35H27.8023C28.0881 35 28.3199 34.7683 28.3199 34.4824V32.223C28.3199 30.0624 27.2658 28.0729 25.6333 26.7145H28.2804C28.5662 26.7145 28.798 26.4828 28.798 26.1969C28.798 25.9111 28.5662 25.6793 28.2804 25.6793H24.4541V23.9374C24.4541 23.6118 24.4822 23.2891 24.5367 22.9715C24.5618 22.8673 24.5836 22.7619 24.6001 22.6547C24.8659 21.4979 25.4889 20.4206 26.4192 19.5366C27.1585 18.8344 28.0495 18.308 29.0009 17.9916L29.6194 19.1931L28.7252 23.0749C28.6832 23.2567 28.7425 23.4469 28.8801 23.5729L30.6247 25.1696C30.7235 25.2603 30.8488 25.3054 30.974 25.3054C31.0993 25.3054 31.2246 25.2602 31.3234 25.1696L33.0681 23.5729C33.2057 23.447 33.2649 23.2567 33.223 23.0749L32.3288 19.1931L32.9472 17.9917C33.8986 18.308 34.7897 18.8344 35.5289 19.5367C36.7961 20.7407 37.4941 22.3036 37.4941 23.9375V25.6793H30.0058C29.72 25.6793 29.4882 25.9111 29.4882 26.1969C29.4882 26.4828 29.72 26.7145 30.0058 26.7145H38.0117C38.2975 26.7145 38.5293 26.4828 38.5293 26.1969V23.9375C38.5293 20.7503 36.2361 17.9347 33.1745 16.9695ZM7.70951 10.8809C7.70951 9.31176 8.98606 8.03521 10.5552 8.03521C12.1244 8.03521 13.401 9.31176 13.401 10.8809V11.7468C12.2023 11.4511 11.709 10.2171 11.6866 10.1596C11.6148 9.9701 11.439 9.83992 11.2368 9.82652C11.0346 9.81341 10.8432 9.91888 10.7471 10.0972C10.7385 10.1132 9.91912 11.5831 7.70951 11.7869V10.8809ZM10.5553 24.0861L9.38292 23.013L10.1594 19.6423H10.9512L11.7277 23.013L10.5553 24.0861ZM9.61414 17.7348C9.71511 17.7183 9.81642 17.7042 9.91794 17.6924C9.93231 17.6908 9.94667 17.6894 9.96104 17.6878C10.0415 17.6791 10.122 17.672 10.2027 17.6664C10.225 17.6648 10.2474 17.663 10.2698 17.6616C10.3359 17.6576 10.402 17.6556 10.4681 17.6538C10.4972 17.6544 10.526 17.656 10.5552 17.656C10.5844 17.656 10.6132 17.6544 10.6423 17.6538C10.7084 17.6557 10.7745 17.6577 10.8405 17.6616C10.8629 17.663 10.8853 17.6648 10.9078 17.6664C10.9884 17.6721 11.0688 17.6791 11.1493 17.6878C11.1637 17.6893 11.1781 17.6908 11.1926 17.6924C11.294 17.7042 11.3953 17.7183 11.4962 17.7348L11.0474 18.607H10.0631L9.61414 17.7348ZM10.6686 16.618C10.6332 16.617 10.5979 16.6157 10.5624 16.6152C10.5577 16.615 10.553 16.615 10.5483 16.6152C10.5129 16.6157 10.4775 16.617 10.4421 16.618C8.9252 16.5582 7.70951 15.3063 7.70951 13.7751V12.8258C9.47084 12.6916 10.553 11.8888 11.1291 11.2822C11.5327 11.8728 12.2564 12.6217 13.401 12.8039V13.7751C13.4011 15.3063 12.1854 16.5582 10.6686 16.618ZM17.9188 19.1665C17.9189 17.5974 19.1955 16.3208 20.7646 16.3208C21.0589 16.3208 21.3428 16.3656 21.6099 16.449C22.7675 16.8098 23.6103 17.8916 23.6103 19.1666V20.0325C22.4117 19.7368 21.9183 18.5029 21.896 18.4453C21.8242 18.2558 21.6484 18.1257 21.4462 18.1123C21.2442 18.0996 21.0526 18.2046 20.9565 18.383C20.9478 18.3989 20.1285 19.8689 17.9189 20.0727L17.9188 19.1665ZM18.1105 25.414V24.8884C18.2523 25.0215 18.4037 25.1442 18.5641 25.255C18.411 25.3033 18.2598 25.3566 18.1105 25.414ZM20.7646 32.3717L19.5923 31.2986L20.3688 27.9279H21.1606L21.9371 31.2986L20.7646 32.3717ZM19.8237 26.0205C19.9246 26.0039 20.026 25.9898 20.1275 25.9781C20.1418 25.9764 20.1562 25.975 20.1706 25.9734C20.2511 25.9647 20.3316 25.9577 20.4122 25.952C20.4345 25.9504 20.4569 25.9486 20.4793 25.9472C20.5454 25.9432 20.6116 25.9413 20.6776 25.9394C20.7067 25.94 20.7355 25.9416 20.7647 25.9416C20.7939 25.9416 20.8227 25.94 20.8518 25.9394C20.9179 25.9413 20.9841 25.9433 21.0501 25.9472C21.0724 25.9486 21.0948 25.9504 21.1172 25.952C21.1979 25.9577 21.2784 25.9647 21.3587 25.9734C21.3732 25.9749 21.3876 25.9764 21.402 25.9781C21.5035 25.9899 21.6048 26.0039 21.7057 26.0205L21.2568 26.8927H20.2726L19.8237 26.0205ZM23.4188 25.414C23.2696 25.3565 23.1185 25.3033 22.9652 25.255C23.1256 25.1442 23.277 25.0214 23.4188 24.8883V25.414ZM23.6104 22.0607C23.6104 22.2068 23.5993 22.3503 23.578 22.4906C23.5598 22.5724 23.5436 22.6549 23.5284 22.7376C23.2324 23.9455 22.1637 24.8528 20.878 24.9035C20.8426 24.9025 20.8073 24.9012 20.7718 24.9007C20.7671 24.9006 20.7624 24.9006 20.7577 24.9007C20.7222 24.9012 20.6869 24.9025 20.6515 24.9035C19.3661 24.8529 18.2974 23.9459 18.0012 22.7382C17.986 22.6552 17.9697 22.5724 17.9515 22.4902C17.9301 22.35 17.919 22.2066 17.919 22.0607V21.1114C19.6804 20.9772 20.7625 20.1744 21.3387 19.5678C21.7423 20.1583 22.4659 20.9073 23.6105 21.0895V22.0607H23.6104ZM28.1283 10.8809C28.1283 9.31176 29.4049 8.03521 30.974 8.03521C32.5431 8.03521 33.8197 9.31176 33.8197 10.8809V11.7468C32.6211 11.451 32.1276 10.2171 32.1054 10.1596C32.0336 9.97017 31.8578 9.83998 31.6556 9.82659C31.4531 9.81348 31.262 9.91895 31.1659 10.0973C31.1572 10.1133 30.338 11.5832 28.1284 11.787V10.8809H28.1283ZM30.974 24.0861L29.8016 23.013L30.5781 19.6423H31.3699L32.1464 23.013L30.974 24.0861ZM30.033 17.7348C30.134 17.7183 30.2352 17.7042 30.3367 17.6924C30.3511 17.6908 30.3655 17.6893 30.38 17.6878C30.4604 17.6791 30.5409 17.672 30.6215 17.6664C30.6439 17.6648 30.6662 17.663 30.6887 17.6616C30.7548 17.6576 30.8209 17.6557 30.887 17.6538C30.916 17.6544 30.9448 17.656 30.974 17.656C31.0033 17.656 31.0321 17.6544 31.0611 17.6538C31.1273 17.6557 31.1934 17.6577 31.2595 17.6616C31.2818 17.663 31.3042 17.6648 31.3266 17.6664C31.4073 17.6721 31.4878 17.6791 31.5683 17.6878C31.5826 17.6893 31.597 17.6908 31.6114 17.6924C31.7129 17.7042 31.8141 17.7183 31.9152 17.7348L31.4663 18.607H30.482L30.033 17.7348ZM31.0872 16.618C31.0518 16.617 31.0165 16.6157 30.981 16.6152C30.9763 16.615 30.9716 16.615 30.9669 16.6152H30.9668C30.9314 16.6157 30.8961 16.617 30.8607 16.618C29.3439 16.5582 28.1282 15.3063 28.1282 13.7751V12.8258C29.8895 12.6916 30.9716 11.8888 31.5478 11.2822C31.9514 11.8728 32.675 12.6217 33.8197 12.8039V13.7751C33.8197 15.3063 32.604 16.5582 31.0872 16.618Z" stroke="white" stroke-width="0.4" mask="url(#path-1-outside-1_1072_10483)"/>
</svg>
