<svg width="29" height="30" viewBox="0 0 29 30" fill="none" xmlns="http://www.w3.org/2000/svg">
<path d="M16.8662 8.85338C15.9993 8.85338 15.9993 7.40339 16.8662 7.40339H22.9848C23.8517 7.40339 23.8517 8.85338 22.9848 8.85338H16.8662ZM6.11876 4.21339C5.95026 4.20108 5.79243 4.12109 5.67716 3.98961C5.56189 3.85813 5.49778 3.68495 5.49778 3.50506C5.49778 3.32518 5.56189 3.15199 5.67716 3.02051C5.79243 2.88903 5.95026 2.80905 6.11876 2.79673H10.1874C10.2786 2.79007 10.37 2.80344 10.4562 2.83602C10.5423 2.86859 10.6212 2.91968 10.688 2.98611C10.7548 3.05254 10.808 3.13289 10.8445 3.22216C10.8809 3.31143 10.8997 3.40773 10.8997 3.50506C10.8997 3.6024 10.8809 3.69869 10.8445 3.78796C10.808 3.87724 10.7548 3.95758 10.688 4.02401C10.6212 4.09044 10.5423 4.14153 10.4562 4.17411C10.37 4.20669 10.2786 4.22006 10.1874 4.21339H6.11876ZM15.6018 21.0734H22.653C23.0496 21.076 23.4293 21.2444 23.7104 21.5425C23.9914 21.8406 24.1512 22.2443 24.1553 22.6667V24.9C24.1495 25.3179 23.9885 25.7163 23.7075 26.0081C23.4266 26.2998 23.0485 26.4611 22.6561 26.4567H15.6018C15.2094 26.4611 14.8313 26.2998 14.5504 26.0081C14.2694 25.7163 14.1084 25.3179 14.1026 24.9V22.6667C14.1022 22.457 14.1407 22.2494 14.216 22.0556C14.2912 21.8619 14.4017 21.6859 14.541 21.5379C14.6803 21.3898 14.8458 21.2725 15.0278 21.1928C15.2099 21.1131 15.4049 21.0725 15.6018 21.0734ZM22.653 22.5267H15.6018C15.562 22.5219 15.5221 22.5339 15.4905 22.5601C15.459 22.5862 15.4382 22.6245 15.4328 22.6667V24.9C15.4382 24.9422 15.459 24.9805 15.4905 25.0066C15.5221 25.0328 15.562 25.0448 15.6018 25.04H22.653C22.7187 25.04 22.8189 24.97 22.8189 24.9V22.6667C22.8142 22.6248 22.7941 22.5865 22.763 22.5603C22.732 22.5341 22.6924 22.522 22.653 22.5267ZM3.62438 28.5467H25.4823C25.5877 28.5541 25.6918 28.5176 25.7724 28.4448C25.853 28.372 25.9038 28.2687 25.9142 28.1567L27.5103 12.9267C27.5183 12.8628 27.5129 12.7978 27.4945 12.7363C27.476 12.6749 27.4451 12.6186 27.4038 12.5714C27.3625 12.5242 27.3119 12.4874 27.2556 12.4635C27.1994 12.4397 27.1389 12.4294 27.0784 12.4334H17.5829C15.1887 12.4334 16.7191 16.5067 13.2013 16.5067H2.46013C2.39896 16.4994 2.33703 16.5074 2.2793 16.5301C2.22156 16.5529 2.16963 16.5897 2.12765 16.6376C2.08567 16.6856 2.05482 16.7433 2.03755 16.8063C2.02029 16.8692 2.01709 16.9356 2.02823 17L3.18622 28.1567C3.18841 28.2133 3.2016 28.2688 3.22496 28.3197C3.24831 28.3706 3.28132 28.4159 3.3219 28.4525C3.36249 28.4891 3.40976 28.5164 3.46075 28.5326C3.51173 28.5489 3.56532 28.5536 3.61812 28.5467H3.62438ZM25.4823 30H3.62438C3.18623 29.9954 2.76488 29.8198 2.44014 29.5065C2.1154 29.1932 1.90983 28.7639 1.86235 28.3L0.682452 17.1767C0.653661 16.9139 0.676633 16.6476 0.749903 16.3948C0.823172 16.1419 0.945129 15.9082 1.10799 15.7084C1.27085 15.5086 1.47103 15.3471 1.69576 15.2343C1.92049 15.1216 2.16483 15.0599 2.41318 15.0534C2.44896 15.057 2.48504 15.0521 2.51886 15.0392C2.55267 15.0262 2.58338 15.0054 2.60879 14.9784C2.6342 14.9513 2.65369 14.9186 2.66586 14.8826C2.67804 14.8466 2.68259 14.8081 2.67921 14.77V0.710069C2.67961 0.615826 2.69755 0.522603 2.73198 0.435785C2.7664 0.348968 2.81664 0.270278 2.87979 0.20426C2.94294 0.138242 3.01775 0.0862068 3.09989 0.0511595C3.18203 0.0161122 3.26988 -0.00125195 3.35835 7.02067e-05H22.5216C22.6978 0.000951555 22.8666 0.0761436 22.9909 0.209199C23.1153 0.342254 23.1851 0.522341 23.1851 0.710069V3.57673C23.1846 3.61406 23.1912 3.6511 23.2045 3.68568C23.2177 3.72026 23.2373 3.75167 23.262 3.77807C23.2868 3.80447 23.3163 3.82532 23.3488 3.8394C23.3813 3.85348 23.416 3.86051 23.4511 3.86006H24.4495C25.0601 3.87059 25.6485 4.10617 26.1145 4.52673C26.3351 4.74306 26.5111 5.00591 26.6313 5.29857C26.7514 5.59123 26.8131 5.90731 26.8124 6.22672V10.6967C26.812 10.734 26.8186 10.7711 26.8318 10.8057C26.845 10.8402 26.8646 10.8717 26.8894 10.8981C26.9142 10.9245 26.9437 10.9453 26.9761 10.9594C27.0086 10.9735 27.0434 10.9805 27.0784 10.98C27.3267 10.9831 27.5717 11.0408 27.798 11.1496C28.0243 11.2585 28.2271 11.416 28.3935 11.6123C28.5598 11.8086 28.6863 12.0394 28.7648 12.2903C28.8434 12.5412 28.8723 12.8067 28.8498 13.07L27.2443 28.3C27.1962 28.7637 26.9904 29.1925 26.6658 29.5057C26.3412 29.8189 25.9202 29.9947 25.4823 30ZM4.3223 15.0534H7.11714C7.15219 15.0538 7.18697 15.0468 7.21943 15.0327C7.2519 15.0186 7.28139 14.9978 7.30618 14.9714C7.33097 14.945 7.35055 14.9136 7.36377 14.879C7.37699 14.8444 7.38358 14.8074 7.38316 14.77V10.2367C7.38292 10.1303 7.40338 10.0251 7.44324 9.92755C7.4831 9.83002 7.5415 9.74234 7.61476 9.67005L12.9728 4.07339C13.0352 4.01173 13.1087 3.96426 13.1889 3.93388C13.2691 3.90351 13.3542 3.89087 13.4391 3.89673H21.5764C21.6528 3.88909 21.7234 3.84997 21.7731 3.78769C21.8228 3.72542 21.8477 3.64493 21.8424 3.5634V1.73673C21.8477 1.65519 21.8228 1.57471 21.7731 1.51243C21.7234 1.45016 21.6528 1.41104 21.5764 1.4034H4.3223C4.2393 1.4034 4.15969 1.43852 4.101 1.50103C4.04231 1.56354 4.00933 1.64833 4.00933 1.73673V14.77C4.00979 14.8115 4.01859 14.8524 4.03514 14.8899C4.05168 14.9274 4.07559 14.9607 4.10525 14.9876C4.13492 15.0144 4.16964 15.0342 4.20708 15.0456C4.24452 15.0569 4.28381 15.0596 4.3223 15.0534ZM8.97931 15.0534H13.2013C15.5298 15.0534 14.0338 10.98 17.5829 10.98H25.2162C25.2513 10.9805 25.2861 10.9735 25.3185 10.9594C25.351 10.9453 25.3805 10.9245 25.4053 10.8981C25.4301 10.8717 25.4497 10.8402 25.4629 10.8057C25.4761 10.7711 25.4827 10.734 25.4823 10.6967V6.23339C25.4806 6.11363 25.4562 5.99548 25.4104 5.88605C25.3647 5.77663 25.2987 5.67821 25.2162 5.59672C24.9996 5.40969 24.7283 5.30944 24.4495 5.31339H14.2685C14.2327 5.30979 14.1967 5.31464 14.1628 5.3276C14.129 5.34057 14.0983 5.36132 14.0729 5.38839C14.0475 5.41545 14.028 5.44816 14.0158 5.48417C14.0037 5.52019 13.9991 5.55862 14.0025 5.59672V8.66672C14.0017 9.31446 13.7597 9.93541 13.3297 10.3934C12.8996 10.8515 12.3166 11.1092 11.7084 11.11H8.97931C8.91044 11.1154 8.84568 11.147 8.79684 11.199C8.74801 11.251 8.71836 11.32 8.71329 11.3934V14.76C8.71287 14.7974 8.71946 14.8344 8.73268 14.869C8.7459 14.9036 8.76548 14.935 8.79027 14.9614C8.81506 14.9878 8.84455 15.0086 8.87701 15.0227C8.90948 15.0368 8.94426 15.0438 8.97931 15.0434V15.0534ZM10.1436 9.72005H11.7084C11.9666 9.71394 12.2122 9.60016 12.3925 9.40319C12.5728 9.20622 12.6733 8.94177 12.6724 8.66672V7.08339C12.6713 7.02635 12.6549 6.97085 12.625 6.92352C12.5951 6.87619 12.553 6.83905 12.5038 6.81653C12.4546 6.79402 12.4003 6.7871 12.3475 6.79659C12.2947 6.80608 12.2456 6.83159 12.206 6.87005L9.97769 9.20338C9.94 9.24166 9.91355 9.29077 9.90154 9.34475C9.88954 9.39873 9.89249 9.45525 9.91005 9.50748C9.92761 9.5597 9.95902 9.60538 10.0005 9.63897C10.0419 9.67256 10.0916 9.69262 10.1436 9.69671V9.72005Z" fill="#083983"/>
</svg>
