<svg width="36" height="26" viewBox="0 0 36 26" fill="none" xmlns="http://www.w3.org/2000/svg">
<path d="M27 23.7996C27 24.7937 26.1941 25.5996 25.2 25.5996L1.8 25.5996C0.805923 25.5996 7.04559e-08 24.7937 1.57361e-07 23.7996C2.44266e-07 22.8055 0.805924 21.9996 1.8 21.9996L25.2 21.9996C26.1941 21.9996 27 22.8056 27 23.7996ZM1.8 14.7996L34.2 14.7996C35.1941 14.7996 36 13.9936 36 12.9996C36 12.0055 35.1941 11.1996 34.2 11.1996L1.8 11.1996C0.805925 11.1996 1.18843e-06 12.0055 1.10153e-06 12.9996C1.01463e-06 13.9936 0.805924 14.7996 1.8 14.7996ZM1.8 3.99961L18 3.99961C18.994 3.99961 19.8 3.19369 19.8 2.19961C19.8 1.20561 18.994 0.399611 18 0.399611L1.8 0.399609C0.805926 0.399609 2.13259e-06 1.20561 2.04569e-06 2.19961C1.95879e-06 3.19369 0.805925 3.99961 1.8 3.99961Z" fill="white"/>
</svg>
