<svg width="37" height="37" viewBox="0 0 37 37" fill="none" xmlns="http://www.w3.org/2000/svg">
<path d="M20.6191 0.75C19.9148 0.75 19.3438 1.32103 19.3438 2.02539V16.4492C19.3438 17.1536 19.9148 17.7246 20.6191 17.7246H34.9746C35.679 17.7246 36.25 17.1536 36.25 16.4492C36.25 7.82759 29.254 0.75 20.6191 0.75ZM21.8945 15.1738V3.36277C28.092 3.9683 33.0388 8.9413 33.6382 15.1738H21.8945Z" fill="#002A6A" stroke="#002A6A" stroke-width="0.5"/>
<path d="M15.3226 20.9966L19.897 33.2571C18.8005 33.5508 17.6686 33.6992 16.5176 33.6992C9.22884 33.6992 3.30078 27.7995 3.30078 20.5508C3.30078 13.7665 8.54867 8.16808 15.2422 7.53112V20.5508C15.2422 20.7029 15.2694 20.8539 15.3226 20.9966L15.3226 20.9966ZM22.7532 33.6154L17.793 20.3206V6.19531C17.793 5.49095 17.2219 4.91992 16.5176 4.91992C7.93933 4.91992 0.75 11.874 0.75 20.5508C0.75 29.1609 7.86792 36.25 16.5176 36.25C18.4052 36.25 20.2525 35.9153 22.0074 35.2549C22.6654 35.0074 22.999 34.2741 22.7532 33.6154C22.7532 33.6154 22.7532 33.6154 22.7532 33.6154Z" fill="#002A6A" stroke="#002A6A" stroke-width="0.5"/>
<path d="M19.4242 20.9966L19.4242 20.9966C19.2782 20.6051 19.3331 20.1669 19.5715 19.8235L19.4242 20.9966ZM19.4242 20.9966L24.465 34.5071L24.465 34.5072M19.4242 20.9966L24.465 34.5072M24.465 34.5072C24.7126 35.1707 25.4514 35.5024 26.109 35.2549L24.465 34.5072ZM20.6191 19.2754H34.9746C35.6789 19.2754 36.25 19.8464 36.25 20.5508C36.25 27.0637 32.1759 32.9725 26.1091 35.2549L20.6191 19.2754ZM20.6191 19.2754C20.2012 19.2754 19.8098 19.4801 19.5715 19.8234L20.6191 19.2754ZM26.3855 32.3575L22.4561 21.8193H33.6368C33.1943 26.3353 30.4288 30.3566 26.3855 32.3575Z" fill="#002A6A" stroke="#002A6A" stroke-width="0.5"/>
</svg>
