<svg width="37" height="37" viewBox="0 0 37 37" fill="none" xmlns="http://www.w3.org/2000/svg">
<path d="M9.39844 11.6432C9.39844 12.2962 8.86913 12.8255 8.21615 12.8255H7.03386C6.38087 12.8255 5.85156 12.2962 5.85156 11.6432C5.85156 10.9902 6.38087 10.4609 7.03386 10.4609H8.21615C8.86913 10.4609 9.39844 10.9902 9.39844 11.6432Z" fill="#002A6A"/>
<path d="M14.1276 12.8255C14.7806 12.8255 15.3099 12.2962 15.3099 11.6432C15.3099 10.9902 14.7806 10.4609 14.1276 10.4609H12.9454C12.2924 10.4609 11.7631 10.9902 11.7631 11.6432C11.7631 12.2962 12.2924 12.8255 12.9454 12.8255H14.1276Z" fill="#002A6A"/>
<path d="M9.39844 16.3717C9.39844 17.0247 8.86913 17.554 8.21615 17.554H7.03386C6.38087 17.554 5.85156 17.0247 5.85156 16.3717C5.85156 15.7188 6.38087 15.1895 7.03386 15.1895H8.21615C8.86913 15.1895 9.39844 15.7188 9.39844 16.3717Z" fill="#002A6A"/>
<path d="M14.1276 17.554C14.7806 17.554 15.3099 17.0247 15.3099 16.3717C15.3099 15.7188 14.7806 15.1895 14.1276 15.1895H12.9454C12.2924 15.1895 11.7631 15.7188 11.7631 16.3717C11.7631 17.0247 12.2924 17.554 12.9454 17.554H14.1276Z" fill="#002A6A"/>
<path d="M9.39844 21.1022C9.39844 21.7551 8.86913 22.2845 8.21615 22.2845H7.03386C6.38087 22.2845 5.85156 21.7551 5.85156 21.1022C5.85156 20.4492 6.38087 19.9199 7.03386 19.9199H8.21615C8.86913 19.9199 9.39844 20.4492 9.39844 21.1022Z" fill="#002A6A"/>
<path d="M14.1276 22.2845C14.7806 22.2845 15.3099 21.7551 15.3099 21.1022C15.3099 20.4492 14.7806 19.9199 14.1276 19.9199H12.9454C12.2924 19.9199 11.7631 20.4492 11.7631 21.1022C11.7631 21.7551 12.2924 22.2845 12.9454 22.2845H14.1276Z" fill="#002A6A"/>
<path d="M9.39844 25.8307C9.39844 26.4837 8.86913 27.013 8.21615 27.013H7.03386C6.38087 27.013 5.85156 26.4837 5.85156 25.8307C5.85156 25.1777 6.38087 24.6484 7.03386 24.6484H8.21615C8.86913 24.6484 9.39844 25.1777 9.39844 25.8307Z" fill="#002A6A"/>
<path d="M14.1276 27.013C14.7806 27.013 15.3099 26.4837 15.3099 25.8307C15.3099 25.1777 14.7806 24.6484 14.1276 24.6484H12.9454C12.2924 24.6484 11.7631 25.1777 11.7631 25.8307C11.7631 26.4837 12.2924 27.013 12.9454 27.013H14.1276Z" fill="#002A6A"/>
<path d="M9.39844 30.5592C9.39844 31.2122 8.86913 31.7415 8.21615 31.7415H7.03386C6.38087 31.7415 5.85156 31.2122 5.85156 30.5592C5.85156 29.9063 6.38087 29.377 7.03386 29.377H8.21615C8.86913 29.377 9.39844 29.9063 9.39844 30.5592Z" fill="#002A6A"/>
<path d="M14.1276 31.7415C14.7806 31.7415 15.3099 31.2122 15.3099 30.5592C15.3099 29.9063 14.7806 29.377 14.1276 29.377H12.9454C12.2924 29.377 11.7631 29.9063 11.7631 30.5592C11.7631 31.2122 12.2924 31.7415 12.9454 31.7415H14.1276Z" fill="#002A6A"/>
<path d="M31.2709 21.1022C31.2709 21.7551 30.7415 22.2845 30.0886 22.2845H24.1771C23.5241 22.2845 22.9948 21.7551 22.9948 21.1022C22.9948 20.4492 23.5241 19.9199 24.1771 19.9199H30.0886C30.7415 19.9199 31.2709 20.4492 31.2709 21.1022Z" fill="#002A6A"/>
<path d="M30.0886 25.8314C30.7415 25.8314 31.2709 25.302 31.2709 24.6491C31.2709 23.9961 30.7415 23.4668 30.0886 23.4668H24.1771C23.5241 23.4668 22.9948 23.9961 22.9948 24.6491C22.9948 25.302 23.5241 25.8314 24.1771 25.8314H30.0886Z" fill="#002A6A"/>
<path d="M18.0156 8.60989V33.8565H4.07813C3.59486 33.8565 3.14584 33.4445 3.14584 32.8647V4.61022C3.14584 3.90452 3.78342 3.48731 4.33655 3.65742L17.3418 7.65709C17.7225 7.77419 18.0156 8.14885 18.0156 8.60989ZM4.07813 36.7211H32.4532C34.5501 36.7211 36.25 35.0212 36.25 32.9242V18.7367C36.25 16.6397 34.5501 14.9398 32.4532 14.9398H21.8125C21.4911 14.9398 21.1787 14.9798 20.8802 15.0552V8.60989C20.8802 6.93079 19.8042 5.4174 18.1838 4.91906L5.17862 0.919394C2.69214 0.154696 0.28125 2.07404 0.28125 4.61022V32.8647C0.28125 34.9602 1.94727 36.7211 4.07813 36.7211ZM32.4532 33.8565H30.9297V31.7419C30.9297 29.645 29.2298 27.945 27.1328 27.945C25.0359 27.945 23.336 29.645 23.336 31.7419V33.8565H20.8802V18.7367C20.8802 18.2218 21.2976 17.8044 21.8125 17.8044H32.4532C32.9681 17.8044 33.3854 18.2218 33.3854 18.7367V32.9242C33.3854 33.4391 32.9681 33.8565 32.4532 33.8565ZM28.0651 31.7419V33.8565H26.2005V31.7419C26.2005 31.227 26.6179 30.8096 27.1328 30.8096C27.6477 30.8096 28.0651 31.227 28.0651 31.7419Z" fill="#002A6A" stroke="#002A6A" stroke-width="0.5"/>
</svg>
