<svg width="42" height="38" viewBox="0 0 42 38" fill="none" xmlns="http://www.w3.org/2000/svg">
<path d="M19.9004 37.2633L19.9002 37.2632C17.1843 36.5965 14.4758 34.6401 12.05 32.1868C9.61897 29.7281 7.44496 26.7428 5.80129 23.9715C3.8793 20.731 2.40904 17.3901 1.55223 14.3075C0.594917 10.8634 0.435635 7.92191 1.11735 5.58362C1.19787 5.30733 1.37442 5.06881 1.61441 4.90798L19.9004 37.2633ZM19.9004 37.2633C20.0005 37.2878 20.1026 37.3 20.2047 37.3C20.3883 37.3 20.5714 37.2604 20.74 37.1822L26.6744 34.4327C27.5394 34.0319 28.1537 33.3435 28.4398 32.4478C28.7259 31.5518 28.6215 30.6428 28.1402 29.8315L27.5556 28.8459H38.5086C40.0404 28.8459 41.3 27.6312 41.3 26.1206V8.99481C41.3 7.48435 40.0404 6.26958 38.5086 6.26958H14.1658M19.9004 37.2633L14.1658 6.26958M14.1658 6.26958L11.8348 2.33935C11.3538 1.52836 10.6002 0.989415 9.66673 0.784303L14.1658 6.26958ZM7.02772 1.27988L1.61443 4.90797L9.66664 0.784282C8.73324 0.578913 7.81709 0.750689 7.02775 1.27985C7.02774 1.27986 7.02773 1.27987 7.02772 1.27988ZM26.0495 31.7149L26.0495 31.7149C25.9734 31.9531 25.8401 32.1046 25.6035 32.2143C25.6035 32.2143 25.6035 32.2143 25.6035 32.2143L20.0941 34.7669C18.2752 34.1993 16.1947 32.7862 14.0976 30.7265C11.964 28.6308 9.83327 25.8855 7.96672 22.7385C6.09781 19.5874 4.73869 16.4682 3.96216 13.6683C3.19978 10.9194 3.0058 8.50315 3.41888 6.6718L8.44186 3.30522L8.44189 3.3052C8.65683 3.1611 8.8618 3.12225 9.11824 3.17867L9.11825 3.17867C9.3747 3.23508 9.54036 3.35507 9.66918 3.57233L9.6692 3.57237L12.6375 8.57712L12.8955 8.42408L12.6375 8.57712C12.8617 8.95514 12.7348 9.45414 12.3436 9.68601L12.4966 9.94408L12.3436 9.68601L9.05584 11.6348L9.05579 11.6349C8.6045 11.9025 8.36939 12.4216 8.47789 12.9341L8.47789 12.9341C8.9591 15.206 10.2221 18.0541 11.7949 20.7059C13.3679 23.3581 15.2698 25.8461 17.0491 27.3866C17.4441 27.7287 18.0146 27.791 18.4761 27.5453L21.8536 25.748C22.2606 25.5315 22.7796 25.6772 23.0064 26.0598L23.0065 26.0598L25.9748 31.0646C26.1034 31.2815 26.1255 31.4769 26.0495 31.7149ZM9.20881 11.8929C8.86526 12.0966 8.6902 12.4884 8.77138 12.8719C9.71495 17.3269 13.754 24.137 17.2455 27.1598L9.20881 11.8929ZM13.64 11.7859L13.6401 11.7859C13.72 11.7385 13.7972 11.6882 13.8717 11.6353L24.2661 18.5719C24.4792 18.7142 24.7256 18.7849 24.9711 18.7849C25.2165 18.7849 25.4629 18.7142 25.6761 18.5719C25.6761 18.5719 25.6761 18.5719 25.6761 18.5719L38.7954 9.81687V26.1207C38.7954 26.257 38.6686 26.3918 38.5086 26.3918H26.1002L25.172 24.8268L24.9139 24.9798L25.172 24.8268C24.2647 23.2971 22.2417 22.7487 20.6582 23.5915C20.6582 23.5915 20.6582 23.5915 20.6582 23.5915L18.0793 24.9639C16.6921 23.5905 15.2202 21.598 13.96 19.4731C12.7024 17.3527 11.6676 15.1212 11.1387 13.2685L13.64 11.7859ZM15.2393 8.72362H35.9844L24.9712 16.0732L15.1967 9.55024C15.2459 9.27888 15.2608 9.00103 15.2393 8.72362Z" fill="#002A6A" stroke="#002A6A" stroke-width="0.6"/>
</svg>
