<svg width="36" height="36" viewBox="0 0 36 36" fill="none" xmlns="http://www.w3.org/2000/svg">
<g clip-path="url(#clip0_1_9471)">
<path d="M9 7.20039C9 6.20631 9.80592 5.40039 10.8 5.40039L34.2 5.40039C35.1941 5.40039 36 6.20632 36 7.20039C36 8.19447 35.1941 9.00039 34.2 9.00039L10.8 9.00039C9.80592 9.00039 9 8.1944 9 7.20039ZM34.2 16.2004L1.8 16.2004C0.805921 16.2004 -1.01463e-06 17.0064 -1.10153e-06 18.0004C-1.18843e-06 18.9945 0.805921 19.8004 1.8 19.8004L34.2 19.8004C35.1941 19.8004 36 18.9945 36 18.0004C36 17.0064 35.1941 16.2004 34.2 16.2004ZM34.2 27.0004L18 27.0004C17.006 27.0004 16.2 27.8063 16.2 28.8004C16.2 29.7944 17.006 30.6004 18 30.6004L34.2 30.6004C35.1941 30.6004 36 29.7944 36 28.8004C36 27.8063 35.1941 27.0004 34.2 27.0004Z" fill="white"/>
</g>
<defs>
<clipPath id="clip0_1_9471">
<rect width="36" height="36" fill="white"/>
</clipPath>
</defs>
</svg>
