<svg width="42" height="35" viewBox="0 0 42 35" fill="none" xmlns="http://www.w3.org/2000/svg">
<path d="M31.1244 7.85008C31.1244 5.88086 30.12 4.1363 28.6001 3.11862C27.6882 2.49749 26.5912 2.14062 25.4149 2.14062H24.0008V5.61652C24.0008 6.3434 23.4193 6.93815 22.6792 6.93815C21.9523 6.93815 21.3575 6.3434 21.3575 5.61652V2.14062H9.76688V5.61652C9.76688 6.3434 9.17213 6.93815 8.44524 6.93815C7.70513 6.93815 7.12361 6.3434 7.12361 5.61652V2.14062H5.70946C4.13671 2.14062 2.70933 2.77506 1.6785 3.81912C0.634357 4.84995 0 6.27734 0 7.85008V8.7224H31.1244V7.85008Z" fill="#083983"/>
<path d="M5.70946 31.1236H17.5909C16.5865 29.3922 16.0049 27.3702 16.0049 25.2159C16.0049 18.687 21.3047 13.3873 27.8203 13.3873C28.9701 13.3873 30.0803 13.5459 31.1244 13.8498V11.3652H0V25.4273C0 28.5728 2.56397 31.1236 5.70946 31.1236Z" fill="#083983"/>
<path d="M9.76704 1.32163C9.76704 0.59475 9.17229 0 8.44541 0C7.7053 0 7.12378 0.59475 7.12378 1.32163V2.14104H9.76704V1.32163Z" fill="#083983"/>
<path d="M24.0007 1.32163C24.0007 0.59475 23.4192 0 22.6791 0C21.9522 0 21.3574 0.59475 21.3574 1.32163V2.14104H24.0007V1.32163Z" fill="#083983"/>
<path d="M16 23H19V25H16V23Z" fill="#083983"/>
<path d="M38 23H42V25H38V23Z" fill="#083983"/>
<path d="M36 17L38 15L39 16L37 18L36 17Z" fill="#083983"/>
<path d="M22 18L20 16L21 15L23 17L22 18Z" fill="#083983"/>
<path d="M28 11H30V15H28V11Z" fill="#083983"/>
<path d="M23.3636 32C22.6104 32 22 32.6715 22 33.5V35H37V33.5C37 32.6715 36.3896 32 35.6364 32H23.3636Z" fill="#083983"/>
<path d="M23 23.2791V31H36V23.2791C36 19.8167 33.0842 17 29.5 17C25.9158 17 23 19.8167 23 23.2791ZM27.0444 19.436H31.9556L31.0889 27.1221H27.9111L27.0444 19.436ZM27.9111 28.5174H31.0889L31.9556 29.9128H27.0444L27.9111 28.5174Z" fill="#083983"/>
</svg>
