<svg width="42" height="42" viewBox="0 0 42 42" fill="none" xmlns="http://www.w3.org/2000/svg">
<path d="M23.5286 20.761C22.9408 19.0171 21.0505 18.0798 19.3065 18.6677C17.672 19.2186 16.7281 20.9258 17.1307 22.6031C18.3303 26.7737 22.7182 30.5165 26.7369 33.6968C27.0254 33.9253 27.4446 33.8767 27.6732 33.5881C27.9018 33.2995 27.8532 32.8803 27.5646 32.6517C23.7072 29.5994 19.5019 26.0259 18.4116 22.2351C18.1064 21.1732 18.7199 20.0651 19.7818 19.7599C20.8437 19.4548 21.9519 20.0683 22.257 21.1302C22.9848 23.6627 26.6036 26.7923 30.0465 29.5168C30.3351 29.7453 30.7542 29.6967 30.9828 29.4081C31.2114 29.1195 31.1628 28.7003 30.8742 28.4717C29.0562 27.0362 24.2417 23.2268 23.5286 20.761Z" fill="#1F3870"/>
<path d="M28.5806 19.0425C27.1317 14.6002 22.4375 12.0908 17.9388 13.3536C13.3395 14.6733 10.6809 19.4717 12.0006 24.071C12.0016 24.0743 12.0025 24.0776 12.0034 24.0808C13.0978 27.8823 10.7518 28.9365 10.0041 29.1685C9.65294 29.2789 9.45782 29.6531 9.56822 30.0042C9.67862 30.3553 10.0528 30.5504 10.4039 30.44C12.442 29.8029 14.4213 27.6596 13.2843 23.7116C12.1634 19.821 14.4087 15.7585 18.2992 14.6376C18.3012 14.6371 18.3033 14.6365 18.3053 14.6359C22.1521 13.5546 26.16 15.7347 27.3424 19.5516C27.3581 19.6036 27.3805 19.6533 27.409 19.6996C27.4783 19.8142 27.621 20.0554 31.9049 23.5316C32.1905 23.7639 32.6103 23.7206 32.8426 23.435C33.0748 23.1494 33.0316 22.7295 32.7459 22.4973C31.1891 21.2337 28.9138 19.3557 28.5806 19.0425Z" fill="#1F3870"/>
<path d="M26.0929 20.0243C25.1723 16.8457 21.8549 15.0097 18.6726 15.9177C15.5479 16.8824 13.7343 20.1338 14.5552 23.2993C15.9015 29.4306 14.8951 30.8461 12.1333 31.7098C11.7822 31.8202 11.5871 32.1944 11.6975 32.5456C11.8079 32.8967 12.1821 33.0918 12.5332 32.9814C16.392 31.7818 17.2304 29.26 15.8654 23.0127C15.2023 20.5355 16.6043 17.9747 19.0484 17.1986C21.525 16.4955 24.1044 17.9248 24.8212 20.3975C25.0878 21.3066 25.7956 22.5541 31.2538 26.8741C31.5424 27.1027 31.9616 27.0541 32.1902 26.7655C32.4187 26.4769 32.3701 26.0577 32.0815 25.8291C27.1271 21.9104 26.2794 20.6695 26.0929 20.0243Z" fill="#1F3870"/>
<path d="M27.9269 29.3017C25.6716 27.5902 21.8968 24.7272 20.9678 21.4989C20.8601 21.1469 20.4874 20.9489 20.1355 21.0567C19.7922 21.1618 19.5938 21.52 19.6869 21.8668C20.7372 25.5216 24.7332 28.5526 27.1205 30.364C27.6056 30.7133 28.0727 31.087 28.52 31.4836C28.7847 31.7394 29.2066 31.7321 29.4624 31.4673C29.7119 31.209 29.7119 30.7995 29.4624 30.5413C28.9743 30.0995 28.4616 29.6857 27.9269 29.3017Z" fill="#1F3870"/>
<path d="M24.32 33.9376C23.6464 32.688 22.4057 31.8453 20.9957 31.6797C18.7298 31.6797 18.3793 35.5317 18.3299 36.3035C18.3071 36.6708 18.5864 36.9871 18.9537 37.01H18.9964C19.3489 37.0106 19.641 36.7367 19.6629 36.3848C19.7468 35.012 20.272 33.0126 20.9957 33.0126C21.9834 33.0126 22.6845 33.9643 23.247 34.7281C23.4328 34.993 23.6363 35.245 23.8561 35.4825C24.1208 35.7382 24.5428 35.7309 24.7985 35.4661C25.048 35.2078 25.048 34.7984 24.7985 34.5401C24.6261 34.3499 24.4662 34.1486 24.32 33.9376Z" fill="#1F3870"/>
<path d="M18.2999 28.1449C18.1747 27.7988 17.7925 27.6198 17.4465 27.745C17.1209 27.8629 16.9398 28.2104 17.0297 28.5447C17.6002 30.3268 16.4792 33.8243 14.7931 34.3721C14.4419 34.4821 14.2462 34.856 14.3561 35.2072C14.4661 35.5585 14.84 35.7541 15.1913 35.6442C15.1959 35.6428 15.2004 35.6413 15.205 35.6397C17.7694 34.8134 19.0063 30.3588 18.2999 28.1449Z" fill="#1F3870"/>
<path d="M32.531 19.0474C31.698 18.7808 31.0435 17.7145 30.2851 16.4976C28.6803 13.9037 26.4796 10.3516 20.3296 10.3516C14.0755 10.3589 9.00731 15.4271 9 21.6812C9 22.0493 9.2984 22.3477 9.66647 22.3477C10.0345 22.3477 10.3329 22.0493 10.3329 21.6812C10.3388 16.1626 14.811 11.6904 20.3297 11.6845C25.7372 11.6845 27.6313 14.7422 29.1535 17.2C30.0492 18.6462 30.8223 19.8951 32.1205 20.3163C32.4693 20.4338 32.8473 20.2463 32.9649 19.8976C33.0824 19.5488 32.8949 19.1707 32.5461 19.0532C32.5416 19.0517 32.537 19.0502 32.5324 19.0487L32.531 19.0474Z" fill="#1F3870"/>
<path d="M10.3329 27.0139C10.701 27.0139 10.9994 26.7155 10.9993 26.3474C10.9993 26.2437 10.9752 26.1415 10.9287 26.0489C10.6443 25.5157 10.4433 24.9422 10.3329 24.3481C10.3329 23.98 10.0345 23.6816 9.66647 23.6816C9.2984 23.6816 9 23.98 9 24.3481C9.10697 25.1518 9.35663 25.93 9.73707 26.646C9.85016 26.8715 10.0808 27.0139 10.3329 27.0139Z" fill="#1F3870"/>
<path d="M9.98641 12.9218C10.3007 13.1134 10.7108 13.014 10.9024 12.6997C10.9027 12.6991 10.9031 12.6985 10.9034 12.6979C11.4819 11.7435 14.3316 9.02038 19.6633 9.02038C24.7869 9.02038 28.4324 11.6155 29.0895 12.6979C29.2805 13.0126 29.6905 13.1128 30.0052 12.9218C30.3199 12.7308 30.4201 12.3208 30.2291 12.0061C29.3147 10.4999 25.2774 7.6875 19.6633 7.6875C13.6932 7.6875 10.4929 10.8052 9.76248 12.0074C9.57223 12.3218 9.67245 12.7309 9.98641 12.9218Z" fill="#1F3870"/>
<path d="M13.9319 7.62802C14.2371 7.49475 14.4957 7.36142 14.741 7.22815C15.7433 6.723 16.4644 6.35375 19.6633 6.35375C21.8233 6.23472 23.9838 6.58061 25.9986 7.3681C26.2532 7.46276 26.5091 7.55735 26.777 7.64932C26.8469 7.67357 26.9203 7.68619 26.9943 7.68662C27.3623 7.68731 27.6612 7.38947 27.6619 7.0214C27.6624 6.73612 27.4814 6.4822 27.2115 6.38973C26.9529 6.30045 26.7077 6.20979 26.4624 6.12313C24.2995 5.2796 21.9822 4.90391 19.6634 5.02087C16.1392 5.02087 15.2568 5.47403 14.1372 6.04853C13.912 6.16449 13.6721 6.28714 13.3921 6.41241C13.0501 6.54837 12.8831 6.93587 13.019 7.27788C13.1549 7.6199 13.5424 7.78697 13.8844 7.65107C13.9019 7.64414 13.9191 7.63645 13.9359 7.62802H13.9319Z" fill="#1F3870"/>
<path d="M31.6895 16.5532C31.8148 16.8993 32.1969 17.0783 32.543 16.953C32.8685 16.8352 33.0496 16.4877 32.9597 16.1533C32.5816 15.1742 32.1125 14.2326 31.5589 13.3409C31.366 13.0274 30.9554 12.9294 30.6418 13.1223C30.3283 13.3152 30.2303 13.7257 30.4232 14.0393C30.9194 14.8379 31.3432 15.6792 31.6895 16.5532Z" fill="#1F3870"/>
<path d="M27.1462 33.8404C26.9962 33.8402 26.8507 33.7895 26.7331 33.6964C22.7144 30.5148 18.3305 26.7734 17.1309 22.6027C16.7013 20.8132 17.8039 19.0143 19.5934 18.5848C21.2707 18.1822 22.9779 19.1261 23.5288 20.7606C24.2379 23.2251 29.0523 27.0359 30.8597 28.4701C31.1553 28.6895 31.2171 29.1069 30.9977 29.4024C30.7784 29.698 30.3609 29.7598 30.0654 29.5405C30.0545 29.5323 30.0437 29.5238 30.0333 29.5151C26.5904 26.7907 22.9689 23.6623 22.2425 21.1285C21.9374 20.067 20.8295 19.4538 19.768 19.759C18.7065 20.0641 18.0933 21.172 18.3985 22.2335C19.4888 26.0242 23.6941 29.5977 27.5502 32.6501C27.8388 32.8785 27.8874 33.2977 27.659 33.5863C27.5324 33.7461 27.3396 33.8392 27.1356 33.839L27.1462 33.8404Z" fill="#1F3870"/>
<path d="M10.1995 30.467C9.83146 30.4663 9.53362 30.1674 9.5343 29.7994C9.5348 29.5087 9.72368 29.2519 10.001 29.1648C10.746 28.9315 13.092 27.8772 12.0003 24.0771C10.6776 19.4787 13.3331 14.6786 17.9316 13.3559C17.9338 13.3553 17.9361 13.3546 17.9384 13.354C22.4375 12.0903 27.1326 14.5998 28.5816 19.0428C28.9135 19.3547 31.1887 21.2341 32.7455 22.4977C33.0241 22.7382 33.0549 23.1591 32.8143 23.4377C32.584 23.7044 32.186 23.7457 31.9058 23.532C27.6205 20.0545 27.478 19.8133 27.4086 19.6986C27.381 19.6525 27.3591 19.6033 27.3433 19.552C26.1609 15.7344 22.1521 13.5541 18.3049 14.6363C14.4136 15.7543 12.1654 19.8153 13.2835 23.7065C13.2836 23.707 13.2838 23.7075 13.2839 23.7079C14.4195 27.6546 12.4415 29.7992 10.4021 30.4364C10.3366 30.4571 10.2683 30.4675 10.1995 30.467Z" fill="#1F3870"/>
<path d="M12.3323 33.0131C11.9643 33.0125 11.6664 32.7136 11.6671 32.3455C11.6676 32.0548 11.8565 31.798 12.1338 31.7109C14.8956 30.8472 15.9005 29.4289 14.5543 23.3003C13.7341 20.1349 15.5474 16.884 18.6716 15.9187C21.854 15.013 25.1702 16.848 26.0932 20.0254C26.2785 20.6692 27.1249 21.9101 32.0713 25.8262C32.3669 26.0455 32.4287 26.463 32.2093 26.7585C31.9899 27.0541 31.5725 27.1159 31.277 26.8965C31.266 26.8884 31.2553 26.8799 31.2449 26.8711C25.78 22.5499 25.0722 21.301 24.8123 20.3946C24.098 17.9193 21.5155 16.4885 19.0381 17.1956C16.5913 17.9724 15.1892 20.5374 15.8565 23.0164C17.2281 29.2651 16.3896 31.7802 12.5243 32.9852C12.462 33.004 12.3974 33.0134 12.3323 33.0131Z" fill="#1F3870"/>
<path d="M28.9936 31.6784C28.8167 31.6787 28.647 31.6088 28.5218 31.4838C28.0744 31.0869 27.6073 30.7127 27.1222 30.3628C24.735 28.5514 20.739 25.5204 19.6887 21.8656C19.5809 21.5137 19.7789 21.141 20.1308 21.0333C20.4828 20.9256 20.8554 21.1235 20.9632 21.4754C20.9654 21.4828 20.9676 21.4902 20.9696 21.4977C21.9026 24.7259 25.672 27.589 27.9273 29.3004C28.4624 29.6851 28.9754 30.0993 29.4641 30.5414C29.724 30.802 29.7233 31.224 29.4626 31.4839C29.3381 31.6081 29.1695 31.678 28.9936 31.6784Z" fill="#1F3870"/>
<path d="M18.9969 37.01H18.9542C18.5869 36.9871 18.3076 36.6708 18.3304 36.3035C18.3784 35.5317 18.7303 31.6797 20.9962 31.6797C22.4091 31.8439 23.6529 32.6872 24.3284 33.939C24.4738 34.1503 24.6332 34.3515 24.8056 34.5414C25.0613 34.8062 25.054 35.2281 24.7892 35.4838C24.5309 35.7333 24.1215 35.7333 23.8632 35.4838C23.643 35.2472 23.4395 34.9955 23.2541 34.7308C22.6863 33.963 21.9852 33.0113 20.9962 33.0113C20.2737 33.0113 19.7473 35.0107 19.6633 36.3849C19.6415 36.7367 19.3494 37.0106 18.9969 37.01Z" fill="#1F3870"/>
<path d="M14.9979 35.678C14.6299 35.6787 14.3309 35.3809 14.3302 35.0129C14.3296 34.7229 14.5166 34.4659 14.7927 34.3771C16.4774 33.8293 17.5918 30.3318 17.0293 28.5497C16.8975 28.206 17.0693 27.8206 17.4129 27.6889C17.7566 27.5571 18.142 27.7289 18.2738 28.0726C18.2835 28.0978 18.2916 28.1236 18.2982 28.1499C19.0059 30.3638 17.765 34.8144 15.2032 35.6514C15.1366 35.6709 15.0673 35.6799 14.9979 35.678Z" fill="#1F3870"/>
<path d="M9.66647 22.3496C9.2984 22.3496 9 22.0512 9 21.6831C9.00737 15.429 14.0755 10.3608 20.3296 10.3535C26.4796 10.3535 28.6802 13.9057 30.2864 16.4995C31.0448 17.7218 31.6992 18.7788 32.5323 19.0494C32.8836 19.1593 33.0792 19.5332 32.9693 19.8845C32.8594 20.2357 32.4855 20.4314 32.1342 20.3215C32.1296 20.32 32.125 20.3185 32.1205 20.317C30.8222 19.8958 30.0491 18.6468 29.1534 17.2007C27.6312 14.7441 25.7372 11.6865 20.3296 11.6865C14.811 11.6923 10.3388 16.1646 10.3329 21.6832C10.3329 22.0512 10.0345 22.3496 9.66647 22.3496Z" fill="#1F3870"/>
<path d="M10.3329 27.0139C10.0802 27.0144 9.84897 26.872 9.73576 26.646C9.35545 25.9301 9.10628 25.1519 9 24.3481C9 23.98 9.2984 23.6816 9.66647 23.6816C10.0345 23.6816 10.3329 23.98 10.3329 24.3481C10.4437 24.9421 10.6446 25.5157 10.9287 26.0489C11.0936 26.3779 10.9605 26.7784 10.6315 26.9433C10.5387 26.9897 10.4365 27.0139 10.3329 27.0139Z" fill="#1F3870"/>
<path d="M29.66 13.0191C29.4267 13.0192 29.2103 12.8974 29.0895 12.6979C28.4337 11.6155 24.7869 9.02038 19.6632 9.02038C14.3317 9.02038 11.4819 11.7435 10.9021 12.6979C10.7225 13.0191 10.3165 13.134 9.9952 12.9544C9.67393 12.7748 9.55903 12.3688 9.73866 12.0475C9.74653 12.0334 9.75497 12.0196 9.76384 12.0061C10.4929 10.8052 13.6932 7.6875 19.6633 7.6875C25.2775 7.6875 29.3148 10.4999 30.2292 12.0074C30.4199 12.3222 30.3191 12.732 30.0043 12.9227C29.9004 12.9856 29.7814 13.0189 29.66 13.0191Z" fill="#1F3870"/>
<path d="M26.9942 7.68714C26.9203 7.68727 26.8469 7.67514 26.777 7.65115C26.5104 7.55918 26.2519 7.46321 25.9973 7.36993C23.9828 6.58231 21.823 6.23593 19.6633 6.35426C16.4644 6.35426 15.7433 6.72345 14.7476 7.23398C14.5024 7.36062 14.2425 7.49258 13.9386 7.63384C13.6014 7.78292 13.2072 7.63047 13.0582 7.29327C12.9091 6.95613 13.0615 6.56194 13.3987 6.41287C13.68 6.28622 13.9186 6.16364 14.1452 6.04767C15.2568 5.47455 16.1405 5.02132 19.6634 5.02132C21.9814 4.90311 24.2982 5.27743 26.4612 6.11965C26.7064 6.21031 26.9517 6.30228 27.2102 6.38625C27.5607 6.49872 27.7536 6.87403 27.6412 7.22448C27.5512 7.50451 27.2883 7.69258 26.9942 7.68714Z" fill="#1F3870"/>
<path d="M32.3256 17.0165C32.0357 17.0163 31.7793 16.8288 31.6911 16.5527C31.3448 15.677 30.9211 14.8339 30.4248 14.0335C30.232 13.7199 30.3298 13.3094 30.6434 13.1165C30.957 12.9236 31.3676 13.0214 31.5605 13.3351C32.1137 14.2269 32.5822 15.1684 32.96 16.1475C33.0719 16.4981 32.8783 16.8731 32.5277 16.985C32.4624 17.0058 32.3942 17.0165 32.3256 17.0165Z" fill="#1F3870"/>
</svg>
