<svg width="24" height="33" viewBox="0 0 24 33" fill="none" xmlns="http://www.w3.org/2000/svg">
<path d="M14.5286 15.7617C13.9408 14.0178 12.0505 13.0805 10.3065 13.6684C8.672 14.2193 7.72812 15.9265 8.13067 17.6038C9.33028 21.7744 13.7182 25.5172 17.7369 28.6975C18.0254 28.926 18.4446 28.8774 18.6732 28.5888C18.9018 28.3003 18.8532 27.8811 18.5646 27.6525C14.7072 24.6001 10.5019 21.0266 9.41157 17.2359C9.10642 16.174 9.7199 15.0658 10.7818 14.7607C11.8437 14.4555 12.9519 15.069 13.257 16.1309C13.9848 18.6634 17.6036 21.7931 21.0465 24.5175C21.3351 24.746 21.7542 24.6974 21.9828 24.4088C22.2114 24.1202 22.1628 23.7011 21.8742 23.4725C20.0562 22.037 15.2417 18.2275 14.5286 15.7617Z" fill="#083983"/>
<path d="M19.5806 14.0434C18.1317 9.60113 13.4375 7.09176 8.9388 8.3546C4.33949 9.67429 1.68086 14.4727 3.00061 19.072C3.00155 19.0752 3.00249 19.0785 3.00343 19.0818C4.09776 22.8832 1.75183 23.9375 1.00408 24.1694C0.652942 24.2798 0.457818 24.654 0.56822 25.0052C0.678621 25.3563 1.05281 25.5514 1.40395 25.441C3.44197 24.8039 5.42132 22.6606 4.28432 18.7125C3.16344 14.822 5.4087 10.7595 9.29918 9.63862C9.30125 9.63805 9.30331 9.63743 9.30531 9.63687C13.1521 8.55559 17.16 10.7357 18.3424 14.5526C18.3581 14.6046 18.3805 14.6543 18.409 14.7005C18.4783 14.8152 18.621 15.0564 22.9049 18.5326C23.1905 18.7648 23.6103 18.7216 23.8426 18.4359C24.0748 18.1503 24.0316 17.7305 23.7459 17.4982C22.1891 16.2347 19.9138 14.3566 19.5806 14.0434Z" fill="#083983"/>
<path d="M17.093 15.0246C16.1725 11.8459 12.855 10.0099 9.67272 10.9179C6.54805 11.8826 4.73445 15.1341 5.55537 18.2995C6.90162 24.4308 5.89526 25.8464 3.13347 26.7101C2.78234 26.8205 2.58721 27.1947 2.69761 27.5458C2.80802 27.897 3.18221 28.0921 3.53334 27.9817C7.39208 26.7821 8.2305 24.2602 6.86557 18.0129C6.20247 15.5357 7.60439 12.9749 10.0485 12.1988C12.5251 11.4957 15.1045 12.9251 15.8213 15.3978C16.0879 16.3068 16.7957 17.5544 22.2539 21.8744C22.5425 22.1029 22.9617 22.0543 23.1903 21.7657C23.4189 21.4771 23.3703 21.0579 23.0817 20.8293C18.1273 16.9107 17.2795 15.6698 17.093 15.0246Z" fill="#083983"/>
<path d="M18.927 24.3014C16.6717 22.59 12.897 19.7269 11.968 16.4987C11.8602 16.1467 11.4876 15.9487 11.1356 16.0565C10.7923 16.1616 10.5939 16.5198 10.687 16.8665C11.7373 20.5213 15.7334 23.5523 18.1206 25.3638C18.6057 25.7131 19.0728 26.0868 19.5201 26.4834C19.7848 26.7391 20.2068 26.7318 20.4625 26.4671C20.712 26.2088 20.712 25.7993 20.4625 25.5411C19.9744 25.0993 19.4618 24.6854 18.927 24.3014Z" fill="#083983"/>
<path d="M15.32 28.9374C14.6464 27.6877 13.4057 26.845 11.9957 26.6794C9.72979 26.6794 9.37928 30.5315 9.32992 31.3032C9.30711 31.6706 9.58639 31.9868 9.95371 32.0097H9.99639C10.3489 32.0104 10.641 31.7364 10.6629 31.3846C10.7468 30.0117 11.272 28.0124 11.9957 28.0124C12.9834 28.0124 13.6845 28.9641 14.247 29.7278C14.4328 29.9927 14.6363 30.2448 14.8561 30.4823C15.1208 30.738 15.5428 30.7306 15.7985 30.4659C16.048 30.2076 16.048 29.7982 15.7985 29.5399C15.6261 29.3496 15.4662 29.1484 15.32 28.9374Z" fill="#083983"/>
<path d="M9.2998 23.1446C9.17453 22.7985 8.79241 22.6195 8.44633 22.7448C8.12081 22.8626 7.93968 23.2102 8.02959 23.5445C8.60009 25.3266 7.47908 28.8241 5.79301 29.3719C5.44175 29.4819 5.24612 29.8557 5.35602 30.207C5.46599 30.5583 5.83987 30.7539 6.19113 30.644C6.19575 30.6425 6.20031 30.641 6.20487 30.6395C8.76929 29.8131 10.0062 25.3586 9.2998 23.1446Z" fill="#083983"/>
<path d="M23.531 14.0489C22.698 13.7823 22.0435 12.716 21.2851 11.499C19.6803 8.90518 17.4796 5.35303 11.3296 5.35303C5.07547 5.3604 0.00731012 10.4286 0 16.6827C0 17.0508 0.298403 17.3492 0.66647 17.3492C1.03454 17.3492 1.33294 17.0508 1.33294 16.6827C1.33881 11.1641 5.81104 6.69184 11.3297 6.68597C16.7372 6.68597 18.6313 9.74366 20.1535 12.2015C21.0492 13.6477 21.8223 14.8966 23.1205 15.3178C23.4693 15.4353 23.8473 15.2478 23.9649 14.899C24.0824 14.5502 23.8949 14.1722 23.5461 14.0547C23.5416 14.0531 23.537 14.0517 23.5324 14.0502L23.531 14.0489Z" fill="#083983"/>
<path d="M1.33294 22.0141C1.70101 22.0141 1.99941 21.7157 1.99935 21.3476C1.99935 21.244 1.97517 21.1418 1.92875 21.0491C1.64434 20.516 1.44334 19.9424 1.33294 19.3484C1.33294 18.9803 1.03454 18.6819 0.66647 18.6819C0.298403 18.6819 0 18.9803 0 19.3484C0.106965 20.1521 0.356634 20.9303 0.737072 21.6463C0.85016 21.8717 1.08077 22.0141 1.33294 22.0141Z" fill="#083983"/>
<path d="M0.986531 7.92155C1.3008 8.11311 1.71092 8.01371 1.90248 7.69943C1.90286 7.69881 1.90323 7.69825 1.90354 7.69762C2.48204 6.74325 5.33174 4.02013 10.6634 4.02013C15.787 4.02013 19.4325 6.61529 20.0896 7.69762C20.2806 8.01233 20.6906 8.11255 21.0053 7.92155C21.32 7.73055 21.4202 7.32056 21.2292 7.00585C20.3149 5.49965 16.2775 2.68726 10.6634 2.68726C4.69332 2.68726 1.49305 5.80493 0.762604 7.00716C0.572353 7.32156 0.672571 7.73061 0.986531 7.92155Z" fill="#083983"/>
<path d="M4.93191 2.62851C5.23712 2.49524 5.49572 2.36191 5.74095 2.22864C6.74331 1.72349 7.46439 1.35423 10.6633 1.35423C12.8233 1.23521 14.9838 1.5811 16.9986 2.36859C17.2532 2.46325 17.5091 2.55784 17.777 2.64981C17.8469 2.67405 17.9203 2.68667 17.9943 2.68711C18.3623 2.6878 18.6612 2.38996 18.6619 2.02189C18.6624 1.73661 18.4814 1.48269 18.2115 1.39022C17.9529 1.30094 17.7077 1.21028 17.4624 1.12362C15.2995 0.280084 12.9822 -0.0956057 10.6634 0.0213561C7.13925 0.0213561 6.25685 0.474521 5.13721 1.04902C4.91198 1.16498 4.67205 1.28763 4.39214 1.4129C4.05013 1.54886 3.88306 1.93636 4.01895 2.27837C4.15491 2.62038 4.54241 2.78745 4.88442 2.65156C4.90192 2.64463 4.9191 2.63694 4.9359 2.62851H4.93191Z" fill="#083983"/>
<path d="M22.6896 11.5537C22.8149 11.8998 23.197 12.0788 23.5431 11.9535C23.8686 11.8357 24.0497 11.4881 23.9598 11.1538C23.5817 10.1747 23.1127 9.23307 22.559 8.34142C22.3661 8.02784 21.9555 7.92993 21.642 8.12281C21.3284 8.31568 21.2305 8.72624 21.4233 9.03982C21.9195 9.83844 22.3433 10.6797 22.6896 11.5537Z" fill="#083983"/>
<path d="M18.1462 28.8413C17.9962 28.8412 17.8507 28.7905 17.7331 28.6974C13.7144 25.5157 9.33049 21.7743 8.13089 17.6037C7.70134 15.8141 8.80385 14.0153 10.5934 13.5858C12.2707 13.1832 13.9779 14.1271 14.5288 15.7616C15.2379 18.2261 20.0523 22.0369 21.8597 23.4711C22.1553 23.6905 22.2171 24.1079 21.9977 24.4034C21.7784 24.6989 21.3609 24.7608 21.0654 24.5414C21.0545 24.5333 21.0437 24.5248 21.0333 24.5161C17.5904 21.7916 13.9689 18.6633 13.2425 16.1295C12.9374 15.068 11.8295 14.4548 10.768 14.7599C9.7065 15.0651 9.09332 16.173 9.39847 17.2344C10.4888 21.0252 14.6941 24.5987 18.5502 27.651C18.8388 27.8795 18.8874 28.2987 18.659 28.5872C18.5324 28.7471 18.3396 28.8402 18.1356 28.84L18.1462 28.8413Z" fill="#083983"/>
<path d="M1.1994 25.4678C0.831334 25.4671 0.533494 25.1682 0.534181 24.8001C0.534681 24.5094 0.723556 24.2527 1.00084 24.1655C1.74591 23.9323 4.09183 22.8779 3.00019 19.0778C1.6775 14.4794 4.333 9.67935 8.93144 8.35665C8.93369 8.35603 8.936 8.35534 8.93825 8.35472C13.4374 7.091 18.1325 9.60056 19.5815 14.0435C19.9134 14.3554 22.1886 16.2348 23.7454 17.4984C24.024 17.739 24.0548 18.1598 23.8142 18.4384C23.5839 18.7051 23.1859 18.7464 22.9057 18.5328C18.6204 15.0552 18.4778 14.814 18.4085 14.6993C18.3809 14.6532 18.359 14.604 18.3432 14.5527C17.1608 10.7351 13.152 8.55484 9.30482 9.63699C5.41346 10.7551 3.16532 14.816 4.2834 18.7073C4.28352 18.7077 4.28365 18.7082 4.28377 18.7087C5.4194 22.6554 3.44136 24.8 1.40202 25.4371C1.33648 25.4578 1.26813 25.4682 1.1994 25.4678Z" fill="#083983"/>
<path d="M3.33246 28.0122C2.96439 28.0115 2.66655 27.7126 2.66724 27.3445C2.66774 27.0539 2.85661 26.7971 3.1339 26.7099C5.89568 25.8462 6.90067 24.428 5.55442 18.2993C4.73419 15.1339 6.54754 11.883 9.67177 10.9177C12.8541 10.012 16.1703 11.8471 17.0933 15.0244C17.2786 15.6682 18.125 16.9091 23.0714 20.8252C23.367 21.0446 23.4288 21.462 23.2094 21.7575C22.99 22.0531 22.5726 22.1149 22.2771 21.8955C22.2662 21.8874 22.2554 21.8789 22.245 21.8702C16.7801 17.5489 16.0723 16.3 15.8124 15.3936C15.0981 12.9183 12.5157 11.4876 10.0383 12.1946C7.59138 12.9714 6.18934 15.5364 6.85662 18.0154C8.22817 24.2641 7.38976 26.7793 3.5244 27.9842C3.46217 28.003 3.3975 28.0124 3.33246 28.0122Z" fill="#083983"/>
<path d="M19.9937 26.6794C19.8169 26.6797 19.6471 26.6097 19.5219 26.4848C19.0745 26.0878 18.6074 25.7137 18.1224 25.3638C15.7351 23.5524 11.7391 20.5214 10.6888 16.8666C10.5811 16.5146 10.779 16.142 11.131 16.0342C11.4829 15.9265 11.8555 16.1245 11.9633 16.4764C11.9656 16.4838 11.9677 16.4912 11.9697 16.4987C12.9027 19.7269 16.6721 22.59 18.9274 24.3014C19.4625 24.686 19.9756 25.1003 20.4642 25.5423C20.7241 25.803 20.7234 26.225 20.4627 26.4848C20.3382 26.6091 20.1696 26.679 19.9937 26.6794Z" fill="#083983"/>
<path d="M9.99687 32.0109H9.9542C9.58688 31.9881 9.3076 31.6718 9.3304 31.3045C9.37839 30.5327 9.73027 26.6807 11.9962 26.6807C13.4091 26.8449 14.6529 27.6882 15.3284 28.9399C15.4738 29.1512 15.6332 29.3525 15.8056 29.5424C16.0613 29.8071 16.054 30.2291 15.7892 30.4848C15.5309 30.7343 15.1215 30.7343 14.8632 30.4848C14.643 30.2482 14.4395 29.9965 14.2541 29.7317C13.6863 28.964 12.9852 28.0123 11.9962 28.0123C11.2737 28.0123 10.7473 30.0116 10.6633 31.3859C10.6415 31.7376 10.3494 32.0116 9.99687 32.0109Z" fill="#083983"/>
<path d="M5.9978 30.678C5.62973 30.6787 5.33077 30.3809 5.33008 30.0129C5.32952 29.7229 5.51652 29.4659 5.79255 29.3771C7.47732 28.8293 8.59164 25.3318 8.02914 23.5497C7.89737 23.206 8.06919 22.8206 8.41282 22.6889C8.75646 22.5571 9.1419 22.7289 9.27367 23.0726C9.28335 23.0978 9.29147 23.1236 9.29804 23.1499C10.0058 25.3638 8.7649 29.8144 6.20304 30.6514C6.13644 30.6709 6.06721 30.6799 5.9978 30.678Z" fill="#083983"/>
<path d="M0.66647 17.3491C0.298403 17.3491 0 17.0507 0 16.6826C0.0073726 10.4285 5.07547 5.36034 11.3296 5.35303C17.4796 5.35303 19.6802 8.90518 21.2864 11.499C22.0448 12.7213 22.6992 13.7783 23.5323 14.0489C23.8836 14.1588 24.0792 14.5327 23.9693 14.884C23.8594 15.2352 23.4855 15.4309 23.1342 15.321C23.1296 15.3195 23.125 15.318 23.1205 15.3165C21.8222 14.8953 21.0491 13.6463 20.1534 12.2002C18.6312 9.74366 16.7372 6.68597 11.3296 6.68597C5.81098 6.69184 1.33875 11.1641 1.33288 16.6827C1.33288 17.0507 1.03454 17.3491 0.66647 17.3491Z" fill="#083983"/>
<path d="M1.33288 22.0142C1.08021 22.0147 0.848973 21.8722 0.73576 21.6463C0.355447 20.9303 0.106278 20.1521 0 19.3484C0 18.9803 0.298403 18.6819 0.66647 18.6819C1.03454 18.6819 1.33294 18.9803 1.33294 19.3484C1.44365 19.9424 1.64459 20.5159 1.92875 21.0491C2.09363 21.3782 1.96055 21.7786 1.63147 21.9435C1.53875 21.99 1.43653 22.0142 1.33288 22.0142Z" fill="#083983"/>
<path d="M20.66 8.01859C20.4267 8.01871 20.2103 7.89688 20.0895 7.69738C19.4337 6.61504 15.7869 4.01989 10.6632 4.01989C5.33166 4.01989 2.48191 6.743 1.9021 7.69738C1.72253 8.01865 1.31647 8.13355 0.995203 7.95392C0.673933 7.77435 0.559033 7.3683 0.738662 7.04703C0.746534 7.03291 0.754969 7.0191 0.763841 7.0056C1.49292 5.80468 4.69325 2.68701 10.6633 2.68701C16.2775 2.68701 20.3148 5.49941 21.2292 7.00692C21.4199 7.32175 21.3191 7.73155 21.0043 7.92218C20.9004 7.9851 20.7814 8.01846 20.66 8.01859Z" fill="#083983"/>
<path d="M17.9942 2.68714C17.9203 2.68727 17.8469 2.67514 17.777 2.65115C17.5104 2.55918 17.2519 2.46321 16.9973 2.36993C14.9828 1.58231 12.823 1.23593 10.6633 1.35426C7.46436 1.35426 6.74328 1.72345 5.74761 2.23398C5.50238 2.36062 5.24246 2.49258 4.93856 2.63384C4.60142 2.78292 4.20724 2.63047 4.05816 2.29327C3.90908 1.95613 4.06153 1.56194 4.39873 1.41287C4.67996 1.28622 4.91857 1.16364 5.14518 1.04767C6.25682 0.474549 7.14053 0.0213217 10.6634 0.0213217C12.9814 -0.0968898 15.2982 0.277426 17.4612 1.11965C17.7064 1.21031 17.9517 1.30228 18.2102 1.38625C18.5607 1.49872 18.7536 1.87403 18.6412 2.22448C18.5512 2.50451 18.2883 2.69258 17.9942 2.68714Z" fill="#083983"/>
<path d="M23.3256 12.0175C23.0357 12.0173 22.7793 11.8298 22.6911 11.5536C22.3448 10.6779 21.9211 9.83483 21.4248 9.03447C21.232 8.72088 21.3298 8.31033 21.6434 8.11745C21.957 7.92458 22.3676 8.02242 22.5605 8.33607C23.1137 9.22784 23.5822 10.1694 23.96 11.1485C24.0719 11.4991 23.8783 11.8741 23.5277 11.9859C23.4624 12.0068 23.3942 12.0175 23.3256 12.0175Z" fill="#083983"/>
</svg>
