<svg width="35" height="36" viewBox="0 0 35 36" fill="none" xmlns="http://www.w3.org/2000/svg">
<path d="M28.9628 20.0959H27.5732C27.7395 19.4137 27.8277 18.7041 27.8277 17.9754V9.4932C27.2649 -3.16928 7.95337 -3.15952 7.39565 9.4932V17.9754C7.39565 18.7041 7.48389 19.4137 7.65022 20.0959H6.26054C3.13095 20.0959 0.584961 22.4741 0.584961 25.3973V36H34.6384V25.3973C34.6384 22.4741 32.0924 20.0959 28.9628 20.0959ZM9.66588 9.4932C10.1036 -0.355385 25.1237 -0.347822 25.5575 9.4932V17.9754C25.5575 19.5512 25.0287 21.0134 24.1285 22.2165H23.2873C21.1256 22.2165 19.3133 20.7978 18.8581 18.9052C21.3898 18.3731 23.2873 16.2575 23.2873 13.7343V7.77761L22.6598 7.48455C19.3101 5.92009 15.9133 5.92009 12.5636 7.48455L11.9361 7.77761V13.7343C11.9361 16.3202 13.9289 18.4782 16.5551 18.9421C16.9863 21.5735 19.1499 23.6791 21.9207 24.2084C16.7352 27.3999 9.62752 23.814 9.66588 17.9754V9.4932ZM14.2063 13.7343V9.1103C16.4919 8.20413 18.7314 8.20413 21.017 9.1103V13.7343C20.8294 17.9551 14.3922 17.9518 14.2063 13.7343ZM32.3682 33.8795H28.9628V29.6384H26.6926V33.8795H8.53077V29.6384H6.26054V33.8795H2.85519V25.3973C2.85519 23.6433 4.38283 22.2165 6.26054 22.2165H8.46198C12.1827 29.2503 23.0438 29.2463 26.7614 22.2165H28.9628C30.8406 22.2165 32.3682 23.6433 32.3682 25.3973V33.8795Z" fill="#083983"/>
</svg>
