<svg width="25" height="25" viewBox="0 0 25 25" fill="none" xmlns="http://www.w3.org/2000/svg">
<path d="M9.47681 18.4754C8.99802 18.4754 8.60991 18.8636 8.60991 19.3423C8.60991 19.821 8.99802 20.2092 9.47681 20.2092H15.1457C15.6245 20.2092 16.0126 19.821 16.0126 19.3423C16.0126 18.8636 15.6245 18.4754 15.1457 18.4754H9.47681Z" fill="#C6C6C6" stroke="#C6C6C6" stroke-width="0.6"/>
<path d="M2.29708 7.43629L2.48297 7.67175L2.29708 7.43629C1.27181 8.24572 0.673633 9.48007 0.673633 10.7864V19.909C0.673633 22.2663 2.58459 24.1773 4.94189 24.1773H19.6811C22.0384 24.1773 23.9494 22.2663 23.9494 19.909V10.7864C23.9494 9.48008 23.3512 8.24573 22.326 7.43629L22.1401 7.67175L22.326 7.43629L14.9563 1.61817L14.7705 1.85364L14.9563 1.61817C13.4056 0.393944 11.2174 0.39394 9.66669 1.61818L2.29708 7.43629ZM10.741 2.97899C11.6619 2.25204 12.9611 2.25204 13.882 2.97899L21.2516 8.79711C21.8603 9.27775 22.2156 10.0107 22.2156 10.7864V19.909C22.2156 21.3088 21.0808 22.4435 19.6811 22.4435H4.94189C3.54214 22.4435 2.40742 21.3088 2.40742 19.909V10.7864C2.40742 10.0107 2.76261 9.27774 3.37142 8.79711L3.18553 8.56164L3.37142 8.79711L10.741 2.97899Z" fill="#C6C6C6" stroke="#C6C6C6" stroke-width="0.6"/>
</svg>
