<svg width="21" height="25" viewBox="0 0 21 25" fill="none" xmlns="http://www.w3.org/2000/svg">
<path d="M10.5089 25L10.1157 24.8238C6.6447 23.2674 3.6679 20.9595 1.26852 17.9636C0.450425 16.9424 0 15.6583 0 14.3475V0L1.37788 0.583191C3.0577 1.29425 4.41779 1.62537 5.65754 1.62537C7.828 1.62537 9.98082 0.323486 10.0023 0.310364L10.5089 0.000610352L11.0244 0.296936C11.0456 0.30899 13.2787 1.57745 15.441 1.57745C17.0036 1.57745 18.5013 1.04401 19.6316 0.579224L21 0.0167847V14.4853C21 15.7225 20.6127 16.9055 19.8801 17.9074C17.6427 20.9654 14.6237 23.2964 10.9072 24.8351L10.5089 25ZM1.97633 2.90451V14.3475C1.97633 15.2214 2.27564 16.0764 2.81933 16.7549C4.93055 19.3907 7.52668 21.4455 10.5406 22.8677C13.7344 21.4713 16.3358 19.42 18.2773 16.7662C18.7654 16.0989 19.0235 15.3101 19.0235 14.4853V2.89169C17.966 3.24234 16.7442 3.52707 15.441 3.52707C13.4119 3.52707 11.4439 2.69318 10.5387 2.24854C9.64749 2.71179 7.71121 3.57513 5.65754 3.57513C4.31555 3.57529 3.03898 3.26462 1.97633 2.90451ZM16.6339 8.99262L15.2364 7.61398L9.42537 13.3467L6.2082 10.173L4.81052 11.5517L9.42537 16.104L16.6339 8.99262Z" fill="#C6C6C6"/>
</svg>
