<svg width="27" height="27" viewBox="0 0 27 27" fill="none" xmlns="http://www.w3.org/2000/svg">
<path d="M6.34107 10.678C6.34225 11.9192 6.69309 13.1348 7.35338 14.1857C8.01366 15.2366 8.95667 16.0802 10.0743 16.6198L10.0874 16.6686L10.1443 16.6526C11.014 17.0598 11.9621 17.272 12.9224 17.2743C13.8827 17.2765 14.8318 17.0688 15.7034 16.6657H15.7143V16.6562C16.7871 16.1581 17.7062 15.3807 18.3753 14.4053C19.0444 13.43 19.4389 12.2927 19.5175 11.1125C19.5962 9.93236 19.356 8.75276 18.8221 7.69731C18.2883 6.64185 17.4804 5.74937 16.4832 5.11335C15.486 4.47733 14.3361 4.12118 13.154 4.0822C11.9718 4.04322 10.8009 4.32284 9.76399 4.89179C8.72704 5.46074 7.86216 6.29806 7.25995 7.31606C6.65774 8.33406 6.34037 9.49527 6.34107 10.678ZM14.5999 6.72685C14.3025 6.7803 14.0034 6.81917 13.7026 6.84347V5.66999C13.9361 5.70592 14.1668 5.75829 14.3929 5.8267C14.4687 6.12554 14.5377 6.42559 14.5999 6.72685ZM14.4352 15.5177C14.1955 15.5919 13.9506 15.6482 13.7026 15.6861V14.5855C14.0088 14.6108 14.3132 14.6506 14.6159 14.705C14.561 14.9772 14.5007 15.2481 14.4352 15.5177ZM11.188 14.7072C11.5143 14.6479 11.8435 14.6056 12.1742 14.5804V15.6861C11.8979 15.6427 11.6256 15.5767 11.3601 15.4886C11.2969 15.2296 11.2395 14.9691 11.188 14.7072ZM11.4067 5.85075C11.6581 5.77032 11.9155 5.70988 12.1764 5.66999V6.84857C11.8514 6.82395 11.5278 6.78284 11.207 6.72539C11.2638 6.43239 11.329 6.14084 11.4023 5.85075H11.4067ZM12.172 8.38211V9.91274H10.8105C10.8338 9.35248 10.8809 8.79368 10.9519 8.23634C11.3556 8.30711 11.763 8.35577 12.172 8.38211ZM12.172 11.4434V13.0469C11.7592 13.0741 11.3483 13.1239 10.941 13.1963C10.8695 12.6132 10.8236 12.0289 10.8032 11.4434H12.172ZM13.7026 13.0512V11.4434H14.9986C14.9782 12.0265 14.9322 12.6095 14.8608 13.1926C14.4775 13.1252 14.0909 13.078 13.7026 13.0512ZM13.7026 9.91274V8.37774C14.0875 8.35085 14.4707 8.30389 14.8506 8.23707C14.9206 8.79392 14.9675 9.35272 14.9913 9.91346L13.7026 9.91274ZM8.87607 7.65324C9.06776 7.72613 9.26164 7.79902 9.45917 7.86024C9.36636 8.54052 9.30683 9.22444 9.28059 9.91201H7.92927C8.05458 9.09298 8.37977 8.31671 8.87607 7.65324ZM7.92854 11.4434H9.27185C9.29468 12.1547 9.35275 12.8642 9.44605 13.5717C9.26893 13.6292 9.09327 13.6919 8.91907 13.7582C8.39866 13.0828 8.05737 12.2863 7.92854 11.4434ZM16.9395 13.7757C16.7452 13.7009 16.5508 13.6314 16.3564 13.5673C16.4493 12.8617 16.5071 12.1535 16.5299 11.4426H17.9461C17.8156 12.2937 17.4693 13.0971 16.9403 13.7765L16.9395 13.7757ZM17.9447 9.91274H16.5234C16.4971 9.22857 16.4376 8.54586 16.3448 7.86461C16.5634 7.79173 16.7734 7.71884 16.9847 7.63575C17.4889 8.30329 17.8183 9.0858 17.9447 9.91274Z" fill="#083983"/>
<path d="M25.4011 6.19538C25.604 6.19538 25.7987 6.11475 25.9422 5.97123C26.0858 5.8277 26.1664 5.63304 26.1664 5.43007V3.46213C26.1664 1.55322 24.6598 0 22.8085 0H3.3579C1.50657 0 0 1.55322 0 3.46213V17.8449C0 19.6605 1.36226 21.154 3.08822 21.2961L7.37396 25.8056C7.59415 26.0407 7.88024 26.2038 8.19474 26.2735C8.50923 26.3433 8.83745 26.3163 9.13637 26.1963C9.44496 26.072 9.70893 25.8576 9.89382 25.581C10.0787 25.3045 10.1759 24.9786 10.1728 24.646V21.307H22.8085C24.6598 21.307 26.1664 19.7538 26.1664 17.8449V9.92427C26.1664 9.7213 26.0858 9.52664 25.9422 9.38312C25.7987 9.23959 25.604 9.15896 25.4011 9.15896C25.1981 9.15896 25.0034 9.23959 24.8599 9.38312C24.7164 9.52664 24.6358 9.7213 24.6358 9.92427V17.8449C24.6358 18.9098 23.8158 19.7764 22.8085 19.7764H8.64219V24.646C8.64557 24.6724 8.64029 24.6993 8.62716 24.7226C8.61403 24.7458 8.59373 24.7642 8.56931 24.775C8.53141 24.7903 8.511 24.775 8.48403 24.7509L3.75367 19.7764H3.35571C2.34841 19.7764 1.52844 18.9098 1.52844 17.8449V3.46213C1.52844 2.39725 2.34841 1.53062 3.35571 1.53062H22.8085C23.8158 1.53062 24.6358 2.39725 24.6358 3.46213V5.43007C24.6358 5.63304 24.7164 5.8277 24.8599 5.97123C25.0034 6.11475 25.1981 6.19538 25.4011 6.19538Z" fill="#083983"/>
</svg>
