<svg width="42" height="42" viewBox="0 0 42 42" fill="none" xmlns="http://www.w3.org/2000/svg">
<path d="M14.3409 18.6776C14.3421 19.9187 14.693 21.1343 15.3533 22.1852C16.0135 23.2361 16.9566 24.0797 18.0742 24.6193L18.0873 24.6681L18.1442 24.6521C19.0138 25.0593 19.962 25.2715 20.9223 25.2738C21.8825 25.276 22.8317 25.0683 23.7033 24.6652H23.7142V24.6557C24.787 24.1576 25.706 23.3802 26.3752 22.4048C27.0443 21.4295 27.4388 20.2922 27.5174 19.112C27.596 17.9319 27.3558 16.7523 26.822 15.6968C26.2882 14.6414 25.4803 13.7489 24.4831 13.1129C23.4859 12.4768 22.336 12.1207 21.1538 12.0817C19.9717 12.0427 18.8008 12.3224 17.7639 12.8913C16.7269 13.4602 15.862 14.2976 15.2598 15.3156C14.6576 16.3336 14.3402 17.4948 14.3409 18.6776ZM22.5998 14.7264C22.3024 14.7798 22.0033 14.8187 21.7025 14.843V13.6695C21.936 13.7054 22.1666 13.7578 22.3928 13.8262C22.4686 14.125 22.5376 14.4251 22.5998 14.7264ZM22.435 23.5172C22.1954 23.5914 21.9505 23.6477 21.7025 23.6856V22.585C22.0086 22.6103 22.3131 22.6501 22.6158 22.7046C22.5609 22.9767 22.5006 23.2476 22.435 23.5172ZM19.1879 22.7067C19.5142 22.6474 19.8434 22.6051 20.1741 22.5799V23.6856C19.8977 23.6422 19.6254 23.5762 19.3599 23.4881C19.2968 23.2291 19.2394 22.9687 19.1879 22.7067ZM19.4066 13.8503C19.658 13.7698 19.9153 13.7094 20.1763 13.6695V14.8481C19.8513 14.8235 19.5277 14.7824 19.2069 14.7249C19.2637 14.4319 19.3288 14.1404 19.4022 13.8503H19.4066ZM20.1719 16.3816V17.9122H18.8104C18.8337 17.352 18.8808 16.7932 18.9518 16.2358C19.3555 16.3066 19.7628 16.3553 20.1719 16.3816ZM20.1719 19.4429V21.0464C19.7591 21.0736 19.3481 21.1235 18.9408 21.1958C18.8694 20.6127 18.8235 20.0284 18.8031 19.4429H20.1719ZM21.7025 21.0508V19.4429H22.9984C22.978 20.026 22.9321 20.6091 22.8607 21.1922C22.4774 21.1247 22.0908 21.0775 21.7025 21.0508ZM21.7025 17.9122V16.3773C22.0874 16.3504 22.4705 16.3034 22.8505 16.2366C22.9205 16.7934 22.9673 17.3522 22.9912 17.913L21.7025 17.9122ZM16.8759 15.6528C17.0676 15.7256 17.2615 15.7985 17.459 15.8598C17.3662 16.54 17.3067 17.224 17.2805 17.9115H15.9291C16.0545 17.0925 16.3796 16.3162 16.8759 15.6528ZM15.9284 19.4429H17.2717C17.2946 20.1542 17.3526 20.8637 17.4459 21.5712C17.2688 21.6287 17.0932 21.6914 16.919 21.7578C16.3985 21.0823 16.0572 20.2858 15.9284 19.4429ZM24.9394 21.7753C24.7451 21.7004 24.5507 21.6309 24.3563 21.5668C24.4491 20.8613 24.507 20.153 24.5298 19.4421H25.946C25.8154 20.2932 25.4692 21.0967 24.9402 21.776L24.9394 21.7753ZM25.9445 17.9122H24.5232C24.497 17.2281 24.4375 16.5454 24.3447 15.8641C24.5633 15.7912 24.7732 15.7184 24.9846 15.6353C25.4888 16.3028 25.8182 17.0853 25.9445 17.9122Z" fill="#1F3870"/>
<path d="M33.4011 14.1954C33.604 14.1954 33.7987 14.1148 33.9422 13.9712C34.0858 13.8277 34.1664 13.633 34.1664 13.4301V11.4621C34.1664 9.55322 32.6598 8 30.8085 8H11.3579C9.50657 8 8 9.55322 8 11.4621V25.8449C8 27.6605 9.36226 29.154 11.0882 29.2961L15.374 33.8056C15.5942 34.0407 15.8802 34.2038 16.1947 34.2735C16.5092 34.3433 16.8374 34.3163 17.1364 34.1963C17.445 34.072 17.7089 33.8576 17.8938 33.581C18.0787 33.3045 18.1759 32.9786 18.1728 32.646V29.307H30.8085C32.6598 29.307 34.1664 27.7538 34.1664 25.8449V17.9243C34.1664 17.7213 34.0858 17.5266 33.9422 17.3831C33.7987 17.2396 33.604 17.159 33.4011 17.159C33.1981 17.159 33.0034 17.2396 32.8599 17.3831C32.7164 17.5266 32.6358 17.7213 32.6358 17.9243V25.8449C32.6358 26.9098 31.8158 27.7764 30.8085 27.7764H16.6422V32.646C16.6456 32.6724 16.6403 32.6993 16.6272 32.7226C16.614 32.7458 16.5937 32.7642 16.5693 32.775C16.5314 32.7903 16.511 32.775 16.484 32.7509L11.7537 27.7764H11.3557C10.3484 27.7764 9.52844 26.9098 9.52844 25.8449V11.4621C9.52844 10.3972 10.3484 9.53062 11.3557 9.53062H30.8085C31.8158 9.53062 32.6358 10.3972 32.6358 11.4621V13.4301C32.6358 13.633 32.7164 13.8277 32.8599 13.9712C33.0034 14.1148 33.1981 14.1954 33.4011 14.1954Z" fill="#1F3870"/>
</svg>
