<svg width="34" height="34" viewBox="0 0 34 34" fill="none" xmlns="http://www.w3.org/2000/svg">
<path d="M33.9004 22.1836C33.64 21.2807 32.9073 20.5985 31.9882 20.403C31.3996 20.2777 30.7874 20.3691 30.2647 20.647C30.5674 18.7646 30.4084 16.8174 29.7855 15.0024C29.6664 14.6555 29.2886 14.4711 28.9418 14.5898C28.5949 14.7089 28.4102 15.0866 28.5292 15.4335C29.2649 17.577 29.2708 19.9285 28.5501 22.0745L23.2579 26.7748C22.9314 27.0647 22.5733 27.3106 22.1927 27.5102C22.3003 27.0749 22.293 26.6139 22.1637 26.176C21.9597 25.4844 21.4696 24.9092 20.8193 24.5977L16.1311 22.3523C14.0815 21.3705 11.6825 21.257 9.54931 22.0401L9.07276 22.2151C7.75002 18.4785 8.67072 14.3345 11.5033 11.5019L16.1917 6.81363H21.382L25.3544 10.786C25.6138 11.0453 26.0342 11.0453 26.2937 10.786C26.553 10.5267 26.553 10.1062 26.2937 9.84681L22.4981 6.05145L23.8702 2.1029C24.0541 1.57355 23.851 0.996055 23.3762 0.698409C22.9015 0.400829 22.293 0.469828 21.8968 0.865893L21.8886 0.874061C21.6141 1.14866 21.1673 1.14866 20.8929 0.874061C19.7273 -0.291354 17.831 -0.291354 16.6655 0.874061C16.5325 1.00708 16.3557 1.08026 16.1676 1.08026C15.9795 1.08026 15.8027 1.00701 15.6697 0.874061C15.2731 0.477399 14.6643 0.408732 14.1892 0.707241C13.7142 1.00568 13.5118 1.58398 13.6972 2.11352L15.0752 6.05185L10.5642 10.5628C8.89471 12.2324 7.78495 14.3373 7.35502 16.65C6.97788 18.6781 7.14125 20.7461 7.82493 22.6734L6.77799 23.0578C6.4296 22.6049 5.88272 22.3121 5.26851 22.3121H1.90375C0.854022 22.3122 0 23.1662 0 24.2159V32.0964C0 33.1461 0.854022 34.0002 1.90375 34.0002H19.4068C22.156 34.0002 24.7559 32.9449 26.7274 31.0288L33.2301 24.709C33.9039 24.0542 34.1608 23.0865 33.9004 22.1836ZM16.1675 2.40851C16.7103 2.40851 17.2207 2.19713 17.6046 1.81329C18.2522 1.16566 19.306 1.16566 19.9536 1.81329C20.3375 2.19713 20.8479 2.40851 21.3907 2.40851C21.7762 2.40851 22.1451 2.30199 22.4642 2.10276L21.2887 5.48552H16.2842L15.1022 2.10781C15.4194 2.30372 15.7853 2.40851 16.1675 2.40851ZM1.32818 32.0965V24.2159C1.32818 23.8985 1.58638 23.6403 1.90375 23.6403H5.26844C5.58581 23.6403 5.84401 23.8985 5.84401 24.2159V32.0964C5.84401 32.4138 5.58581 32.672 5.26844 32.672H1.90375C1.58638 32.672 1.32818 32.4138 1.32818 32.0965ZM32.3044 23.7566L25.8017 30.0764C24.0794 31.7502 21.8084 32.672 19.4068 32.672H7.083C7.14078 32.4903 7.17219 32.297 7.17219 32.0965V24.328L10.0071 23.2871C11.8059 22.6267 13.829 22.7224 15.5574 23.5503L20.2456 25.7958C20.5618 25.9472 20.7906 26.2158 20.8898 26.5521C20.989 26.8884 20.9427 27.2383 20.7594 27.5372C20.4648 28.0172 19.884 28.2332 19.3473 28.0627L13.1191 26.0821C12.7696 25.9711 12.3961 26.1642 12.2849 26.5138C12.1738 26.8633 12.367 27.2368 12.7166 27.348L18.9448 29.3285C19.2014 29.41 19.4625 29.4492 19.7204 29.4492C19.7515 29.4492 19.7824 29.4473 19.8134 29.4462C21.4106 29.4232 22.9436 28.8303 24.1397 27.768L30.6549 21.9815C30.9416 21.7269 31.3368 21.6226 31.7117 21.7022C32.1569 21.7969 32.4979 22.1145 32.624 22.5518C32.7504 22.989 32.6308 23.4394 32.3044 23.7566Z" fill="#083983"/>
<path d="M27.8081 13.2144C27.9828 13.2144 28.1541 13.144 28.2775 13.0198C28.4011 12.8963 28.4722 12.7255 28.4722 12.5503C28.4722 12.3756 28.4011 12.205 28.2775 12.0808C28.1541 11.9574 27.9828 11.8862 27.8081 11.8862C27.6334 11.8862 27.4628 11.9573 27.3386 12.0808C27.2151 12.205 27.144 12.3756 27.144 12.5503C27.144 12.7256 27.215 12.8963 27.3386 13.0198C27.4621 13.144 27.6334 13.2144 27.8081 13.2144Z" fill="#083983"/>
<path d="M19.2324 20V13H22.4124C23.1724 13 23.8424 13.1467 24.4224 13.44C25.0024 13.7267 25.4558 14.13 25.7824 14.65C26.1091 15.17 26.2724 15.7867 26.2724 16.5C26.2724 17.2067 26.1091 17.8233 25.7824 18.35C25.4558 18.87 25.0024 19.2767 24.4224 19.57C23.8424 19.8567 23.1724 20 22.4124 20H19.2324ZM20.8524 18.67H22.3324C22.7991 18.67 23.2024 18.5833 23.5424 18.41C23.8891 18.23 24.1558 17.9767 24.3424 17.65C24.5358 17.3233 24.6324 16.94 24.6324 16.5C24.6324 16.0533 24.5358 15.67 24.3424 15.35C24.1558 15.0233 23.8891 14.7733 23.5424 14.6C23.2024 14.42 22.7991 14.33 22.3324 14.33H20.8524V18.67Z" fill="#083983"/>
<path d="M13.2801 18.4L13.1901 16.53L16.5401 13H18.3401L15.3201 16.25L14.4201 17.21L13.2801 18.4ZM11.8301 20V13H13.4401V20H11.8301ZM16.6201 20L14.1301 16.95L15.1901 15.8L18.5101 20H16.6201Z" fill="#083983"/>
</svg>
