<svg width="42" height="42" viewBox="0 0 42 42" fill="none" xmlns="http://www.w3.org/2000/svg">
<path d="M12.2598 9.31152L12.3086 9.31641C12.3071 9.33219 12.3071 9.34847 12.3086 9.36426L12.3096 9.37402L12.3086 9.37305C12.3068 9.39158 12.3068 9.41115 12.3086 9.42969L12.3096 9.43457V32.0215L12.2598 32.0166L12.3086 32.0215C12.3068 32.0399 12.3068 32.0587 12.3086 32.0771L12.3105 32.0889L12.3086 32.0879C12.3068 32.1013 12.3068 32.1155 12.3086 32.1289L12.3096 32.1348V32.1621L12.3193 32.1748H25.2139V32.0908L25.2129 32.0811L25.2637 32.0859L25.2139 32.0811V29.1973C25.2139 29.0212 25.2834 28.8522 25.4072 28.7275C25.5312 28.6029 25.6996 28.5323 25.875 28.5322H25.8779L26.002 28.5518C26.123 28.5828 26.2336 28.6485 26.3203 28.7412L26.3975 28.8408C26.4641 28.9467 26.5002 29.0703 26.5 29.1973V32.0166L26.5049 32.1533C26.5049 32.1989 26.5033 32.2445 26.5 32.29L26.499 32.2959C26.4911 32.3402 26.4819 32.3842 26.4707 32.4277L26.4316 32.5566C26.4037 32.6394 26.3677 32.7191 26.3262 32.7959L26.3271 32.7969C26.2891 32.8728 26.2456 32.9458 26.1973 33.0156L26.1953 33.0195C26.1377 33.0894 26.0741 33.1544 26.0059 33.2139L26.0039 33.2148C25.9684 33.2433 25.9316 33.2701 25.8936 33.2949L25.7764 33.3633C25.6903 33.4094 25.5992 33.445 25.5049 33.4697L25.5039 33.4707C25.456 33.4821 25.4072 33.4904 25.3584 33.4961L25.2109 33.5049H12.2754C12.2244 33.5049 12.1735 33.5016 12.123 33.4951L11.9736 33.4658C11.883 33.4426 11.7947 33.41 11.7109 33.3682L11.709 33.3672C11.6687 33.3448 11.6297 33.3201 11.5918 33.2939L11.4814 33.21C11.4467 33.1814 11.4135 33.151 11.3818 33.1191L11.291 33.0186C11.2369 32.9492 11.1871 32.8754 11.1436 32.7988V32.7979C11.1227 32.7593 11.1035 32.7199 11.0859 32.6797L11.0381 32.5566C11.0238 32.5142 11.0111 32.4711 11 32.4277L10.9707 32.2959V32.2939C10.9572 32.2035 10.9506 32.112 10.9502 32.0205V9.44238L10.9551 9.30469C10.9586 9.25928 10.964 9.21401 10.9707 9.16895V9.16699L11 9.03516C11.0111 8.99175 11.0238 8.94874 11.0381 8.90625L11.0859 8.7832C11.1035 8.74302 11.1227 8.70361 11.1436 8.66504L11.2129 8.54785C11.2875 8.43395 11.3774 8.33067 11.4805 8.24121L11.4824 8.23926L11.5928 8.16016C11.6308 8.13536 11.6697 8.11183 11.71 8.09082L11.8428 8.0293C11.888 8.01154 11.9344 7.99671 11.9814 7.98438H11.9824L12.1279 7.95898C12.1769 7.95327 12.2261 7.95017 12.2754 7.9502H25.1943L25.3467 7.95996C25.397 7.96637 25.4469 7.9755 25.4961 7.98828L25.6299 8.03027L25.7588 8.08594L25.7607 8.08691L25.7402 8.12305V8.12402L25.7607 8.08789C25.8415 8.1328 25.9185 8.18464 25.9893 8.24414H25.9883C26.023 8.27269 26.0562 8.30312 26.0879 8.33496L26.1787 8.43555L26.1797 8.43652L26.2568 8.54297L26.3262 8.65625L26.3848 8.77441C26.4023 8.81463 26.4176 8.85585 26.4316 8.89746L26.4707 9.02734L26.499 9.15918L26.5 9.16406L26.5049 9.30078C26.5049 9.34638 26.5033 9.39199 26.5 9.4375V12.2617C26.5 12.3937 26.4604 12.5216 26.3887 12.6299L26.3066 12.7314C26.1827 12.856 26.0142 12.9257 25.8389 12.9258C25.7073 12.9258 25.5795 12.8867 25.4717 12.8145L25.3711 12.7314C25.2471 12.6068 25.1768 12.4378 25.1768 12.2617V9.43359L25.2275 9.43848L25.1777 9.43359C25.1796 9.41517 25.1795 9.39635 25.1777 9.37793L25.1758 9.36621L25.2275 9.37305L25.1777 9.36621C25.1795 9.35293 25.1794 9.33945 25.1777 9.32617L25.1768 9.31934V9.29102L25.167 9.2793H12.3096V9.31641L12.2598 9.31152Z" fill="#1F3870" stroke="black" stroke-width="0.1"/>
<path d="M26.6636 17.0518C26.7433 17.0662 26.8196 17.0959 26.8882 17.1396L26.9839 17.2148L26.9858 17.2158L30.8628 21.1748H30.8638C30.9228 21.2344 30.9695 21.3057 31.0015 21.3838L31.0376 21.5049C31.0456 21.546 31.0503 21.5878 31.0503 21.6299C31.0503 21.6722 31.0457 21.7145 31.0376 21.7559L31.0015 21.876C30.9855 21.9149 30.9659 21.9524 30.9429 21.9873L30.8638 22.085L26.9858 26.0439C26.8675 26.1646 26.7063 26.2324 26.5386 26.2324C26.4127 26.2324 26.291 26.1941 26.188 26.124L26.0923 26.0439C26.0333 25.9845 25.9865 25.9139 25.9546 25.8359C25.9226 25.7579 25.9058 25.6734 25.9058 25.5889C25.9058 25.5045 25.9227 25.4207 25.9546 25.3428C25.9865 25.2648 26.0333 25.1942 26.0923 25.1348L29.0884 22.0762H17.0366C16.9106 22.0762 16.7881 22.038 16.6851 21.9678L16.5894 21.8867C16.4712 21.766 16.4049 21.6028 16.4048 21.4326C16.4048 21.2622 16.4711 21.0984 16.5894 20.9775L16.6851 20.8965C16.7881 20.8263 16.9106 20.7881 17.0366 20.7881H28.7007L26.0923 18.126L26.0903 18.124C26.0069 18.0325 25.9522 17.919 25.9312 17.7979L25.9214 17.6748C25.9243 17.5083 25.9903 17.3485 26.106 17.2305L26.1997 17.1514C26.3001 17.0824 26.4195 17.0442 26.5425 17.042L26.6636 17.0518Z" fill="#1F3870" stroke="black" stroke-width="0.1"/>
</svg>
