<svg width="22" height="27" viewBox="0 0 22 27" fill="none" xmlns="http://www.w3.org/2000/svg">
<path d="M16.4998 21.7421C16.5001 21.5726 16.4359 21.4094 16.3204 21.2858C16.2049 21.1622 16.0467 21.0876 15.8782 21.0775L15.8782 21.0774L16.4498 21.742M16.4998 21.7421L16.4498 21.742M16.4998 21.7421V21.742H16.4498M16.4998 21.7421V24.5635M16.4498 21.742V24.5653M16.4998 24.5635C16.4997 24.5629 16.4997 24.5623 16.4996 24.5617L16.4498 24.5653M16.4998 24.5635C16.5062 24.654 16.5061 24.7448 16.4996 24.8352L16.4993 24.8405L16.499 24.8405C16.4831 24.9291 16.4607 25.0164 16.4319 25.1016L16.4319 25.1017C16.4038 25.1848 16.3687 25.2653 16.327 25.3424M16.4998 24.5635V24.5653H16.4498M16.4498 24.5653L16.327 25.3424M16.327 25.3424C16.3271 25.3422 16.3273 25.3419 16.3274 25.3417L16.2827 25.3193M16.327 25.3424L16.4498 24.8316C16.4343 24.9178 16.4125 25.0027 16.3846 25.0857C16.3573 25.1663 16.3232 25.2445 16.2827 25.3193M16.327 25.3424C16.289 25.4182 16.2457 25.4912 16.1974 25.5608L16.195 25.5643L16.1949 25.5641C16.1373 25.634 16.074 25.699 16.0058 25.7585L16.0042 25.7599L16.0042 25.7599C15.9331 25.8167 15.8568 25.8664 15.7762 25.9085C15.6902 25.9546 15.5991 25.9903 15.5047 26.0151L15.5036 26.0154C15.4076 26.0381 15.3094 26.0495 15.2108 26.0495M16.327 25.3424C16.3269 25.3426 16.3268 25.3429 16.3266 25.3431L16.2827 25.3193M16.2827 25.3193C16.2456 25.3932 16.2034 25.4644 16.1563 25.5323C16.1004 25.6001 16.0391 25.6632 15.9729 25.7208C15.9044 25.7757 15.8307 25.8237 15.7529 25.8642C15.6702 25.9086 15.5827 25.9429 15.492 25.9667L2.27559 0.544922M15.2638 24.7226L15.2585 24.7202H15.2475H15.2138M15.2638 24.7226L15.2138 24.7587V24.7292V24.7202M15.2638 24.7226V24.7292V24.7226ZM15.2138 24.7202H2.31975L2.30929 24.7073V24.7073V24.7072V24.7071V24.707V24.7068V24.7067V24.7066V24.7065V24.7064V24.7063V24.7062V24.7061V24.706V24.7058V24.7057V24.7056V24.7055V24.7054V24.7053V24.7052V24.7051V24.7049V24.7048V24.7047V24.7046V24.7045V24.7044V24.7043V24.7041V24.704V24.7039V24.7038V24.7037V24.7036V24.7035V24.7033V24.7032V24.7031V24.703V24.7029V24.7028V24.7027V24.7025V24.7024V24.7023V24.7022V24.7021V24.702V24.7018V24.7017V24.7016V24.7015V24.7014V24.7013V24.7011V24.701V24.7009V24.7008V24.7007V24.7006V24.7004V24.7003V24.7002V24.7001V24.7V24.6999V24.6997V24.6996V24.6995V24.6994V24.6993V24.6992V24.699V24.6989V24.6988V24.6987V24.6986V24.6985V24.6983V24.6982V24.6981V24.698V24.6979V24.6977V24.6976V24.6975V24.6974V24.6973V24.6972V24.697V24.6969V24.6968V24.6967V24.6966V24.6964V24.6963V24.6962V24.6961V24.696V24.6959V24.6957V24.6956V24.6955V24.6954V24.6953V24.6952V24.695V24.6949V24.6948V24.6947V24.6946V24.6945V24.6943V24.6942V24.6941V24.694V24.6939V24.6938V24.6936V24.6935V24.6934V24.6933V24.6932V24.6931V24.6929V24.6928V24.6927V24.6926V24.6925V24.6924V24.6922V24.6921V24.692V24.6919V24.6918V24.6917V24.6915V24.6914V24.6913V24.6912V24.6911V24.691V24.6908V24.6907V24.6906V24.6905V24.6904V24.6903V24.6902V24.69V24.6899V24.6898V24.6897V24.6896V24.6895V24.6894V24.6892V24.6891V24.689V24.6889V24.6888V24.6887V24.6886V24.6885V24.6883V24.6882V24.6881V24.688V24.6879V24.6878V24.6877V24.6876V24.6874V24.6873V24.6872V24.6871V24.687V24.6869V24.6868V24.6867V24.6866V24.6864V24.6863V24.6862V24.6861V24.686V24.6859V24.6858V24.6857V24.6856V24.6855V24.6854V24.6852V24.6851V24.685V24.6849V24.6848V24.6847V24.6846V24.6845V24.6844V24.6843V24.6842V24.6841V24.684V24.6839V24.6838V24.6837V24.6835V24.6834V24.6833V24.6832V24.6831V24.683V24.6829V24.6828V24.6827V24.6826V24.6825V24.6824V24.6823V24.6822V24.6821V24.682V24.6819V24.6818V24.6817V24.6816V24.6815V24.6814V24.6813V24.6812V24.6811V24.681V24.6809V24.6808V24.6807V24.6806V24.6805V24.6804V24.6803V24.6802V24.6801V24.68H2.30972L2.30887 24.6736C2.30713 24.6602 2.30713 24.6466 2.30887 24.6332L2.31019 24.6334L2.30905 24.6218C2.30722 24.6033 2.30722 24.5846 2.30905 24.5661L2.30929 24.5661V24.5612V1.9791H2.30954L2.30905 1.97419C2.30722 1.95565 2.30722 1.93698 2.30905 1.91845L2.30999 1.91854L2.30907 1.90883C2.30756 1.89288 2.30756 1.87682 2.30907 1.86087L2.30929 1.86089V1.85617V1.82421M15.2138 24.7202L2.30929 1.82421M2.30929 1.82421H15.1667L15.1771 1.83706V1.8371V1.83721V1.83732V1.83743V1.83754V1.83765V1.83776V1.83788V1.83799V1.8381V1.83821V1.83832V1.83843V1.83855V1.83866V1.83877V1.83888V1.839V1.83911V1.83922V1.83934V1.83945V1.83956V1.83968V1.83979V1.8399V1.84002V1.84013V1.84025V1.84036V1.84047V1.84059V1.8407V1.84082V1.84093V1.84105V1.84116V1.84128V1.84139V1.84151V1.84162V1.84174V1.84185V1.84197V1.84209V1.8422V1.84232V1.84243V1.84255V1.84267V1.84278V1.8429V1.84301V1.84313V1.84325V1.84336V1.84348V1.8436V1.84371V1.84383V1.84395V1.84406V1.84418V1.8443V1.84442V1.84453V1.84465V1.84477V1.84488V1.845V1.84512V1.84524V1.84535V1.84547V1.84559V1.84571V1.84582V1.84594V1.84606V1.84618V1.84629V1.84641V1.84653V1.84665V1.84676V1.84688V1.847V1.84712V1.84723V1.84735V1.84747V1.84759V1.8477V1.84782V1.84794V1.84806V1.84817V1.84829V1.84841V1.84853V1.84865V1.84876V1.84888V1.849V1.84912V1.84923V1.84935V1.84947V1.84958V1.8497V1.84982V1.84994V1.85005V1.85017V1.85029V1.85041V1.85052V1.85064V1.85076V1.85087V1.85099V1.85111V1.85122V1.85134V1.85146V1.85157V1.85169V1.85181V1.85192V1.85204V1.85215V1.85227V1.85239V1.8525V1.85262V1.85273V1.85285V1.85297V1.85308V1.8532V1.85331V1.85343V1.85354V1.85366V1.85377V1.85389V1.854V1.85412V1.85423V1.85435V1.85446V1.85457V1.85469V1.8548V1.85492V1.85503V1.85514V1.85526V1.85537V1.85548V1.8556V1.85571V1.85582V1.85594V1.85605V1.85616V1.85627V1.85639V1.8565V1.85661V1.85672V1.85683V1.85694V1.85706V1.85717V1.85728V1.85739V1.8575V1.85761V1.85772V1.85783V1.85794V1.85805V1.85816V1.85827V1.85838V1.85849V1.8586V1.85871V1.85881V1.85892V1.85903V1.85914V1.85925V1.85936V1.85946V1.85957V1.85968V1.85978V1.85989V1.86V1.8601V1.86021V1.86032V1.86042V1.86053V1.86063V1.86074V1.86084V1.86095V1.86105V1.86116V1.86126V1.86136V1.86147V1.86157V1.86167V1.86178V1.86188V1.86198V1.86208V1.86219V1.86229V1.86239V1.86249V1.86259V1.86269V1.86279V1.86289V1.86299V1.86309V1.86319V1.86329V1.86339V1.86349V1.86359V1.86368V1.86378V1.86388V1.86398V1.86407V1.86417V1.86427V1.86436H15.1767L15.1776 1.87083C15.1793 1.88422 15.1793 1.89778 15.1776 1.91117L15.1763 1.91099L15.1774 1.92255C15.1792 1.94108 15.1792 1.95975 15.1774 1.97828L15.1771 1.97826V1.98319V4.80647C15.1771 4.98266 15.2468 5.15168 15.3707 5.27635C15.4947 5.40102 15.663 5.47112 15.8385 5.47112C16.0139 5.47112 16.1822 5.40102 16.3062 5.27635C16.4302 5.15168 16.4998 4.98266 16.4998 4.80647V1.98088C16.5062 1.89042 16.5061 1.79962 16.4996 1.70917L16.4999 1.70915L16.499 1.70391C16.4831 1.61531 16.4607 1.52802 16.4319 1.44274L16.4319 1.44268C16.4037 1.35935 16.3685 1.2786 16.3266 1.20131L16.3263 1.20071C16.2832 1.12366 16.234 1.0502 16.1792 0.981017L16.1788 0.980505C16.1219 0.910538 16.0582 0.846457 15.9886 0.789219C15.9178 0.729759 15.8416 0.677228 15.7609 0.632348L15.7609 0.632306L15.7589 0.631324C15.6751 0.589427 15.5871 0.556598 15.4964 0.533391M2.30929 1.82421L15.1945 0.544922L15.1945 0.494923C15.2963 0.494805 15.3978 0.507732 15.4964 0.533391M15.4964 0.533391C15.4964 0.533399 15.4965 0.533406 15.4965 0.533414L15.4839 0.581801L15.4963 0.53336C15.4963 0.53337 15.4964 0.533381 15.4964 0.533391ZM2.27559 0.544922L2.27562 0.494923C2.27562 0.494923 2.2756 0.494923 2.27559 0.494923M2.27559 0.544922C2.18091 0.544865 2.08655 0.555866 1.99439 0.577704M2.27559 0.544922L1.08558 1.46689M2.27559 0.544922V0.494923M2.27559 0.544922V0.494923M2.27559 0.494923C2.17702 0.494864 2.0788 0.506317 1.98286 0.529051L1.98286 0.529038L1.98172 0.529336C1.88737 0.554054 1.79623 0.589835 1.7102 0.635942M1.7102 0.635942C1.62963 0.677961 1.5533 0.727717 1.48227 0.784511L1.48225 0.78448L1.48073 0.7858C1.34331 0.905055 1.22897 1.04875 1.14341 1.20968C1.10157 1.28692 1.06637 1.36761 1.03822 1.45088L1.0382 1.45094C1.00949 1.53622 0.987082 1.62351 0.971165 1.7121L0.971143 1.7121L0.970925 1.71356C0.957397 1.8041 0.950404 1.89551 0.95 1.98707V1.98729L0.95 24.5653L0.95 24.5655C0.950404 24.6571 0.957397 24.7485 0.970904 24.839L0.971165 24.8405C0.987082 24.9291 1.00949 25.0164 1.0382 25.1016L1.03822 25.1017C1.06639 25.185 1.10162 25.2658 1.14351 25.3431L1.1435 25.3431L1.144 25.344C1.1875 25.4205 1.23654 25.4938 1.29069 25.5631L1.29132 25.5639C1.34824 25.6339 1.41198 25.698 1.48159 25.7552M1.7102 0.635942C1.71028 0.635897 1.71037 0.635852 1.71046 0.635807L1.73357 0.680145M1.7102 0.635942C1.71011 0.635988 1.71003 0.636034 1.70994 0.63608L1.73357 0.680145M1.48159 25.7552C1.4815 25.7552 1.48142 25.7551 1.48133 25.755L1.5135 25.7167L1.48174 25.7554C1.48169 25.7553 1.48164 25.7553 1.48159 25.7552ZM1.48159 25.7552C1.55234 25.8147 1.62858 25.8672 1.70927 25.912L1.70925 25.9121L1.71121 25.9131C1.79502 25.955 1.88303 25.9878 1.97375 26.011M1.97375 26.011C1.97372 26.011 1.97368 26.011 1.97365 26.011L1.98624 25.9626L1.97385 26.011C1.97382 26.011 1.97378 26.011 1.97375 26.011ZM1.97375 26.011C2.07235 26.0367 2.1738 26.0496 2.27565 26.0495M2.27565 26.0495H2.27559V25.9995L2.27565 26.0495ZM2.27565 26.0495H15.2108M15.2108 26.0495H15.2108V25.9995L15.2108 26.0495ZM1.08558 1.46689C1.11285 1.38625 1.14694 1.30811 1.18747 1.23333C1.27015 1.07774 1.38068 0.938827 1.5135 0.823562C1.58208 0.768725 1.65578 0.720695 1.73357 0.680145M1.08558 1.46689C1.05766 1.54985 1.03586 1.63476 1.02038 1.72095L1.08558 1.46689ZM1.73357 0.680145C1.81621 0.635831 1.90376 0.601447 1.99439 0.577704M1.99439 0.577704L1.99439 0.577703L1.99439 0.577704ZM15.2271 1.86436C15.2295 1.88204 15.2295 1.89995 15.2271 1.91763C15.2293 1.93943 15.2293 1.96139 15.2271 1.98319V4.80647C15.2271 4.96948 15.2916 5.12582 15.4062 5.24109C15.5208 5.35636 15.6763 5.42112 15.8385 5.42112C16.0006 5.42112 16.1561 5.35636 16.2707 5.24109C16.3854 5.12582 16.4498 4.96948 16.4498 4.80647V1.9791C16.4561 1.89043 16.4561 1.80142 16.4498 1.71275L15.2271 1.86436ZM16.3846 1.4587C16.3573 1.37806 16.3232 1.29992 16.2827 1.22513C16.2408 1.1504 16.1931 1.07915 16.14 1.01205C16.0852 0.944596 16.0237 0.882824 15.9566 0.827659C15.8883 0.770183 15.8146 0.719415 15.7366 0.676047L16.3846 1.4587Z" fill="#083983" stroke="black" stroke-width="0.1"/>
<path d="M16.9855 9.76012L16.9855 9.76014L20.8638 13.7192C20.8638 13.7192 20.8639 13.7193 20.8639 13.7193C20.9229 13.7788 20.9697 13.8497 21.0017 13.9277C21.0336 14.0058 21.05 14.0895 21.05 14.1741C21.05 14.2586 21.0336 14.3423 21.0017 14.4204C20.9697 14.4984 20.9229 14.5693 20.8639 14.6288C20.8639 14.6288 20.8638 14.6289 20.8638 14.6289L16.9855 18.588L16.9855 18.588C16.8671 18.7087 16.7064 18.7767 16.5387 18.7767C16.3709 18.7767 16.2102 18.7087 16.0919 18.588C16.0329 18.5285 15.9861 18.4576 15.9542 18.3796C15.9222 18.3016 15.9058 18.2178 15.9058 18.1333C15.9058 18.0487 15.9222 17.965 15.9542 17.8869C15.9861 17.809 16.0329 17.7381 16.0918 17.6786L16.9855 9.76012ZM16.9855 9.76012L16.9842 9.75891C16.8645 9.64504 16.706 9.58289 16.542 9.58584C16.378 9.5888 16.2218 9.65662 16.1061 9.7747C15.9904 9.89274 15.9244 10.0518 15.9215 10.2183C15.9186 10.3848 15.9792 10.5461 16.0906 10.6682L16.0906 10.6682L16.0918 10.6695L18.7002 13.3322M16.9855 9.76012L18.7002 13.3322M18.7002 13.3322H7.03636C6.86847 13.3322 6.70767 13.4003 6.58927 13.5212C6.47091 13.642 6.40459 13.8056 6.40459 13.9761C6.40459 14.1465 6.47091 14.3102 6.58927 14.431C6.70767 14.5519 6.86847 14.62 7.03636 14.62H19.0881L16.092 17.6784L18.7002 13.3322Z" fill="#083983" stroke="black" stroke-width="0.1"/>
</svg>
