<svg width="31" height="33" viewBox="0 0 31 33" fill="none" xmlns="http://www.w3.org/2000/svg">
<path d="M20.9011 16.1169C21.8757 15.3425 22.6587 14.3797 23.196 13.2949C23.7333 12.2102 24.012 11.0295 24.013 9.83428V8.71303C23.9504 6.55636 22.9891 4.50766 21.3339 3.00293C19.6786 1.4982 17.4601 0.65625 15.1503 0.65625C12.8406 0.65625 10.622 1.4982 8.96673 3.00293C7.31148 4.50766 6.35025 6.55636 6.2876 8.71303V9.82819C6.2886 11.0234 6.56737 12.2041 7.10465 13.2888C7.64192 14.3736 8.42491 15.3364 9.3995 16.1108C6.7392 16.8026 4.39432 18.2884 2.72278 20.3416C1.05125 22.3947 0.144899 24.9024 0.14209 27.4818V31.5158C0.14209 31.8391 0.279558 32.1491 0.524251 32.3776C0.768945 32.6062 1.10082 32.7346 1.44687 32.7346H28.8472C29.1933 32.7346 29.5252 32.6062 29.7699 32.3776C30.0145 32.1491 30.152 31.8391 30.152 31.5158V27.4818C30.1482 24.9042 29.2421 22.3986 27.572 20.3468C25.9018 18.2949 23.5591 16.8095 20.9011 16.1169ZM8.89064 8.71303C8.94308 7.1966 9.62487 5.75865 10.7918 4.70327C11.9588 3.64789 13.5195 3.05781 15.1438 3.05781C16.7681 3.05781 18.3288 3.64789 19.4957 4.70327C20.6627 5.75865 21.3445 7.1966 21.3969 8.71303V9.82819C21.3445 11.3446 20.6627 12.7826 19.4957 13.838C18.3288 14.8933 16.7681 15.4834 15.1438 15.4834C13.5195 15.4834 11.9588 14.8933 10.7918 13.838C9.62487 12.7826 8.94308 11.3446 8.89064 9.82819V8.71303ZM27.5425 30.2971H2.75165V27.4818C2.75338 24.9966 3.81106 22.6137 5.69238 20.8564C7.5737 19.0992 10.1248 18.1112 12.7854 18.1096H17.5152C20.1747 18.1128 22.7241 19.1015 24.604 20.8586C26.4839 22.6157 27.5407 24.9977 27.5425 27.4818V30.2971Z" fill="#083983"/>
</svg>
