<svg width="27" height="27" viewBox="0 0 27 27" fill="none" xmlns="http://www.w3.org/2000/svg">
<mask id="mask0_1_7005" style="mask-type:luminance" maskUnits="userSpaceOnUse" x="0" y="0" width="27" height="27">
<path d="M26 26V1H1V26H26Z" fill="white" stroke="white" stroke-width="2"/>
</mask>
<g mask="url(#mask0_1_7005)">
<path d="M13.0781 25.9453H4.21875C2.47129 25.9453 1.05469 24.5287 1.05469 22.7812V6.32812C1.05469 4.58067 2.47129 3.16406 4.21875 3.16406H22.7812C24.5287 3.16406 25.9453 4.58067 25.9453 6.32812V13.8164" stroke="#083983" stroke-width="2" stroke-miterlimit="10" stroke-linecap="round" stroke-linejoin="round"/>
<path d="M6.5918 11.0195C6.56158 11.0195 6.53711 11.044 6.53711 11.0742C6.53711 11.1044 6.56158 11.1289 6.5918 11.1289C6.62202 11.1289 6.64648 11.1044 6.64648 11.0742C6.64648 11.044 6.62202 11.0195 6.5918 11.0195Z" fill="black" stroke="#083983" stroke-width="2"/>
<path d="M11.1797 11.0195C11.1495 11.0195 11.125 11.044 11.125 11.0742C11.125 11.1044 11.1495 11.1289 11.1797 11.1289C11.2099 11.1289 11.2344 11.1044 11.2344 11.0742C11.2344 11.044 11.2099 11.0195 11.1797 11.0195Z" fill="black" stroke="#083983" stroke-width="2"/>
<path d="M15.7676 11.0195C15.7374 11.0195 15.7129 11.044 15.7129 11.0742C15.7129 11.1044 15.7374 11.1289 15.7676 11.1289C15.7978 11.1289 15.8223 11.1044 15.8223 11.0742C15.8223 11.044 15.7978 11.0195 15.7676 11.0195Z" fill="black" stroke="#083983" stroke-width="2"/>
<path d="M20.3555 11.0195C20.3252 11.0195 20.3008 11.044 20.3008 11.0742C20.3008 11.1044 20.3252 11.1289 20.3555 11.1289C20.3857 11.1289 20.4102 11.1044 20.4102 11.0742C20.4102 11.044 20.3857 11.0195 20.3555 11.0195Z" fill="black" stroke="#083983" stroke-width="2"/>
<path d="M6.64648 15.6621C6.64648 15.6319 6.62202 15.6074 6.5918 15.6074C6.56158 15.6074 6.53711 15.6319 6.53711 15.6621C6.53711 15.6923 6.56158 15.7168 6.5918 15.7168C6.62202 15.7168 6.64648 15.6923 6.64648 15.6621Z" fill="black" stroke="#083983" stroke-width="2"/>
<path d="M6.64648 20.25C6.64648 20.2198 6.62202 20.1953 6.5918 20.1953C6.56158 20.1953 6.53711 20.2198 6.53711 20.25C6.53711 20.2802 6.56158 20.3047 6.5918 20.3047C6.62202 20.3047 6.64648 20.2802 6.64648 20.25Z" fill="black" stroke="#083983" stroke-width="2"/>
<path d="M11.2344 15.6621C11.2344 15.6319 11.2099 15.6074 11.1797 15.6074C11.1495 15.6074 11.125 15.6319 11.125 15.6621C11.125 15.6923 11.1495 15.7168 11.1797 15.7168C11.2099 15.7168 11.2344 15.6923 11.2344 15.6621Z" fill="black" stroke="#083983" stroke-width="2"/>
<path d="M11.2344 20.25C11.2344 20.2198 11.2099 20.1953 11.1797 20.1953C11.1495 20.1953 11.125 20.2198 11.125 20.25C11.125 20.2802 11.1495 20.3047 11.1797 20.3047C11.2099 20.3047 11.2344 20.2802 11.2344 20.25Z" fill="black" stroke="#083983" stroke-width="2"/>
<path d="M11.1797 11.0195C11.1495 11.0195 11.125 11.044 11.125 11.0742C11.125 11.1044 11.1495 11.1289 11.1797 11.1289C11.2099 11.1289 11.2344 11.1044 11.2344 11.0742C11.2344 11.044 11.2099 11.0195 11.1797 11.0195Z" fill="black" stroke="#083983" stroke-width="2"/>
<path d="M11.2344 15.6621C11.2344 15.6319 11.2099 15.6074 11.1797 15.6074C11.1495 15.6074 11.125 15.6319 11.125 15.6621C11.125 15.6923 11.1495 15.7168 11.1797 15.7168C11.2099 15.7168 11.2344 15.6923 11.2344 15.6621Z" fill="black" stroke="#083983" stroke-width="2"/>
<path d="M11.2344 20.25C11.2344 20.2198 11.2099 20.1953 11.1797 20.1953C11.1495 20.1953 11.125 20.2198 11.125 20.25C11.125 20.2802 11.1495 20.3047 11.1797 20.3047C11.2099 20.3047 11.2344 20.2802 11.2344 20.25Z" fill="black" stroke="#083983" stroke-width="2"/>
<path d="M6.5918 1.05469V5.27344" stroke="#083983" stroke-width="2" stroke-miterlimit="10" stroke-linecap="round" stroke-linejoin="round"/>
<path d="M20.3555 5.27344V1.05469" stroke="#083983" stroke-width="2" stroke-miterlimit="10" stroke-linecap="round" stroke-linejoin="round"/>
<path d="M15.8223 15.6621C15.8223 15.6319 15.7978 15.6074 15.7676 15.6074C15.7374 15.6074 15.7129 15.6319 15.7129 15.6621C15.7129 15.6923 15.7374 15.7168 15.7676 15.7168C15.7978 15.7168 15.8223 15.6923 15.8223 15.6621Z" fill="black" stroke="#083983" stroke-width="2"/>
<path d="M20.4102 15.6621C20.4102 15.6319 20.3857 15.6074 20.3555 15.6074C20.3252 15.6074 20.3008 15.6319 20.3008 15.6621C20.3008 15.6923 20.3252 15.7168 20.3555 15.7168C20.3857 15.7168 20.4102 15.6923 20.4102 15.6621Z" fill="black" stroke="#083983" stroke-width="2"/>
<path d="M13.4473 1.05469V5.27344" stroke="#083983" stroke-width="2" stroke-miterlimit="10" stroke-linecap="round" stroke-linejoin="round"/>
<path d="M14.9258 22.2041L18.2913 25.4885C18.9939 26.1572 20.118 26.0822 20.7255 25.3262L25.9452 18.0351" stroke="#083983" stroke-width="2" stroke-miterlimit="10" stroke-linecap="round" stroke-linejoin="round"/>
</g>
</svg>
