<svg width="42" height="42" viewBox="0 0 42 42" fill="none" xmlns="http://www.w3.org/2000/svg">
<mask id="mask0_19_7226" style="mask-type:luminance" maskUnits="userSpaceOnUse" x="8" y="8" width="27" height="27">
<path d="M34 34V9H9V34H34Z" fill="white" stroke="white" stroke-width="2"/>
</mask>
<g mask="url(#mask0_19_7226)">
<path d="M21.0781 33.9453H12.2187C10.4713 33.9453 9.05469 32.5287 9.05469 30.7812V14.3281C9.05469 12.5807 10.4713 11.1641 12.2187 11.1641H30.7812C32.5287 11.1641 33.9453 12.5807 33.9453 14.3281V21.8164" stroke="#1F3870" stroke-width="2" stroke-miterlimit="10" stroke-linecap="round" stroke-linejoin="round"/>
<path d="M14.5918 19.1289C14.622 19.1289 14.6465 19.1044 14.6465 19.0742C14.6465 19.044 14.622 19.0195 14.5918 19.0195C14.5616 19.0195 14.5371 19.044 14.5371 19.0742C14.5371 19.1044 14.5616 19.1289 14.5918 19.1289Z" fill="black" stroke="#1F3870" stroke-width="2"/>
<path d="M19.1797 19.1289C19.2099 19.1289 19.2344 19.1044 19.2344 19.0742C19.2344 19.044 19.2099 19.0195 19.1797 19.0195C19.1495 19.0195 19.125 19.044 19.125 19.0742C19.125 19.1044 19.1495 19.1289 19.1797 19.1289Z" fill="black" stroke="#1F3870" stroke-width="2"/>
<path d="M23.7676 19.1289C23.7978 19.1289 23.8223 19.1044 23.8223 19.0742C23.8223 19.044 23.7978 19.0195 23.7676 19.0195C23.7374 19.0195 23.7129 19.044 23.7129 19.0742C23.7129 19.1044 23.7374 19.1289 23.7676 19.1289Z" fill="black" stroke="#1F3870" stroke-width="2"/>
<path d="M28.3555 19.1289C28.3857 19.1289 28.4102 19.1044 28.4102 19.0742C28.4102 19.044 28.3857 19.0195 28.3555 19.0195C28.3252 19.0195 28.3008 19.044 28.3008 19.0742C28.3008 19.1044 28.3252 19.1289 28.3555 19.1289Z" fill="black" stroke="#1F3870" stroke-width="2"/>
<path d="M14.5918 23.7168C14.622 23.7168 14.6465 23.6923 14.6465 23.6621C14.6465 23.6319 14.622 23.6074 14.5918 23.6074C14.5616 23.6074 14.5371 23.6319 14.5371 23.6621C14.5371 23.6923 14.5616 23.7168 14.5918 23.7168Z" fill="black" stroke="#1F3870" stroke-width="2"/>
<path d="M14.5918 28.3047C14.622 28.3047 14.6465 28.2802 14.6465 28.25C14.6465 28.2198 14.622 28.1953 14.5918 28.1953C14.5616 28.1953 14.5371 28.2198 14.5371 28.25C14.5371 28.2802 14.5616 28.3047 14.5918 28.3047Z" fill="black" stroke="#1F3870" stroke-width="2"/>
<path d="M19.1797 23.7168C19.2099 23.7168 19.2344 23.6923 19.2344 23.6621C19.2344 23.6319 19.2099 23.6074 19.1797 23.6074C19.1495 23.6074 19.125 23.6319 19.125 23.6621C19.125 23.6923 19.1495 23.7168 19.1797 23.7168Z" fill="black" stroke="#1F3870" stroke-width="2"/>
<path d="M19.1797 28.3047C19.2099 28.3047 19.2344 28.2802 19.2344 28.25C19.2344 28.2198 19.2099 28.1953 19.1797 28.1953C19.1495 28.1953 19.125 28.2198 19.125 28.25C19.125 28.2802 19.1495 28.3047 19.1797 28.3047Z" fill="black" stroke="#1F3870" stroke-width="2"/>
<path d="M19.1797 19.1289C19.2099 19.1289 19.2344 19.1044 19.2344 19.0742C19.2344 19.044 19.2099 19.0195 19.1797 19.0195C19.1495 19.0195 19.125 19.044 19.125 19.0742C19.125 19.1044 19.1495 19.1289 19.1797 19.1289Z" fill="black" stroke="#1F3870" stroke-width="2"/>
<path d="M19.1797 23.7168C19.2099 23.7168 19.2344 23.6923 19.2344 23.6621C19.2344 23.6319 19.2099 23.6074 19.1797 23.6074C19.1495 23.6074 19.125 23.6319 19.125 23.6621C19.125 23.6923 19.1495 23.7168 19.1797 23.7168Z" fill="black" stroke="#1F3870" stroke-width="2"/>
<path d="M19.1797 28.3047C19.2099 28.3047 19.2344 28.2802 19.2344 28.25C19.2344 28.2198 19.2099 28.1953 19.1797 28.1953C19.1495 28.1953 19.125 28.2198 19.125 28.25C19.125 28.2802 19.1495 28.3047 19.1797 28.3047Z" fill="black" stroke="#1F3870" stroke-width="2"/>
<path d="M14.5918 9.05469V13.2734" stroke="#1F3870" stroke-width="2" stroke-miterlimit="10" stroke-linecap="round" stroke-linejoin="round"/>
<path d="M28.3555 13.2734V9.05469" stroke="#1F3870" stroke-width="2" stroke-miterlimit="10" stroke-linecap="round" stroke-linejoin="round"/>
<path d="M23.7676 23.7168C23.7978 23.7168 23.8223 23.6923 23.8223 23.6621C23.8223 23.6319 23.7978 23.6074 23.7676 23.6074C23.7374 23.6074 23.7129 23.6319 23.7129 23.6621C23.7129 23.6923 23.7374 23.7168 23.7676 23.7168Z" fill="black" stroke="#1F3870" stroke-width="2"/>
<path d="M28.3555 23.7168C28.3857 23.7168 28.4102 23.6923 28.4102 23.6621C28.4102 23.6319 28.3857 23.6074 28.3555 23.6074C28.3252 23.6074 28.3008 23.6319 28.3008 23.6621C28.3008 23.6923 28.3252 23.7168 28.3555 23.7168Z" fill="black" stroke="#1F3870" stroke-width="2"/>
<path d="M21.4473 9.05469V13.2734" stroke="#1F3870" stroke-width="2" stroke-miterlimit="10" stroke-linecap="round" stroke-linejoin="round"/>
<path d="M22.9259 30.2041L26.2915 33.4885C26.994 34.1572 28.1181 34.0822 28.7256 33.3262L33.9453 26.0351" stroke="#1F3870" stroke-width="2" stroke-miterlimit="10" stroke-linecap="round" stroke-linejoin="round"/>
</g>
</svg>
