<svg width="42" height="42" viewBox="0 0 42 42" fill="none" xmlns="http://www.w3.org/2000/svg">
<path d="M30.8844 18.9741L33.5409 21.6306C33.7055 21.7985 33.7978 22.0242 33.7978 22.2593C33.7978 22.4945 33.7055 22.7202 33.5409 22.8881C33.3737 23.054 33.1477 23.1471 32.9122 23.1471C32.6767 23.1471 32.4507 23.054 32.2835 22.8881L31.1412 21.7369L31.1412 26.6869C31.1391 27.3908 30.8585 28.0653 30.3608 28.563C29.863 29.0608 29.1886 29.3413 28.4846 29.3434L17.7788 29.3434C17.8851 28.7579 17.8851 28.158 17.7788 27.5724L28.4846 27.5724C28.7195 27.5724 28.9447 27.4791 29.1108 27.3131C29.2769 27.147 29.3702 26.9218 29.3702 26.6869L29.3702 21.7369L28.2278 22.8881C28.1453 22.9706 28.0473 23.0361 27.9394 23.0808C27.8315 23.1255 27.7159 23.1485 27.5991 23.1485C27.4824 23.1485 27.3668 23.1255 27.2589 23.0808C27.151 23.0361 27.053 22.9706 26.9704 22.8881C26.8037 22.7213 26.71 22.4952 26.71 22.2593C26.71 22.1426 26.733 22.027 26.7777 21.9191C26.8224 21.8112 26.8879 21.7132 26.9704 21.6306L29.627 18.9741C29.7941 18.8082 30.0201 18.7151 30.2557 18.7151C30.4912 18.7151 30.7172 18.8082 30.8844 18.9741Z" fill="#083983"/>
<path d="M14.3167 11.6333L25.0225 11.6333C24.9163 12.2188 24.9163 12.8187 25.0225 13.4043L14.3167 13.4043C14.0818 13.4043 13.8566 13.4976 13.6905 13.6636C13.5245 13.8297 13.4312 14.0549 13.4312 14.2898L13.4312 19.2398L14.5735 18.0886C14.7407 17.9227 14.9667 17.8296 15.2022 17.8296C15.4377 17.8296 15.6637 17.9227 15.8309 18.0886C15.9955 18.2565 16.0878 18.4822 16.0878 18.7174C16.0878 18.9525 15.9955 19.1782 15.8309 19.3461L13.1744 22.0026C13.0072 22.1685 12.7812 22.2616 12.5457 22.2616C12.3101 22.2616 12.0841 22.1685 11.917 22.0026L9.26042 19.3461C9.09368 19.1793 9 18.9532 9 18.7174C9 18.4815 9.09368 18.2554 9.26042 18.0886C9.42717 17.9219 9.65332 17.8282 9.88913 17.8282C10.1249 17.8282 10.3511 17.9219 10.5178 18.0886L11.6602 19.2398L11.6602 14.2898C11.6623 13.5859 11.9428 12.9114 12.4406 12.4137C12.9383 11.9159 13.6128 11.6354 14.3167 11.6333Z" fill="#083983"/>
<path d="M30.2557 8.97669C30.9563 8.97669 31.6411 9.18443 32.2236 9.57363C32.806 9.96284 33.26 10.516 33.5281 11.1633C33.7962 11.8105 33.8664 12.5227 33.7297 13.2098C33.593 13.8968 33.2557 14.528 32.7603 15.0233C32.2649 15.5187 31.6338 15.8561 30.9467 15.9927C30.2596 16.1294 29.5474 16.0593 28.9002 15.7912C28.253 15.5231 27.6998 15.0691 27.3106 14.4866C26.9214 13.9041 26.7137 13.2193 26.7137 12.5187C26.7137 11.5793 27.0868 10.6784 27.7511 10.0141C28.4154 9.34987 29.3163 8.97669 30.2557 8.97669ZM9.00342 28.458C9.00342 29.1585 9.21116 29.8433 9.60036 30.4258C9.98957 31.0083 10.5428 31.4623 11.19 31.7304C11.8372 31.9985 12.5494 32.0686 13.2365 31.9319C13.9236 31.7953 14.5547 31.4579 15.0501 30.9626C15.5454 30.4672 15.8828 29.8361 16.0195 29.149C16.1561 28.4619 16.086 27.7497 15.8179 27.1025C15.5498 26.4552 15.0958 25.9021 14.5133 25.5128C13.9308 25.1236 13.246 24.9159 12.5455 24.9159C11.6061 24.9159 10.7051 25.2891 10.0409 25.9533C9.3766 26.6176 9.00342 27.5185 9.00342 28.458Z" fill="#083983"/>
</svg>
