<svg xmlns="http://www.w3.org/2000/svg" width="133.071" height="336.065" viewBox="0 0 133.071 336.065">
  <g id="Group_80011" data-name="Group 80011" transform="translate(-140 -177.179)">
    <g id="Group_79842" data-name="Group 79842" transform="translate(-20.227 -103.205)">
       <path id="noun-wifi-error-4621165" d="M183.131,109.66a88.8,88.8,0,0,0-62.837,25.872,2.019,2.019,0,0,0,2.86,2.851,84.829,84.829,0,0,1,96.4-16.406,2.017,2.017,0,1,0,1.741-3.639,88.682,88.682,0,0,0-38.157-8.677Zm46.235,13.422a23.4,23.4,0,1,0,23.407,23.395A23.43,23.43,0,0,0,229.366,123.082Zm0,4.038a19.359,19.359,0,1,1-19.357,19.357,19.329,19.329,0,0,1,19.357-19.357Zm-45.98,7.2a64.042,64.042,0,0,0-45.6,18.65,2.024,2.024,0,0,0,2.87,2.856,59.985,59.985,0,0,1,59.769-14.876,2.02,2.02,0,1,0,1.185-3.862,64.064,64.064,0,0,0-18.23-2.768Zm36.3.458a2.019,2.019,0,0,0-1.431,3.451l8.254,8.254-8.254,8.254h0a2.026,2.026,0,1,0,2.865,2.866l8.251-8.254,8.254,8.254a2.026,2.026,0,1,0,2.865-2.866l-8.254-8.254,8.254-8.254h0a2.026,2.026,0,0,0-2.865-2.866l-8.254,8.254-8.251-8.254a2.023,2.023,0,0,0-1.434-.585Zm-36.713,24.211a39.1,39.1,0,0,0-27.683,11.41,2.015,2.015,0,0,0,.009,2.856,2.032,2.032,0,0,0,2.86,0,35.156,35.156,0,0,1,49.632-.007h0a2.019,2.019,0,1,0,2.86-2.849,39.09,39.09,0,0,0-27.68-11.41Zm.714,27.474a10.809,10.809,0,1,0,7.678,3.154,10.862,10.862,0,0,0-7.678-3.154Zm0,4.013a6.795,6.795,0,1,1-4.816,2,6.8,6.8,0,0,1,4.816-2Z" transform="translate(40.524 202.576)" fill="#353535"/>
    </g>
    <path id="noun-mobile-1158185" d="M236.033,70a8.545,8.545,0,0,0-8.533,8.533v64.851a8.545,8.545,0,0,0,8.533,8.533h30.719a8.545,8.545,0,0,0,8.533-8.533V78.533A8.545,8.545,0,0,0,266.752,70Zm0,3.413h30.719a5.126,5.126,0,0,1,5.12,5.12v5.12H230.913v-5.12A5.126,5.126,0,0,1,236.033,73.413Zm8.533,3.413a1.706,1.706,0,1,0,1.207.5A1.707,1.707,0,0,0,244.566,76.826Zm6.826,0a1.707,1.707,0,0,0,0,3.413h6.826a1.707,1.707,0,0,0,0-3.413Zm-20.479,10.24h40.959v44.372H230.913Zm0,47.785h40.959v8.533a5.126,5.126,0,0,1-5.12,5.12H236.033a5.126,5.126,0,0,1-5.12-5.12Zm20.479,3.413a3.413,3.413,0,1,0,2.414,1A3.414,3.414,0,0,0,251.393,138.265Z" transform="translate(-44.5 361.327)" fill="#353535"/>
    <line id="Line_166" data-name="Line 166" y2="93" transform="translate(207.5 323.5)" fill="none" stroke="#353535" stroke-width="3" stroke-dasharray="10"/>
  </g>
</svg>
