<svg width="14" height="16" viewBox="0 0 14 16" fill="none" xmlns="http://www.w3.org/2000/svg">
<path d="M6.79894 0C4.90201 0 3.35189 1.45655 3.35189 3.23881C3.35189 5.02107 4.90201 6.477 6.79894 6.477C8.69586 6.477 10.246 5.02107 10.246 3.23881C10.246 1.45655 8.69586 0 6.79894 0ZM5.64964 7.55693C2.79511 7.55693 0.479492 9.73298 0.479492 12.415V15.1137H13.1184V12.415C13.1184 9.73298 10.8023 7.55693 7.94781 7.55693C7.57417 7.55706 7.30004 7.88687 7.39055 8.22746L8.46054 12.2491L6.79894 13.8103L5.13691 12.2491L6.20732 8.22746C6.29788 7.8867 6.02346 7.55679 5.64964 7.55693Z" fill="black"/>
</svg>
