<svg width="38" height="38" viewBox="0 0 38 38" fill="none" xmlns="http://www.w3.org/2000/svg">
<rect width="38" height="38" rx="10" fill="#59AF94"/>
<path d="M27.4658 23.5891L10.7132 27.2385L11.1568 29.2749L27.9094 25.6256L27.4658 23.5891ZM24.4783 13.7574L25.8469 17.7885L27.8205 17.1186L26.4518 13.0873L24.4783 13.7574ZM9.77272 21.29L9.34058 17.0549L7.26717 17.2664L7.69933 21.5017L9.77272 21.29ZM9.06567 24.9178C9.65589 23.8106 9.90085 22.5457 9.77272 21.29L7.69933 21.5017C7.78597 22.3508 7.6195 23.2002 7.2265 23.9372L9.06567 24.9178ZM25.8469 17.7885C26.2527 18.9837 27.0015 20.0321 27.9987 20.7935L29.2635 19.1368C28.5995 18.63 28.0948 17.9268 27.8205 17.1186L25.8469 17.7885ZM10.7132 27.2385C9.50927 27.5007 8.41168 26.1444 9.06567 24.9178L7.2265 23.9372C5.79399 26.6245 8.09965 29.9408 11.1568 29.2749L10.7132 27.2385ZM27.9094 25.6256C30.9665 24.9596 31.6839 20.9848 29.2635 19.1368L27.9987 20.7935C29.1036 21.637 28.6697 23.3269 27.4658 23.5891L27.9094 25.6256ZM26.4518 13.0873C24.8043 8.23464 19.8744 5.33435 14.9492 6.40725L15.3928 8.44366C19.2351 7.60667 23.156 9.86251 24.4783 13.7574L26.4518 13.0873ZM9.34058 17.0549C8.92305 12.963 11.5504 9.28067 15.3928 8.44366L14.9492 6.40725C10.0239 7.48014 6.74696 12.1682 7.26717 17.2664L9.34058 17.0549Z" fill="white"/>
<path d="M25.0067 28.4097C25.0893 27.8401 24.6946 27.3114 24.125 27.2288C23.5554 27.1461 23.0268 27.5408 22.9441 28.1104L25.0067 28.4097ZM16.7053 29.4695C16.3933 28.9858 15.7483 28.8468 15.2647 29.1589C14.7811 29.471 14.642 30.1159 14.9541 30.5995L16.7053 29.4695ZM22.9441 28.1104C22.7606 29.3749 21.7447 30.5235 20.2722 30.8443L20.7158 32.8807C23.0041 32.3822 24.6935 30.5673 25.0067 28.4097L22.9441 28.1104ZM20.2722 30.8443C18.7997 31.165 17.3981 30.5431 16.7053 29.4695L14.9541 30.5995C16.1362 32.4314 18.4276 33.3792 20.7158 32.8807L20.2722 30.8443Z" fill="white"/>
</svg>
