<svg width="30" height="33" viewBox="0 0 30 33" fill="none" xmlns="http://www.w3.org/2000/svg">
<path d="M24.4658 20.5891L7.7132 24.2385L8.1568 26.2749L24.9094 22.6256L24.4658 20.5891ZM21.4783 10.7574L22.8469 14.7885L24.8204 14.1186L23.4518 10.0873L21.4783 10.7574ZM6.77272 18.29L6.34058 14.0549L4.26717 14.2664L4.69933 18.5017L6.77272 18.29ZM6.06567 21.9178C6.65589 20.8106 6.90085 19.5457 6.77272 18.29L4.69933 18.5017C4.78597 19.3508 4.6195 20.2002 4.2265 20.9372L6.06567 21.9178ZM22.8469 14.7885C23.2527 15.9837 24.0015 17.0321 24.9987 17.7935L26.2635 16.1368C25.5995 15.63 25.0948 14.9268 24.8204 14.1186L22.8469 14.7885ZM7.7132 24.2385C6.50927 24.5007 5.41168 23.1444 6.06567 21.9178L4.2265 20.9372C2.79399 23.6245 5.09965 26.9408 8.1568 26.2749L7.7132 24.2385ZM24.9094 22.6256C27.9665 21.9596 28.6839 17.9848 26.2635 16.1368L24.9987 17.7935C26.1036 18.637 25.6697 20.3269 24.4658 20.5891L24.9094 22.6256ZM23.4518 10.0873C21.8043 5.23464 16.8744 2.33435 11.9492 3.40725L12.3928 5.44366C16.2351 4.60667 20.156 6.86251 21.4783 10.7574L23.4518 10.0873ZM6.34058 14.0549C5.92305 9.96296 8.55042 6.28066 12.3928 5.44366L11.9492 3.40725C7.02391 4.48014 3.74696 9.16818 4.26717 14.2664L6.34058 14.0549Z" fill="#012A6A"/>
<path d="M22.0067 25.4101C22.0893 24.8405 21.6946 24.3119 21.125 24.2292C20.5554 24.1465 20.0268 24.5413 19.9441 25.1109L22.0067 25.4101ZM13.7053 26.4699C13.3933 25.9863 12.7483 25.8472 12.2647 26.1593C11.7811 26.4714 11.642 27.1163 11.9541 27.5999L13.7053 26.4699ZM19.9441 25.1109C19.7606 26.3754 18.7447 27.524 17.2722 27.8447L17.7158 29.8811C20.0041 29.3827 21.6935 27.5677 22.0067 25.4101L19.9441 25.1109ZM17.2722 27.8447C15.7997 28.1655 14.3981 27.5435 13.7053 26.4699L11.9541 27.5999C13.1362 29.4318 15.4276 30.3796 17.7158 29.8811L17.2722 27.8447Z" fill="#012A6A"/>
</svg>
