<svg width="16" height="15" viewBox="0 0 16 15" fill="none" xmlns="http://www.w3.org/2000/svg">
<path d="M14.2494 0.882324H12.8407V2.20585C12.8407 2.47056 12.6059 2.64703 12.3712 2.64703C12.1364 2.64703 11.9016 2.47056 11.9016 2.20585V0.882324H4.3887V2.20585C4.3887 2.47056 4.15392 2.64703 3.91914 2.64703C3.68436 2.64703 3.44958 2.47056 3.44958 2.20585V0.882324H2.04091C1.33658 0.882324 0.820068 1.45585 0.820068 2.20585V3.79409H15.8459V2.20585C15.8459 1.45585 15.0007 0.882324 14.2494 0.882324ZM0.820068 4.72056V12.7941C0.820068 13.5882 1.33658 14.1176 2.08787 14.1176H14.2963C15.0476 14.1176 15.8928 13.5441 15.8928 12.7941V4.72056H0.820068ZM4.99912 12.1323H3.87218C3.68436 12.1323 3.49654 12 3.49654 11.7794V10.6764C3.49654 10.5 3.63741 10.3235 3.87218 10.3235H5.04607C5.2339 10.3235 5.42172 10.4559 5.42172 10.6764V11.7794C5.37476 12 5.2339 12.1323 4.99912 12.1323ZM4.99912 8.16174H3.87218C3.68436 8.16174 3.49654 8.02938 3.49654 7.80879V6.70585C3.49654 6.52938 3.63741 6.35291 3.87218 6.35291H5.04607C5.2339 6.35291 5.42172 6.48527 5.42172 6.70585V7.80879C5.37476 8.02938 5.2339 8.16174 4.99912 8.16174ZM8.75557 12.1323H7.58168C7.39386 12.1323 7.20603 12 7.20603 11.7794V10.6764C7.20603 10.5 7.3469 10.3235 7.58168 10.3235H8.75557C8.94339 10.3235 9.13121 10.4559 9.13121 10.6764V11.7794C9.13121 12 8.99035 12.1323 8.75557 12.1323ZM8.75557 8.16174H7.58168C7.39386 8.16174 7.20603 8.02938 7.20603 7.80879V6.70585C7.20603 6.52938 7.3469 6.35291 7.58168 6.35291H8.75557C8.94339 6.35291 9.13121 6.48527 9.13121 6.70585V7.80879C9.13121 8.02938 8.99035 8.16174 8.75557 8.16174ZM12.512 12.1323H11.3381C11.1503 12.1323 10.9625 12 10.9625 11.7794V10.6764C10.9625 10.5 11.1033 10.3235 11.3381 10.3235H12.512C12.6998 10.3235 12.8877 10.4559 12.8877 10.6764V11.7794C12.8877 12 12.7468 12.1323 12.512 12.1323ZM12.512 8.16174H11.3381C11.1503 8.16174 10.9625 8.02938 10.9625 7.80879V6.70585C10.9625 6.52938 11.1033 6.35291 11.3381 6.35291H12.512C12.6998 6.35291 12.8877 6.48527 12.8877 6.70585V7.80879C12.8877 8.02938 12.7468 8.16174 12.512 8.16174Z" fill="black"/>
</svg>
