<svg width="27" height="27" viewBox="0 0 27 27" fill="none" xmlns="http://www.w3.org/2000/svg">
<path d="M15.1348 0C14.6979 0 14.3438 0.354164 14.3438 0.791016V11.918C14.3438 12.3548 14.6979 12.709 15.1348 12.709H26.209C26.6458 12.709 27 12.3548 27 11.918C27 5.37231 21.6882 0 15.1348 0ZM15.9258 11.127V1.6123C20.968 1.99963 25.0047 6.05828 25.3882 11.127H15.9258Z" fill="#083983"/>
<path d="M16.6004 25.2279L12.7617 14.9393V4.00781C12.7617 3.57096 12.4076 3.2168 11.9707 3.2168C5.45674 3.2168 0 8.49799 0 15.082C0 21.6168 5.40385 27 11.9707 27C13.4038 27 14.8059 26.7459 16.1378 26.2447C16.5459 26.0912 16.7528 25.6364 16.6004 25.2279ZM11.9707 25.418C6.24238 25.418 1.58203 20.7813 1.58203 15.082C1.58203 9.67523 5.81945 5.22962 11.1797 4.82836V15.082C11.1797 15.1764 11.1966 15.2701 11.2296 15.3586L14.8318 25.0133C13.906 25.2821 12.9469 25.418 11.9707 25.418Z" fill="#083983"/>
<path d="M26.209 14.291H15.1347C14.8756 14.291 14.6328 14.418 14.485 14.6309C14.3371 14.8439 14.3031 15.1157 14.3937 15.3586L18.2822 25.7809C18.4358 26.1924 18.894 26.3982 19.3019 26.2447C23.9064 24.5125 27 20.0265 27 15.082C27 14.6452 26.6458 14.291 26.209 14.291ZM19.4763 24.4556L16.2741 15.8678H25.3874C25.1014 19.5743 22.8239 22.8862 19.4763 24.4556Z" fill="#083983"/>
</svg>
