<svg width="42" height="42" viewBox="0 0 42 42" fill="none" xmlns="http://www.w3.org/2000/svg">
<path d="M23.1348 8C22.6979 8 22.3438 8.35416 22.3438 8.79102V19.918C22.3438 20.3548 22.6979 20.709 23.1348 20.709H34.209C34.6458 20.709 35 20.3548 35 19.918C35 13.3723 29.6882 8 23.1348 8ZM23.9258 19.127V9.6123C28.968 9.99963 33.0047 14.0583 33.3882 19.127H23.9258Z" fill="#1F3870"/>
<path d="M24.6004 33.2279L20.7617 22.9393V12.0078C20.7617 11.571 20.4076 11.2168 19.9707 11.2168C13.4567 11.2168 8 16.498 8 23.082C8 29.6168 13.4038 35 19.9707 35C21.4038 35 22.8059 34.7459 24.1378 34.2447C24.5459 34.0912 24.7528 33.6364 24.6004 33.2279ZM19.9707 33.418C14.2424 33.418 9.58203 28.7813 9.58203 23.082C9.58203 17.6752 13.8194 13.2296 19.1797 12.8284V23.082C19.1797 23.1764 19.1966 23.2701 19.2296 23.3586L22.8318 33.0133C21.906 33.2821 20.9469 33.418 19.9707 33.418Z" fill="#1F3870"/>
<path d="M34.209 22.291H23.1347C22.8756 22.291 22.6328 22.418 22.485 22.6309C22.3371 22.8439 22.3031 23.1157 22.3937 23.3586L26.2822 33.7809C26.4358 34.1924 26.894 34.3982 27.3019 34.2447C31.9064 32.5125 35 28.0265 35 23.082C35 22.6452 34.6458 22.291 34.209 22.291ZM27.4763 32.4556L24.2741 23.8678H33.3874C33.1014 27.5743 30.8239 30.8862 27.4763 32.4556Z" fill="#1F3870"/>
</svg>
