<svg width="54" height="54" viewBox="0 0 54 54" fill="none" xmlns="http://www.w3.org/2000/svg">
<path d="M46.9204 11.5796L35.6704 0.32959C35.4594 0.118652 35.1738 0 34.8749 0H11.2499C8.76814 0 6.75 2.01814 6.75 4.50004V49.5001C6.75 51.9819 8.76814 54 11.25 54H42.7501C45.2319 54 47.25 51.9819 47.25 49.5V12.375C47.25 12.0762 47.1313 11.7906 46.9204 11.5796ZM36 3.84086L43.4091 11.25H38.2499C37.0096 11.25 36 10.2404 36 9.00007V3.84086ZM45 49.5C45 50.7403 43.9904 51.7499 42.7501 51.7499H11.25C10.0097 51.7499 9.00007 50.7403 9.00007 49.5V4.50004C9.00007 3.25972 10.0097 2.25007 11.25 2.25007H33.75V9.00007C33.75 11.4819 35.7681 13.5 38.25 13.5H45V49.5Z" fill="#0C4192"/>
<path d="M32.7359 33.026C31.6944 32.2064 30.7046 31.3638 30.0454 30.7047C29.1885 29.8477 28.4249 29.0172 27.7614 28.2261C28.7963 25.028 29.2501 23.379 29.2501 22.5C29.2501 18.7658 27.9009 18 25.8751 18C24.3359 18 22.5001 18.7998 22.5001 22.6077C22.5001 24.2865 23.4197 26.3244 25.2423 28.6931C24.7962 30.0542 24.2722 31.6242 23.6833 33.3941C23.3998 34.2433 23.0923 35.0299 22.767 35.7572C22.5023 35.8748 22.2452 35.9946 21.9969 36.1187C21.1026 36.5659 20.2534 36.9679 19.4656 37.3415C15.873 39.0422 13.5 40.1672 13.5 42.3886C13.5 44.0014 15.2524 45 16.875 45C18.9668 45 22.1253 42.2061 24.4325 37.4996C26.8275 36.5548 29.8048 35.8549 32.1548 35.4166C34.0378 36.8646 36.1176 38.25 37.125 38.25C39.9144 38.25 40.5 36.6372 40.5 35.2847C40.5 32.6249 37.4611 32.6249 36 32.6249C35.5462 32.625 34.329 32.7591 32.7359 33.026ZM16.875 42.75C16.2323 42.75 15.7972 42.4468 15.75 42.3886C15.75 41.5909 18.1285 40.4638 20.4291 39.374C20.5752 39.3048 20.7236 39.2355 20.8741 39.1641C19.1843 41.6141 17.5133 42.75 16.875 42.75ZM24.75 22.6077C24.75 20.2501 25.4818 20.2501 25.8751 20.2501C26.6705 20.2501 27.0001 20.2501 27.0001 22.5C27.0001 22.9746 26.6837 24.1612 26.1047 26.0135C25.2213 24.6534 24.75 23.4878 24.75 22.6077ZM25.6125 34.6993C25.6828 34.5037 25.7509 34.306 25.8169 34.106C26.2343 32.8536 26.6101 31.7285 26.9452 30.7156C27.4121 31.2298 27.9153 31.7561 28.4547 32.2954C28.6657 32.5064 29.1886 32.981 29.8852 33.5753C28.4985 33.8775 27.0231 34.2521 25.6125 34.6993ZM38.25 35.2849C38.25 35.7903 38.25 36 37.2063 36.0067C36.8998 35.9408 36.1912 35.5233 35.3166 34.9278C35.6341 34.8927 35.8681 34.8751 36 34.8751C37.6623 34.8751 38.1336 35.0376 38.25 35.2849Z" fill="#0C4192"/>
</svg>
