<svg width="40" height="24" viewBox="0 0 40 24" fill="none" xmlns="http://www.w3.org/2000/svg">
<path d="M19.971 10.9333C18.8972 10.9333 17.8475 10.6149 16.9547 10.0184C16.0619 9.42181 15.3661 8.5739 14.9552 7.58187C14.5443 6.58984 14.4367 5.49824 14.6462 4.4451C14.8557 3.39197 15.3728 2.4246 16.132 1.66533C16.8913 0.906065 17.8587 0.388997 18.9118 0.179516C19.9649 -0.0299658 21.0565 0.0775474 22.0486 0.48846C23.0406 0.899373 23.8885 1.59523 24.4851 2.48803C25.0816 3.38084 25.4 4.43049 25.4 5.50426C25.3984 6.94363 24.8259 8.32359 23.8081 9.34138C22.7903 10.3592 21.4103 10.9317 19.971 10.9333ZM19.971 1.48145C19.1753 1.48145 18.3976 1.71738 17.736 2.15941C17.0745 2.60145 16.5588 3.22972 16.2544 3.9648C15.9499 4.69987 15.8702 5.50872 16.0254 6.28907C16.1807 7.06942 16.5638 7.78622 17.1264 8.34882C17.689 8.91142 18.4058 9.29455 19.1862 9.44977C19.9665 9.605 20.7754 9.52533 21.5104 9.22085C22.2455 8.91638 22.8738 8.40076 23.3158 7.73921C23.7578 7.07767 23.9938 6.2999 23.9938 5.50426C23.9926 4.43771 23.5684 3.41519 22.8142 2.66103C22.06 1.90686 21.0375 1.48265 19.971 1.48145ZM8.21011 13.8698C7.3476 13.8698 6.50445 13.614 5.7873 13.1349C5.07014 12.6557 4.51119 11.9746 4.18113 11.1777C3.85106 10.3809 3.76469 9.50403 3.93296 8.65809C4.10123 7.81215 4.51657 7.03511 5.12646 6.42522C5.73634 5.81533 6.51339 5.39999 7.35933 5.23173C8.20527 5.06346 9.08211 5.14982 9.87896 5.47989C10.6758 5.80996 11.3569 6.36891 11.8361 7.08606C12.3153 7.80321 12.571 8.64636 12.571 9.50887C12.5698 10.6651 12.1099 11.7735 11.2923 12.5911C10.4748 13.4087 9.3663 13.8685 8.21011 13.8698ZM8.21011 6.55426C7.62572 6.55426 7.05446 6.72755 6.56856 7.05222C6.08266 7.37689 5.70395 7.83835 5.48032 8.37826C5.25669 8.91816 5.19818 9.51225 5.3122 10.0854C5.42621 10.6586 5.70763 11.185 6.12086 11.5983C6.53408 12.0115 7.06057 12.2929 7.63372 12.4069C8.20688 12.5209 8.80097 12.4623 9.34087 12.2387C9.88077 12.0151 10.3422 11.6363 10.6669 11.1504C10.9915 10.6645 11.1648 10.0933 11.1648 9.50887C11.1638 8.72558 10.8522 7.97466 10.2983 7.42083C9.74437 6.867 8.9934 6.5555 8.21011 6.55465V6.55426ZM31.7505 13.8698C30.888 13.8698 30.0448 13.614 29.3277 13.1349C28.6105 12.6557 28.0516 11.9746 27.7215 11.1777C27.3914 10.3809 27.3051 9.50403 27.4734 8.65809C27.6416 7.81215 28.057 7.03511 28.6668 6.42522C29.2767 5.81533 30.0538 5.39999 30.8997 5.23173C31.7457 5.06346 32.6225 5.14982 33.4194 5.47989C34.2162 5.80996 34.8973 6.36891 35.3765 7.08606C35.8557 7.80321 36.1114 8.64636 36.1114 9.50887C36.1101 10.6651 35.6503 11.7735 34.8327 12.5911C34.0152 13.4086 32.9067 13.8685 31.7505 13.8698ZM31.7505 6.55426C31.1661 6.55426 30.5949 6.72755 30.109 7.05222C29.6231 7.37689 29.2443 7.83835 29.0207 8.37826C28.7971 8.91816 28.7386 9.51225 28.8526 10.0854C28.9666 10.6586 29.248 11.185 29.6612 11.5983C30.0745 12.0115 30.601 12.2929 31.1741 12.4069C31.7473 12.5209 32.3414 12.4623 32.8813 12.2387C33.4212 12.0151 33.8826 11.6363 34.2073 11.1504C34.5319 10.6645 34.7052 10.0933 34.7052 9.50887C34.7042 8.72558 34.3926 7.97467 33.8387 7.42085C33.2847 6.86703 32.5338 6.55552 31.7505 6.55465V6.55426ZM0.588543 19.0339C0.732372 17.7677 1.24308 16.5346 1.98972 15.6507C2.87799 14.5989 4.04721 14.0868 5.28315 14.2111C5.42761 14.2255 5.56407 14.2842 5.67378 14.3793C6.54448 15.1333 7.37089 15.4826 8.2019 15.4504C8.22071 15.4496 8.23948 15.4496 8.25823 15.4504C9.09026 15.4834 9.91581 15.1332 10.7864 14.3793C10.8961 14.2842 11.0325 14.2255 11.177 14.2111C11.3265 14.1962 11.4768 14.1906 11.6271 14.1944C11.7695 13.9781 11.9244 13.7704 12.091 13.5721C13.1937 12.2666 14.6417 11.6315 16.1691 11.784C16.3135 11.7984 16.45 11.8571 16.5597 11.9521C17.7099 12.9482 18.8566 13.4298 19.9689 13.3861C19.9876 13.3853 20.0064 13.3853 20.0251 13.3861C21.1364 13.4292 22.2842 12.9482 23.4343 11.9521C23.544 11.8571 23.6805 11.7984 23.825 11.784C25.3517 11.6314 26.8002 12.2666 27.9031 13.5721C28.0698 13.7707 28.2249 13.9787 28.3675 14.1953C28.52 14.1908 28.6726 14.196 28.8245 14.2109C28.9689 14.2252 29.1054 14.284 29.2151 14.379C30.0857 15.133 30.9114 15.482 31.7433 15.4501C31.7621 15.4493 31.7808 15.4493 31.7996 15.4501C32.6318 15.4814 33.4571 15.1329 34.3278 14.3789C34.4376 14.2839 34.574 14.2252 34.7185 14.2109C35.9545 14.0868 37.1236 14.5988 38.0118 15.6504C38.7585 16.5343 39.2692 17.7676 39.413 19.0337C39.713 21.6743 38.4286 23.6372 36.2177 23.9189C36.1882 23.9226 36.1586 23.9245 36.1289 23.9246H27.4129C27.3832 23.9245 27.3536 23.9226 27.3241 23.9189C27.0606 23.8855 26.8011 23.8253 26.5498 23.7392C26.2773 23.8231 25.998 23.8832 25.715 23.9189C25.6856 23.9226 25.656 23.9245 25.6263 23.9246H14.3666C14.3369 23.9245 14.3072 23.9226 14.2778 23.9189C13.9966 23.8834 13.719 23.8239 13.448 23.7409C13.1973 23.8261 12.9387 23.8857 12.676 23.9189C12.6466 23.9226 12.6169 23.9245 12.5871 23.9246H3.87245C3.84275 23.9245 3.81308 23.9226 3.78362 23.9189C1.57261 23.6375 0.288544 21.6743 0.588543 19.0339ZM34.7735 22.5186V19.8399C34.7735 19.6534 34.8475 19.4746 34.9794 19.3427C35.1113 19.2108 35.2901 19.1368 35.4766 19.1368C35.6631 19.1368 35.8419 19.2108 35.9738 19.3427C36.1056 19.4746 36.1797 19.6534 36.1797 19.8399V22.5014C37.7724 22.2123 38.176 20.6186 38.0139 19.1926C37.808 17.3793 36.6632 15.5995 35.0725 15.5995H35.0596C33.9892 16.4707 32.8823 16.8921 31.7699 16.8564C30.9409 16.8827 30.116 16.6555 29.3068 16.1782C29.4802 16.7172 29.6001 17.272 29.6649 17.8345C29.8294 19.2833 29.6005 20.6609 29.0202 21.7137C28.8619 22.0018 28.6724 22.2717 28.4551 22.5184L34.7735 22.5186ZM14.4127 22.5186H14.5038V18.8522C14.5038 18.6657 14.5779 18.4869 14.7097 18.355C14.8416 18.2232 15.0204 18.1491 15.2069 18.1491C15.3934 18.1491 15.5722 18.2232 15.7041 18.355C15.8359 18.4869 15.91 18.6657 15.91 18.8522V22.5186H24.0819V18.8522C24.0819 18.6657 24.156 18.4869 24.2878 18.355C24.4197 18.2232 24.5985 18.1491 24.785 18.1491C24.9715 18.1491 25.1504 18.2232 25.2822 18.355C25.4141 18.4869 25.4882 18.6657 25.4882 18.8522V22.5186H25.5792C27.9025 22.1968 28.4925 19.9744 28.2674 17.9929C27.9907 15.557 26.4335 13.1682 24.2632 13.1682C24.2325 13.1682 24.2019 13.1687 24.171 13.1697C22.8079 14.2952 21.4038 14.8405 19.9958 14.7921C18.5854 14.8412 17.1833 14.2951 15.8207 13.1697C13.6019 13.0986 12.0048 15.5229 11.7242 17.9929C11.5 19.9744 12.0897 22.1968 14.413 22.5186H14.4127ZM3.81972 22.5014V19.8399C3.81972 19.6534 3.8938 19.4746 4.02566 19.3427C4.15752 19.2108 4.33636 19.1368 4.52284 19.1368C4.70932 19.1368 4.88816 19.2108 5.02002 19.3427C5.15189 19.4746 5.22597 19.6534 5.22597 19.8399V22.5186H11.5373C11.3201 22.2718 11.1306 22.002 10.9722 21.7139C10.392 20.6611 10.163 19.2835 10.3275 17.8346C10.3921 17.2741 10.5115 16.7211 10.684 16.1839C9.87753 16.6578 9.05558 16.8837 8.22987 16.8568C7.11729 16.8927 6.01112 16.4711 4.94026 15.6H4.9273C3.33675 15.6 2.19175 17.3799 1.98581 19.1931C1.82378 20.6189 2.22737 22.2124 3.82034 22.5014H3.81972Z" fill="#083983"/>
</svg>
