<svg width="34" height="24" viewBox="0 0 34 24" fill="none" xmlns="http://www.w3.org/2000/svg">
<path d="M10.059 10.9191C11.6282 10.9191 12.9002 9.5652 12.9002 7.89509C12.9002 6.22498 11.6282 4.87109 10.059 4.87109C8.48984 4.87109 7.21777 6.22498 7.21777 7.89509C7.21777 9.5652 8.48984 10.9191 10.059 10.9191Z" stroke="#083983" stroke-width="1.3" stroke-miterlimit="10" stroke-linecap="round" stroke-linejoin="round"/>
<path d="M16.1475 19.1257C16.3505 18.4777 16.4858 17.6857 16.4858 16.9657C16.4858 13.2217 13.6445 12.4297 10.0592 12.4297C6.54145 12.4297 3.63257 13.2217 3.63257 16.9657C3.63257 17.6857 3.76787 18.4777 3.97081 19.1257H16.1475Z" stroke="#083983" stroke-width="1.3" stroke-miterlimit="10" stroke-linecap="round" stroke-linejoin="round"/>
<path d="M30.5567 22.6557H3.15909C2.00907 22.6557 1.12964 21.7197 1.12964 20.4957V3.50375C1.12964 2.27975 2.00907 1.34375 3.15909 1.34375H30.5567C31.7067 1.34375 32.5861 2.27975 32.5861 3.50375V20.4957C32.5861 21.7197 31.639 22.6557 30.5567 22.6557Z" stroke="#083983" stroke-width="1.3" stroke-miterlimit="10" stroke-linecap="round" stroke-linejoin="round"/>
<path d="M19.7324 5.23047H29.3385" stroke="#083983" stroke-width="1.3" stroke-miterlimit="10" stroke-linecap="round" stroke-linejoin="round"/>
<path d="M19.7322 8.61523H26.8353" stroke="#083983" stroke-width="1.3" stroke-miterlimit="10" stroke-linecap="round" stroke-linejoin="round"/>
<path d="M27.2415 11.998H29.3386" stroke="#083983" stroke-width="1.3" stroke-miterlimit="10" stroke-linecap="round" stroke-linejoin="round"/>
<path d="M19.7324 11.998H25.0766" stroke="#083983" stroke-width="1.3" stroke-miterlimit="10" stroke-linecap="round" stroke-linejoin="round"/>
<path d="M22.9795 15.3828H29.3384" stroke="#083983" stroke-width="1.3" stroke-miterlimit="10" stroke-linecap="round" stroke-linejoin="round"/>
<path d="M19.7324 15.3828H20.7471" stroke="#083983" stroke-width="1.3" stroke-miterlimit="10" stroke-linecap="round" stroke-linejoin="round"/>
<path d="M19.7322 18.7656H26.1588" stroke="#083983" stroke-width="1.3" stroke-miterlimit="10" stroke-linecap="round" stroke-linejoin="round"/>
</svg>
