<svg width="21" height="25" viewBox="0 0 21 25" fill="none" xmlns="http://www.w3.org/2000/svg">
<path d="M14.5265 12.0492C15.2085 11.4456 15.7564 10.6952 16.1324 9.84985C16.5084 9.00449 16.7034 8.08429 16.7041 7.15283V6.27899C16.6603 4.5982 15.9877 3.00157 14.8294 1.82887C13.6711 0.65617 12.1186 0 10.5023 0C8.88599 0 7.3335 0.65617 6.1752 1.82887C5.01691 3.00157 4.34427 4.5982 4.30044 6.27899V7.14808C4.30113 8.07954 4.49621 8.99974 4.87218 9.84511C5.24815 10.6905 5.79605 11.4409 6.47804 12.0444C4.61645 12.5835 2.97557 13.7415 1.80589 15.3416C0.6362 16.9417 0.00196597 18.896 0 20.9063V24.0502C0 24.3021 0.0961956 24.5437 0.267424 24.7218C0.438653 24.8999 0.670889 25 0.913043 25H20.087C20.3291 25 20.5613 24.8999 20.7326 24.7218C20.9038 24.5437 21 24.3021 21 24.0502V20.9063C20.9973 18.8975 20.3633 16.9447 19.1946 15.3456C18.0258 13.7466 16.3865 12.5889 14.5265 12.0492ZM6.12196 6.27899C6.15866 5.09717 6.63575 3.97652 7.45236 3.15401C8.26897 2.33151 9.36106 1.87164 10.4977 1.87164C11.6344 1.87164 12.7265 2.33151 13.5431 3.15401C14.3597 3.97652 14.8368 5.09717 14.8735 6.27899V7.14808C14.8368 8.3299 14.3597 9.45055 13.5431 10.2731C12.7265 11.0956 11.6344 11.5554 10.4977 11.5554C9.36106 11.5554 8.26897 11.0956 7.45236 10.2731C6.63575 9.45055 6.15866 8.3299 6.12196 7.14808V6.27899ZM19.1739 23.1004H1.82609V20.9063C1.8273 18.9695 2.56743 17.1124 3.88392 15.7428C5.2004 14.3733 6.9856 13.6034 8.84739 13.6021H12.1572C14.0182 13.6046 15.8022 14.3751 17.1177 15.7445C18.4332 17.1139 19.1727 18.9703 19.1739 20.9063V23.1004Z" fill="#083983"/>
</svg>
