<svg width="42" height="42" viewBox="0 0 42 42" fill="none" xmlns="http://www.w3.org/2000/svg">
<path d="M24.5265 21.0492C25.2085 20.4456 25.7564 19.6952 26.1324 18.8499C26.5084 18.0045 26.7034 17.0843 26.7041 16.1528V15.279C26.6603 13.5982 25.9877 12.0016 24.8294 10.8289C23.6711 9.65617 22.1186 9 20.5023 9C18.886 9 17.3335 9.65617 16.1752 10.8289C15.0169 12.0016 14.3443 13.5982 14.3004 15.279V16.1481C14.3011 17.0795 14.4962 17.9997 14.8722 18.8451C15.2481 19.6905 15.7961 20.4409 16.478 21.0444C14.6165 21.5835 12.9756 22.7415 11.8059 24.3416C10.6362 25.9417 10.002 27.896 10 29.9063V33.0502C10 33.3021 10.0962 33.5437 10.2674 33.7218C10.4387 33.8999 10.6709 34 10.913 34H30.087C30.3291 34 30.5613 33.8999 30.7326 33.7218C30.9038 33.5437 31 33.3021 31 33.0502V29.9063C30.9973 27.8975 30.3633 25.9447 29.1946 24.3456C28.0258 22.7466 26.3865 21.5889 24.5265 21.0492ZM16.122 15.279C16.1587 14.0972 16.6358 12.9765 17.4524 12.154C18.269 11.3315 19.3611 10.8716 20.4977 10.8716C21.6344 10.8716 22.7265 11.3315 23.5431 12.154C24.3597 12.9765 24.8368 14.0972 24.8735 15.279V16.1481C24.8368 17.3299 24.3597 18.4505 23.5431 19.2731C22.7265 20.0956 21.6344 20.5554 20.4977 20.5554C19.3611 20.5554 18.269 20.0956 17.4524 19.2731C16.6358 18.4505 16.1587 17.3299 16.122 16.1481V15.279ZM29.1739 32.1004H11.8261V29.9063C11.8273 27.9695 12.5674 26.1124 13.8839 24.7428C15.2004 23.3733 16.9856 22.6034 18.8474 22.6021H22.1572C24.0182 22.6046 25.8022 23.3751 27.1177 24.7445C28.4332 26.1139 29.1727 27.9703 29.1739 29.9063V32.1004Z" fill="#1F3870"/>
</svg>
