<svg width="31" height="23" viewBox="0 0 31 23" fill="none" xmlns="http://www.w3.org/2000/svg">
<path d="M15.4812 15.245C15.1505 15.245 14.8201 15.1666 14.5056 15.0098L0.634491 8.08357C0.307077 7.9197 0.0968595 7.52825 0.105999 7.09879C0.114798 6.66984 0.341673 6.29155 0.675322 6.14891L14.6282 0.177131C15.1787 -0.0595612 15.7844 -0.0585253 16.3337 0.177131L30.287 6.14891C30.6207 6.29155 30.8475 6.66984 30.8568 7.09879C30.8659 7.52825 30.6549 7.9197 30.3279 8.08357L16.4572 15.0098C16.1423 15.1666 15.8115 15.245 15.4812 15.245ZM3.35229 7.19999L15.1559 13.0939C15.3628 13.197 15.6001 13.197 15.807 13.0939L27.6102 7.19999L15.7657 2.13054C15.5823 2.05264 15.3803 2.05264 15.1968 2.13054L3.35229 7.19999Z" fill="#083983"/>
<path d="M19.7514 22.6646H11.2095C8.85461 22.6646 6.93848 20.341 6.93848 17.4853V11.2702C6.93848 10.6982 7.32099 10.2344 7.79267 10.2344C8.26436 10.2344 8.64687 10.6982 8.64687 11.2702V17.4853C8.64687 19.1989 9.79636 20.5929 11.2095 20.5929H19.7514C21.1645 20.5929 22.314 19.1989 22.314 17.4853V11.2702C22.314 10.6982 22.6961 10.2344 23.1682 10.2344C23.6403 10.2344 24.0224 10.6982 24.0224 11.2702V17.4853C24.0224 20.341 22.1063 22.6646 19.7514 22.6646Z" fill="#083983"/>
<path d="M26.5852 8.16016H28.2936V17.6361H26.5852V8.16016Z" fill="#083983"/>
<path d="M27.4398 22.6643C26.0267 22.6643 24.8772 21.2704 24.8772 19.5568C24.8772 17.8432 26.0267 16.4492 27.4398 16.4492C28.8529 16.4492 30.0024 17.8432 30.0024 19.5568C30.0024 21.2704 28.8529 22.6643 27.4398 22.6643ZM27.4398 18.5209C26.9684 18.5209 26.5856 18.9857 26.5856 19.5568C26.5856 20.1278 26.9684 20.5926 27.4398 20.5926C27.9111 20.5926 28.294 20.1278 28.294 19.5568C28.294 18.9857 27.9111 18.5209 27.4398 18.5209Z" fill="#083983"/>
</svg>
