<svg width="37" height="37" viewBox="0 0 37 37" fill="none" xmlns="http://www.w3.org/2000/svg">
<path d="M18.5 2.02539C9.4013 2.02539 2.02539 9.4013 2.02539 18.5C2.02539 21.6518 2.91105 24.5966 4.44627 27.1001L2.45011 34.5499L9.89991 32.5537C12.4034 34.0889 15.3481 34.9746 18.5 34.9746C27.5987 34.9746 34.9746 27.5987 34.9746 18.5C34.9746 9.4013 27.5987 2.02539 18.5 2.02539Z" fill="white" stroke="#002A6A" stroke-width="3" stroke-miterlimit="10"/>
<path d="M19.5254 27.2148H17.4746V25.1641H19.5254V27.2148Z" fill="#002A6A"/>
<path d="M14.3984 14.9102C14.3984 12.6449 16.2348 10.8086 18.5 10.8086C20.7652 10.8086 22.6016 12.6449 22.6016 14.9102C22.6016 15.9606 22.2062 16.9185 21.5567 17.6442L18.5 21.0625V23.1133" fill="white"/>
<path d="M14.3984 14.9102C14.3984 12.6449 16.2348 10.8086 18.5 10.8086C20.7652 10.8086 22.6016 12.6449 22.6016 14.9102C22.6016 15.9606 22.2062 16.9185 21.5567 17.6442L18.5 21.0625V23.1133" stroke="#002A6A" stroke-width="3" stroke-miterlimit="10"/>
</svg>
