<svg width="21" height="19" viewBox="0 0 21 19" fill="none" xmlns="http://www.w3.org/2000/svg">
<path d="M20.4308 1.02645C20.2632 0.869958 20.0645 0.79145 19.8349 0.79145C19.6054 0.79145 19.4069 0.869958 19.239 1.02645L17.5175 2.6224C16.5729 1.7894 15.4912 1.14396 14.2729 0.686383C13.0548 0.228765 11.8008 0 10.5117 0C8.08375 0 5.96497 0.686426 4.15503 2.05958C2.34504 3.43256 1.15322 5.22395 0.579346 7.43418V7.5207C0.579346 7.62789 0.621231 7.72074 0.705142 7.79899C0.789052 7.87737 0.888316 7.91649 1.00307 7.91649H3.63839C3.8327 7.91649 3.96503 7.82161 4.03573 7.63205C4.40648 6.80746 4.64035 6.32506 4.73758 6.18481C5.35552 5.2447 6.17658 4.50659 7.20076 3.97055C8.22504 3.43456 9.32858 3.16645 10.5115 3.16645C12.2863 3.16645 13.8268 3.73139 15.1336 4.86118L13.3057 6.56812C13.1384 6.72483 13.0543 6.91049 13.0543 7.12491C13.0543 7.33929 13.1384 7.52486 13.3057 7.68153C13.4737 7.83824 13.6724 7.91654 13.902 7.91654H19.8349C20.0644 7.91654 20.2632 7.83824 20.4308 7.68153C20.5984 7.52486 20.6822 7.33934 20.6822 7.12491V1.58312C20.6822 1.36869 20.5989 1.18321 20.4308 1.02645Z" fill="#5490EB"/>
<path d="M19.9275 11.0826H17.3849C17.1906 11.0826 17.0582 11.1773 16.9877 11.367C16.6171 12.1917 16.383 12.6739 16.286 12.8141C15.6678 13.754 14.8467 14.4924 13.8228 15.0284C12.7985 15.5646 11.695 15.8324 10.512 15.8324C9.65565 15.8324 8.83009 15.6841 8.03561 15.3873C7.24103 15.0901 6.53023 14.6695 5.90348 14.1252L7.71783 12.4306C7.88551 12.274 7.96942 12.0883 7.96942 11.874C7.96942 11.6596 7.88551 11.4738 7.71783 11.3173C7.55005 11.1605 7.35148 11.082 7.12192 11.082H1.18895C0.95925 11.082 0.760583 11.1605 0.592855 11.3173C0.425126 11.4738 0.341309 11.6596 0.341309 11.874V17.4158C0.341309 17.63 0.425126 17.8158 0.592901 17.9724C0.760768 18.1288 0.959435 18.2076 1.18899 18.2076C1.41851 18.2076 1.61708 18.1289 1.7849 17.9724L3.49322 16.3766C4.43794 17.2175 5.51291 17.8651 6.71804 18.3186C7.92317 18.7723 9.17023 18.9989 10.4591 18.9989C12.8783 18.9989 14.9883 18.3124 16.7893 16.9394C18.5904 15.5664 19.7734 13.7747 20.3387 11.5647C20.3476 11.5482 20.3518 11.5193 20.3518 11.4783C20.3518 11.3709 20.3097 11.2784 20.2258 11.1998C20.1419 11.1218 20.0425 11.0826 19.9275 11.0826Z" fill="#5490EB"/>
</svg>
