<svg width="32" height="29" viewBox="0 0 32 29" fill="none" xmlns="http://www.w3.org/2000/svg">
<path d="M27.6905 12.5795L31.0332 15.9222C31.2403 16.1334 31.3563 16.4174 31.3563 16.7133C31.3563 17.0091 31.2403 17.2931 31.0332 17.5044C30.8228 17.7131 30.5384 17.8302 30.2421 17.8302C29.9457 17.8302 29.6613 17.7131 29.451 17.5044L28.0136 16.0559L28.0136 22.2843C28.011 23.17 27.658 24.0187 27.0317 24.645C26.4054 25.2713 25.5567 25.6243 24.671 25.627L11.2002 25.627C11.3339 24.8902 11.3339 24.1353 11.2002 23.3985L24.671 23.3985C24.9665 23.3985 25.2499 23.2811 25.4589 23.0722C25.6678 22.8632 25.7852 22.5798 25.7852 22.2843L25.7852 16.0559L24.3479 17.5044C24.244 17.6082 24.1207 17.6906 23.9849 17.7469C23.8492 17.8031 23.7037 17.832 23.5568 17.832C23.4099 17.832 23.2644 17.8031 23.1287 17.7469C22.9929 17.6906 22.8696 17.6082 22.7657 17.5044C22.5559 17.2945 22.438 17.01 22.438 16.7133C22.438 16.5663 22.467 16.4209 22.5232 16.2851C22.5794 16.1494 22.6618 16.0261 22.7657 15.9222L26.1083 12.5795C26.3187 12.3708 26.6031 12.2537 26.8994 12.2537C27.1958 12.2537 27.4801 12.3708 27.6905 12.5795Z" fill="#C6C6C6"/>
<path d="M6.84388 3.34154L20.3147 3.34154C20.181 4.07833 20.181 4.83317 20.3147 5.56996L6.84388 5.56996C6.54837 5.56996 6.26497 5.68735 6.05601 5.89631C5.84706 6.10526 5.72967 6.38867 5.72967 6.68418L5.72967 12.9126L7.167 11.4641C7.37737 11.2554 7.66173 11.1383 7.95809 11.1383C8.25446 11.1383 8.53881 11.2554 8.74918 11.4641C8.95633 11.6754 9.07236 11.9594 9.07236 12.2552C9.07236 12.5511 8.95633 12.8351 8.74918 13.0463L5.40655 16.389C5.19618 16.5977 4.91182 16.7148 4.61546 16.7148C4.31909 16.7148 4.03474 16.5977 3.82437 16.389L0.481733 13.0463C0.271923 12.8365 0.154053 12.5519 0.154053 12.2552C0.154053 11.9585 0.271923 11.674 0.481733 11.4641C0.691543 11.2543 0.976106 11.1365 1.27282 11.1365C1.56954 11.1365 1.8541 11.2543 2.06391 11.4641L3.50125 12.9126L3.50125 6.68418C3.50389 5.79847 3.85691 4.94979 4.4832 4.3235C5.1095 3.69721 5.95817 3.34419 6.84388 3.34154Z" fill="#C6C6C6"/>
<path d="M26.8995 -0.000745035C27.781 -0.000745073 28.6427 0.260646 29.3756 0.750369C30.1085 1.24009 30.6798 1.93616 31.0171 2.75054C31.3544 3.56492 31.4427 4.46104 31.2707 5.32559C31.0988 6.19013 30.6743 6.98426 30.051 7.60756C29.4277 8.23087 28.6336 8.65534 27.769 8.82731C26.9045 8.99928 26.0083 8.91102 25.194 8.57369C24.3796 8.23636 23.6835 7.66511 23.1938 6.93219C22.7041 6.19927 22.4427 5.33758 22.4427 4.4561C22.4427 3.27407 22.9122 2.14046 23.7481 1.30464C24.5839 0.468816 25.7175 -0.000744983 26.8995 -0.000745035ZM0.158447 24.5119C0.158447 25.3934 0.419837 26.2551 0.909561 26.988C1.39929 27.7209 2.09535 28.2922 2.90973 28.6295C3.72411 28.9668 4.62024 29.0551 5.48478 28.8831C6.34932 28.7111 7.14346 28.2867 7.76676 27.6634C8.39006 27.0401 8.81453 26.2459 8.9865 25.3814C9.15847 24.5168 9.07021 23.6207 8.73288 22.8063C8.39555 21.992 7.82431 21.2959 7.09138 20.8062C6.35846 20.3164 5.49677 20.0551 4.61529 20.0551C3.43326 20.0551 2.29965 20.5246 1.46383 21.3604C0.628006 22.1963 0.158447 23.3299 0.158447 24.5119Z" fill="#C6C6C6"/>
</svg>
