<svg width="35" height="33" viewBox="0 0 35 33" fill="none" xmlns="http://www.w3.org/2000/svg">
<path d="M29.6153 0.460938H5.38441C3.95631 0.460938 2.5867 1.02825 1.57688 2.03807C0.567066 3.04788 -0.000244141 4.41749 -0.000244141 5.84559V21.9996C-0.000244141 23.4277 0.567066 24.7973 1.57688 25.8071C2.5867 26.8169 3.95631 27.3842 5.38441 27.3842H13.4614V30.0765H10.7691C10.412 30.0765 10.0696 30.2184 9.81718 30.4708C9.56473 30.7233 9.4229 31.0657 9.4229 31.4227C9.4229 31.7797 9.56473 32.1221 9.81718 32.3746C10.0696 32.627 10.412 32.7689 10.7691 32.7689H24.2307C24.5877 32.7689 24.9301 32.627 25.1826 32.3746C25.435 32.1221 25.5769 31.7797 25.5769 31.4227C25.5769 31.0657 25.435 30.7233 25.1826 30.4708C24.9301 30.2184 24.5877 30.0765 24.2307 30.0765H21.5384V27.3842H29.6153C31.0434 27.3842 32.4131 26.8169 33.4229 25.8071C34.4327 24.7973 35 23.4277 35 21.9996V5.84559C35 4.41749 34.4327 3.04788 33.4229 2.03807C32.4131 1.02825 31.0434 0.460938 29.6153 0.460938ZM18.846 30.0765H16.1537V27.3842H18.846V30.0765ZM21.5384 15.2687H18.2268L15.9249 18.7015C15.8029 18.8866 15.6371 19.0388 15.4422 19.1445C15.2473 19.2502 15.0293 19.3061 14.8076 19.3072H14.7268C14.4911 19.2962 14.2627 19.2215 14.066 19.0911C13.8693 18.9608 13.7115 18.7796 13.6095 18.5668L10.7691 12.8995L9.27482 15.8745C9.16444 16.0977 8.99363 16.2854 8.78182 16.4163C8.57002 16.5472 8.32572 16.616 8.07674 16.6149H5.38441C5.02738 16.6149 4.68498 16.4731 4.43253 16.2206C4.18007 15.9682 4.03825 15.6258 4.03825 15.2687C4.03825 14.9117 4.18007 14.5693 4.43253 14.3169C4.68498 14.0644 5.02738 13.9226 5.38441 13.9226H7.24211L9.57098 9.27831C9.69539 9.07177 9.87108 8.9009 10.081 8.78229C10.2909 8.66368 10.5279 8.60134 10.7691 8.60134C11.0102 8.60134 11.2472 8.66368 11.4571 8.78229C11.667 8.9009 11.8427 9.07177 11.9671 9.27831L14.9691 15.2822L16.3826 13.1822C16.5045 12.997 16.6703 12.8448 16.8652 12.7391C17.0602 12.6335 17.2782 12.5776 17.4999 12.5764H21.5384C21.8954 12.5764 22.2378 12.7182 22.4902 12.9707C22.7427 13.2231 22.8845 13.5655 22.8845 13.9226C22.8845 14.2796 22.7427 14.622 22.4902 14.8745C22.2378 15.1269 21.8954 15.2687 21.5384 15.2687ZM29.6153 19.3072H25.5769C25.2198 19.3072 24.8774 19.1654 24.625 18.9129C24.3725 18.6605 24.2307 18.3181 24.2307 17.9611C24.2307 17.604 24.3725 17.2616 24.625 17.0092C24.8774 16.7567 25.2198 16.6149 25.5769 16.6149H29.6153C29.9724 16.6149 30.3148 16.7567 30.5672 17.0092C30.8197 17.2616 30.9615 17.604 30.9615 17.9611C30.9615 18.3181 30.8197 18.6605 30.5672 18.9129C30.3148 19.1654 29.9724 19.3072 29.6153 19.3072ZM24.2307 13.9226C24.2307 13.5655 24.3725 13.2231 24.625 12.9707C24.8774 12.7182 25.2198 12.5764 25.5769 12.5764H28.2692C28.6262 12.5764 28.9686 12.7182 29.2211 12.9707C29.4735 13.2231 29.6153 13.5655 29.6153 13.9226C29.6153 14.2796 29.4735 14.622 29.2211 14.8745C28.9686 15.1269 28.6262 15.2687 28.2692 15.2687H25.5769C25.2198 15.2687 24.8774 15.1269 24.625 14.8745C24.3725 14.622 24.2307 14.2796 24.2307 13.9226ZM29.6153 11.2302H25.5769C25.2198 11.2302 24.8774 11.0884 24.625 10.836C24.3725 10.5835 24.2307 10.2411 24.2307 9.88408C24.2307 9.52706 24.3725 9.18466 24.625 8.9322C24.8774 8.67975 25.2198 8.53792 25.5769 8.53792H29.6153C29.9724 8.53792 30.3148 8.67975 30.5672 8.9322C30.8197 9.18466 30.9615 9.52706 30.9615 9.88408C30.9615 10.2411 30.8197 10.5835 30.5672 10.836C30.3148 11.0884 29.9724 11.2302 29.6153 11.2302Z" fill="#083983"/>
</svg>
