<svg width="42" height="42" viewBox="0 0 42 42" fill="none" xmlns="http://www.w3.org/2000/svg">
<path d="M13.3301 8.5H28.4863C30.6405 8.50019 32.3164 10.1029 32.3164 12V20C32.3164 20.2373 32.0907 20.5 31.7334 20.5C31.3762 20.4999 31.1514 20.2372 31.1514 20V12C31.1514 10.5874 29.915 9.50019 28.4863 9.5H13.3301C11.9013 9.50007 10.665 10.5873 10.665 12V28C10.665 29.4127 11.9013 30.4999 13.3301 30.5H19.8252C20.1825 30.5 20.4082 30.7627 20.4082 31C20.4082 31.2373 20.1825 31.5 19.8252 31.5H13.3301C11.1758 31.4999 9.5 29.8972 9.5 28V12C9.5 10.1028 11.1758 8.50007 13.3301 8.5ZM32.3975 24.6572C32.628 24.4443 33.0145 24.4444 33.2451 24.6572L33.3428 24.7471C33.4509 24.9055 33.4492 25.1006 33.335 25.2568L33.2676 25.333L26.7812 31.3242C26.6566 31.4335 26.5036 31.4902 26.3428 31.4902C26.2138 31.4902 26.1001 31.4601 26.0039 31.4014L25.9131 31.333L22.665 28.333C22.4573 28.141 22.4574 27.8492 22.665 27.6572C22.8667 27.4709 23.1883 27.4474 23.4199 27.5869L23.5137 27.6572L25.9922 29.9473L26.332 30.2607L26.6709 29.9473L32.3975 24.6572ZM15.4951 25.3457H18.7109C19.0678 25.3459 19.2927 25.6087 19.293 25.8457C19.293 26.0829 19.068 26.3455 18.7109 26.3457H15.4951C15.1379 26.3456 14.9131 26.0829 14.9131 25.8457C14.9134 25.6086 15.1381 25.3458 15.4951 25.3457ZM15.4951 21.8076H26.2881C26.6454 21.8076 26.871 22.0704 26.8711 22.3076C26.8711 22.5449 26.6454 22.8076 26.2881 22.8076H15.4951C15.1379 22.8075 14.9131 22.5448 14.9131 22.3076C14.9131 22.0704 15.1379 21.8077 15.4951 21.8076Z" fill="#083983" stroke="#083983"/>
<path d="M16.6685 13.5385L20.9821 18.1538L25.2957 13.5385" stroke="#083983" stroke-width="2" stroke-linecap="round"/>
</svg>
