<svg width="27" height="26" viewBox="0 0 27 26" fill="none" xmlns="http://www.w3.org/2000/svg">
<path d="M26.2942 18.0148L26.4094 18.1211C26.5555 18.3381 26.5249 18.6163 26.3177 18.8077L19.2863 25.3029C19.1444 25.4257 18.9703 25.4892 18.7877 25.4892C18.5921 25.4892 18.4251 25.4285 18.2943 25.3077L14.776 22.0577C14.5329 21.8332 14.5329 21.4893 14.776 21.2648C15.0418 21.0192 15.4853 21.0192 15.7511 21.2648L18.4367 23.7456L18.776 24.059L19.1153 23.7456L25.3192 18.0148C25.585 17.7692 26.0284 17.7692 26.2942 18.0148ZM12.4004 24.9167C12.4004 25.1998 12.1346 25.5 11.7277 25.5H4.69106C2.33731 25.5 0.5 23.7481 0.5 21.6667V4.33333C0.5 2.25191 2.33731 0.5 4.69106 0.5H21.1098C23.4635 0.5 25.3008 2.25191 25.3008 4.33333V13C25.3008 13.2831 25.035 13.5833 24.6281 13.5833C24.2211 13.5833 23.9553 13.2831 23.9553 13V4.33333C23.9553 2.82892 22.6379 1.66667 21.1098 1.66667H4.69106C3.16296 1.66667 1.84553 2.82892 1.84553 4.33333V21.6667C1.84553 23.1711 3.16296 24.3333 4.69106 24.3333H11.7277C12.1346 24.3333 12.4004 24.6336 12.4004 24.9167ZM18.7291 14.9167C19.136 14.9167 19.4018 15.2169 19.4018 15.5C19.4018 15.7831 19.136 16.0833 18.7291 16.0833H7.03659C6.62963 16.0833 6.36383 15.7831 6.36383 15.5C6.36383 15.2169 6.62963 14.9167 7.03659 14.9167H18.7291ZM6.36383 19.3333C6.36383 19.0502 6.62963 18.75 7.03659 18.75H10.5197C10.9267 18.75 11.1925 19.0502 11.1925 19.3333C11.1925 19.6164 10.9267 19.9167 10.5197 19.9167H7.03659C6.62963 19.9167 6.36383 19.6164 6.36383 19.3333Z" fill="#C6C6C6" stroke="#C6C6C6"/>
<path d="M8.30762 6L12.9807 11L17.6538 6" stroke="#C6C6C6" stroke-width="2" stroke-linecap="round"/>
</svg>
