<svg width="31" height="25" viewBox="0 0 31 25" fill="none" xmlns="http://www.w3.org/2000/svg">
<path d="M27.4815 0H3.5185C1.581 0 0 1.54665 0 3.45335V21.9574C0 23.6359 1.38983 25 3.1 25H27.9C29.6102 25 31 23.6359 31 21.9574V3.45335C31 1.55172 29.4242 0 27.4815 0ZM29.9667 21.9523C29.9667 23.073 29.0418 23.9807 27.9 23.9807H3.1C1.95817 23.9807 1.03333 23.073 1.03333 21.9523V5.36004L29.9667 5.30933V21.9574V21.9523ZM29.9667 4.29006L1.03333 4.34077V3.44828C1.03333 2.10446 2.14933 1.00913 3.5185 1.00913H27.4815C28.8507 1.00913 29.9667 2.10446 29.9667 3.44828V4.29006ZM21.39 2.73834C21.39 3.01724 21.1575 3.24544 20.8733 3.24544H19.7367C19.4525 3.24544 19.22 3.01724 19.22 2.73834C19.22 2.45943 19.4525 2.23124 19.7367 2.23124H20.8733C21.1575 2.23124 21.39 2.45943 21.39 2.73834ZM24.2317 2.73834C24.2317 3.01724 23.9992 3.24544 23.715 3.24544H22.5783C22.2942 3.24544 22.0617 3.01724 22.0617 2.73834C22.0617 2.45943 22.2942 2.23124 22.5783 2.23124H23.715C23.9992 2.23124 24.2317 2.45943 24.2317 2.73834ZM27.0733 2.73834C27.0733 3.01724 26.8408 3.24544 26.5567 3.24544H25.42C25.1358 3.24544 24.9033 3.01724 24.9033 2.73834C24.9033 2.45943 25.1358 2.23124 25.42 2.23124H26.5567C26.8408 2.23124 27.0733 2.45943 27.0733 2.73834ZM6.94917 14.6653C9.31033 14.6653 11.2272 12.7789 11.2272 10.4665C11.2272 8.15416 9.30517 6.26775 6.94917 6.26775C4.59317 6.26775 2.67117 8.15416 2.67117 10.4665C2.67117 12.7789 4.59317 14.6653 6.94917 14.6653ZM6.94917 7.27688C8.73683 7.27688 10.1938 8.70689 10.1938 10.4615C10.1938 12.216 8.73683 13.646 6.94917 13.646C5.1615 13.646 3.7045 12.216 3.7045 10.4615C3.7045 8.70689 5.1615 7.27688 6.94917 7.27688ZM4.78433 10.8418C4.557 10.6744 4.51567 10.355 4.68617 10.1318C4.85667 9.90872 5.18217 9.86308 5.4095 10.0355L6.43767 10.8063L8.11167 9.20892C8.31317 9.01623 8.64383 9.01623 8.84017 9.21907C9.0365 9.42191 9.0365 9.74138 8.82983 9.93408L6.8355 11.8357C6.73733 11.932 6.60817 11.9777 6.47383 11.9777C6.36533 11.9777 6.25167 11.9422 6.15867 11.8712L4.774 10.8367L4.78433 10.8418ZM13.8415 11.7444C13.8415 11.4655 14.074 11.2373 14.3582 11.2373H28.086C28.3702 11.2373 28.6027 11.4655 28.6027 11.7444C28.6027 12.0233 28.3702 12.2515 28.086 12.2515H14.3582C14.074 12.2515 13.8415 12.0233 13.8415 11.7444ZM15.6705 8.68154C15.6705 8.40264 15.903 8.17444 16.1872 8.17444H28.0912C28.3753 8.17444 28.6078 8.40264 28.6078 8.68154C28.6078 8.96044 28.3753 9.18864 28.0912 9.18864H16.1872C15.903 9.18864 15.6705 8.96044 15.6705 8.68154ZM24.3247 13.8692C21.9635 13.8692 20.0467 15.7556 20.0467 18.0679C20.0467 20.3803 21.9687 22.2667 24.3247 22.2667C26.6807 22.2667 28.6027 20.3803 28.6027 18.0679C28.6027 15.7556 26.6807 13.8692 24.3247 13.8692ZM24.3247 21.2576C22.537 21.2576 21.08 19.8276 21.08 18.073C21.08 16.3185 22.537 14.8884 24.3247 14.8884C26.1123 14.8884 27.5693 16.3185 27.5693 18.073C27.5693 19.8276 26.1123 21.2576 24.3247 21.2576ZM26.5463 16.8256C26.7427 17.0284 26.7427 17.3479 26.536 17.5406L24.5417 19.4422C24.4435 19.5385 24.3143 19.5842 24.18 19.5842C24.0715 19.5842 23.9578 19.5487 23.8648 19.4777L22.4802 18.4432C22.2528 18.2759 22.2115 17.9564 22.382 17.7333C22.5577 17.5101 22.878 17.4645 23.1053 17.6369L24.1335 18.4077L25.8075 16.8103C26.0142 16.6176 26.3397 16.6176 26.536 16.8205L26.5463 16.8256ZM2.666 19.3458C2.666 19.0669 2.8985 18.8387 3.18267 18.8387H16.9105C17.1947 18.8387 17.4272 19.0669 17.4272 19.3458C17.4272 19.6247 17.1947 19.8529 16.9105 19.8529H3.18267C2.8985 19.8529 2.666 19.6247 2.666 19.3458ZM2.666 16.283C2.666 16.0041 2.8985 15.7759 3.18267 15.7759H15.0867C15.3708 15.7759 15.6033 16.0041 15.6033 16.283C15.6033 16.5619 15.3708 16.7901 15.0867 16.7901H3.18267C2.8985 16.7901 2.666 16.5619 2.666 16.283Z" fill="#083983"/>
</svg>
