<svg width="42" height="42" viewBox="0 0 42 42" fill="none" xmlns="http://www.w3.org/2000/svg">
<path d="M33.4815 9H9.5185C7.581 9 6 10.5467 6 12.4533V30.9574C6 32.6359 7.38983 34 9.1 34H33.9C35.6102 34 37 32.6359 37 30.9574V12.4533C37 10.5517 35.4242 9 33.4815 9ZM35.9667 30.9523C35.9667 32.073 35.0418 32.9807 33.9 32.9807H9.1C7.95817 32.9807 7.03333 32.073 7.03333 30.9523V14.36L35.9667 14.3093V30.9574V30.9523ZM35.9667 13.2901L7.03333 13.3408V12.4483C7.03333 11.1045 8.14933 10.0091 9.5185 10.0091H33.4815C34.8507 10.0091 35.9667 11.1045 35.9667 12.4483V13.2901ZM27.39 11.7383C27.39 12.0172 27.1575 12.2454 26.8733 12.2454H25.7367C25.4525 12.2454 25.22 12.0172 25.22 11.7383C25.22 11.4594 25.4525 11.2312 25.7367 11.2312H26.8733C27.1575 11.2312 27.39 11.4594 27.39 11.7383ZM30.2317 11.7383C30.2317 12.0172 29.9992 12.2454 29.715 12.2454H28.5783C28.2942 12.2454 28.0617 12.0172 28.0617 11.7383C28.0617 11.4594 28.2942 11.2312 28.5783 11.2312H29.715C29.9992 11.2312 30.2317 11.4594 30.2317 11.7383ZM33.0733 11.7383C33.0733 12.0172 32.8408 12.2454 32.5567 12.2454H31.42C31.1358 12.2454 30.9033 12.0172 30.9033 11.7383C30.9033 11.4594 31.1358 11.2312 31.42 11.2312H32.5567C32.8408 11.2312 33.0733 11.4594 33.0733 11.7383ZM12.9492 23.6653C15.3103 23.6653 17.2272 21.7789 17.2272 19.4665C17.2272 17.1542 15.3052 15.2677 12.9492 15.2677C10.5932 15.2677 8.67117 17.1542 8.67117 19.4665C8.67117 21.7789 10.5932 23.6653 12.9492 23.6653ZM12.9492 16.2769C14.7368 16.2769 16.1938 17.7069 16.1938 19.4615C16.1938 21.216 14.7368 22.646 12.9492 22.646C11.1615 22.646 9.7045 21.216 9.7045 19.4615C9.7045 17.7069 11.1615 16.2769 12.9492 16.2769ZM10.7843 19.8418C10.557 19.6744 10.5157 19.355 10.6862 19.1318C10.8567 18.9087 11.1822 18.8631 11.4095 19.0355L12.4377 19.8063L14.1117 18.2089C14.3132 18.0162 14.6438 18.0162 14.8402 18.2191C15.0365 18.4219 15.0365 18.7414 14.8298 18.9341L12.8355 20.8357C12.7373 20.932 12.6082 20.9777 12.4738 20.9777C12.3653 20.9777 12.2517 20.9422 12.1587 20.8712L10.774 19.8367L10.7843 19.8418ZM19.8415 20.7444C19.8415 20.4655 20.074 20.2373 20.3582 20.2373H34.086C34.3702 20.2373 34.6027 20.4655 34.6027 20.7444C34.6027 21.0233 34.3702 21.2515 34.086 21.2515H20.3582C20.074 21.2515 19.8415 21.0233 19.8415 20.7444ZM21.6705 17.6815C21.6705 17.4026 21.903 17.1744 22.1872 17.1744H34.0912C34.3753 17.1744 34.6078 17.4026 34.6078 17.6815C34.6078 17.9604 34.3753 18.1886 34.0912 18.1886H22.1872C21.903 18.1886 21.6705 17.9604 21.6705 17.6815ZM30.3247 22.8692C27.9635 22.8692 26.0467 24.7556 26.0467 27.0679C26.0467 29.3803 27.9687 31.2667 30.3247 31.2667C32.6807 31.2667 34.6027 29.3803 34.6027 27.0679C34.6027 24.7556 32.6807 22.8692 30.3247 22.8692ZM30.3247 30.2576C28.537 30.2576 27.08 28.8276 27.08 27.073C27.08 25.3185 28.537 23.8884 30.3247 23.8884C32.1123 23.8884 33.5693 25.3185 33.5693 27.073C33.5693 28.8276 32.1123 30.2576 30.3247 30.2576ZM32.5463 25.8256C32.7427 26.0284 32.7427 26.3479 32.536 26.5406L30.5417 28.4422C30.4435 28.5385 30.3143 28.5842 30.18 28.5842C30.0715 28.5842 29.9578 28.5487 29.8648 28.4777L28.4802 27.4432C28.2528 27.2759 28.2115 26.9564 28.382 26.7333C28.5577 26.5101 28.878 26.4645 29.1053 26.6369L30.1335 27.4077L31.8075 25.8103C32.0142 25.6176 32.3397 25.6176 32.536 25.8205L32.5463 25.8256ZM8.666 28.3458C8.666 28.0669 8.8985 27.8387 9.18267 27.8387H22.9105C23.1947 27.8387 23.4272 28.0669 23.4272 28.3458C23.4272 28.6247 23.1947 28.8529 22.9105 28.8529H9.18267C8.8985 28.8529 8.666 28.6247 8.666 28.3458ZM8.666 25.283C8.666 25.0041 8.8985 24.7759 9.18267 24.7759H21.0867C21.3708 24.7759 21.6033 25.0041 21.6033 25.283C21.6033 25.5619 21.3708 25.7901 21.0867 25.7901H9.18267C8.8985 25.7901 8.666 25.5619 8.666 25.283Z" fill="#1F3870"/>
</svg>
