<svg width="27" height="31" viewBox="0 0 27 31" fill="none" xmlns="http://www.w3.org/2000/svg">
<path d="M23.6033 9.5288L24.8187 8.31337C25.291 7.84106 25.291 7.07523 24.8187 6.60316C24.3464 6.13084 23.5808 6.13084 23.1085 6.60316L21.8931 7.81859C19.8539 6.11949 17.3759 5.09303 14.7327 4.85274V2.4188H15.9018C16.5697 2.4188 17.1111 1.87719 17.1111 1.20928C17.1111 0.541374 16.5697 0 15.9018 0H11.1448C10.4769 0 9.93554 0.541374 9.93554 1.20928C9.93554 1.87719 10.4769 2.4188 11.1448 2.4188H12.3139V4.85274C5.69726 5.45442 0.421875 11.0129 0.421875 17.8985C0.421875 25.1395 6.28144 31 13.5234 31C20.7642 31 26.6247 25.1404 26.6247 17.8985C26.6247 14.8054 25.5595 11.8762 23.6033 9.5288ZM13.5232 28.5812C7.63287 28.5812 2.84044 23.789 2.84044 17.8985C2.84044 12.0081 7.63287 7.21596 13.5232 7.21596C19.4137 7.21596 24.2059 12.0081 24.2059 17.8985C24.2059 23.789 19.4137 28.5812 13.5232 28.5812ZM19.1278 12.2941C19.6001 12.7664 19.6001 13.5322 19.1278 14.0043L14.3784 18.7537C13.9061 19.226 13.1403 19.226 12.6682 18.7537C12.1959 18.2814 12.1959 17.5155 12.6682 17.0435L17.4173 12.2941C17.8896 11.8218 18.6555 11.8218 19.1278 12.2941Z" fill="black"/>
</svg>
