<svg width="32" height="32" viewBox="0 0 32 32" fill="none" xmlns="http://www.w3.org/2000/svg">
<rect x="5.33325" width="26.6667" height="24.5333" rx="5" fill="#083983"/>
<path fill-rule="evenodd" clip-rule="evenodd" d="M12.0332 8.57454C12.0332 7.82684 12.6394 7.2207 13.387 7.2207H24.2177C24.9654 7.2207 25.5715 7.82684 25.5715 8.57454C25.5715 9.32225 24.9654 9.92837 24.2177 9.92837H13.387C12.6394 9.92837 12.0332 9.32225 12.0332 8.57454ZM17.4485 15.795C17.4485 15.0473 18.0547 14.4411 18.8024 14.4411H24.2177C24.9654 14.4411 25.5715 15.0473 25.5715 15.795C25.5715 16.5427 24.9654 17.1488 24.2177 17.1488H18.8024C18.0547 17.1488 17.4485 16.5427 17.4485 15.795Z" fill="white"/>
<circle cx="7.46665" cy="18.1324" r="5.4" fill="#083983" stroke="white" stroke-width="2"/>
<path d="M4.92309 24.8671C7.11445 25.1832 6.65774 25.9933 12.7296 24.8671C16.6327 23.7409 16.9221 25.7431 17.0667 26.7441V31.9999H0.152591C0.152591 31.1239 -0.190738 28.8253 0.152591 26.7441C0.586105 24.1163 2.73173 24.5509 4.92309 24.8671Z" fill="#083983"/>
<path d="M17.6 20.2664C17.1733 22.3997 15.6445 23.9997 14.9333 24.533H18.6667C20.3732 22.3997 20.0888 20.0886 19.7333 19.1997C19.2 18.6664 18.0267 18.133 17.6 20.2664Z" fill="white"/>
</svg>
