<svg xmlns="http://www.w3.org/2000/svg" width="21.666" height="21.666" viewBox="0 0 21.666 21.666">
  <path id="Icon_awesome-user-circle" data-name="Icon awesome-user-circle" d="M10.833.563A10.833,10.833,0,1,0,21.666,11.4,10.831,10.831,0,0,0,10.833.563Zm0,4.193A3.844,3.844,0,1,1,6.989,8.6,3.844,3.844,0,0,1,10.833,4.756Zm0,15.026a8.371,8.371,0,0,1-6.4-2.979,4.87,4.87,0,0,1,4.3-2.612,1.069,1.069,0,0,1,.31.048,5.783,5.783,0,0,0,1.787.3,5.762,5.762,0,0,0,1.787-.3,1.069,1.069,0,0,1,.31-.048,4.87,4.87,0,0,1,4.3,2.612A8.371,8.371,0,0,1,10.833,19.782Z" transform="translate(0 -0.563)" fill="#1d2c49"/>
</svg>
