<svg width="42" height="42" viewBox="0 0 42 42" fill="none" xmlns="http://www.w3.org/2000/svg">
<path d="M29.3438 6H12.2812C11.4113 6.00077 10.5773 6.25618 9.96221 6.7102C9.34708 7.16422 9.00104 7.77979 9 8.42188V33.6094C9.00104 34.2515 9.34708 34.867 9.96221 35.321C10.5773 35.7751 11.4113 36.0305 12.2812 36.0312H29.3438C30.2137 36.0305 31.0477 35.7751 31.6628 35.321C32.2779 34.867 32.624 34.2515 32.625 33.6094V8.42188C32.624 7.77979 32.2779 7.16422 31.6628 6.7102C31.0477 6.25618 30.2137 6.00077 29.3438 6ZM25.0932 6.96875L24.5682 7.9375H17.0568L16.5318 6.96875H25.0932ZM31.3125 33.6094C31.3125 33.9948 31.1051 34.3644 30.7359 34.6369C30.3667 34.9094 29.8659 35.0625 29.3438 35.0625H12.2812C11.7591 35.0625 11.2583 34.9094 10.8891 34.6369C10.5199 34.3644 10.3125 33.9948 10.3125 33.6094V8.42188C10.3125 8.03648 10.5199 7.66687 10.8891 7.39436C11.2583 7.12185 11.7591 6.96875 12.2812 6.96875H15.1182L16.0028 8.60158C16.0515 8.69154 16.1357 8.76865 16.2443 8.82296C16.353 8.87727 16.4813 8.90629 16.6125 8.90625H25.0125C25.1437 8.90629 25.272 8.87727 25.3807 8.82296C25.4893 8.76865 25.5735 8.69154 25.6222 8.60158L26.5068 6.96875H29.3438C29.8659 6.96875 30.3667 7.12185 30.7359 7.39436C31.1051 7.66687 31.3125 8.03648 31.3125 8.42188V33.6094Z" fill="#1F3870" stroke="#1F3870" stroke-width="0.1"/>
<path d="M28.6876 12.7813H20.8126C20.7046 12.7812 20.5982 12.8009 20.503 12.8385C20.4077 12.8761 20.3265 12.9305 20.2666 12.9968L18.9541 14.4499C18.8821 14.5295 18.8438 14.6231 18.8438 14.7188C18.8438 14.8144 18.8821 14.908 18.9541 14.9876L20.2666 16.4407C20.3265 16.507 20.4077 16.5614 20.503 16.599C20.5982 16.6366 20.7046 16.6563 20.8126 16.6562H28.6876C28.8616 16.6562 29.0286 16.6052 29.1516 16.5144C29.2747 16.4235 29.3438 16.3003 29.3438 16.1719V13.2656C29.3438 13.1372 29.2747 13.014 29.1516 12.9231C29.0286 12.8323 28.8616 12.7813 28.6876 12.7813ZM28.0313 15.6875H21.1637L20.2876 14.7188L21.1624 13.75H28.0313V15.6875Z" fill="#1F3870" stroke="#1F3870" stroke-width="0.1"/>
<path d="M28.6876 19.5625H20.8126C20.7046 19.5625 20.5982 19.5822 20.503 19.6198C20.4077 19.6574 20.3265 19.7117 20.2666 19.778L18.9541 21.2312C18.8821 21.3108 18.8438 21.4043 18.8438 21.5C18.8438 21.5957 18.8821 21.6892 18.9541 21.7688L20.2666 23.222C20.3265 23.2883 20.4077 23.3426 20.503 23.3802C20.5982 23.4178 20.7046 23.4375 20.8126 23.4375H28.6876C28.8616 23.4375 29.0286 23.3865 29.1516 23.2956C29.2747 23.2048 29.3438 23.0816 29.3438 22.9531V20.0469C29.3438 19.9184 29.2747 19.7952 29.1516 19.7044C29.0286 19.6135 28.8616 19.5625 28.6876 19.5625ZM28.0313 22.4688H21.1637L20.2876 21.5L21.1624 20.5312H28.0313V22.4688Z" fill="#1F3870" stroke="#1F3870" stroke-width="0.1"/>
<path d="M28.6876 26.3438H20.8126C20.7046 26.3437 20.5982 26.3634 20.503 26.401C20.4077 26.4386 20.3265 26.493 20.2666 26.5593L18.9541 28.0124C18.8821 28.092 18.8438 28.1856 18.8438 28.2812C18.8438 28.3769 18.8821 28.4705 18.9541 28.5501L20.2666 30.0032C20.3265 30.0695 20.4077 30.1239 20.503 30.1615C20.5982 30.1991 20.7046 30.2188 20.8126 30.2188H28.6876C28.8616 30.2188 29.0286 30.1677 29.1516 30.0769C29.2747 29.986 29.3438 29.8628 29.3438 29.7344V26.8281C29.3438 26.6997 29.2747 26.5765 29.1516 26.4856C29.0286 26.3948 28.8616 26.3438 28.6876 26.3438ZM28.0313 29.25H21.1637L20.2876 28.2812L21.1624 27.3125H28.0313V29.25Z" fill="#1F3870" stroke="#1F3870" stroke-width="0.1"/>
<path d="M17.5311 14.7188C17.5289 14.2905 17.3346 13.8748 16.9784 13.5367C16.6222 13.1986 16.1242 12.9571 15.5624 12.85V11.3281H14.2499V12.85C13.6871 12.9558 13.1881 13.1969 12.8316 13.5353C12.4752 13.8737 12.2817 14.2901 12.2817 14.7188C12.2817 15.1474 12.4752 15.5638 12.8316 15.9022C13.1881 16.2406 13.6871 16.4817 14.2499 16.5875V19.6313C13.6871 19.737 13.1881 19.9781 12.8316 20.3165C12.4752 20.6549 12.2817 21.0714 12.2817 21.5C12.2817 21.9286 12.4752 22.3451 12.8316 22.6835C13.1881 23.0219 13.6871 23.263 14.2499 23.3687V26.4125C13.6871 26.5183 13.1881 26.7594 12.8316 27.0978C12.4752 27.4362 12.2817 27.8526 12.2817 28.2812C12.2817 28.7099 12.4752 29.1263 12.8316 29.4647C13.1881 29.8031 13.6871 30.0442 14.2499 30.15V31.6719H15.5624V30.15C16.1252 30.0442 16.6242 29.8031 16.9806 29.4647C17.337 29.1263 17.5305 28.7099 17.5305 28.2812C17.5305 27.8526 17.337 27.4362 16.9806 27.0978C16.6242 26.7594 16.1252 26.5183 15.5624 26.4125V23.3687C16.1252 23.263 16.6242 23.0219 16.9806 22.6835C17.337 22.3451 17.5305 21.9286 17.5305 21.5C17.5305 21.0714 17.337 20.6549 16.9806 20.3165C16.6242 19.9781 16.1252 19.737 15.5624 19.6313V16.5875C16.1242 16.4804 16.6222 16.2389 16.9784 15.9008C17.3346 15.5627 17.5289 15.147 17.5311 14.7188ZM16.2186 28.2812C16.2186 28.4729 16.1416 28.6601 15.9974 28.8195C15.8532 28.9788 15.6482 29.1029 15.4084 29.1763C15.1686 29.2496 14.9047 29.2688 14.6501 29.2314C14.3955 29.194 14.1616 29.1017 13.978 28.9663C13.7945 28.8308 13.6695 28.6582 13.6188 28.4702C13.5682 28.2823 13.5942 28.0875 13.6935 27.9105C13.7929 27.7335 13.9611 27.5822 14.1769 27.4758C14.3928 27.3693 14.6465 27.3125 14.9061 27.3125C15.2542 27.3125 15.5881 27.4146 15.8342 27.5962C16.0803 27.7779 16.2186 28.0243 16.2186 28.2812ZM16.2186 21.5C16.2186 21.6916 16.1416 21.8789 15.9974 22.0382C15.8532 22.1975 15.6482 22.3217 15.4084 22.395C15.1686 22.4683 14.9047 22.4875 14.6501 22.4501C14.3955 22.4128 14.1616 22.3205 13.978 22.185C13.7945 22.0495 13.6695 21.8769 13.6188 21.689C13.5682 21.5011 13.5942 21.3063 13.6935 21.1293C13.7929 20.9523 13.9611 20.801 14.1769 20.6945C14.3928 20.5881 14.6465 20.5312 14.9061 20.5312C15.2542 20.5312 15.5881 20.6333 15.8342 20.815C16.0803 20.9967 16.2186 21.2431 16.2186 21.5ZM14.9061 15.6875C14.6465 15.6875 14.3928 15.6307 14.1769 15.5242C13.9611 15.4178 13.7929 15.2665 13.6935 15.0895C13.5942 14.9125 13.5682 14.7177 13.6188 14.5298C13.6695 14.3418 13.7945 14.1692 13.978 14.0337C14.1616 13.8983 14.3955 13.806 14.6501 13.7686C14.9047 13.7312 15.1686 13.7504 15.4084 13.8237C15.6482 13.8971 15.8532 14.0212 15.9974 14.1805C16.1416 14.3399 16.2186 14.5271 16.2186 14.7188C16.2186 14.9757 16.0803 15.2221 15.8342 15.4038C15.5881 15.5854 15.2542 15.6875 14.9061 15.6875Z" fill="#1F3870" stroke="#1F3870" stroke-width="0.1"/>
</svg>
