<svg width="28" height="27" viewBox="0 0 28 27" fill="none" xmlns="http://www.w3.org/2000/svg">
<path d="M7.82861 5.50422V2.89101C7.82861 1.85096 8.60639 1 9.557 1H18.5447C19.4953 1 20.2731 1.85096 20.2731 2.89101V5.50422" stroke="#083983" stroke-width="2" stroke-miterlimit="22.9256" stroke-linecap="round" stroke-linejoin="round"/>
<path d="M25.9046 13.9551V23.9759C25.9046 24.944 25.1803 25.7365 24.2954 25.7365H3.805C2.9201 25.7365 2.1958 24.9442 2.1958 23.9759V14.0138" stroke="#083983" stroke-width="2" stroke-miterlimit="22.9256" stroke-linecap="round" stroke-linejoin="round"/>
<path d="M11.9052 16.9192C6.23064 16.5642 1.12354 14.7889 1.12354 11.5932V7.42662C1.12354 6.45694 1.84639 5.66602 2.73273 5.66602H25.3688C26.2551 5.66602 26.978 6.457 26.978 7.42662V11.5932C26.978 14.8089 21.8063 16.5864 16.0891 16.9257" stroke="#083983" stroke-width="2" stroke-miterlimit="22.9256" stroke-linecap="round" stroke-linejoin="round"/>
<path fill-rule="evenodd" clip-rule="evenodd" d="M12.0662 15.1719H16.0355V17.1966C16.0355 18.3102 15.2028 19.2213 14.1849 19.2213H13.9167C12.8989 19.2213 12.0662 18.3102 12.0662 17.1966V15.1719Z" stroke="#083983" stroke-width="2" stroke-miterlimit="22.9256" stroke-linecap="round" stroke-linejoin="round"/>
</svg>
