<svg width="33" height="33" viewBox="0 0 33 33" fill="none" xmlns="http://www.w3.org/2000/svg">
<mask id="mask0_1_2544" style="mask-type:luminance" maskUnits="userSpaceOnUse" x="0" y="0" width="33" height="33">
<path d="M32.5 32.5V0.499996H0.5V32.5H32.5Z" fill="white" stroke="white"/>
</mask>
<g mask="url(#mask0_1_2544)">
<path d="M13.188 3.79611C13.188 4.46636 12.6446 5.00977 11.9743 5.00977C11.3041 5.00977 10.7607 4.46636 10.7607 3.79611C10.7607 3.12587 11.3041 2.58246 11.9743 2.58246C12.6446 2.58246 13.188 3.12587 13.188 3.79611Z" stroke="#083983" stroke-miterlimit="10" stroke-linecap="round" stroke-linejoin="round"/>
<path d="M25.3433 20.3977C25.3433 21.0679 24.7999 21.6113 24.1296 21.6113C23.4594 21.6113 22.916 21.0679 22.916 20.3977C22.916 19.7274 23.4594 19.184 24.1296 19.184C24.7999 19.184 25.3433 19.7274 25.3433 20.3977Z" stroke="#083983" stroke-miterlimit="10" stroke-linecap="round" stroke-linejoin="round"/>
<path d="M6.77753 29.0399C9.42398 31.2117 12.8099 32.5156 16.5005 32.5156C16.7799 32.5156 17.058 32.5083 17.3341 32.493L16.9356 31.5257C16.6801 30.9055 16.888 30.1929 17.4312 29.8054C17.8111 29.536 18.0359 29.0989 18.0359 28.6332C18.0039 28.3552 18.1734 27.7213 17.6468 27.1596L16.8956 26.3587C16.4347 25.867 16.3768 25.1206 16.7566 24.5638L16.9582 24.2685C17.4977 23.4768 17.1279 22.3891 16.2185 22.0904L14.0378 21.3746C13.8375 21.3087 13.6692 21.1724 13.5634 20.99L12.0679 18.4175C11.7426 17.8567 10.9363 17.8461 10.5957 18.3983L10.2378 18.9783C10.0795 19.2345 9.80206 19.3861 9.50802 19.3861C8.94432 19.3861 8.53536 18.8538 8.67645 18.3111L9.45086 15.3467C9.51202 15.1105 9.67167 14.9116 9.88856 14.7998L11.4666 13.9875C11.8222 13.8053 11.9949 13.4074 11.9115 13.0383C11.7652 12.379 11.2343 11.8741 10.5691 11.7603C9.76352 11.5921 9.24751 11.6282 8.60194 11.2361L6.31212 9.84636C5.74596 9.50244 5.32882 8.9589 5.1439 8.32294L4.82596 7.23124C2.54142 9.90952 1.16309 13.3828 1.16309 17.1782C1.16309 21.262 2.75946 24.9726 5.36189 27.7211" stroke="#083983" stroke-miterlimit="10" stroke-linecap="round" stroke-linejoin="round"/>
<path d="M11.9862 0.482227C10.0532 0.475202 8.55217 2.15169 8.66734 4.08142C8.78491 6.05085 10.0929 7.82408 11.028 8.85269C11.5346 9.40995 12.4115 9.41163 12.9182 8.85443C13.8982 7.77684 15.289 5.8805 15.289 3.79731C15.289 1.97051 13.8115 0.488866 11.9862 0.482227Z" stroke="#083983" stroke-miterlimit="10" stroke-linecap="round" stroke-linejoin="round"/>
<path d="M28.2462 7.31554L27.6229 8.42388C27.386 8.84727 26.9453 9.14157 26.438 9.18224C25.9311 9.22284 25.4794 9.51823 25.2393 9.96592L24.6685 11.0297C24.3897 11.5493 23.8316 11.8566 23.2428 11.8147C22.8864 11.7908 22.8193 11.7794 22.6494 11.7794C21.8744 11.7794 21.1313 12.1034 20.6031 12.6788C19.561 13.8166 20.062 15.0243 19.2041 16.1641L17.9028 17.9004C17.6002 18.3049 17.6867 18.879 18.0958 19.1758L19.2234 19.9933C19.4422 20.1516 19.7204 20.2042 19.9824 20.1364C20.3517 20.0443 20.6375 19.9698 20.8649 19.9094C21.1271 18.3254 22.4733 17.0755 24.1427 17.0815C25.968 17.0882 27.4455 18.5698 27.4455 20.3966C27.4455 20.7818 27.3978 21.1605 27.314 21.5289C27.3254 21.5373 27.3369 21.5461 27.3488 21.5554L30.3192 23.8398C31.2925 21.8255 31.838 19.5649 31.838 17.178C31.838 13.4226 30.4874 9.98191 28.2462 7.31554Z" stroke="#083983" stroke-miterlimit="10" stroke-linecap="round" stroke-linejoin="round"/>
<path d="M22.6815 3.13694C20.7906 2.30311 18.6996 1.83982 16.5003 1.83982C15.8989 1.83982 15.3058 1.87501 14.7226 1.9423C15.0804 2.47159 15.2895 3.10968 15.2895 3.79668C15.2895 5.87987 13.8986 7.77621 12.9187 8.85381C12.4119 9.41094 11.5351 9.40933 11.0285 8.852C10.0934 7.82339 8.7853 6.05022 8.6678 4.08079C8.666 4.05069 8.66574 4.02092 8.66471 3.99101C7.21341 4.85533 5.9161 5.95135 4.82568 7.22972V7.23036L5.14363 8.32207C5.32861 8.95803 5.74569 9.50156 6.31184 9.84548L8.60167 11.2352C9.24723 11.6274 9.76325 11.5913 10.5688 11.7595C11.2341 11.8732 11.765 12.3781 11.9113 13.0374C11.9947 13.4066 11.8219 13.8044 11.4663 13.9867L9.88828 14.799C9.6714 14.9108 9.51175 15.1097 9.45058 15.3458L8.67618 18.3102C8.53516 18.8529 8.94405 19.3853 9.50775 19.3853C9.80179 19.3853 10.0793 19.2336 10.2376 18.9775L10.5954 18.3974C10.9361 17.8452 11.7423 17.8558 12.0676 18.4167L13.5631 20.9892C13.6689 21.1715 13.8372 21.3079 14.0375 21.3738L16.2182 22.0896C17.1276 22.3883 17.4974 23.4759 16.958 24.2676L16.7563 24.563C16.3765 25.1198 16.4344 25.8662 16.8954 26.3578L17.6465 27.1588C18.1732 27.7205 18.0036 28.3544 18.0357 28.6323C18.0357 29.098 17.8109 29.5351 17.431 29.8045C16.8878 30.1921 16.6798 30.9046 16.9353 31.5249L17.3338 32.4922C23.0604 32.1855 27.9533 28.7375 30.3183 23.8392L27.3479 21.5547C27.336 21.5454 27.3245 21.5367 27.3131 21.5283C26.9441 23.1523 25.8726 24.5748 25.0738 25.4531C24.5672 26.0103 23.6902 26.0086 23.1837 25.4513C22.2486 24.4227 20.9405 22.6495 20.823 20.6801C20.8073 20.4169 20.8226 20.1588 20.864 19.9087C20.6366 19.9691 20.3508 20.0436 19.9815 20.1357C19.7195 20.2036 19.4414 20.151 19.2225 19.9927L18.0949 19.1751C17.6858 18.8783 17.5993 18.3042 17.902 17.8997L19.2032 16.1634C20.0611 15.0236 19.5601 13.816 20.6022 12.6782C21.1305 12.1027 21.8735 11.7788 22.6485 11.7788C22.8184 11.7788 22.8855 11.7902 23.2419 11.814C23.8307 11.8559 24.3888 11.5486 24.6676 11.029L25.2384 9.96524C25.4785 9.51755 25.9302 9.22216 26.4372 9.18161C26.9445 9.14088 27.3851 8.84659 27.622 8.42319L28.2453 7.31486C27.1758 6.04204 25.9028 4.94621 24.4769 4.07602" stroke="#083983" stroke-miterlimit="10" stroke-linecap="round" stroke-linejoin="round"/>
<path d="M24.142 17.0838C22.2089 17.0768 20.7079 18.7533 20.8231 20.6829C20.9407 22.6523 22.2487 24.4256 23.1838 25.4543C23.6904 26.0115 24.5673 26.0132 25.074 25.456C26.0539 24.3784 27.4448 22.4821 27.4448 20.3989C27.4448 18.5721 25.9672 17.0904 24.142 17.0838Z" stroke="#083983" stroke-miterlimit="10" stroke-linecap="round" stroke-linejoin="round"/>
</g>
</svg>
